<?xml version="1.0" standalone="no" ?>
<!DOCTYPE svg PUBLIC "-//W3C//DTD SVG 1.1//EN" "http://www.w3.org/Graphics/SVG/1.1/DTD/svg11.dtd">
<svg width="391px" height="264px" viewBox="0 0 391 264" style="background-color: #ffffff00" xmlns="http://www.w3.org/2000/svg" xmlns:xlink="http://www.w3.org/1999/xlink" version="1.1" >
<text x="0" y="0" stroke="none" fill="#e1e100" transform="matrix(0.0666667 0 0 0.0666667 97.8606 79.1017)" font-style="normal" font-weight="normal" font-size="200px" font-family="Arial" >
S</text>
<text x="0" y="0" stroke="none" fill="#e1e100" transform="matrix(0.0666667 0 0 0.0666667 116.423 121.904)" font-style="normal" font-weight="normal" font-size="200px" font-family="Arial" >
S</text>
<text x="0" y="0" stroke="none" fill="#e1e100" transform="matrix(0.0666667 0 0 0.0666667 85.418 196.892)" font-style="normal" font-weight="normal" font-size="200px" font-family="Arial" >
S</text>
<text x="0" y="0" stroke="none" fill="#e1e100" transform="matrix(0.0666667 0 0 0.0666667 29.6704 150.138)" font-style="normal" font-weight="normal" font-size="200px" font-family="Arial" >
S</text>
<path stroke="none" fill="#000000" transform="matrix(0.0666667 0 0 0.0666667 -63.2 -120.333)" d="M 1295.21,3681.65 L 1287.83,3680.87 L 1285.16,3674.87 L 1516.07,3418.4 L 1519.19,3432.86 L 1295.21,3681.65 Z " />
<path stroke="none" fill="#000000" transform="matrix(0.0666667 0 0 0.0666667 -63.2 -120.333)" d="M 1368.27,3692.9 L 1359.35,3684.87 L 1529.26,3496.13 L 1538.18,3504.16 L 1368.27,3692.9 Z " />
<path stroke="none" fill="#000000" transform="matrix(0.0666667 0 0 0.0666667 -63.2 -120.333)" d="M 1519.19,3432.86 L 1516.07,3418.4 L 1830.95,3556.14 L 1830.94,3562.69 L 1824.53,3566.43 L 1519.19,3432.86 Z " />
<path stroke="none" fill="#000000" transform="matrix(0.0666667 0 0 0.0666667 -63.2 -120.333)" d="M 1836.56,3566.79 L 1830.94,3562.69 L 1830.95,3556.14 L 2140.66,3421.21 L 2146.25,3425.32 L 2145.5,3432.19 L 1836.56,3566.79 Z " />
<path stroke="none" fill="#000000" transform="matrix(0.0666667 0 0 0.0666667 -63.2 -120.333)" d="M 1891.3,3610.46 L 1886.51,3599.46 L 2136.15,3490.71 L 2140.94,3501.71 L 1891.3,3610.46 Z " />
<path stroke="none" fill="#000000" transform="matrix(0.0666667 0 0 0.0666667 -63.2 -120.333)" d="M 2152.59,3422.51 L 2146.25,3425.32 L 2140.66,3421.21 L 2177.15,3085.74 L 2183.44,3083.34 L 2189.08,3087.04 L 2152.59,3422.51 Z " />
<path stroke="none" fill="#000000" transform="matrix(0.0666667 0 0 0.0666667 -63.2 -120.333)" d="M 2184.24,3075.99 L 2183.44,3083.34 L 2177.15,3085.74 L 1920.53,2854.74 L 1935.03,2851.65 L 2184.24,3075.99 Z " />
<path stroke="none" fill="#000000" transform="matrix(0.0666667 0 0 0.0666667 -63.2 -120.333)" d="M 2195.71,3003 L 2187.68,3011.92 L 1998.59,2841.7 L 2006.62,2832.78 L 2195.71,3003 Z " />
<path stroke="none" fill="#000000" transform="matrix(0.0666667 0 0 0.0666667 -63.2 -120.333)" d="M 1935.03,2851.65 L 1920.53,2854.74 L 2060.57,2539.29 L 2067.29,2538.93 L 2071.01,2545.35 L 1935.03,2851.65 Z " />
<path stroke="none" fill="#000000" transform="matrix(0.0666667 0 0 0.0666667 -63.2 -120.333)" d="M 2071.01,2545.35 L 2067.29,2538.93 L 2070.96,2533.28 L 2414.48,2569.28 L 2404.58,2580.3 L 2071.01,2545.35 Z " />
<path stroke="none" fill="#000000" transform="matrix(0.0666667 0 0 0.0666667 -63.2 -120.333)" d="M 2105.01,2611.19 L 2106.26,2599.26 L 2359.07,2625.75 L 2357.82,2637.68 L 2105.01,2611.19 Z " />
<path stroke="none" fill="#000000" transform="matrix(0.0666667 0 0 0.0666667 -63.2 -120.333)" d="M 2404.58,2580.3 L 2414.48,2569.28 L 2467.8,2816.43 L 2456.07,2818.96 L 2404.58,2580.3 Z " />
<path stroke="none" fill="#000000" transform="matrix(0.0666667 0 0 0.0666667 -63.2 -120.333)" d="M 2189.08,3087.04 L 2183.44,3083.34 L 2184.24,3075.99 L 2388.54,2960.02 L 2394.47,2970.46 L 2189.08,3087.04 Z " />
<path stroke="none" fill="#000000" transform="matrix(0.0666667 0 0 0.0666667 -63.2 -120.333)" d="M 2145.5,3432.19 L 2146.25,3425.32 L 2152.59,3422.51 L 2426.1,3620.89 L 2424.74,3627.31 L 2418.42,3630.14 L 2145.5,3432.19 Z " />
<path stroke="none" fill="#000000" transform="matrix(0.0666667 0 0 0.0666667 -63.2 -120.333)" d="M 2430.26,3632.27 L 2424.74,3627.31 L 2426.1,3620.89 L 2665.67,3569.78 L 2668.18,3581.51 L 2430.26,3632.27 Z " />
<path stroke="none" fill="#000000" transform="matrix(0.0666667 0 0 0.0666667 -63.2 -120.333)" d="M 2812.92,3657.36 L 2823.31,3651.36 L 2936.86,3847.94 L 2933.2,3853.59 L 2925.82,3852.82 L 2812.92,3657.36 Z " />
<path stroke="none" fill="#000000" transform="matrix(0.0666667 0 0 0.0666667 -63.2 -120.333)" d="M 2925.82,3852.82 L 2933.2,3853.59 L 2935.61,3859.88 L 2704.5,4116.43 L 2701.41,4101.92 L 2925.82,3852.82 Z " />
<path stroke="none" fill="#000000" transform="matrix(0.0666667 0 0 0.0666667 -63.2 -120.333)" d="M 2852.61,3841.57 L 2861.52,3849.6 L 2691.51,4038.34 L 2682.59,4030.31 L 2852.61,3841.57 Z " />
<path stroke="none" fill="#000000" transform="matrix(0.0666667 0 0 0.0666667 -63.2 -120.333)" d="M 2701.41,4101.92 L 2704.5,4116.43 L 2388.98,3975.99 L 2388.98,3969.42 L 2395.4,3965.71 L 2701.41,4101.92 Z " />
<path stroke="none" fill="#000000" transform="matrix(0.0666667 0 0 0.0666667 -63.2 -120.333)" d="M 2418.42,3630.14 L 2424.74,3627.31 L 2430.26,3632.27 L 2395.4,3965.71 L 2388.98,3969.42 L 2383.37,3965.35 L 2418.42,3630.14 Z " />
<path stroke="none" fill="#000000" transform="matrix(0.0666667 0 0 0.0666667 -63.2 -120.333)" d="M 2353.48,3655.82 L 2365.41,3657.06 L 2337.09,3928.06 L 2325.15,3926.81 L 2353.48,3655.82 Z " />
<path stroke="none" fill="#000000" transform="matrix(0.0666667 0 0 0.0666667 -63.2 -120.333)" d="M 2383.37,3965.35 L 2388.98,3969.42 L 2388.98,3975.99 L 2080.33,4113.61 L 2074.73,4109.54 L 2075.45,4102.65 L 2383.37,3965.35 Z " />
<path stroke="none" fill="#000000" transform="matrix(0.0666667 0 0 0.0666667 -63.2 -120.333)" d="M 2068.4,4112.36 L 2074.73,4109.54 L 2080.33,4113.61 L 2045.29,4449.24 L 2039,4451.68 L 2033.35,4447.99 L 2068.4,4112.36 Z " />
<path stroke="none" fill="#000000" transform="matrix(0.0666667 0 0 0.0666667 -63.2 -120.333)" d="M 2033.35,4447.99 L 2039,4451.68 L 2038.23,4459.03 L 1747.42,4625.2 L 1733.81,4619.16 L 2033.35,4447.99 Z " />
<path stroke="none" fill="#000000" transform="matrix(0.0666667 0 0 0.0666667 -63.2 -120.333)" d="M 2028.11,4522.24 L 2034.06,4532.65 L 1813.75,4658.55 L 1807.8,4648.13 L 2028.11,4522.24 Z " />
<path stroke="none" fill="#000000" transform="matrix(0.0666667 0 0 0.0666667 -63.2 -120.333)" d="M 1733.81,4619.16 L 1747.42,4625.2 L 1819.79,4955.25 L 1809.93,4966.32 L 1733.81,4619.16 Z " />
<path stroke="none" fill="#000000" transform="matrix(0.0666667 0 0 0.0666667 -63.2 -120.333)" d="M 1809.93,4966.32 L 1819.79,4955.25 L 2153.29,4988.86 L 2157.02,4995.27 L 2153.36,5000.93 L 1809.93,4966.32 Z " />
<path stroke="none" fill="#000000" transform="matrix(0.0666667 0 0 0.0666667 -63.2 -120.333)" d="M 1865.11,4909.66 L 1866.32,4897.72 L 2119.13,4923.2 L 2117.92,4935.14 L 1865.11,4909.66 Z " />
<path stroke="none" fill="#000000" transform="matrix(0.0666667 0 0 0.0666667 -63.2 -120.333)" d="M 2163.74,4994.91 L 2157.02,4995.27 L 2153.29,4988.86 L 2244.51,4782.14 L 2255.48,4786.98 L 2163.74,4994.91 Z " />
<path stroke="none" fill="#000000" transform="matrix(0.0666667 0 0 0.0666667 -63.2 -120.333)" d="M 2038.23,4459.03 L 2039,4451.68 L 2045.29,4449.24 L 2227.25,4611.19 L 2219.27,4620.15 L 2038.23,4459.03 Z " />
<path stroke="none" fill="#000000" transform="matrix(0.0666667 0 0 0.0666667 -63.2 -120.333)" d="M 1824.53,3566.43 L 1830.94,3562.69 L 1836.56,3566.79 L 1802.55,3904.71 L 1796.24,3907.55 L 1790.7,3902.59 L 1824.53,3566.43 Z " />
<path stroke="none" fill="#000000" transform="matrix(0.0666667 0 0 0.0666667 -63.2 -120.333)" d="M 2075.45,4102.65 L 2074.73,4109.54 L 2068.4,4112.36 L 1794.87,3913.97 L 1796.24,3907.55 L 1802.55,3904.71 L 2075.45,4102.65 Z " />
<path stroke="none" fill="#000000" transform="matrix(0.0666667 0 0 0.0666667 -63.2 -120.333)" d="M 2085.68,4033.57 L 2078.63,4043.28 L 1857.89,3883.18 L 1864.94,3873.46 L 2085.68,4033.57 Z " />
<path stroke="none" fill="#000000" transform="matrix(0.0666667 0 0 0.0666667 -63.2 -120.333)" d="M 1790.7,3902.59 L 1796.24,3907.55 L 1794.87,3913.97 L 1547.18,3966.62 L 1544.68,3954.89 L 1790.7,3902.59 Z " />
<path stroke="none" fill="#000000" transform="matrix(0.0666667 0 0 0.0666667 -63.2 -120.333)" d="M 1284.37,3686.87 L 1287.83,3680.87 L 1295.21,3681.65 L 1415.58,3890.44 L 1405.18,3896.43 L 1284.37,3686.87 Z " />
<path stroke="none" fill="#000000" transform="matrix(0.0666667 0 0 0.0666667 -63.2 -120.333)" d="M 2935.61,3859.88 L 2933.2,3853.59 L 2936.86,3847.94 L 3272.89,3883.27 L 3275.31,3889.55 L 3271.64,3895.2 L 2935.61,3859.88 Z " />
<text x="0" y="0" stroke="none" fill="#e1e100" transform="matrix(0.0666667 0 0 0.0666667 166.029 127.125)" font-style="normal" font-weight="normal" font-size="200px" font-family="Arial" >
S</text>
<path stroke="none" fill="#000000" transform="matrix(0.0666667 0 0 0.0666667 -63.2 -120.333)" d="M 3271.64,3895.2 L 3275.31,3889.55 L 3282.68,3890.33 L 3449.82,4180.41 L 3443.77,4193.95 L 3271.64,3895.2 Z " />
<path stroke="none" fill="#000000" transform="matrix(0.0666667 0 0 0.0666667 -63.2 -120.333)" d="M 3346.07,3900.54 L 3356.47,3894.54 L 3483.14,4114.4 L 3472.75,4120.39 L 3346.07,3900.54 Z " />
<path stroke="none" fill="#000000" transform="matrix(0.0666667 0 0 0.0666667 -63.2 -120.333)" d="M 3443.77,4193.95 L 3449.82,4180.41 L 3777.9,4111.01 L 3788.92,4120.94 L 3443.77,4193.95 Z " />
<path stroke="none" fill="#000000" transform="matrix(0.0666667 0 0 0.0666667 -63.2 -120.333)" d="M 3788.92,4120.94 L 3777.9,4111.01 L 3812.98,3777.49 L 3819.4,3773.78 L 3825.05,3777.44 L 3788.92,4120.94 Z " />
<path stroke="none" fill="#000000" transform="matrix(0.0666667 0 0 0.0666667 -63.2 -120.333)" d="M 3732.49,4065.33 L 3720.56,4064.07 L 3747.13,3811.43 L 3759.06,3812.68 L 3732.49,4065.33 Z " />
<path stroke="none" fill="#000000" transform="matrix(0.0666667 0 0 0.0666667 -63.2 -120.333)" d="M 3819.05,3767.05 L 3819.4,3773.78 L 3812.98,3777.49 L 3596.41,3681.08 L 3601.29,3670.12 L 3819.05,3767.05 Z " />
<path stroke="none" fill="#000000" transform="matrix(0.0666667 0 0 0.0666667 -63.2 -120.333)" d="M 3426.37,3712.53 L 3435.29,3720.55 L 3282.68,3890.33 L 3275.31,3889.55 L 3272.89,3883.27 L 3426.37,3712.53 Z " />
<path stroke="none" fill="#000000" transform="matrix(0.0666667 0 0 0.0666667 -63.2 -120.333)" d="M 2070.96,2533.28 L 2067.29,2538.93 L 2060.57,2539.29 L 1891.83,2247.02 L 1898.76,2235.02 L 2070.96,2533.28 Z " />
<path stroke="none" fill="#000000" transform="matrix(0.0666667 0 0 0.0666667 -63.2 -120.333)" d="M 1898.76,2235.02 L 1891.83,2247.02 L 1554.76,2247.02 L 1551.29,2241.02 L 1554.76,2235.02 L 1898.76,2235.02 Z " />
<text x="0" y="0" stroke="none" fill="#000000" transform="matrix(0.0666667 0 0 0.0666667 10.6018 14.407)" font-style="normal" font-weight="normal" font-size="200px" font-family="Arial" >
C</text>
<text x="0" y="0" stroke="none" fill="#000000" transform="matrix(0.0666667 0 0 0.0666667 20.2307 17.3404)" font-style="normal" font-weight="normal" font-size="150px" font-family="Arial" >
4</text>
<text x="0" y="0" stroke="none" fill="#000000" transform="matrix(0.0666667 0 0 0.0666667 25.7922 14.407)" font-style="normal" font-weight="normal" font-size="200px" font-family="Arial" >
H</text>
<text x="0" y="0" stroke="none" fill="#000000" transform="matrix(0.0666667 0 0 0.0666667 35.4211 17.3404)" font-style="normal" font-weight="normal" font-size="150px" font-family="Arial" >
9</text>
<path stroke="none" fill="#000000" transform="matrix(0.0666667 0 0 0.0666667 -63.2 -120.333)" d="M 1554.76,2235.02 L 1551.29,2241.02 L 1544.36,2241.02 L 1445.6,2069.95 L 1455.99,2063.95 L 1554.76,2235.02 Z " />
<text x="0" y="0" stroke="none" fill="#000000" transform="matrix(0.0666667 0 0 0.0666667 10.6018 54.1287)" font-style="normal" font-weight="normal" font-size="200px" font-family="Arial" >
C</text>
<text x="0" y="0" stroke="none" fill="#000000" transform="matrix(0.0666667 0 0 0.0666667 20.2307 57.0621)" font-style="normal" font-weight="normal" font-size="150px" font-family="Arial" >
2</text>
<text x="0" y="0" stroke="none" fill="#000000" transform="matrix(0.0666667 0 0 0.0666667 25.7922 54.1287)" font-style="normal" font-weight="normal" font-size="200px" font-family="Arial" >
H</text>
<text x="0" y="0" stroke="none" fill="#000000" transform="matrix(0.0666667 0 0 0.0666667 35.4211 57.0621)" font-style="normal" font-weight="normal" font-size="150px" font-family="Arial" >
5</text>
<path stroke="none" fill="#000000" transform="matrix(0.0666667 0 0 0.0666667 -63.2 -120.333)" d="M 1544.36,2241.02 L 1551.29,2241.02 L 1554.76,2247.02 L 1447.34,2433.07 L 1436.95,2427.07 L 1544.36,2241.02 Z " />
<path stroke="none" fill="#000000" transform="matrix(0.0666667 0 0 0.0666667 -63.2 -120.333)" d="M 2153.36,5000.93 L 2157.02,4995.27 L 2163.74,4994.91 L 2332.49,5287.18 L 2325.56,5299.18 L 2153.36,5000.93 Z " />
<path stroke="none" fill="#000000" transform="matrix(0.0666667 0 0 0.0666667 -63.2 -120.333)" d="M 2325.56,5299.18 L 2332.49,5287.18 L 2669.56,5287.18 L 2673.02,5293.18 L 2669.56,5299.18 L 2325.56,5299.18 Z " />
<text x="0" y="0" stroke="none" fill="#000000" transform="matrix(0.0666667 0 0 0.0666667 121.654 217.885)" font-style="normal" font-weight="normal" font-size="200px" font-family="Arial" >
C</text>
<text x="0" y="0" stroke="none" fill="#000000" transform="matrix(0.0666667 0 0 0.0666667 131.283 220.818)" font-style="normal" font-weight="normal" font-size="150px" font-family="Arial" >
2</text>
<text x="0" y="0" stroke="none" fill="#000000" transform="matrix(0.0666667 0 0 0.0666667 136.844 217.885)" font-style="normal" font-weight="normal" font-size="200px" font-family="Arial" >
H</text>
<text x="0" y="0" stroke="none" fill="#000000" transform="matrix(0.0666667 0 0 0.0666667 146.473 220.818)" font-style="normal" font-weight="normal" font-size="150px" font-family="Arial" >
5</text>
<path stroke="none" fill="#000000" transform="matrix(0.0666667 0 0 0.0666667 -63.2 -120.333)" d="M 2679.95,5293.18 L 2673.02,5293.18 L 2669.56,5287.18 L 2784.12,5088.76 L 2794.51,5094.76 L 2679.95,5293.18 Z " />
<text x="0" y="0" stroke="none" fill="#000000" transform="matrix(0.0666667 0 0 0.0666667 121.654 257.606)" font-style="normal" font-weight="normal" font-size="200px" font-family="Arial" >
C</text>
<text x="0" y="0" stroke="none" fill="#000000" transform="matrix(0.0666667 0 0 0.0666667 131.283 260.54)" font-style="normal" font-weight="normal" font-size="150px" font-family="Arial" >
4</text>
<text x="0" y="0" stroke="none" fill="#000000" transform="matrix(0.0666667 0 0 0.0666667 136.844 257.606)" font-style="normal" font-weight="normal" font-size="200px" font-family="Arial" >
H</text>
<text x="0" y="0" stroke="none" fill="#000000" transform="matrix(0.0666667 0 0 0.0666667 146.473 260.54)" font-style="normal" font-weight="normal" font-size="150px" font-family="Arial" >
9</text>
<path stroke="none" fill="#000000" transform="matrix(0.0666667 0 0 0.0666667 -63.2 -120.333)" d="M 2669.56,5299.18 L 2673.02,5293.18 L 2679.95,5293.18 L 2802.34,5505.17 L 2791.95,5511.17 L 2669.56,5299.18 Z " />
<path stroke="none" fill="#000000" transform="matrix(0.0666667 0 0 0.0666667 -63.2 -120.333)" d="M 1285.16,3674.87 L 1287.83,3680.87 L 1284.37,3686.87 L 999.834,3686.87 L 999.834,3674.87 L 1285.16,3674.87 Z " />
<path stroke="#000000" stroke-width="12" fill="none" transform="matrix(0.0666667 0 0 0.0666667 -63.2 -120.333)" d="M 6547.95,3513.3 L 6596.3,3513.3 " />
<path stroke="#000000" stroke-width="12" fill="none" transform="matrix(0.0666667 0 0 0.0666667 -63.2 -120.333)" d="M 6596.3,3513.3 L 6596.3,4175.7 " />
<path stroke="#000000" stroke-width="12" fill="none" transform="matrix(0.0666667 0 0 0.0666667 -63.2 -120.333)" d="M 6596.3,4175.7 L 6547.95,4175.7 " />
<text x="0" y="0" stroke="none" fill="#000000" transform="matrix(0.0666667 0 0 0.0666667 380.47 161.119)" font-style="normal" font-weight="normal" font-size="150px" font-family="Arial" >
n</text>
<path stroke="#000000" stroke-width="12" fill="none" transform="matrix(0.0666667 0 0 0.0666667 -63.2 -120.333)" d="M 1292.85,4133.2 L 1244.5,4133.2 " />
<path stroke="#000000" stroke-width="12" fill="none" transform="matrix(0.0666667 0 0 0.0666667 -63.2 -120.333)" d="M 1244.5,4133.2 L 1244.5,3470.8 " />
<path stroke="#000000" stroke-width="12" fill="none" transform="matrix(0.0666667 0 0 0.0666667 -63.2 -120.333)" d="M 1244.5,3470.8 L 1292.85,3470.8 " />
<text x="0" y="0" stroke="none" fill="#000000" transform="matrix(0.0666667 0 0 0.0666667 227.791 134.313)" font-style="normal" font-weight="normal" font-size="200px" font-family="Arial" >
S</text>
<path stroke="none" fill="#000000" transform="matrix(0.0666667 0 0 0.0666667 -63.2 -120.333)" d="M 4117.66,3608.5 L 4117.31,3601.78 L 4123.8,3598.1 L 4348.84,3698.29 L 4343.96,3709.25 L 4117.66,3608.5 Z " />
<path stroke="none" fill="#000000" transform="matrix(0.0666667 0 0 0.0666667 -63.2 -120.333)" d="M 4500.68,3673.91 L 4491.76,3665.88 L 4654.38,3485.28 L 4661.75,3486.05 L 4664.42,3492.05 L 4500.68,3673.91 Z " />
<path stroke="none" fill="#000000" transform="matrix(0.0666667 0 0 0.0666667 -63.2 -120.333)" d="M 4665.22,3480.05 L 4661.75,3486.05 L 4654.38,3485.28 L 4486.83,3195.09 L 4489.75,3188.14 L 4496.68,3188.14 L 4665.22,3480.05 Z " />
<path stroke="none" fill="#000000" transform="matrix(0.0666667 0 0 0.0666667 -63.2 -120.333)" d="M 4702.7,3421.13 L 4692.31,3427.13 L 4556.06,3191.14 L 4566.45,3185.14 L 4702.7,3421.13 Z " />
<path stroke="none" fill="#000000" transform="matrix(0.0666667 0 0 0.0666667 -63.2 -120.333)" d="M 4485.82,3182.96 L 4489.75,3188.14 L 4486.83,3195.09 L 4162.35,3278.51 L 4151.42,3268.93 L 4485.82,3182.96 Z " />
<path stroke="none" fill="#000000" transform="matrix(0.0666667 0 0 0.0666667 -63.2 -120.333)" d="M 4151.42,3268.93 L 4162.35,3278.51 L 4123.8,3598.1 L 4117.31,3601.78 L 4111.71,3598.08 L 4151.42,3268.93 Z " />
<path stroke="none" fill="#000000" transform="matrix(0.0666667 0 0 0.0666667 -63.2 -120.333)" d="M 4205.11,3320.48 L 4217.02,3321.92 L 4187.58,3566.02 L 4175.66,3564.58 L 4205.11,3320.48 Z " />
<path stroke="none" fill="#000000" transform="matrix(0.0666667 0 0 0.0666667 -63.2 -120.333)" d="M 4664.42,3492.05 L 4661.75,3486.05 L 4665.22,3480.05 L 5002.29,3480.05 L 5005.75,3486.05 L 5003.08,3492.05 L 4664.42,3492.05 Z " />
<path stroke="none" fill="#000000" transform="matrix(0.0666667 0 0 0.0666667 -63.2 -120.333)" d="M 5013.13,3485.28 L 5005.75,3486.05 L 5002.29,3480.05 L 5170.82,3188.14 L 5177.75,3188.14 L 5180.77,3194.91 L 5013.13,3485.28 Z " />
<path stroke="none" fill="#000000" transform="matrix(0.0666667 0 0 0.0666667 -63.2 -120.333)" d="M 4975.2,3427.13 L 4964.81,3421.13 L 5101.06,3185.14 L 5111.45,3191.14 L 4975.2,3427.13 Z " />
<path stroke="none" fill="#000000" transform="matrix(0.0666667 0 0 0.0666667 -63.2 -120.333)" d="M 5181.61,3182.83 L 5177.75,3188.14 L 5170.82,3188.14 L 5002.29,2896.23 L 5005.75,2890.23 L 5012.28,2889.54 L 5181.61,3182.83 Z " />
<path stroke="none" fill="#000000" transform="matrix(0.0666667 0 0 0.0666667 -63.2 -120.333)" d="M 5001.39,2884.23 L 5005.75,2890.23 L 5002.29,2896.23 L 4665.22,2896.23 L 4661.75,2890.23 L 4666.11,2884.23 L 5001.39,2884.23 Z " />
<path stroke="none" fill="#000000" transform="matrix(0.0666667 0 0 0.0666667 -63.2 -120.333)" d="M 4655.22,2889.54 L 4661.75,2890.23 L 4665.22,2896.23 L 4496.68,3188.14 L 4489.75,3188.14 L 4485.82,3182.96 L 4655.22,2889.54 Z " />
<text x="0" y="0" stroke="none" fill="#000000" transform="matrix(0.0666667 0 0 0.0666667 281.416 134.313)" font-style="normal" font-weight="normal" font-size="200px" font-family="Arial" >
S</text>
<path stroke="none" fill="#000000" transform="matrix(0.0666667 0 0 0.0666667 -63.2 -120.333)" d="M 5003.08,3492.05 L 5005.75,3486.05 L 5013.13,3485.28 L 5174.72,3664.74 L 5165.8,3672.77 L 5003.08,3492.05 Z " />
<path stroke="none" fill="#000000" transform="matrix(0.0666667 0 0 0.0666667 -63.2 -120.333)" d="M 5322.19,3709.86 L 5317.31,3698.9 L 5543.77,3598.07 L 5550.19,3601.78 L 5550.24,3608.33 L 5322.19,3709.86 Z " />
<path stroke="none" fill="#000000" transform="matrix(0.0666667 0 0 0.0666667 -63.2 -120.333)" d="M 5555.79,3597.65 L 5550.19,3601.78 L 5543.77,3598.07 L 5508.72,3264.62 L 5519.75,3254.7 L 5555.79,3597.65 Z " />
<path stroke="none" fill="#000000" transform="matrix(0.0666667 0 0 0.0666667 -63.2 -120.333)" d="M 5489.88,3562.88 L 5477.94,3564.14 L 5451.39,3311.5 L 5463.32,3310.25 L 5489.88,3562.88 Z " />
<path stroke="none" fill="#000000" transform="matrix(0.0666667 0 0 0.0666667 -63.2 -120.333)" d="M 5519.75,3254.7 L 5508.72,3264.62 L 5180.77,3194.91 L 5177.75,3188.14 L 5181.61,3182.83 L 5519.75,3254.7 Z " />
<text x="0" y="0" stroke="none" fill="#000000" transform="matrix(0.0666667 0 0 0.0666667 272.789 55.7376)" font-style="normal" font-weight="normal" font-size="200px" font-family="Arial" >
N</text>
<text x="0" y="0" stroke="none" fill="#000000" transform="matrix(0.0666667 0 0 0.0666667 254.604 42.2577)" font-style="normal" font-weight="normal" font-size="200px" font-family="Arial" >
S</text>
<text x="0" y="0" stroke="none" fill="#000000" transform="matrix(0.0666667 0 0 0.0666667 235.682 55.7376)" font-style="normal" font-weight="normal" font-size="200px" font-family="Arial" >
N</text>
<path stroke="none" fill="#000000" transform="matrix(0.0666667 0 0 0.0666667 -63.2 -120.333)" d="M 5012.28,2889.54 L 5005.75,2890.23 L 5001.39,2884.23 L 5068.41,2677.96 L 5079.82,2681.67 L 5012.28,2889.54 Z " />
<path stroke="none" fill="#000000" transform="matrix(0.0666667 0 0 0.0666667 -63.2 -120.333)" d="M 4966.47,2830.16 L 4955.06,2826.45 L 5009.52,2658.83 L 5020.94,2662.54 L 4966.47,2830.16 Z " />
<path stroke="none" fill="#000000" transform="matrix(0.0666667 0 0 0.0666667 -63.2 -120.333)" d="M 5023.02,2490.96 L 5015.97,2500.67 L 4917.61,2429.21 L 4924.66,2419.5 L 5023.02,2490.96 Z " />
<path stroke="none" fill="#000000" transform="matrix(0.0666667 0 0 0.0666667 -63.2 -120.333)" d="M 4743.36,2419.13 L 4750.41,2428.83 L 4651.25,2500.87 L 4644.2,2491.17 L 4743.36,2419.13 Z " />
<path stroke="none" fill="#000000" transform="matrix(0.0666667 0 0 0.0666667 -63.2 -120.333)" d="M 4587.64,2681.54 L 4599.05,2677.84 L 4666.11,2884.23 L 4661.75,2890.23 L 4655.22,2889.54 L 4587.64,2681.54 Z " />
<path stroke="none" fill="#000000" transform="matrix(0.0666667 0 0 0.0666667 -63.2 -120.333)" d="M 4646.53,2662.41 L 4657.94,2658.7 L 4712.45,2826.45 L 4701.03,2830.16 L 4646.53,2662.41 Z " />
<path stroke="none" fill="#000000" transform="matrix(0.0666667 0 0 0.0666667 -63.2 -120.333)" d="M 4111.71,3598.08 L 4117.31,3601.78 L 4117.66,3608.5 L 3825.05,3777.44 L 3819.4,3773.78 L 3819.05,3767.05 L 4111.71,3598.08 Z " />
<text x="0" y="0" stroke="none" fill="#e1e100" transform="matrix(0.0666667 0 0 0.0666667 341.066 123.278)" font-style="normal" font-weight="normal" font-size="200px" font-family="Arial" >
S</text>
<path stroke="none" fill="#000000" transform="matrix(0.0666667 0 0 0.0666667 -63.2 -120.333)" d="M 6345.73,3832.61 L 6353.01,3831.84 L 6356.56,3837.84 L 6192.14,4136.26 L 6185.92,4122.67 L 6345.73,3832.61 Z " />
<path stroke="none" fill="#000000" transform="matrix(0.0666667 0 0 0.0666667 -63.2 -120.333)" d="M 6273.57,3836.84 L 6284.08,3842.63 L 6162.59,4063.14 L 6152.08,4057.35 L 6273.57,3836.84 Z " />
<path stroke="none" fill="#000000" transform="matrix(0.0666667 0 0 0.0666667 -63.2 -120.333)" d="M 6185.92,4122.67 L 6192.14,4136.26 L 5846.9,4063.23 L 5857.92,4053.29 L 6185.92,4122.67 Z " />
<path stroke="none" fill="#000000" transform="matrix(0.0666667 0 0 0.0666667 -63.2 -120.333)" d="M 5857.92,4053.29 L 5846.9,4063.23 L 5810.82,3720.19 L 5816.42,3716.06 L 5822.85,3719.77 L 5857.92,4053.29 Z " />
<path stroke="none" fill="#000000" transform="matrix(0.0666667 0 0 0.0666667 -63.2 -120.333)" d="M 5915.27,4006.36 L 5903.33,4007.61 L 5876.76,3754.97 L 5888.69,3753.71 L 5915.27,4006.36 Z " />
<path stroke="none" fill="#000000" transform="matrix(0.0666667 0 0 0.0666667 -63.2 -120.333)" d="M 5822.85,3719.77 L 5816.42,3716.06 L 5816.38,3709.51 L 6034.85,3612.26 L 6039.73,3623.23 L 5822.85,3719.77 Z " />
<path stroke="none" fill="#000000" transform="matrix(0.0666667 0 0 0.0666667 -63.2 -120.333)" d="M 6199.65,3664.62 L 6208.71,3656.74 L 6355.74,3825.84 L 6353.01,3831.84 L 6345.73,3832.61 L 6199.65,3664.62 Z " />
<path stroke="none" fill="#000000" transform="matrix(0.0666667 0 0 0.0666667 -63.2 -120.333)" d="M 6356.56,3837.84 L 6353.01,3831.84 L 6355.74,3825.84 L 6641.01,3825.84 L 6641.01,3837.84 L 6356.56,3837.84 Z " />
<path stroke="none" fill="#000000" transform="matrix(0.0666667 0 0 0.0666667 -63.2 -120.333)" d="M 5550.24,3608.33 L 5550.19,3601.78 L 5555.79,3597.65 L 5816.38,3709.51 L 5816.42,3716.06 L 5810.82,3720.19 L 5550.24,3608.33 Z " />
</svg>
