<?xml version="1.0" standalone="no" ?>
<!DOCTYPE svg PUBLIC "-//W3C//DTD SVG 1.1//EN" "http://www.w3.org/Graphics/SVG/1.1/DTD/svg11.dtd">
<svg width="326px" height="264px" viewBox="0 0 326 264" style="background-color: #ffffff00" xmlns="http://www.w3.org/2000/svg" xmlns:xlink="http://www.w3.org/1999/xlink" version="1.1" >
<text x="0" y="0" stroke="none" fill="#e1e100" transform="matrix(0.0666667 0 0 0.0666667 94.0188 89.2369)" font-style="normal" font-weight="normal" font-size="200px" font-family="Arial" >
S</text>
<text x="0" y="0" stroke="none" fill="#e1e100" transform="matrix(0.0666667 0 0 0.0666667 116.307 128.572)" font-style="normal" font-weight="normal" font-size="200px" font-family="Arial" >
S</text>
<text x="0" y="0" stroke="none" fill="#e1e100" transform="matrix(0.0666667 0 0 0.0666667 94.0188 203.712)" font-style="normal" font-weight="normal" font-size="200px" font-family="Arial" >
S</text>
<text x="0" y="0" stroke="none" fill="#e1e100" transform="matrix(0.0666667 0 0 0.0666667 35.926 164.362)" font-style="normal" font-weight="normal" font-size="200px" font-family="Arial" >
S</text>
<path stroke="none" fill="#000000" transform="matrix(0.0666667 0 0 0.0666667 -140.2 -106.333)" d="M 2521.1,3714 L 2513.69,3714 L 2510.63,3708 L 2706.3,3438.52 L 2710.88,3452.63 L 2521.1,3714 Z " />
<path stroke="none" fill="#000000" transform="matrix(0.0666667 0 0 0.0666667 -140.2 -106.333)" d="M 2592.33,3717.53 L 2582.62,3710.47 L 2726.54,3512.26 L 2736.25,3519.31 L 2592.33,3717.53 Z " />
<path stroke="none" fill="#000000" transform="matrix(0.0666667 0 0 0.0666667 -140.2 -106.333)" d="M 2710.88,3452.63 L 2706.3,3438.52 L 3023.49,3541.7 L 3024.18,3548.23 L 3018.18,3552.59 L 2710.88,3452.63 Z " />
<path stroke="none" fill="#000000" transform="matrix(0.0666667 0 0 0.0666667 -140.2 -106.333)" d="M 3030.18,3551.69 L 3024.18,3548.23 L 3023.49,3541.7 L 3305.56,3378.76 L 3311.56,3382.23 L 3311.56,3389.16 L 3030.18,3551.69 Z " />
<path stroke="none" fill="#000000" transform="matrix(0.0666667 0 0 0.0666667 -140.2 -106.333)" d="M 3086.92,3587.91 L 3080.91,3577.52 L 3308.56,3446.02 L 3314.56,3456.41 L 3086.92,3587.91 Z " />
<path stroke="none" fill="#000000" transform="matrix(0.0666667 0 0 0.0666667 -140.2 -106.333)" d="M 3317.56,3378.76 L 3311.56,3382.23 L 3305.56,3378.76 L 3305.56,3053.51 L 3311.56,3050.46 L 3317.56,3053.51 L 3317.56,3378.76 Z " />
<path stroke="none" fill="#000000" transform="matrix(0.0666667 0 0 0.0666667 -140.2 -106.333)" d="M 3311.56,3043.04 L 3311.56,3050.46 L 3305.56,3053.51 L 3036.08,2857.85 L 3050.19,2853.26 L 3311.56,3043.04 Z " />
<path stroke="none" fill="#000000" transform="matrix(0.0666667 0 0 0.0666667 -140.2 -106.333)" d="M 3315.08,2971.81 L 3308.03,2981.52 L 3109.79,2837.58 L 3116.84,2827.87 L 3315.08,2971.81 Z " />
<path stroke="none" fill="#000000" transform="matrix(0.0666667 0 0 0.0666667 -140.2 -106.333)" d="M 3050.19,2853.26 L 3036.08,2857.85 L 3138.91,2541.02 L 3145.56,2539.97 L 3149.92,2545.97 L 3050.19,2853.26 Z " />
<path stroke="none" fill="#000000" transform="matrix(0.0666667 0 0 0.0666667 -140.2 -106.333)" d="M 3149.92,2545.97 L 3145.56,2539.97 L 3148.61,2533.97 L 3481.69,2533.97 L 3472.97,2545.97 L 3149.92,2545.97 Z " />
<path stroke="none" fill="#000000" transform="matrix(0.0666667 0 0 0.0666667 -140.2 -106.333)" d="M 3188.96,2605.69 L 3188.96,2593.69 L 3433.95,2593.69 L 3433.95,2605.69 L 3188.96,2605.69 Z " />
<path stroke="none" fill="#000000" transform="matrix(0.0666667 0 0 0.0666667 -140.2 -106.333)" d="M 3472.97,2545.97 L 3481.69,2533.97 L 3555.23,2760.08 L 3543.82,2763.79 L 3472.97,2545.97 Z " />
<path stroke="none" fill="#000000" transform="matrix(0.0666667 0 0 0.0666667 -140.2 -106.333)" d="M 3317.56,3053.51 L 3311.56,3050.46 L 3311.56,3043.04 L 3489.57,2913.78 L 3496.62,2923.5 L 3317.56,3053.51 Z " />
<path stroke="none" fill="#000000" transform="matrix(0.0666667 0 0 0.0666667 -140.2 -106.333)" d="M 3311.56,3389.16 L 3311.56,3382.23 L 3317.56,3378.76 L 3599.63,3541.7 L 3598.94,3548.23 L 3592.94,3551.69 L 3311.56,3389.16 Z " />
<path stroke="none" fill="#000000" transform="matrix(0.0666667 0 0 0.0666667 -140.2 -106.333)" d="M 3604.94,3552.59 L 3598.94,3548.23 L 3599.63,3541.7 L 3817.86,3470.66 L 3821.58,3482.07 L 3604.94,3552.59 Z " />
<path stroke="none" fill="#000000" transform="matrix(0.0666667 0 0 0.0666667 -140.2 -106.333)" d="M 3976.01,3540.68 L 3985.72,3533.62 L 4112.75,3708.36 L 4109.43,3714 L 4102.01,3714 L 3976.01,3540.68 Z " />
<path stroke="none" fill="#000000" transform="matrix(0.0666667 0 0 0.0666667 -140.2 -106.333)" d="M 4102.01,3714 L 4109.43,3714 L 4112.21,3720.38 L 3916.59,3989.48 L 3912.01,3975.37 L 4102.01,3714 Z " />
<path stroke="none" fill="#000000" transform="matrix(0.0666667 0 0 0.0666667 -140.2 -106.333)" d="M 4030.73,3710.47 L 4040.43,3717.53 L 3896.34,3915.74 L 3886.64,3908.68 L 4030.73,3710.47 Z " />
<path stroke="none" fill="#000000" transform="matrix(0.0666667 0 0 0.0666667 -140.2 -106.333)" d="M 3912.01,3975.37 L 3916.59,3989.48 L 3599.63,3886.53 L 3598.94,3880 L 3604.94,3875.64 L 3912.01,3975.37 Z " />
<path stroke="none" fill="#000000" transform="matrix(0.0666667 0 0 0.0666667 -140.2 -106.333)" d="M 3592.94,3551.69 L 3598.94,3548.23 L 3604.94,3552.59 L 3604.94,3875.64 L 3598.94,3880 L 3592.94,3876.54 L 3592.94,3551.69 Z " />
<path stroke="none" fill="#000000" transform="matrix(0.0666667 0 0 0.0666667 -140.2 -106.333)" d="M 3533.22,3582.7 L 3545.22,3582.7 L 3545.22,3845.51 L 3533.22,3845.51 L 3533.22,3582.7 Z " />
<path stroke="none" fill="#000000" transform="matrix(0.0666667 0 0 0.0666667 -140.2 -106.333)" d="M 3592.94,3876.54 L 3598.94,3880 L 3599.63,3886.53 L 3317.56,4049.24 L 3311.56,4045.77 L 3311.56,4038.85 L 3592.94,3876.54 Z " />
<path stroke="none" fill="#000000" transform="matrix(0.0666667 0 0 0.0666667 -140.2 -106.333)" d="M 3305.56,4049.24 L 3311.56,4045.77 L 3317.56,4049.24 L 3317.56,4374.49 L 3311.56,4377.54 L 3305.56,4374.49 L 3305.56,4049.24 Z " />
<path stroke="none" fill="#000000" transform="matrix(0.0666667 0 0 0.0666667 -140.2 -106.333)" d="M 3305.56,4374.49 L 3311.56,4377.54 L 3311.56,4384.96 L 3050.19,4574.97 L 3036.08,4570.39 L 3305.56,4374.49 Z " />
<path stroke="none" fill="#000000" transform="matrix(0.0666667 0 0 0.0666667 -140.2 -106.333)" d="M 3308.03,4446.54 L 3315.09,4456.25 L 3116.87,4600.34 L 3109.81,4590.64 L 3308.03,4446.54 Z " />
<path stroke="none" fill="#000000" transform="matrix(0.0666667 0 0 0.0666667 -140.2 -106.333)" d="M 3036.08,4570.39 L 3050.19,4574.97 L 3149.92,4882.26 L 3141.2,4894.26 L 3036.08,4570.39 Z " />
<path stroke="none" fill="#000000" transform="matrix(0.0666667 0 0 0.0666667 -140.2 -106.333)" d="M 3141.2,4894.26 L 3149.92,4882.26 L 3472.97,4882.26 L 3477.33,4888.26 L 3474.27,4894.26 L 3141.2,4894.26 Z " />
<path stroke="none" fill="#000000" transform="matrix(0.0666667 0 0 0.0666667 -140.2 -106.333)" d="M 3188.96,4834.55 L 3188.96,4822.55 L 3433.95,4822.55 L 3433.95,4834.55 L 3188.96,4834.55 Z " />
<path stroke="none" fill="#000000" transform="matrix(0.0666667 0 0 0.0666667 -140.2 -106.333)" d="M 3483.98,4887.21 L 3477.33,4888.26 L 3472.97,4882.26 L 3539.01,4679.24 L 3550.42,4682.95 L 3483.98,4887.21 Z " />
<path stroke="none" fill="#000000" transform="matrix(0.0666667 0 0 0.0666667 -140.2 -106.333)" d="M 3311.56,4384.96 L 3311.56,4377.54 L 3317.56,4374.49 L 3505.59,4511.18 L 3498.54,4520.89 L 3311.56,4384.96 Z " />
<path stroke="none" fill="#000000" transform="matrix(0.0666667 0 0 0.0666667 -140.2 -106.333)" d="M 3018.18,3552.59 L 3024.18,3548.23 L 3030.18,3551.69 L 3030.18,3876.54 L 3024.18,3880 L 3018.18,3875.64 L 3018.18,3552.59 Z " />
<path stroke="none" fill="#000000" transform="matrix(0.0666667 0 0 0.0666667 -140.2 -106.333)" d="M 3311.56,4038.85 L 3311.56,4045.77 L 3305.56,4049.24 L 3023.49,3886.53 L 3024.18,3880 L 3030.18,3876.54 L 3311.56,4038.85 Z " />
<path stroke="none" fill="#000000" transform="matrix(0.0666667 0 0 0.0666667 -140.2 -106.333)" d="M 3314.56,3971.63 L 3308.56,3982.03 L 3080.9,3850.71 L 3086.89,3840.31 L 3314.56,3971.63 Z " />
<path stroke="none" fill="#000000" transform="matrix(0.0666667 0 0 0.0666667 -140.2 -106.333)" d="M 3018.18,3875.64 L 3024.18,3880 L 3023.49,3886.53 L 2796.12,3960.32 L 2792.42,3948.91 L 3018.18,3875.64 Z " />
<path stroke="none" fill="#000000" transform="matrix(0.0666667 0 0 0.0666667 -140.2 -106.333)" d="M 2510.63,3720 L 2513.69,3714 L 2521.1,3714 L 2655.48,3899.07 L 2645.77,3906.13 L 2510.63,3720 Z " />
<path stroke="none" fill="#000000" transform="matrix(0.0666667 0 0 0.0666667 -140.2 -106.333)" d="M 4112.21,3720.38 L 4109.43,3714 L 4112.75,3708.36 L 4393.19,3742.42 L 4394.96,3748.68 L 4390.62,3754.2 L 4112.21,3720.38 Z " />
<text x="0" y="0" stroke="none" fill="#e1e100" transform="matrix(0.0666667 0 0 0.0666667 165.66 135.015)" font-style="normal" font-weight="normal" font-size="200px" font-family="Arial" >
S</text>
<path stroke="none" fill="#000000" transform="matrix(0.0666667 0 0 0.0666667 -140.2 -106.333)" d="M 4390.62,3754.2 L 4394.96,3748.68 L 4402.11,3750.66 L 4515.35,4053.23 L 4507.16,4065.6 L 4390.62,3754.2 Z " />
<path stroke="none" fill="#000000" transform="matrix(0.0666667 0 0 0.0666667 -140.2 -106.333)" d="M 4460.49,3770.51 L 4471.73,3766.3 L 4557.61,3995.77 L 4546.37,3999.98 L 4460.49,3770.51 Z " />
<path stroke="none" fill="#000000" transform="matrix(0.0666667 0 0 0.0666667 -140.2 -106.333)" d="M 4507.16,4065.6 L 4515.35,4053.23 L 4837.95,4039.27 L 4847.18,4050.88 L 4507.16,4065.6 Z " />
<path stroke="none" fill="#000000" transform="matrix(0.0666667 0 0 0.0666667 -140.2 -106.333)" d="M 4847.18,4050.88 L 4837.95,4039.27 L 4924.4,3727.93 L 4931.35,3725.33 L 4936.31,3729.88 L 4847.18,4050.88 Z " />
<path stroke="none" fill="#000000" transform="matrix(0.0666667 0 0 0.0666667 -140.2 -106.333)" d="M 4802.4,3988.88 L 4790.84,3985.67 L 4856.39,3749.58 L 4867.96,3752.79 L 4802.4,3988.88 Z " />
<path stroke="none" fill="#000000" transform="matrix(0.0666667 0 0 0.0666667 -140.2 -106.333)" d="M 4932.11,3718.64 L 4931.35,3725.33 L 4924.4,3727.93 L 4740.49,3606.25 L 4747.12,3596.24 L 4932.11,3718.64 Z " />
<path stroke="none" fill="#000000" transform="matrix(0.0666667 0 0 0.0666667 -140.2 -106.333)" d="M 4566.11,3604.92 L 4573.58,3614.31 L 4402.11,3750.66 L 4394.96,3748.68 L 4393.19,3742.42 L 4566.11,3604.92 Z " />
<path stroke="none" fill="#000000" transform="matrix(0.0666667 0 0 0.0666667 -140.2 -106.333)" d="M 4936.31,3729.88 L 4931.35,3725.33 L 4932.11,3718.64 L 5237.11,3604.49 L 5242.08,3609.03 L 5241.32,3615.73 L 4936.31,3729.88 Z " />
<text x="0" y="0" stroke="none" fill="#e1e100" transform="matrix(0.0666667 0 0 0.0666667 223.26 151.676)" font-style="normal" font-weight="normal" font-size="200px" font-family="Arial" >
S</text>
<path stroke="none" fill="#000000" transform="matrix(0.0666667 0 0 0.0666667 -140.2 -106.333)" d="M 5241.32,3615.73 L 5242.08,3609.03 L 5249.02,3606.44 L 5441.97,3734.21 L 5435.35,3744.21 L 5241.32,3615.73 Z " />
<path stroke="none" fill="#000000" transform="matrix(0.0666667 0 0 0.0666667 -140.2 -106.333)" d="M 5596.88,3737.56 L 5589.41,3728.17 L 5771.09,3583.7 L 5778.23,3585.68 L 5779.57,3592.28 L 5596.88,3737.56 Z " />
<path stroke="none" fill="#000000" transform="matrix(0.0666667 0 0 0.0666667 -140.2 -106.333)" d="M 5782.78,3580.72 L 5778.23,3585.68 L 5771.09,3583.7 L 5658.07,3281.13 L 5662.17,3274.95 L 5668.72,3275.35 L 5782.78,3580.72 Z " />
<path stroke="none" fill="#000000" transform="matrix(0.0666667 0 0 0.0666667 -140.2 -106.333)" d="M 5712.74,3563.85 L 5701.5,3568.05 L 5615.79,3338.57 L 5627.03,3334.38 L 5712.74,3563.85 Z " />
<path stroke="none" fill="#000000" transform="matrix(0.0666667 0 0 0.0666667 -140.2 -106.333)" d="M 5658.45,3269.11 L 5662.17,3274.95 L 5658.07,3281.13 L 5335.25,3295.09 L 5330.63,3289.29 L 5333.83,3283.14 L 5658.45,3269.11 Z " />
<path stroke="none" fill="#000000" transform="matrix(0.0666667 0 0 0.0666667 -140.2 -106.333)" d="M 5324.13,3290.26 L 5330.63,3289.29 L 5335.25,3295.09 L 5249.02,3606.44 L 5242.08,3609.03 L 5237.11,3604.49 L 5324.13,3290.26 Z " />
<path stroke="none" fill="#000000" transform="matrix(0.0666667 0 0 0.0666667 -140.2 -106.333)" d="M 5370.81,3345.47 L 5382.38,3348.68 L 5316.99,3584.78 L 5305.42,3581.58 L 5370.81,3345.47 Z " />
<path stroke="none" fill="#000000" transform="matrix(0.0666667 0 0 0.0666667 -140.2 -106.333)" d="M 5668.72,3275.35 L 5662.17,3274.95 L 5658.45,3269.11 L 5808.3,2980.94 L 5822.14,2980.33 L 5668.72,3275.35 Z " />
<path stroke="none" fill="#000000" transform="matrix(0.0666667 0 0 0.0666667 -140.2 -106.333)" d="M 5822.14,2980.33 L 5808.3,2980.94 L 5633.77,2707.03 L 5636.97,2700.88 L 5643.46,2699.91 L 5822.14,2980.33 Z " />
<path stroke="none" fill="#000000" transform="matrix(0.0666667 0 0 0.0666667 -140.2 -106.333)" d="M 5299.1,2714.82 L 5305.66,2715.22 L 5309.38,2721.06 L 5159.29,3009.23 L 5145.45,3009.84 L 5299.1,2714.82 Z " />
<path stroke="none" fill="#000000" transform="matrix(0.0666667 0 0 0.0666667 -140.2 -106.333)" d="M 5145.45,3009.84 L 5159.29,3009.23 L 5333.83,3283.14 L 5330.63,3289.29 L 5324.13,3290.26 L 5145.45,3009.84 Z " />
<text x="0" y="0" stroke="none" fill="#e1e100" transform="matrix(0.0666667 0 0 0.0666667 218.62 45.4014)" font-style="normal" font-weight="normal" font-size="200px" font-family="Arial" >
S</text>
<path stroke="none" fill="#000000" transform="matrix(0.0666667 0 0 0.0666667 -140.2 -106.333)" d="M 5643.46,2699.91 L 5636.97,2700.88 L 5632.35,2695.08 L 5718.8,2383.73 L 5725.75,2381.13 L 5730.71,2385.68 L 5643.46,2699.91 Z " />
<path stroke="none" fill="#000000" transform="matrix(0.0666667 0 0 0.0666667 -140.2 -106.333)" d="M 5596.81,2644.69 L 5585.24,2641.48 L 5650.8,2405.38 L 5662.36,2408.59 L 5596.81,2644.69 Z " />
<path stroke="none" fill="#000000" transform="matrix(0.0666667 0 0 0.0666667 -140.2 -106.333)" d="M 5360.52,2260.72 L 5367.98,2270.11 L 5196.51,2406.46 L 5189.36,2404.48 L 5188.02,2397.89 L 5360.52,2260.72 Z " />
<path stroke="none" fill="#000000" transform="matrix(0.0666667 0 0 0.0666667 -140.2 -106.333)" d="M 5184.82,2409.45 L 5189.36,2404.48 L 5196.51,2406.46 L 5309.75,2709.03 L 5305.66,2715.22 L 5299.1,2714.82 L 5184.82,2409.45 Z " />
<path stroke="none" fill="#000000" transform="matrix(0.0666667 0 0 0.0666667 -140.2 -106.333)" d="M 5254.89,2426.31 L 5266.13,2422.1 L 5352.01,2651.57 L 5340.77,2655.78 L 5254.89,2426.31 Z " />
<text x="0" y="0" stroke="none" fill="#ff0000" transform="matrix(0.0666667 0 0 0.0666667 176.003 100.473)" font-style="normal" font-weight="normal" font-size="200px" font-family="Arial" >
O</text>
<path stroke="none" fill="#000000" transform="matrix(0.0666667 0 0 0.0666667 -140.2 -106.333)" d="M 5170.64,3032.62 L 5171.17,3044.61 L 4922.46,3055.54 L 4921.93,3043.55 L 5170.64,3032.62 Z " />
<path stroke="none" fill="#000000" transform="matrix(0.0666667 0 0 0.0666667 -140.2 -106.333)" d="M 5168.04,2972.94 L 5168.57,2984.93 L 4919.84,2995.86 L 4919.31,2983.87 L 5168.04,2972.94 Z " />
<text x="0" y="0" stroke="none" fill="#ff0000" transform="matrix(0.0666667 0 0 0.0666667 264.399 96.6045)" font-style="normal" font-weight="normal" font-size="200px" font-family="Arial" >
O</text>
<path stroke="none" fill="#000000" transform="matrix(0.0666667 0 0 0.0666667 -140.2 -106.333)" d="M 5796.96,2957.55 L 5796.43,2945.56 L 6045.57,2934.61 L 6046.09,2946.6 L 5796.96,2957.55 Z " />
<path stroke="none" fill="#000000" transform="matrix(0.0666667 0 0 0.0666667 -140.2 -106.333)" d="M 5799.58,3017.22 L 5799.05,3005.23 L 6048.19,2994.29 L 6048.72,3006.28 L 5799.58,3017.22 Z " />
<path stroke="none" fill="#000000" transform="matrix(0.0666667 0 0 0.0666667 -140.2 -106.333)" d="M 5730.71,2385.68 L 5725.75,2381.13 L 5726.51,2374.44 L 6031.14,2260.43 L 6041.83,2269.24 L 5730.71,2385.68 Z " />
<path stroke="none" fill="#000000" transform="matrix(0.0666667 0 0 0.0666667 -140.2 -106.333)" d="M 5188.02,2397.89 L 5189.36,2404.48 L 5184.82,2409.45 L 4864.67,2320.79 L 4874.56,2311.08 L 5188.02,2397.89 Z " />
<path stroke="none" fill="#000000" transform="matrix(0.0666667 0 0 0.0666667 -140.2 -106.333)" d="M 3148.61,2533.97 L 3145.56,2539.97 L 3138.91,2541.02 L 2947.84,2277.87 L 2953.47,2265.21 L 3148.61,2533.97 Z " />
<path stroke="none" fill="#000000" transform="matrix(0.0666667 0 0 0.0666667 -140.2 -106.333)" d="M 2953.47,2265.21 L 2947.84,2277.87 L 2624.8,2311.83 L 2620.73,2306.22 L 2623.55,2299.89 L 2953.47,2265.21 Z " />
<text x="0" y="0" stroke="none" fill="#000000" transform="matrix(0.0666667 0 0 0.0666667 3.35562 34.72)" font-style="normal" font-weight="normal" font-size="200px" font-family="Arial" >
C</text>
<text x="0" y="0" stroke="none" fill="#000000" transform="matrix(0.0666667 0 0 0.0666667 12.9845 37.6533)" font-style="normal" font-weight="normal" font-size="150px" font-family="Arial" >
4</text>
<text x="0" y="0" stroke="none" fill="#000000" transform="matrix(0.0666667 0 0 0.0666667 18.5461 34.72)" font-style="normal" font-weight="normal" font-size="200px" font-family="Arial" >
H</text>
<text x="0" y="0" stroke="none" fill="#000000" transform="matrix(0.0666667 0 0 0.0666667 28.175 37.6533)" font-style="normal" font-weight="normal" font-size="150px" font-family="Arial" >
9</text>
<path stroke="none" fill="#000000" transform="matrix(0.0666667 0 0 0.0666667 -140.2 -106.333)" d="M 2623.55,2299.89 L 2620.73,2306.22 L 2613.84,2306.95 L 2544.91,2212.13 L 2554.62,2205.08 L 2623.55,2299.89 Z " />
<text x="0" y="0" stroke="none" fill="#000000" transform="matrix(0.0666667 0 0 0.0666667 7.36308 72.8218)" font-style="normal" font-weight="normal" font-size="200px" font-family="Arial" >
C</text>
<text x="0" y="0" stroke="none" fill="#000000" transform="matrix(0.0666667 0 0 0.0666667 16.992 75.7551)" font-style="normal" font-weight="normal" font-size="150px" font-family="Arial" >
2</text>
<text x="0" y="0" stroke="none" fill="#000000" transform="matrix(0.0666667 0 0 0.0666667 22.5535 72.8218)" font-style="normal" font-weight="normal" font-size="200px" font-family="Arial" >
H</text>
<text x="0" y="0" stroke="none" fill="#000000" transform="matrix(0.0666667 0 0 0.0666667 32.1824 75.7551)" font-style="normal" font-weight="normal" font-size="150px" font-family="Arial" >
5</text>
<path stroke="none" fill="#000000" transform="matrix(0.0666667 0 0 0.0666667 -140.2 -106.333)" d="M 2613.84,2306.95 L 2620.73,2306.22 L 2624.8,2311.83 L 2538.7,2505.12 L 2527.74,2500.23 L 2613.84,2306.95 Z " />
<path stroke="none" fill="#000000" transform="matrix(0.0666667 0 0 0.0666667 -140.2 -106.333)" d="M 3474.27,4894.26 L 3477.33,4888.26 L 3483.98,4887.21 L 3675.28,5150.36 L 3669.64,5163.02 L 3474.27,4894.26 Z " />
<path stroke="none" fill="#000000" transform="matrix(0.0666667 0 0 0.0666667 -140.2 -106.333)" d="M 3669.64,5163.02 L 3675.28,5150.36 L 3998.31,5116.4 L 4002.38,5122.01 L 3999.57,5128.34 L 3669.64,5163.02 Z " />
<text x="0" y="0" stroke="none" fill="#000000" transform="matrix(0.0666667 0 0 0.0666667 130.813 220.127)" font-style="normal" font-weight="normal" font-size="200px" font-family="Arial" >
C</text>
<text x="0" y="0" stroke="none" fill="#000000" transform="matrix(0.0666667 0 0 0.0666667 140.441 223.06)" font-style="normal" font-weight="normal" font-size="150px" font-family="Arial" >
2</text>
<text x="0" y="0" stroke="none" fill="#000000" transform="matrix(0.0666667 0 0 0.0666667 146.003 220.127)" font-style="normal" font-weight="normal" font-size="200px" font-family="Arial" >
H</text>
<text x="0" y="0" stroke="none" fill="#000000" transform="matrix(0.0666667 0 0 0.0666667 155.632 223.06)" font-style="normal" font-weight="normal" font-size="150px" font-family="Arial" >
5</text>
<path stroke="none" fill="#000000" transform="matrix(0.0666667 0 0 0.0666667 -140.2 -106.333)" d="M 4009.27,5121.28 L 4002.38,5122.01 L 3998.31,5116.4 L 4086.17,4919.18 L 4097.13,4924.06 L 4009.27,5121.28 Z " />
<text x="0" y="0" stroke="none" fill="#000000" transform="matrix(0.0666667 0 0 0.0666667 134.805 258.213)" font-style="normal" font-weight="normal" font-size="200px" font-family="Arial" >
C</text>
<text x="0" y="0" stroke="none" fill="#000000" transform="matrix(0.0666667 0 0 0.0666667 144.433 261.147)" font-style="normal" font-weight="normal" font-size="150px" font-family="Arial" >
4</text>
<text x="0" y="0" stroke="none" fill="#000000" transform="matrix(0.0666667 0 0 0.0666667 149.995 258.213)" font-style="normal" font-weight="normal" font-size="200px" font-family="Arial" >
H</text>
<text x="0" y="0" stroke="none" fill="#000000" transform="matrix(0.0666667 0 0 0.0666667 159.624 261.147)" font-style="normal" font-weight="normal" font-size="150px" font-family="Arial" >
9</text>
<path stroke="none" fill="#000000" transform="matrix(0.0666667 0 0 0.0666667 -140.2 -106.333)" d="M 3999.57,5128.34 L 4002.38,5122.01 L 4009.27,5121.28 L 4146,5309.43 L 4136.29,5316.48 L 3999.57,5128.34 Z " />
<path stroke="none" fill="#000000" transform="matrix(0.0666667 0 0 0.0666667 -140.2 -106.333)" d="M 5726.51,2374.44 L 5725.75,2381.13 L 5718.8,2383.73 L 5534.9,2262.05 L 5541.52,2252.04 L 5726.51,2374.44 Z " />
<path stroke="none" fill="#000000" transform="matrix(0.0666667 0 0 0.0666667 -140.2 -106.333)" d="M 5309.38,2721.06 L 5305.66,2715.22 L 5309.75,2709.03 L 5632.35,2695.08 L 5636.97,2700.88 L 5633.77,2707.03 L 5309.38,2721.06 Z " />
<path stroke="none" fill="#000000" transform="matrix(0.0666667 0 0 0.0666667 -140.2 -106.333)" d="M 6041.83,2269.24 L 6031.14,2260.43 L 6084.79,1940.12 L 6091.28,1937.69 L 6096.62,1942.1 L 6041.83,2269.24 Z " />
<text x="0" y="0" stroke="none" fill="#000000" transform="matrix(0.0666667 0 0 0.0666667 281.786 20.2931)" font-style="normal" font-weight="normal" font-size="200px" font-family="Arial" >
C</text>
<text x="0" y="0" stroke="none" fill="#000000" transform="matrix(0.0666667 0 0 0.0666667 291.415 23.2264)" font-style="normal" font-weight="normal" font-size="150px" font-family="Arial" >
4</text>
<text x="0" y="0" stroke="none" fill="#000000" transform="matrix(0.0666667 0 0 0.0666667 296.977 20.2931)" font-style="normal" font-weight="normal" font-size="200px" font-family="Arial" >
H</text>
<text x="0" y="0" stroke="none" fill="#000000" transform="matrix(0.0666667 0 0 0.0666667 306.605 23.2264)" font-style="normal" font-weight="normal" font-size="150px" font-family="Arial" >
9</text>
<path stroke="none" fill="#000000" transform="matrix(0.0666667 0 0 0.0666667 -140.2 -106.333)" d="M 6096.62,1942.1 L 6091.28,1937.69 L 6092.42,1930.86 L 6307.11,1850.51 L 6311.32,1861.74 L 6096.62,1942.1 Z " />
<text x="0" y="0" stroke="none" fill="#000000" transform="matrix(0.0666667 0 0 0.0666667 222.134 13.9736)" font-style="normal" font-weight="normal" font-size="200px" font-family="Arial" >
C</text>
<text x="0" y="0" stroke="none" fill="#000000" transform="matrix(0.0666667 0 0 0.0666667 231.763 16.907)" font-style="normal" font-weight="normal" font-size="150px" font-family="Arial" >
2</text>
<text x="0" y="0" stroke="none" fill="#000000" transform="matrix(0.0666667 0 0 0.0666667 237.324 13.9736)" font-style="normal" font-weight="normal" font-size="200px" font-family="Arial" >
H</text>
<text x="0" y="0" stroke="none" fill="#000000" transform="matrix(0.0666667 0 0 0.0666667 246.953 16.907)" font-style="normal" font-weight="normal" font-size="150px" font-family="Arial" >
5</text>
<path stroke="none" fill="#000000" transform="matrix(0.0666667 0 0 0.0666667 -140.2 -106.333)" d="M 6092.42,1930.86 L 6091.28,1937.69 L 6084.79,1940.12 L 5928.71,1811.51 L 5936.34,1802.25 L 6092.42,1930.86 Z " />
<path stroke="none" fill="#000000" transform="matrix(0.0666667 0 0 0.0666667 -140.2 -106.333)" d="M 4874.56,2311.08 L 4864.67,2320.79 L 4781.67,1999.42 L 4786.61,1994.57 L 4793.29,1996.42 L 4874.56,2311.08 Z " />
<text x="0" y="0" stroke="none" fill="#000000" transform="matrix(0.0666667 0 0 0.0666667 189.861 16.3473)" font-style="normal" font-weight="normal" font-size="200px" font-family="Arial" >
C</text>
<text x="0" y="0" stroke="none" fill="#000000" transform="matrix(0.0666667 0 0 0.0666667 199.49 19.2806)" font-style="normal" font-weight="normal" font-size="150px" font-family="Arial" >
2</text>
<text x="0" y="0" stroke="none" fill="#000000" transform="matrix(0.0666667 0 0 0.0666667 205.051 16.3473)" font-style="normal" font-weight="normal" font-size="200px" font-family="Arial" >
H</text>
<text x="0" y="0" stroke="none" fill="#000000" transform="matrix(0.0666667 0 0 0.0666667 214.68 19.2806)" font-style="normal" font-weight="normal" font-size="150px" font-family="Arial" >
5</text>
<path stroke="none" fill="#000000" transform="matrix(0.0666667 0 0 0.0666667 -140.2 -106.333)" d="M 4793.29,1996.42 L 4786.61,1994.57 L 4784.88,1987.86 L 4942.21,1833.3 L 4950.61,1841.86 L 4793.29,1996.42 Z " />
<text x="0" y="0" stroke="none" fill="#000000" transform="matrix(0.0666667 0 0 0.0666667 130.918 25.9344)" font-style="normal" font-weight="normal" font-size="200px" font-family="Arial" >
C</text>
<text x="0" y="0" stroke="none" fill="#000000" transform="matrix(0.0666667 0 0 0.0666667 140.547 28.8677)" font-style="normal" font-weight="normal" font-size="150px" font-family="Arial" >
4</text>
<text x="0" y="0" stroke="none" fill="#000000" transform="matrix(0.0666667 0 0 0.0666667 146.108 25.9344)" font-style="normal" font-weight="normal" font-size="200px" font-family="Arial" >
H</text>
<text x="0" y="0" stroke="none" fill="#000000" transform="matrix(0.0666667 0 0 0.0666667 155.737 28.8677)" font-style="normal" font-weight="normal" font-size="150px" font-family="Arial" >
9</text>
<path stroke="none" fill="#000000" transform="matrix(0.0666667 0 0 0.0666667 -140.2 -106.333)" d="M 4784.88,1987.86 L 4786.61,1994.57 L 4781.67,1999.42 L 4553.92,1936.35 L 4557.13,1924.79 L 4784.88,1987.86 Z " />
<path stroke="none" fill="#000000" transform="matrix(0.0666667 0 0 0.0666667 -140.2 -106.333)" d="M 2510.63,3708 L 2513.69,3714 L 2510.63,3720 L 2181.91,3720 L 2181.91,3708 L 2510.63,3708 Z " />
<path stroke="#000000" stroke-width="12" fill="none" transform="matrix(0.0666667 0 0 0.0666667 -140.2 -106.333)" d="M 6755.4,3438.73 L 6787.19,3438.64 " />
<path stroke="#000000" stroke-width="12" fill="none" transform="matrix(0.0666667 0 0 0.0666667 -140.2 -106.333)" d="M 6787.19,3438.64 L 6788.34,3871.45 " />
<path stroke="#000000" stroke-width="12" fill="none" transform="matrix(0.0666667 0 0 0.0666667 -140.2 -106.333)" d="M 6788.34,3871.45 L 6756.55,3871.53 " />
<text x="0" y="0" stroke="none" fill="#000000" transform="matrix(0.0666667 0 0 0.0666667 316.273 154.825)" font-style="normal" font-weight="normal" font-size="150px" font-family="Arial" >
n</text>
<path stroke="#000000" stroke-width="12" fill="none" transform="matrix(0.0666667 0 0 0.0666667 -140.2 -106.333)" d="M 2381.09,3927.61 L 2349.3,3927.86 " />
<path stroke="#000000" stroke-width="12" fill="none" transform="matrix(0.0666667 0 0 0.0666667 -140.2 -106.333)" d="M 2349.3,3927.86 L 2345.84,3495.05 " />
<path stroke="#000000" stroke-width="12" fill="none" transform="matrix(0.0666667 0 0 0.0666667 -140.2 -106.333)" d="M 2345.84,3495.05 L 2377.62,3494.8 " />
<path stroke="none" fill="#000000" transform="matrix(0.0666667 0 0 0.0666667 -140.2 -106.333)" d="M 5779.57,3592.28 L 5778.23,3585.68 L 5782.78,3580.72 L 6096.61,3667.63 L 6097.98,3674.23 L 6093.41,3679.19 L 5779.57,3592.28 Z " />
<text x="0" y="0" stroke="none" fill="#e1e100" transform="matrix(0.0666667 0 0 0.0666667 279.287 129.759)" font-style="normal" font-weight="normal" font-size="200px" font-family="Arial" >
S</text>
<path stroke="none" fill="#000000" transform="matrix(0.0666667 0 0 0.0666667 -140.2 -106.333)" d="M 6093.41,3679.19 L 6097.98,3674.23 L 6105.09,3676.2 L 6216.08,3979.69 L 6207.84,3992.09 L 6093.41,3679.19 Z " />
<path stroke="none" fill="#000000" transform="matrix(0.0666667 0 0 0.0666667 -140.2 -106.333)" d="M 6163.12,3695.91 L 6174.39,3691.79 L 6258.62,3922.08 L 6247.35,3926.21 L 6163.12,3695.91 Z " />
<path stroke="none" fill="#000000" transform="matrix(0.0666667 0 0 0.0666667 -140.2 -106.333)" d="M 6207.84,3992.09 L 6216.08,3979.69 L 6538.67,3964.38 L 6547.87,3975.96 L 6207.84,3992.09 Z " />
<path stroke="none" fill="#000000" transform="matrix(0.0666667 0 0 0.0666667 -140.2 -106.333)" d="M 6547.87,3975.96 L 6538.67,3964.38 L 6627.18,3651.12 L 6634.13,3648.57 L 6638.71,3654.42 L 6547.87,3975.96 Z " />
<path stroke="none" fill="#000000" transform="matrix(0.0666667 0 0 0.0666667 -140.2 -106.333)" d="M 6502.93,3913.77 L 6491.39,3910.5 L 6558.63,3672.51 L 6570.17,3675.77 L 6502.93,3913.77 Z " />
<path stroke="none" fill="#000000" transform="matrix(0.0666667 0 0 0.0666667 -140.2 -106.333)" d="M 6635.88,3642.51 L 6634.13,3648.57 L 6627.18,3651.12 L 6444.55,3528.19 L 6451.25,3518.24 L 6635.88,3642.51 Z " />
<path stroke="none" fill="#000000" transform="matrix(0.0666667 0 0 0.0666667 -140.2 -106.333)" d="M 6270.88,3526.85 L 6278.42,3536.19 L 6105.09,3676.2 L 6097.98,3674.23 L 6096.61,3667.63 L 6270.88,3526.85 Z " />
<path stroke="none" fill="#000000" transform="matrix(0.0666667 0 0 0.0666667 -140.2 -106.333)" d="M 6638.71,3654.42 L 6634.13,3648.57 L 6635.88,3642.51 L 6945.6,3632.4 L 6945.99,3644.39 L 6638.71,3654.42 Z " />
</svg>
