<?xml version="1.0" standalone="no" ?>
<!DOCTYPE svg PUBLIC "-//W3C//DTD SVG 1.1//EN" "http://www.w3.org/Graphics/SVG/1.1/DTD/svg11.dtd">
<svg width="319px" height="254px" viewBox="0 0 319 254" style="background-color: #ffffff00" xmlns="http://www.w3.org/2000/svg" xmlns:xlink="http://www.w3.org/1999/xlink" version="1.1" >
<text x="0" y="0" stroke="none" fill="#e1e100" transform="matrix(0.0666667 0 0 0.0666667 28.3262 126.133)" font-style="normal" font-weight="normal" font-size="200px" font-family="Arial" >
S</text>
<text x="0" y="0" stroke="none" fill="#0000ff" transform="matrix(0.0666667 0 0 0.0666667 87.018 66.7998)" font-style="normal" font-weight="normal" font-size="200px" font-family="Arial" >
N</text>
<text x="0" y="0" stroke="none" fill="#e1e100" transform="matrix(0.0666667 0 0 0.0666667 103.001 55.6288)" font-style="normal" font-weight="normal" font-size="200px" font-family="Arial" >
S</text>
<text x="0" y="0" stroke="none" fill="#0000ff" transform="matrix(0.0666667 0 0 0.0666667 118.083 67.0281)" font-style="normal" font-weight="normal" font-size="200px" font-family="Arial" >
N</text>
<text x="0" y="0" stroke="none" fill="#e1e100" transform="matrix(0.0666667 0 0 0.0666667 124.882 132.861)" font-style="normal" font-weight="normal" font-size="200px" font-family="Arial" >
S</text>
<text x="0" y="0" stroke="none" fill="#80ff80" transform="matrix(0.0666667 0 0 0.0666667 228.577 52.1765)" font-style="normal" font-weight="normal" font-size="200px" font-family="Arial" >
F</text>
<text x="0" y="0" stroke="none" fill="#e1e100" transform="matrix(0.0666667 0 0 0.0666667 267.734 82.2693)" font-style="normal" font-weight="normal" font-size="200px" font-family="Arial" >
S</text>
<text x="0" y="0" stroke="none" fill="#e1e100" transform="matrix(0.0666667 0 0 0.0666667 290.318 114.378)" font-style="normal" font-weight="normal" font-size="200px" font-family="Arial" >
S</text>
<text x="0" y="0" stroke="none" fill="#80ff80" transform="matrix(0.0666667 0 0 0.0666667 244.808 218.343)" font-style="normal" font-weight="normal" font-size="200px" font-family="Arial" >
F</text>
<text x="0" y="0" stroke="none" fill="#e1e100" transform="matrix(0.0666667 0 0 0.0666667 277.395 181.17)" font-style="normal" font-weight="normal" font-size="200px" font-family="Arial" >
S</text>
<text x="0" y="0" stroke="none" fill="#e1e100" transform="matrix(0.0666667 0 0 0.0666667 223.892 152.081)" font-style="normal" font-weight="normal" font-size="200px" font-family="Arial" >
S</text>
<text x="0" y="0" stroke="none" fill="#e1e100" transform="matrix(0.0666667 0 0 0.0666667 179.299 125.223)" font-style="normal" font-weight="normal" font-size="200px" font-family="Arial" >
S</text>
<text x="0" y="0" stroke="none" fill="#e1e100" transform="matrix(0.0666667 0 0 0.0666667 79.9884 132.531)" font-style="normal" font-weight="normal" font-size="200px" font-family="Arial" >
S</text>
<path stroke="none" fill="#000000" transform="matrix(0.0666667 0 0 0.0666667 -87.3333 -78.3333)" d="M 1637.15,3713.97 L 1623.67,3714.62 L 1742.75,3452.36 L 1749.48,3452.06 L 1753.68,3457.33 L 1637.15,3713.97 Z " />
<path stroke="none" fill="#000000" transform="matrix(0.0666667 0 0 0.0666667 -87.3333 -78.3333)" d="M 1752.54,3445.31 L 1749.48,3452.06 L 1742.75,3452.36 L 1599.95,3200.76 L 1614.69,3202.42 L 1752.54,3445.31 Z " />
<path stroke="none" fill="#000000" transform="matrix(0.0666667 0 0 0.0666667 -87.3333 -78.3333)" d="M 1781.19,3390.75 L 1770.75,3396.68 L 1665.77,3211.72 L 1676.21,3205.8 L 1781.19,3390.75 Z " />
<path stroke="none" fill="#000000" transform="matrix(0.0666667 0 0 0.0666667 -87.3333 -78.3333)" d="M 1614.69,3202.42 L 1599.95,3200.76 L 1722.28,3066.89 L 1731.14,3074.98 L 1614.69,3202.42 Z " />
<path stroke="none" fill="#000000" transform="matrix(0.0666667 0 0 0.0666667 -87.3333 -78.3333)" d="M 1892.7,3036.95 L 1897.67,3026.02 L 2063.52,3101.33 L 2063.83,3108.06 L 2057.38,3111.72 L 1892.7,3036.95 Z " />
<path stroke="none" fill="#000000" transform="matrix(0.0666667 0 0 0.0666667 -87.3333 -78.3333)" d="M 2069.45,3111.77 L 2063.83,3108.06 L 2063.52,3101.33 L 2308.67,2962.19 L 2314.29,2965.9 L 2314.6,2972.62 L 2069.45,3111.77 Z " />
<path stroke="none" fill="#000000" transform="matrix(0.0666667 0 0 0.0666667 -87.3333 -78.3333)" d="M 2320.74,2962.24 L 2314.29,2965.9 L 2308.67,2962.19 L 2341.03,2674.7 L 2351.98,2684.71 L 2320.74,2962.24 Z " />
<path stroke="none" fill="#000000" transform="matrix(0.0666667 0 0 0.0666667 -87.3333 -78.3333)" d="M 2375.98,2934.94 L 2364.06,2933.6 L 2387.84,2722.26 L 2399.77,2723.6 L 2375.98,2934.94 Z " />
<path stroke="none" fill="#000000" transform="matrix(0.0666667 0 0 0.0666667 -87.3333 -78.3333)" d="M 2351.98,2684.71 L 2341.03,2674.7 L 2624.82,2616.56 L 2628.64,2621.9 L 2625.57,2628.65 L 2351.98,2684.71 Z " />
<path stroke="none" fill="#000000" transform="matrix(0.0666667 0 0 0.0666667 -87.3333 -78.3333)" d="M 2635.57,2621.95 L 2628.64,2621.9 L 2624.82,2616.56 L 2767.94,2372.81 L 2774.47,2373.55 L 2777.89,2379.57 L 2635.57,2621.95 Z " />
<path stroke="none" fill="#000000" transform="matrix(0.0666667 0 0 0.0666667 -87.3333 -78.3333)" d="M 2778.87,2367.58 L 2774.47,2373.55 L 2767.94,2372.81 L 2718.74,2217.5 L 2730.18,2213.88 L 2778.87,2367.58 Z " />
<path stroke="none" fill="#000000" transform="matrix(0.0666667 0 0 0.0666667 -87.3333 -78.3333)" d="M 2818.23,2320.17 L 2806.79,2323.8 L 2768.16,2201.85 L 2779.6,2198.22 L 2818.23,2320.17 Z " />
<path stroke="none" fill="#000000" transform="matrix(0.0666667 0 0 0.0666667 -87.3333 -78.3333)" d="M 2783.64,2037.59 L 2776.65,2027.83 L 2831.02,1988.94 L 2838,1998.7 L 2783.64,2037.59 Z " />
<path stroke="none" fill="#000000" transform="matrix(0.0666667 0 0 0.0666667 -87.3333 -78.3333)" d="M 3005.2,2000.48 L 3012.33,1990.83 L 3064.86,2029.59 L 3057.74,2039.24 L 3005.2,2000.48 Z " />
<path stroke="none" fill="#000000" transform="matrix(0.0666667 0 0 0.0666667 -87.3333 -78.3333)" d="M 3108.91,2217.2 L 3120.3,2220.99 L 3069,2375.03 L 3062.46,2375.66 L 3058.15,2369.63 L 3108.91,2217.2 Z " />
<path stroke="none" fill="#000000" transform="matrix(0.0666667 0 0 0.0666667 -87.3333 -78.3333)" d="M 3059.73,2200.82 L 3071.12,2204.61 L 3030.87,2325.44 L 3019.49,2321.65 L 3059.73,2200.82 Z " />
<path stroke="none" fill="#000000" transform="matrix(0.0666667 0 0 0.0666667 -87.3333 -78.3333)" d="M 2777.89,2379.57 L 2774.47,2373.55 L 2778.87,2367.58 L 3058.15,2369.63 L 3062.46,2375.66 L 3058.95,2381.64 L 2777.89,2379.57 Z " />
<path stroke="none" fill="#000000" transform="matrix(0.0666667 0 0 0.0666667 -87.3333 -78.3333)" d="M 3058.95,2381.64 L 3062.46,2375.66 L 3069,2375.03 L 3208.52,2620.85 L 3204.62,2626.13 L 3197.7,2626.08 L 3058.95,2381.64 Z " />
<path stroke="none" fill="#000000" transform="matrix(0.0666667 0 0 0.0666667 -87.3333 -78.3333)" d="M 3197.7,2626.08 L 3204.62,2626.13 L 3207.59,2632.93 L 3066.18,2873.76 L 3058.79,2874.48 L 3055.37,2868.46 L 3197.7,2626.08 Z " />
<path stroke="none" fill="#000000" transform="matrix(0.0666667 0 0 0.0666667 -87.3333 -78.3333)" d="M 3139.59,2622.65 L 3149.94,2628.73 L 3034.42,2825.46 L 3024.07,2819.38 L 3139.59,2622.65 Z " />
<path stroke="none" fill="#000000" transform="matrix(0.0666667 0 0 0.0666667 -87.3333 -78.3333)" d="M 3056.08,2880.46 L 3058.79,2874.48 L 3066.18,2873.76 L 3189.24,3012.48 L 3180.27,3020.44 L 3056.08,2880.46 Z " />
<path stroke="none" fill="#000000" transform="matrix(0.0666667 0 0 0.0666667 -87.3333 -78.3333)" d="M 3336.33,3058.75 L 3331.53,3047.76 L 3507.49,2970.96 L 3513.88,2974.71 L 3513.98,2981.22 L 3336.33,3058.75 Z " />
<path stroke="none" fill="#000000" transform="matrix(0.0666667 0 0 0.0666667 -87.3333 -78.3333)" d="M 3513.98,2981.22 L 3513.88,2974.71 L 3519.5,2970.5 L 3802.13,3084.04 L 3802.23,3090.54 L 3796.61,3094.75 L 3513.98,2981.22 Z " />
<path stroke="none" fill="#000000" transform="matrix(0.0666667 0 0 0.0666667 -87.3333 -78.3333)" d="M 3796.61,3094.75 L 3802.23,3090.54 L 3808.63,3094.3 L 3835.78,3372.26 L 3824.68,3382.1 L 3796.61,3094.75 Z " />
<path stroke="none" fill="#000000" transform="matrix(0.0666667 0 0 0.0666667 -87.3333 -78.3333)" d="M 3851.52,3123.57 L 3863.46,3122.4 L 3884.13,3334.07 L 3872.19,3335.24 L 3851.52,3123.57 Z " />
<path stroke="none" fill="#000000" transform="matrix(0.0666667 0 0 0.0666667 -87.3333 -78.3333)" d="M 3824.68,3382.1 L 3835.78,3372.26 L 4108.52,3432.33 L 4111.49,3439.12 L 4107.21,3444.33 L 3824.68,3382.1 Z " />
<path stroke="none" fill="#000000" transform="matrix(0.0666667 0 0 0.0666667 -87.3333 -78.3333)" d="M 4118.21,3439.53 L 4111.49,3439.12 L 4108.52,3432.33 L 4249.94,3191.5 L 4257.32,3190.77 L 4260.94,3196.45 L 4118.21,3439.53 Z " />
<path stroke="none" fill="#000000" transform="matrix(0.0666667 0 0 0.0666667 -87.3333 -78.3333)" d="M 4091.03,3383.43 L 4080.68,3377.36 L 4188.37,3193.97 L 4198.72,3200.04 L 4091.03,3383.43 Z " />
<path stroke="none" fill="#000000" transform="matrix(0.0666667 0 0 0.0666667 -87.3333 -78.3333)" d="M 4260.94,3196.45 L 4257.32,3190.77 L 4259.78,3184.51 L 4540.33,3157.1 L 4543.95,3162.78 L 4541.49,3169.04 L 4260.94,3196.45 Z " />
<path stroke="none" fill="#000000" transform="matrix(0.0666667 0 0 0.0666667 -87.3333 -78.3333)" d="M 4551.33,3162.05 L 4543.95,3162.78 L 4540.33,3157.1 L 4686.82,2907.63 L 4692.75,2921.22 L 4551.33,3162.05 Z " />
<path stroke="none" fill="#000000" transform="matrix(0.0666667 0 0 0.0666667 -87.3333 -78.3333)" d="M 4612.9,3159.58 L 4602.55,3153.51 L 4710.24,2970.12 L 4720.59,2976.19 L 4612.9,3159.58 Z " />
<path stroke="none" fill="#000000" transform="matrix(0.0666667 0 0 0.0666667 -87.3333 -78.3333)" d="M 4692.75,2921.22 L 4686.82,2907.63 L 4969.72,2969.94 L 4971.04,2976.37 L 4965.49,2981.29 L 4692.75,2921.22 Z " />
<path stroke="none" fill="#000000" transform="matrix(0.0666667 0 0 0.0666667 -87.3333 -78.3333)" d="M 4977.35,2979.24 L 4971.04,2976.37 L 4969.72,2969.94 L 5198.97,2805.94 L 5205.27,2808.81 L 5205.95,2815.7 L 4977.35,2979.24 Z " />
<path stroke="none" fill="#000000" transform="matrix(0.0666667 0 0 0.0666667 -87.3333 -78.3333)" d="M 5029.04,3006 L 5022.05,2996.24 L 5207.6,2863.5 L 5214.59,2873.26 L 5029.04,3006 Z " />
<path stroke="none" fill="#000000" transform="matrix(0.0666667 0 0 0.0666667 -87.3333 -78.3333)" d="M 5210.91,2804.78 L 5205.27,2808.81 L 5198.97,2805.94 L 5171.6,2525.8 L 5177.28,2522.17 L 5183.55,2524.63 L 5210.91,2804.78 Z " />
<path stroke="none" fill="#000000" transform="matrix(0.0666667 0 0 0.0666667 -87.3333 -78.3333)" d="M 5176.56,2514.79 L 5177.28,2522.17 L 5171.6,2525.8 L 4922.13,2379.31 L 4935.72,2373.38 L 5176.56,2514.79 Z " />
<path stroke="none" fill="#000000" transform="matrix(0.0666667 0 0 0.0666667 -87.3333 -78.3333)" d="M 5174.08,2453.22 L 5168.01,2463.57 L 4984.62,2355.88 L 4990.69,2345.54 L 5174.08,2453.22 Z " />
<path stroke="none" fill="#000000" transform="matrix(0.0666667 0 0 0.0666667 -87.3333 -78.3333)" d="M 4935.72,2373.38 L 4922.13,2379.31 L 4984.36,2096.78 L 4990.87,2095.08 L 4995.79,2100.63 L 4935.72,2373.38 Z " />
<path stroke="none" fill="#000000" transform="matrix(0.0666667 0 0 0.0666667 -87.3333 -78.3333)" d="M 4993.33,2088.82 L 4990.87,2095.08 L 4984.36,2096.78 L 4841.54,1935.81 L 4850.52,1927.84 L 4993.33,2088.82 Z " />
<path stroke="none" fill="#000000" transform="matrix(0.0666667 0 0 0.0666667 -87.3333 -78.3333)" d="M 4995.79,2100.63 L 4990.87,2095.08 L 4993.33,2088.82 L 5273.88,2061.41 L 5277.51,2067.09 L 5273.75,2073.48 L 4995.79,2100.63 Z " />
<path stroke="none" fill="#000000" transform="matrix(0.0666667 0 0 0.0666667 -87.3333 -78.3333)" d="M 5033.98,2148.99 L 5032.82,2137.05 L 5244.48,2116.37 L 5245.65,2128.31 L 5033.98,2148.99 Z " />
<path stroke="none" fill="#000000" transform="matrix(0.0666667 0 0 0.0666667 -87.3333 -78.3333)" d="M 5284.23,2067.49 L 5277.51,2067.09 L 5273.88,2061.41 L 5416.39,1818.71 L 5430.28,1818.76 L 5284.23,2067.49 Z " />
<path stroke="none" fill="#000000" transform="matrix(0.0666667 0 0 0.0666667 -87.3333 -78.3333)" d="M 5273.75,2073.48 L 5277.51,2067.09 L 5284.23,2067.49 L 5358.76,2238.25 L 5347.76,2243.05 L 5273.75,2073.48 Z " />
<path stroke="none" fill="#000000" transform="matrix(0.0666667 0 0 0.0666667 -87.3333 -78.3333)" d="M 5183.55,2524.63 L 5177.28,2522.17 L 5176.56,2514.79 L 5306.97,2399.09 L 5314.94,2408.06 L 5183.55,2524.63 Z " />
<path stroke="none" fill="#000000" transform="matrix(0.0666667 0 0 0.0666667 -87.3333 -78.3333)" d="M 5205.95,2815.7 L 5205.27,2808.81 L 5210.91,2804.78 L 5467.56,2921.31 L 5467.51,2927.88 L 5461.87,2931.91 L 5205.95,2815.7 Z " />
<path stroke="none" fill="#000000" transform="matrix(0.0666667 0 0 0.0666667 -87.3333 -78.3333)" d="M 5473.9,2931.63 L 5467.51,2927.88 L 5467.56,2921.31 L 5635.52,2848 L 5640.32,2859 L 5473.9,2931.63 Z " />
<path stroke="none" fill="#000000" transform="matrix(0.0666667 0 0 0.0666667 -87.3333 -78.3333)" d="M 5801.18,2900.3 L 5810.16,2892.34 L 5929.98,3027.39 L 5915.21,3028.83 L 5801.18,2900.3 Z " />
<path stroke="none" fill="#000000" transform="matrix(0.0666667 0 0 0.0666667 -87.3333 -78.3333)" d="M 5915.21,3028.83 L 5929.98,3027.39 L 5779.73,3283.26 L 5773.8,3269.66 L 5915.21,3028.83 Z " />
<path stroke="none" fill="#000000" transform="matrix(0.0666667 0 0 0.0666667 -87.3333 -78.3333)" d="M 5853.65,3031.3 L 5863.99,3037.38 L 5756.31,3220.77 L 5745.96,3214.69 L 5853.65,3031.3 Z " />
<path stroke="none" fill="#000000" transform="matrix(0.0666667 0 0 0.0666667 -87.3333 -78.3333)" d="M 5773.8,3269.66 L 5779.73,3283.26 L 5496.82,3220.95 L 5495.51,3214.51 L 5501.05,3209.59 L 5773.8,3269.66 Z " />
<path stroke="none" fill="#000000" transform="matrix(0.0666667 0 0 0.0666667 -87.3333 -78.3333)" d="M 5461.87,2931.91 L 5467.51,2927.88 L 5473.9,2931.63 L 5501.05,3209.59 L 5495.51,3214.51 L 5489.2,3211.65 L 5461.87,2931.91 Z " />
<path stroke="none" fill="#000000" transform="matrix(0.0666667 0 0 0.0666667 -87.3333 -78.3333)" d="M 5412.85,2963.29 L 5424.79,2962.12 L 5446.97,3189.18 L 5435.03,3190.35 L 5412.85,2963.29 Z " />
<path stroke="none" fill="#000000" transform="matrix(0.0666667 0 0 0.0666667 -87.3333 -78.3333)" d="M 5489.2,3211.65 L 5495.51,3214.51 L 5496.82,3220.95 L 5267.58,3384.94 L 5261.27,3382.08 L 5260.6,3375.18 L 5489.2,3211.65 Z " />
<path stroke="none" fill="#000000" transform="matrix(0.0666667 0 0 0.0666667 -87.3333 -78.3333)" d="M 5255.64,3386.11 L 5261.27,3382.08 L 5267.58,3384.94 L 5294.95,3665.09 L 5289.27,3668.71 L 5283,3666.25 L 5255.64,3386.11 Z " />
<path stroke="none" fill="#000000" transform="matrix(0.0666667 0 0 0.0666667 -87.3333 -78.3333)" d="M 5283,3666.25 L 5289.27,3668.71 L 5289.99,3676.1 L 5081.08,3861.44 L 5066.59,3858.25 L 5283,3666.25 Z " />
<path stroke="none" fill="#000000" transform="matrix(0.0666667 0 0 0.0666667 -87.3333 -78.3333)" d="M 5291.52,3728 L 5299.48,3736.98 L 5140.39,3878.12 L 5132.43,3869.14 L 5291.52,3728 Z " />
<path stroke="none" fill="#000000" transform="matrix(0.0666667 0 0 0.0666667 -87.3333 -78.3333)" d="M 5066.59,3858.25 L 5081.08,3861.44 L 5192.79,4117.41 L 5189.04,4123.8 L 5182.32,4123.4 L 5066.59,3858.25 L 5066.59,3858.25 Z " />
<path stroke="none" fill="#000000" transform="matrix(0.0666667 0 0 0.0666667 -87.3333 -78.3333)" d="M 5182.32,4123.4 L 5189.04,4123.8 L 5192.66,4129.47 L 5105.08,4278.64 L 5094.73,4272.56 L 5182.32,4123.4 Z " />
<path stroke="none" fill="#000000" transform="matrix(0.0666667 0 0 0.0666667 -87.3333 -78.3333)" d="M 5192.66,4129.47 L 5189.04,4123.8 L 5192.79,4117.41 L 5470.75,4090.25 L 5475.67,4095.8 L 5473.21,4102.07 L 5192.66,4129.47 Z " />
<path stroke="none" fill="#000000" transform="matrix(0.0666667 0 0 0.0666667 -87.3333 -78.3333)" d="M 5222.07,4074.52 L 5220.9,4062.57 L 5432.57,4041.9 L 5433.73,4053.84 L 5222.07,4074.52 Z " />
<path stroke="none" fill="#000000" transform="matrix(0.0666667 0 0 0.0666667 -87.3333 -78.3333)" d="M 5473.21,4102.07 L 5475.67,4095.8 L 5482.19,4094.11 L 5674.16,4310.49 L 5659.45,4311.98 L 5473.21,4102.07 Z " />
<path stroke="none" fill="#000000" transform="matrix(0.0666667 0 0 0.0666667 -87.3333 -78.3333)" d="M 5482.19,4094.11 L 5475.67,4095.8 L 5470.75,4090.25 L 5507.2,3924.78 L 5518.92,3927.36 L 5482.19,4094.11 Z " />
<path stroke="none" fill="#000000" transform="matrix(0.0666667 0 0 0.0666667 -87.3333 -78.3333)" d="M 5289.99,3676.1 L 5289.27,3668.71 L 5294.95,3665.09 L 5458.62,3761.19 L 5452.54,3771.54 L 5289.99,3676.1 Z " />
<path stroke="none" fill="#000000" transform="matrix(0.0666667 0 0 0.0666667 -87.3333 -78.3333)" d="M 4965.49,2981.29 L 4971.04,2976.37 L 4977.35,2979.24 L 5004.67,3258.98 L 4999.04,3263.01 L 4992.64,3259.25 L 4965.49,2981.29 Z " />
<path stroke="none" fill="#000000" transform="matrix(0.0666667 0 0 0.0666667 -87.3333 -78.3333)" d="M 5260.6,3375.18 L 5261.27,3382.08 L 5255.64,3386.11 L 4998.99,3269.58 L 4999.04,3263.01 L 5004.67,3258.98 L 5260.6,3375.18 Z " />
<path stroke="none" fill="#000000" transform="matrix(0.0666667 0 0 0.0666667 -87.3333 -78.3333)" d="M 5257.93,3317.04 L 5252.97,3327.97 L 5045.24,3233.64 L 5050.2,3222.72 L 5257.93,3317.04 Z " />
<path stroke="none" fill="#000000" transform="matrix(0.0666667 0 0 0.0666667 -87.3333 -78.3333)" d="M 4992.64,3259.25 L 4999.04,3263.01 L 4998.99,3269.58 L 4821.48,3347.05 L 4816.68,3336.05 L 4992.64,3259.25 Z " />
<path stroke="none" fill="#000000" transform="matrix(0.0666667 0 0 0.0666667 -87.3333 -78.3333)" d="M 4541.49,3169.04 L 4543.95,3162.78 L 4551.33,3162.05 L 4674.4,3300.77 L 4665.42,3308.73 L 4541.49,3169.04 Z " />
<path stroke="none" fill="#000000" transform="matrix(0.0666667 0 0 0.0666667 -87.3333 -78.3333)" d="M 4259.78,3184.51 L 4257.32,3190.77 L 4249.94,3191.5 L 4135.9,3062.96 L 4144.88,3055 L 4259.78,3184.51 Z " />
<path stroke="none" fill="#000000" transform="matrix(0.0666667 0 0 0.0666667 -87.3333 -78.3333)" d="M 3808.63,3094.3 L 3802.23,3090.54 L 3802.13,3084.04 L 3970.24,3010.67 L 3975.04,3021.67 L 3808.63,3094.3 Z " />
<path stroke="none" fill="#000000" transform="matrix(0.0666667 0 0 0.0666667 -87.3333 -78.3333)" d="M 3519.5,2970.5 L 3513.88,2974.71 L 3507.49,2970.96 L 3480.33,2693 L 3491.43,2683.16 L 3519.5,2970.5 Z " />
<path stroke="none" fill="#000000" transform="matrix(0.0666667 0 0 0.0666667 -87.3333 -78.3333)" d="M 3464.6,2941.68 L 3452.65,2942.85 L 3431.98,2731.19 L 3443.92,2730.02 L 3464.6,2941.68 Z " />
<path stroke="none" fill="#000000" transform="matrix(0.0666667 0 0 0.0666667 -87.3333 -78.3333)" d="M 3207.59,2632.93 L 3204.62,2626.13 L 3208.52,2620.85 L 3491.43,2683.16 L 3480.33,2693 L 3207.59,2632.93 Z " />
<path stroke="none" fill="#000000" transform="matrix(0.0666667 0 0 0.0666667 -87.3333 -78.3333)" d="M 2625.57,2628.65 L 2628.64,2621.9 L 2635.57,2621.95 L 2774.31,2866.39 L 2770.8,2872.36 L 2763.43,2871.53 L 2625.57,2628.65 Z " />
<path stroke="none" fill="#000000" transform="matrix(0.0666667 0 0 0.0666667 -87.3333 -78.3333)" d="M 2683.28,2625.3 L 2693.72,2619.38 L 2806.33,2817.78 L 2795.89,2823.71 L 2683.28,2625.3 Z " />
<path stroke="none" fill="#000000" transform="matrix(0.0666667 0 0 0.0666667 -87.3333 -78.3333)" d="M 3055.37,2868.46 L 3058.79,2874.48 L 3056.08,2880.46 L 2773.43,2878.38 L 2770.8,2872.36 L 2774.31,2866.39 L 3055.37,2868.46 Z " />
<path stroke="none" fill="#000000" transform="matrix(0.0666667 0 0 0.0666667 -87.3333 -78.3333)" d="M 2763.43,2871.53 L 2770.8,2872.36 L 2773.43,2878.38 L 2646.08,3017.75 L 2637.22,3009.66 L 2763.43,2871.53 Z " />
<path stroke="none" fill="#000000" transform="matrix(0.0666667 0 0 0.0666667 -87.3333 -78.3333)" d="M 2314.6,2972.62 L 2314.29,2965.9 L 2320.74,2962.24 L 2494,3040.91 L 2489.04,3051.83 L 2314.6,2972.62 Z " />
<path stroke="none" fill="#000000" transform="matrix(0.0666667 0 0 0.0666667 -87.3333 -78.3333)" d="M 2057.38,3111.72 L 2063.83,3108.06 L 2069.45,3111.77 L 2037.09,3399.26 L 2026.14,3389.25 L 2057.38,3111.72 Z " />
<path stroke="none" fill="#000000" transform="matrix(0.0666667 0 0 0.0666667 -87.3333 -78.3333)" d="M 2002.14,3139.02 L 2014.06,3140.36 L 1990.28,3351.7 L 1978.35,3350.36 L 2002.14,3139.02 Z " />
<path stroke="none" fill="#000000" transform="matrix(0.0666667 0 0 0.0666667 -87.3333 -78.3333)" d="M 1753.68,3457.33 L 1749.48,3452.06 L 1752.54,3445.31 L 2026.14,3389.25 L 2037.09,3399.26 L 1753.68,3457.33 Z " />
<path stroke="none" fill="#000000" transform="matrix(0.0666667 0 0 0.0666667 -87.3333 -78.3333)" d="M 1623.67,3714.62 L 1637.15,3713.97 L 1777.87,3957.71 L 1774.41,3963.71 L 1767.48,3963.71 L 1623.67,3714.62 Z " />
<path stroke="none" fill="#000000" transform="matrix(0.0666667 0 0 0.0666667 -87.3333 -78.3333)" d="M 5430.28,1818.76 L 5416.39,1818.71 L 5275.87,1575.32 L 5279.34,1569.32 L 5286.27,1569.32 L 5430.28,1818.76 Z " />
<path stroke="none" fill="#000000" transform="matrix(0.0666667 0 0 0.0666667 -87.3333 -78.3333)" d="M 5659.45,4311.98 L 5674.16,4310.49 L 5529.73,4560.65 L 5522.81,4560.65 L 5519.34,4554.65 L 5659.45,4311.98 Z " />
<path stroke="none" fill="#000000" transform="matrix(0.0666667 0 0 0.0666667 -87.3333 -78.3333)" d="M 4107.21,3444.33 L 4111.49,3439.12 L 4118.21,3439.53 L 4233.4,3703.46 L 4219.98,3702.7 L 4107.21,3444.33 Z " />
<path stroke="none" fill="#000000" transform="matrix(0.0666667 0 0 0.0666667 -87.3333 -78.3333)" d="M 4219.98,3702.7 L 4233.4,3703.46 L 4089.62,3952.49 L 4082.69,3952.49 L 4079.23,3946.49 L 4219.98,3702.7 Z " />
<text x="0" y="0" stroke="none" fill="#000000" transform="matrix(0.0666667 0 0 0.0666667 45.3461 191.114)" font-style="normal" font-weight="normal" font-size="200px" font-family="Arial" >
C</text>
<text x="0" y="0" stroke="none" fill="#000000" transform="matrix(0.0666667 0 0 0.0666667 54.975 194.047)" font-style="normal" font-weight="normal" font-size="150px" font-family="Arial" >
6</text>
<text x="0" y="0" stroke="none" fill="#000000" transform="matrix(0.0666667 0 0 0.0666667 60.5365 191.114)" font-style="normal" font-weight="normal" font-size="200px" font-family="Arial" >
H</text>
<text x="0" y="0" stroke="none" fill="#000000" transform="matrix(0.0666667 0 0 0.0666667 70.1654 194.047)" font-style="normal" font-weight="normal" font-size="150px" font-family="Arial" >
13</text>
<path stroke="none" fill="#000000" transform="matrix(0.0666667 0 0 0.0666667 -87.3333 -78.3333)" d="M 1777.87,3969.71 L 1774.41,3963.71 L 1777.87,3957.71 L 1969.19,3957.71 L 1969.19,3969.71 L 1777.87,3969.71 Z " />
<text x="0" y="0" stroke="none" fill="#000000" transform="matrix(0.0666667 0 0 0.0666667 3.20951 207.742)" font-style="normal" font-weight="normal" font-size="200px" font-family="Arial" >
C</text>
<text x="0" y="0" stroke="none" fill="#000000" transform="matrix(0.0666667 0 0 0.0666667 12.8384 210.675)" font-style="normal" font-weight="normal" font-size="150px" font-family="Arial" >
4</text>
<text x="0" y="0" stroke="none" fill="#000000" transform="matrix(0.0666667 0 0 0.0666667 18.3999 207.742)" font-style="normal" font-weight="normal" font-size="200px" font-family="Arial" >
H</text>
<text x="0" y="0" stroke="none" fill="#000000" transform="matrix(0.0666667 0 0 0.0666667 28.0288 210.675)" font-style="normal" font-weight="normal" font-size="150px" font-family="Arial" >
9</text>
<path stroke="none" fill="#000000" transform="matrix(0.0666667 0 0 0.0666667 -87.3333 -78.3333)" d="M 1767.48,3963.71 L 1774.41,3963.71 L 1777.87,3969.71 L 1698.46,4107.26 L 1688.06,4101.26 L 1767.48,3963.71 Z " />
<text x="0" y="0" stroke="none" fill="#000000" transform="matrix(0.0666667 0 0 0.0666667 133.411 190.366)" font-style="normal" font-weight="normal" font-size="200px" font-family="Arial" >
C</text>
<text x="0" y="0" stroke="none" fill="#000000" transform="matrix(0.0666667 0 0 0.0666667 143.04 193.3)" font-style="normal" font-weight="normal" font-size="150px" font-family="Arial" >
6</text>
<text x="0" y="0" stroke="none" fill="#000000" transform="matrix(0.0666667 0 0 0.0666667 148.602 190.366)" font-style="normal" font-weight="normal" font-size="200px" font-family="Arial" >
H</text>
<text x="0" y="0" stroke="none" fill="#000000" transform="matrix(0.0666667 0 0 0.0666667 158.231 193.3)" font-style="normal" font-weight="normal" font-size="150px" font-family="Arial" >
13</text>
<path stroke="none" fill="#000000" transform="matrix(0.0666667 0 0 0.0666667 -87.3333 -78.3333)" d="M 4079.23,3946.49 L 4082.69,3952.49 L 4079.23,3958.49 L 3875.17,3958.49 L 3875.17,3946.49 L 4079.23,3946.49 Z " />
<text x="0" y="0" stroke="none" fill="#000000" transform="matrix(0.0666667 0 0 0.0666667 189.632 206.994)" font-style="normal" font-weight="normal" font-size="200px" font-family="Arial" >
C</text>
<text x="0" y="0" stroke="none" fill="#000000" transform="matrix(0.0666667 0 0 0.0666667 199.261 209.927)" font-style="normal" font-weight="normal" font-size="150px" font-family="Arial" >
4</text>
<text x="0" y="0" stroke="none" fill="#000000" transform="matrix(0.0666667 0 0 0.0666667 204.822 206.994)" font-style="normal" font-weight="normal" font-size="200px" font-family="Arial" >
H</text>
<text x="0" y="0" stroke="none" fill="#000000" transform="matrix(0.0666667 0 0 0.0666667 214.451 209.927)" font-style="normal" font-weight="normal" font-size="150px" font-family="Arial" >
9</text>
<path stroke="none" fill="#000000" transform="matrix(0.0666667 0 0 0.0666667 -87.3333 -78.3333)" d="M 4079.23,3958.49 L 4082.69,3952.49 L 4089.62,3952.49 L 4184.01,4115.99 L 4173.62,4121.99 L 4079.23,3958.49 Z " />
<text x="0" y="0" stroke="none" fill="#000000" transform="matrix(0.0666667 0 0 0.0666667 218.749 31.488)" font-style="normal" font-weight="normal" font-size="200px" font-family="Arial" >
C</text>
<text x="0" y="0" stroke="none" fill="#000000" transform="matrix(0.0666667 0 0 0.0666667 228.378 34.4213)" font-style="normal" font-weight="normal" font-size="150px" font-family="Arial" >
4</text>
<text x="0" y="0" stroke="none" fill="#000000" transform="matrix(0.0666667 0 0 0.0666667 233.94 31.488)" font-style="normal" font-weight="normal" font-size="200px" font-family="Arial" >
H</text>
<text x="0" y="0" stroke="none" fill="#000000" transform="matrix(0.0666667 0 0 0.0666667 243.569 34.4213)" font-style="normal" font-weight="normal" font-size="150px" font-family="Arial" >
9</text>
<path stroke="none" fill="#000000" transform="matrix(0.0666667 0 0 0.0666667 -87.3333 -78.3333)" d="M 5275.87,1563.32 L 5279.34,1569.32 L 5275.87,1575.32 L 5072.24,1575.32 L 5072.24,1563.32 L 5275.87,1563.32 Z " />
<text x="0" y="0" stroke="none" fill="#000000" transform="matrix(0.0666667 0 0 0.0666667 269.408 14.8603)" font-style="normal" font-weight="normal" font-size="200px" font-family="Arial" >
C</text>
<text x="0" y="0" stroke="none" fill="#000000" transform="matrix(0.0666667 0 0 0.0666667 279.037 17.7936)" font-style="normal" font-weight="normal" font-size="150px" font-family="Arial" >
2</text>
<text x="0" y="0" stroke="none" fill="#000000" transform="matrix(0.0666667 0 0 0.0666667 284.598 14.8603)" font-style="normal" font-weight="normal" font-size="200px" font-family="Arial" >
H</text>
<text x="0" y="0" stroke="none" fill="#000000" transform="matrix(0.0666667 0 0 0.0666667 294.227 17.7936)" font-style="normal" font-weight="normal" font-size="150px" font-family="Arial" >
5</text>
<path stroke="none" fill="#000000" transform="matrix(0.0666667 0 0 0.0666667 -87.3333 -78.3333)" d="M 5286.27,1569.32 L 5279.34,1569.32 L 5275.87,1563.32 L 5362.43,1413.39 L 5372.83,1419.39 L 5286.27,1569.32 Z " />
<text x="0" y="0" stroke="none" fill="#000000" transform="matrix(0.0666667 0 0 0.0666667 234.981 230.91)" font-style="normal" font-weight="normal" font-size="200px" font-family="Arial" >
C</text>
<text x="0" y="0" stroke="none" fill="#000000" transform="matrix(0.0666667 0 0 0.0666667 244.609 233.844)" font-style="normal" font-weight="normal" font-size="150px" font-family="Arial" >
2</text>
<text x="0" y="0" stroke="none" fill="#000000" transform="matrix(0.0666667 0 0 0.0666667 250.171 230.91)" font-style="normal" font-weight="normal" font-size="200px" font-family="Arial" >
H</text>
<text x="0" y="0" stroke="none" fill="#000000" transform="matrix(0.0666667 0 0 0.0666667 259.8 233.844)" font-style="normal" font-weight="normal" font-size="150px" font-family="Arial" >
5</text>
<path stroke="none" fill="#000000" transform="matrix(0.0666667 0 0 0.0666667 -87.3333 -78.3333)" d="M 5519.34,4554.65 L 5522.81,4560.65 L 5519.34,4566.65 L 5315.71,4566.65 L 5315.71,4554.65 L 5519.34,4554.65 Z " />
<text x="0" y="0" stroke="none" fill="#000000" transform="matrix(0.0666667 0 0 0.0666667 285.639 247.538)" font-style="normal" font-weight="normal" font-size="200px" font-family="Arial" >
C</text>
<text x="0" y="0" stroke="none" fill="#000000" transform="matrix(0.0666667 0 0 0.0666667 295.268 250.471)" font-style="normal" font-weight="normal" font-size="150px" font-family="Arial" >
4</text>
<text x="0" y="0" stroke="none" fill="#000000" transform="matrix(0.0666667 0 0 0.0666667 300.83 247.538)" font-style="normal" font-weight="normal" font-size="200px" font-family="Arial" >
H</text>
<text x="0" y="0" stroke="none" fill="#000000" transform="matrix(0.0666667 0 0 0.0666667 310.459 250.471)" font-style="normal" font-weight="normal" font-size="150px" font-family="Arial" >
9</text>
<path stroke="none" fill="#000000" transform="matrix(0.0666667 0 0 0.0666667 -87.3333 -78.3333)" d="M 5519.34,4566.65 L 5522.81,4560.65 L 5529.73,4560.65 L 5624.13,4724.15 L 5613.73,4730.15 L 5519.34,4566.65 Z " />
</svg>
