<?xml version="1.0" standalone="no" ?>
<!DOCTYPE svg PUBLIC "-//W3C//DTD SVG 1.1//EN" "http://www.w3.org/Graphics/SVG/1.1/DTD/svg11.dtd">
<svg width="287px" height="232px" viewBox="0 0 287 232" style="background-color: #ffffff00" xmlns="http://www.w3.org/2000/svg" xmlns:xlink="http://www.w3.org/1999/xlink" version="1.1" >
<text x="0" y="0" stroke="none" fill="#e1e100" transform="matrix(0.0666667 0 0 0.0666667 83.2603 80.0381)" font-style="normal" font-weight="normal" font-size="200px" font-family="Arial" >
S</text>
<text x="0" y="0" stroke="none" fill="#e1e100" transform="matrix(0.0666667 0 0 0.0666667 102.548 114.072)" font-style="normal" font-weight="normal" font-size="200px" font-family="Arial" >
S</text>
<text x="0" y="0" stroke="none" fill="#e1e100" transform="matrix(0.0666667 0 0 0.0666667 83.2603 179.064)" font-style="normal" font-weight="normal" font-size="200px" font-family="Arial" >
S</text>
<text x="0" y="0" stroke="none" fill="#e1e100" transform="matrix(0.0666667 0 0 0.0666667 33.0143 145.03)" font-style="normal" font-weight="normal" font-size="200px" font-family="Arial" >
S</text>
<path stroke="none" fill="#000000" transform="matrix(0.0666667 0 0 0.0666667 -140.569 -138.333)" d="M 2509.18,3940.27 L 2501.76,3940.27 L 2498.7,3934.27 L 2668.16,3701.02 L 2672.75,3715.13 L 2509.18,3940.27 Z " />
<path stroke="none" fill="#000000" transform="matrix(0.0666667 0 0 0.0666667 -140.569 -138.333)" d="M 2570.47,3943.79 L 2560.76,3936.74 L 2685.33,3765.28 L 2695.04,3772.33 L 2570.47,3943.79 Z " />
<path stroke="none" fill="#000000" transform="matrix(0.0666667 0 0 0.0666667 -140.569 -138.333)" d="M 2672.75,3715.13 L 2668.16,3701.02 L 2942.72,3790.23 L 2943.41,3796.77 L 2937.41,3801.13 L 2672.75,3715.13 Z " />
<path stroke="none" fill="#000000" transform="matrix(0.0666667 0 0 0.0666667 -140.569 -138.333)" d="M 2949.41,3800.23 L 2943.41,3796.77 L 2942.72,3790.23 L 3185.96,3649.8 L 3191.96,3653.27 L 3191.96,3660.19 L 2949.41,3800.23 Z " />
<path stroke="none" fill="#000000" transform="matrix(0.0666667 0 0 0.0666667 -140.569 -138.333)" d="M 2998.07,3831.79 L 2992.07,3821.4 L 3188.96,3707.72 L 3194.96,3718.11 L 2998.07,3831.79 Z " />
<path stroke="none" fill="#000000" transform="matrix(0.0666667 0 0 0.0666667 -140.569 -138.333)" d="M 3197.96,3649.8 L 3191.96,3653.27 L 3185.96,3649.8 L 3185.96,3369.32 L 3191.96,3366.27 L 3197.96,3369.32 L 3197.96,3649.8 Z " />
<path stroke="none" fill="#000000" transform="matrix(0.0666667 0 0 0.0666667 -140.569 -138.333)" d="M 3191.96,3358.85 L 3191.96,3366.27 L 3185.96,3369.32 L 2952.72,3199.86 L 2966.82,3195.28 L 3191.96,3358.85 Z " />
<path stroke="none" fill="#000000" transform="matrix(0.0666667 0 0 0.0666667 -140.569 -138.333)" d="M 3195.48,3297.56 L 3188.43,3307.26 L 3016.97,3182.69 L 3024.03,3172.99 L 3195.48,3297.56 Z " />
<path stroke="none" fill="#000000" transform="matrix(0.0666667 0 0 0.0666667 -140.569 -138.333)" d="M 2966.82,3195.28 L 2952.72,3199.86 L 3041.81,2925.67 L 3048.46,2924.62 L 3052.82,2930.62 L 2966.82,3195.28 Z " />
<path stroke="none" fill="#000000" transform="matrix(0.0666667 0 0 0.0666667 -140.569 -138.333)" d="M 3052.82,2930.62 L 3048.46,2924.62 L 3051.51,2918.62 L 3339.82,2918.62 L 3331.1,2930.62 L 3052.82,2930.62 Z " />
<path stroke="none" fill="#000000" transform="matrix(0.0666667 0 0 0.0666667 -140.569 -138.333)" d="M 3085.99,2982.28 L 3085.99,2970.28 L 3297.92,2970.28 L 3297.92,2982.28 L 3085.99,2982.28 Z " />
<path stroke="none" fill="#000000" transform="matrix(0.0666667 0 0 0.0666667 -140.569 -138.333)" d="M 3331.1,2930.62 L 3339.82,2918.62 L 3399.43,3102.09 L 3388.02,3105.8 L 3331.1,2930.62 Z " />
<path stroke="none" fill="#000000" transform="matrix(0.0666667 0 0 0.0666667 -140.569 -138.333)" d="M 3197.96,3369.32 L 3191.96,3366.27 L 3191.96,3358.85 L 3333.75,3255.83 L 3340.8,3265.54 L 3197.96,3369.32 Z " />
<path stroke="none" fill="#000000" transform="matrix(0.0666667 0 0 0.0666667 -140.569 -138.333)" d="M 3191.96,3660.19 L 3191.96,3653.27 L 3197.96,3649.8 L 3441.19,3790.23 L 3440.51,3796.77 L 3434.51,3800.23 L 3191.96,3660.19 Z " />
<path stroke="none" fill="#000000" transform="matrix(0.0666667 0 0 0.0666667 -140.569 -138.333)" d="M 3446.51,3801.13 L 3440.51,3796.77 L 3441.19,3790.23 L 3617.03,3733.1 L 3620.74,3744.51 L 3446.51,3801.13 Z " />
<path stroke="none" fill="#000000" transform="matrix(0.0666667 0 0 0.0666667 -140.569 -138.333)" d="M 3775.15,3803.2 L 3784.86,3796.14 L 3885.47,3934.62 L 3882.15,3940.27 L 3874.74,3940.27 L 3775.15,3803.2 Z " />
<path stroke="none" fill="#000000" transform="matrix(0.0666667 0 0 0.0666667 -140.569 -138.333)" d="M 3874.74,3940.27 L 3882.15,3940.27 L 3884.93,3946.65 L 3715.75,4179.51 L 3711.17,4165.4 L 3874.74,3940.27 Z " />
<path stroke="none" fill="#000000" transform="matrix(0.0666667 0 0 0.0666667 -140.569 -138.333)" d="M 3813.44,3936.74 L 3823.15,3943.79 L 3698.58,4115.25 L 3688.87,4108.2 L 3813.44,3936.74 Z " />
<path stroke="none" fill="#000000" transform="matrix(0.0666667 0 0 0.0666667 -140.569 -138.333)" d="M 3711.17,4165.4 L 3715.75,4179.51 L 3441.19,4090.3 L 3440.51,4083.77 L 3446.51,4079.41 L 3711.17,4165.4 Z " />
<path stroke="none" fill="#000000" transform="matrix(0.0666667 0 0 0.0666667 -140.569 -138.333)" d="M 3434.51,3800.23 L 3440.51,3796.77 L 3446.51,3801.13 L 3446.51,4079.41 L 3440.51,4083.77 L 3434.51,4080.3 L 3434.51,3800.23 Z " />
<path stroke="none" fill="#000000" transform="matrix(0.0666667 0 0 0.0666667 -140.569 -138.333)" d="M 3382.85,3826.59 L 3394.85,3826.59 L 3394.85,4053.94 L 3382.85,4053.94 L 3382.85,3826.59 Z " />
<path stroke="none" fill="#000000" transform="matrix(0.0666667 0 0 0.0666667 -140.569 -138.333)" d="M 3434.51,4080.3 L 3440.51,4083.77 L 3441.19,4090.3 L 3197.96,4230.73 L 3191.96,4227.27 L 3191.96,4220.34 L 3434.51,4080.3 Z " />
<path stroke="none" fill="#000000" transform="matrix(0.0666667 0 0 0.0666667 -140.569 -138.333)" d="M 3185.96,4230.73 L 3191.96,4227.27 L 3197.96,4230.73 L 3197.96,4511.21 L 3191.96,4514.27 L 3185.96,4511.21 L 3185.96,4230.73 Z " />
<path stroke="none" fill="#000000" transform="matrix(0.0666667 0 0 0.0666667 -140.569 -138.333)" d="M 3185.96,4511.21 L 3191.96,4514.27 L 3191.96,4521.68 L 2966.82,4685.25 L 2952.72,4680.67 L 3185.96,4511.21 Z " />
<path stroke="none" fill="#000000" transform="matrix(0.0666667 0 0 0.0666667 -140.569 -138.333)" d="M 3188.43,4573.27 L 3195.48,4582.98 L 3024.03,4707.55 L 3016.97,4697.84 L 3188.43,4573.27 Z " />
<path stroke="none" fill="#000000" transform="matrix(0.0666667 0 0 0.0666667 -140.569 -138.333)" d="M 2952.72,4680.67 L 2966.82,4685.25 L 3052.82,4949.91 L 3044.1,4961.91 L 2952.72,4680.67 Z " />
<path stroke="none" fill="#000000" transform="matrix(0.0666667 0 0 0.0666667 -140.569 -138.333)" d="M 3044.1,4961.91 L 3052.82,4949.91 L 3331.1,4949.91 L 3335.46,4955.91 L 3332.4,4961.91 L 3044.1,4961.91 Z " />
<path stroke="none" fill="#000000" transform="matrix(0.0666667 0 0 0.0666667 -140.569 -138.333)" d="M 3085.99,4910.25 L 3085.99,4898.25 L 3297.92,4898.25 L 3297.92,4910.25 L 3085.99,4910.25 Z " />
<path stroke="none" fill="#000000" transform="matrix(0.0666667 0 0 0.0666667 -140.569 -138.333)" d="M 3342.11,4954.86 L 3335.46,4955.91 L 3331.1,4949.91 L 3383.21,4789.54 L 3394.62,4793.25 L 3342.11,4954.86 Z " />
<path stroke="none" fill="#000000" transform="matrix(0.0666667 0 0 0.0666667 -140.569 -138.333)" d="M 3191.96,4521.68 L 3191.96,4514.27 L 3197.96,4511.21 L 3349.74,4621.49 L 3342.69,4631.19 L 3191.96,4521.68 Z " />
<path stroke="none" fill="#000000" transform="matrix(0.0666667 0 0 0.0666667 -140.569 -138.333)" d="M 2937.41,3801.13 L 2943.41,3796.77 L 2949.41,3800.23 L 2949.41,4080.3 L 2943.41,4083.77 L 2937.41,4079.41 L 2937.41,3801.13 Z " />
<path stroke="none" fill="#000000" transform="matrix(0.0666667 0 0 0.0666667 -140.569 -138.333)" d="M 3191.96,4220.34 L 3191.96,4227.27 L 3185.96,4230.73 L 2942.72,4090.3 L 2943.41,4083.77 L 2949.41,4080.3 L 3191.96,4220.34 Z " />
<path stroke="none" fill="#000000" transform="matrix(0.0666667 0 0 0.0666667 -140.569 -138.333)" d="M 3194.96,4162.42 L 3188.96,4172.81 L 2992.07,4059.14 L 2998.07,4048.74 L 3194.96,4162.42 Z " />
<path stroke="none" fill="#000000" transform="matrix(0.0666667 0 0 0.0666667 -140.569 -138.333)" d="M 2937.41,4079.41 L 2943.41,4083.77 L 2942.72,4090.3 L 2757.99,4150.32 L 2754.28,4138.91 L 2937.41,4079.41 Z " />
<path stroke="none" fill="#000000" transform="matrix(0.0666667 0 0 0.0666667 -140.569 -138.333)" d="M 2498.7,3946.27 L 2501.76,3940.27 L 2509.18,3940.27 L 2617.33,4089.12 L 2607.62,4096.18 L 2498.7,3946.27 Z " />
<path stroke="none" fill="#000000" transform="matrix(0.0666667 0 0 0.0666667 -140.569 -138.333)" d="M 3884.93,3946.65 L 3882.15,3940.27 L 3885.47,3934.62 L 4127.42,3963.98 L 4129.19,3970.24 L 4124.85,3975.75 L 3884.93,3946.65 Z " />
<text x="0" y="0" stroke="none" fill="#e1e100" transform="matrix(0.0666667 0 0 0.0666667 145.237 119.638)" font-style="normal" font-weight="normal" font-size="200px" font-family="Arial" >
S</text>
<path stroke="none" fill="#000000" transform="matrix(0.0666667 0 0 0.0666667 -140.569 -138.333)" d="M 4124.85,3975.75 L 4129.19,3970.24 L 4136.34,3972.22 L 4233.81,4232.87 L 4225.62,4245.24 L 4124.85,3975.75 Z " />
<path stroke="none" fill="#000000" transform="matrix(0.0666667 0 0 0.0666667 -140.569 -138.333)" d="M 4185.11,3989.4 L 4196.35,3985.2 L 4270.58,4183.7 L 4259.34,4187.91 L 4185.11,3989.4 Z " />
<path stroke="none" fill="#000000" transform="matrix(0.0666667 0 0 0.0666667 -140.569 -138.333)" d="M 4225.62,4245.24 L 4233.81,4232.87 L 4511.83,4220.72 L 4521.06,4232.33 L 4225.62,4245.24 Z " />
<path stroke="none" fill="#000000" transform="matrix(0.0666667 0 0 0.0666667 -140.569 -138.333)" d="M 4521.06,4232.33 L 4511.83,4220.72 L 4586.18,3952.56 L 4593.13,3949.96 L 4598.09,3954.51 L 4521.06,4232.33 Z " />
<path stroke="none" fill="#000000" transform="matrix(0.0666667 0 0 0.0666667 -140.569 -138.333)" d="M 4482.47,4178.15 L 4470.91,4174.95 L 4527.53,3970.72 L 4539.1,3973.93 L 4482.47,4178.15 Z " />
<path stroke="none" fill="#000000" transform="matrix(0.0666667 0 0 0.0666667 -140.569 -138.333)" d="M 4593.89,3943.27 L 4593.13,3949.96 L 4586.18,3952.56 L 4439.68,3855.6 L 4446.31,3845.6 L 4593.89,3943.27 Z " />
<path stroke="none" fill="#000000" transform="matrix(0.0666667 0 0 0.0666667 -140.569 -138.333)" d="M 4265.32,3854.28 L 4272.79,3863.67 L 4136.34,3972.22 L 4129.19,3970.24 L 4127.42,3963.98 L 4265.32,3854.28 Z " />
<path stroke="none" fill="#000000" transform="matrix(0.0666667 0 0 0.0666667 -140.569 -138.333)" d="M 4598.09,3954.51 L 4593.13,3949.96 L 4593.89,3943.27 L 4856.98,3844.89 L 4861.95,3849.44 L 4861.18,3856.13 L 4598.09,3954.51 Z " />
<text x="0" y="0" stroke="none" fill="#e1e100" transform="matrix(0.0666667 0 0 0.0666667 195.069 134.055)" font-style="normal" font-weight="normal" font-size="200px" font-family="Arial" >
S</text>
<path stroke="none" fill="#000000" transform="matrix(0.0666667 0 0 0.0666667 -140.569 -138.333)" d="M 4861.18,3856.13 L 4861.95,3849.44 L 4868.89,3846.84 L 5024.64,3949.92 L 5018.02,3959.92 L 4861.18,3856.13 Z " />
<path stroke="none" fill="#000000" transform="matrix(0.0666667 0 0 0.0666667 -140.569 -138.333)" d="M 5179.56,3953.23 L 5172.08,3943.84 L 5318.73,3827.18 L 5325.88,3829.16 L 5327.22,3835.76 L 5179.56,3953.23 Z " />
<path stroke="none" fill="#000000" transform="matrix(0.0666667 0 0 0.0666667 -140.569 -138.333)" d="M 5330.43,3824.19 L 5325.88,3829.16 L 5318.73,3827.18 L 5221.26,3566.52 L 5225.36,3560.34 L 5231.91,3560.74 L 5330.43,3824.19 Z " />
<path stroke="none" fill="#000000" transform="matrix(0.0666667 0 0 0.0666667 -140.569 -138.333)" d="M 5269.97,3809.99 L 5258.73,3814.2 L 5184.5,3615.69 L 5195.74,3611.48 L 5269.97,3809.99 Z " />
<path stroke="none" fill="#000000" transform="matrix(0.0666667 0 0 0.0666667 -140.569 -138.333)" d="M 5221.63,3554.49 L 5225.36,3560.34 L 5221.26,3566.52 L 4943.25,3578.67 L 4938.63,3572.87 L 4941.83,3566.72 L 5221.63,3554.49 Z " />
<path stroke="none" fill="#000000" transform="matrix(0.0666667 0 0 0.0666667 -140.569 -138.333)" d="M 4932.14,3573.84 L 4938.63,3572.87 L 4943.25,3578.67 L 4868.89,3846.84 L 4861.95,3849.44 L 4856.98,3844.89 L 4932.14,3573.84 Z " />
<path stroke="none" fill="#000000" transform="matrix(0.0666667 0 0 0.0666667 -140.569 -138.333)" d="M 4972.6,3621.24 L 4984.17,3624.44 L 4927.54,3828.67 L 4915.98,3825.47 L 4972.6,3621.24 Z " />
<path stroke="none" fill="#000000" transform="matrix(0.0666667 0 0 0.0666667 -140.569 -138.333)" d="M 5231.91,3560.74 L 5225.36,3560.34 L 5221.63,3554.49 L 5350.94,3306.06 L 5364.79,3305.46 L 5231.91,3560.74 Z " />
<path stroke="none" fill="#000000" transform="matrix(0.0666667 0 0 0.0666667 -140.569 -138.333)" d="M 5364.79,3305.46 L 5350.94,3306.06 L 5200.45,3069.86 L 5203.65,3063.71 L 5210.15,3062.74 L 5364.79,3305.46 Z " />
<path stroke="none" fill="#000000" transform="matrix(0.0666667 0 0 0.0666667 -140.569 -138.333)" d="M 4910.37,3075.84 L 4916.92,3076.24 L 4920.65,3082.09 L 4791.34,3330.52 L 4777.49,3331.13 L 4910.37,3075.84 Z " />
<path stroke="none" fill="#000000" transform="matrix(0.0666667 0 0 0.0666667 -140.569 -138.333)" d="M 4777.49,3331.13 L 4791.34,3330.52 L 4941.83,3566.72 L 4938.63,3572.87 L 4932.14,3573.84 L 4777.49,3331.13 Z " />
<text x="0" y="0" stroke="none" fill="#e1e100" transform="matrix(0.0666667 0 0 0.0666667 191.051 42.1168)" font-style="normal" font-weight="normal" font-size="200px" font-family="Arial" >
S</text>
<path stroke="none" fill="#000000" transform="matrix(0.0666667 0 0 0.0666667 -140.569 -138.333)" d="M 5210.15,3062.74 L 5203.65,3063.71 L 5199.03,3057.91 L 5273.39,2789.74 L 5280.33,2787.15 L 5285.3,2791.7 L 5210.15,3062.74 Z " />
<path stroke="none" fill="#000000" transform="matrix(0.0666667 0 0 0.0666667 -140.569 -138.333)" d="M 5169.68,3015.34 L 5158.11,3012.14 L 5214.74,2807.91 L 5226.3,2811.12 L 5169.68,3015.34 Z " />
<path stroke="none" fill="#000000" transform="matrix(0.0666667 0 0 0.0666667 -140.569 -138.333)" d="M 4952.52,2691.47 L 4959.99,2700.86 L 4823.55,2809.41 L 4816.4,2807.42 L 4815.06,2800.83 L 4952.52,2691.47 Z " />
<path stroke="none" fill="#000000" transform="matrix(0.0666667 0 0 0.0666667 -140.569 -138.333)" d="M 4811.85,2812.39 L 4816.4,2807.42 L 4823.55,2809.41 L 4921.02,3070.06 L 4916.92,3076.24 L 4910.37,3075.84 L 4811.85,2812.39 Z " />
<path stroke="none" fill="#000000" transform="matrix(0.0666667 0 0 0.0666667 -140.569 -138.333)" d="M 4872.31,2826.59 L 4883.55,2822.39 L 4957.78,3020.89 L 4946.54,3025.1 L 4872.31,2826.59 Z " />
<text x="0" y="0" stroke="none" fill="#ff0000" transform="matrix(0.0666667 0 0 0.0666667 154.091 89.7571)" font-style="normal" font-weight="normal" font-size="200px" font-family="Arial" >
O</text>
<path stroke="none" fill="#000000" transform="matrix(0.0666667 0 0 0.0666667 -140.569 -138.333)" d="M 4800.18,3349.98 L 4800.7,3361.97 L 4599.13,3370.78 L 4598.61,3358.79 L 4800.18,3349.98 Z " />
<path stroke="none" fill="#000000" transform="matrix(0.0666667 0 0 0.0666667 -140.569 -138.333)" d="M 4797.92,3298.37 L 4798.45,3310.36 L 4596.88,3319.17 L 4596.35,3307.18 L 4797.92,3298.37 Z " />
<text x="0" y="0" stroke="none" fill="#ff0000" transform="matrix(0.0666667 0 0 0.0666667 230.551 86.415)" font-style="normal" font-weight="normal" font-size="200px" font-family="Arial" >
O</text>
<path stroke="none" fill="#000000" transform="matrix(0.0666667 0 0 0.0666667 -140.569 -138.333)" d="M 5342.1,3286.6 L 5341.58,3274.61 L 5543.58,3265.78 L 5544.1,3277.77 L 5342.1,3286.6 Z " />
<path stroke="none" fill="#000000" transform="matrix(0.0666667 0 0 0.0666667 -140.569 -138.333)" d="M 5344.36,3338.21 L 5343.83,3326.22 L 5545.84,3317.39 L 5546.36,3329.38 L 5344.36,3338.21 Z " />
<path stroke="none" fill="#000000" transform="matrix(0.0666667 0 0 0.0666667 -140.569 -138.333)" d="M 5285.3,2791.7 L 5280.33,2787.15 L 5281.1,2780.46 L 5543.81,2682.22 L 5554.5,2691.03 L 5285.3,2791.7 Z " />
<path stroke="none" fill="#000000" transform="matrix(0.0666667 0 0 0.0666667 -140.569 -138.333)" d="M 4815.06,2800.83 L 4816.4,2807.42 L 4811.85,2812.39 L 4534.89,2735.6 L 4544.78,2725.88 L 4815.06,2800.83 Z " />
<path stroke="none" fill="#000000" transform="matrix(0.0666667 0 0 0.0666667 -140.569 -138.333)" d="M 3051.51,2918.62 L 3048.46,2924.62 L 3041.81,2925.67 L 2876.94,2698.76 L 2882.58,2686.1 L 3051.51,2918.62 Z " />
<path stroke="none" fill="#000000" transform="matrix(0.0666667 0 0 0.0666667 -140.569 -138.333)" d="M 2882.58,2686.1 L 2876.94,2698.76 L 2598.41,2728.04 L 2594.33,2722.43 L 2597.15,2716.1 L 2882.58,2686.1 Z " />
<text x="0" y="0" stroke="none" fill="#000000" transform="matrix(0.0666667 0 0 0.0666667 2.98896 32.8828)" font-style="normal" font-weight="normal" font-size="200px" font-family="Arial" >
C</text>
<text x="0" y="0" stroke="none" fill="#000000" transform="matrix(0.0666667 0 0 0.0666667 12.6179 35.8162)" font-style="normal" font-weight="normal" font-size="150px" font-family="Arial" >
4</text>
<text x="0" y="0" stroke="none" fill="#000000" transform="matrix(0.0666667 0 0 0.0666667 18.1794 32.8828)" font-style="normal" font-weight="normal" font-size="200px" font-family="Arial" >
H</text>
<text x="0" y="0" stroke="none" fill="#000000" transform="matrix(0.0666667 0 0 0.0666667 27.8083 35.8162)" font-style="normal" font-weight="normal" font-size="150px" font-family="Arial" >
9</text>
<path stroke="none" fill="#000000" transform="matrix(0.0666667 0 0 0.0666667 -140.569 -138.333)" d="M 2597.15,2716.1 L 2594.33,2722.43 L 2587.44,2723.15 L 2544.9,2664.6 L 2554.61,2657.55 L 2597.15,2716.1 Z " />
<text x="0" y="0" stroke="none" fill="#000000" transform="matrix(0.0666667 0 0 0.0666667 6.45302 65.8412)" font-style="normal" font-weight="normal" font-size="200px" font-family="Arial" >
C</text>
<text x="0" y="0" stroke="none" fill="#000000" transform="matrix(0.0666667 0 0 0.0666667 16.0819 68.7745)" font-style="normal" font-weight="normal" font-size="150px" font-family="Arial" >
2</text>
<text x="0" y="0" stroke="none" fill="#000000" transform="matrix(0.0666667 0 0 0.0666667 21.6435 65.8412)" font-style="normal" font-weight="normal" font-size="200px" font-family="Arial" >
H</text>
<text x="0" y="0" stroke="none" fill="#000000" transform="matrix(0.0666667 0 0 0.0666667 31.2724 68.7745)" font-style="normal" font-weight="normal" font-size="150px" font-family="Arial" >
5</text>
<path stroke="none" fill="#000000" transform="matrix(0.0666667 0 0 0.0666667 -140.569 -138.333)" d="M 2587.44,2723.15 L 2594.33,2722.43 L 2598.41,2728.04 L 2530.57,2880.4 L 2519.61,2875.52 L 2587.44,2723.15 Z " />
<path stroke="none" fill="#000000" transform="matrix(0.0666667 0 0 0.0666667 -140.569 -138.333)" d="M 3332.4,4961.91 L 3335.46,4955.91 L 3342.11,4954.86 L 3506.97,5181.77 L 3501.33,5194.43 L 3332.4,4961.91 Z " />
<path stroke="none" fill="#000000" transform="matrix(0.0666667 0 0 0.0666667 -140.569 -138.333)" d="M 3501.33,5194.43 L 3506.97,5181.77 L 3785.51,5152.5 L 3789.58,5158.1 L 3786.76,5164.43 L 3501.33,5194.43 Z " />
<text x="0" y="0" stroke="none" fill="#000000" transform="matrix(0.0666667 0 0 0.0666667 115.037 193.261)" font-style="normal" font-weight="normal" font-size="200px" font-family="Arial" >
C</text>
<text x="0" y="0" stroke="none" fill="#000000" transform="matrix(0.0666667 0 0 0.0666667 124.666 196.194)" font-style="normal" font-weight="normal" font-size="150px" font-family="Arial" >
2</text>
<text x="0" y="0" stroke="none" fill="#000000" transform="matrix(0.0666667 0 0 0.0666667 130.227 193.261)" font-style="normal" font-weight="normal" font-size="200px" font-family="Arial" >
H</text>
<text x="0" y="0" stroke="none" fill="#000000" transform="matrix(0.0666667 0 0 0.0666667 139.856 196.194)" font-style="normal" font-weight="normal" font-size="150px" font-family="Arial" >
5</text>
<path stroke="none" fill="#000000" transform="matrix(0.0666667 0 0 0.0666667 -140.569 -138.333)" d="M 3796.47,5157.38 L 3789.58,5158.1 L 3785.51,5152.5 L 3855.1,4996.2 L 3866.06,5001.08 L 3796.47,5157.38 Z " />
<text x="0" y="0" stroke="none" fill="#000000" transform="matrix(0.0666667 0 0 0.0666667 118.501 226.219)" font-style="normal" font-weight="normal" font-size="200px" font-family="Arial" >
C</text>
<text x="0" y="0" stroke="none" fill="#000000" transform="matrix(0.0666667 0 0 0.0666667 128.13 229.153)" font-style="normal" font-weight="normal" font-size="150px" font-family="Arial" >
4</text>
<text x="0" y="0" stroke="none" fill="#000000" transform="matrix(0.0666667 0 0 0.0666667 133.692 226.219)" font-style="normal" font-weight="normal" font-size="200px" font-family="Arial" >
H</text>
<text x="0" y="0" stroke="none" fill="#000000" transform="matrix(0.0666667 0 0 0.0666667 143.32 229.153)" font-style="normal" font-weight="normal" font-size="150px" font-family="Arial" >
9</text>
<path stroke="none" fill="#000000" transform="matrix(0.0666667 0 0 0.0666667 -140.569 -138.333)" d="M 3786.76,5164.43 L 3789.58,5158.1 L 3796.47,5157.38 L 3907,5309.51 L 3897.29,5316.56 L 3786.76,5164.43 Z " />
<path stroke="none" fill="#000000" transform="matrix(0.0666667 0 0 0.0666667 -140.569 -138.333)" d="M 5281.1,2780.46 L 5280.33,2787.15 L 5273.39,2789.74 L 5126.89,2692.79 L 5133.51,2682.78 L 5281.1,2780.46 Z " />
<path stroke="none" fill="#000000" transform="matrix(0.0666667 0 0 0.0666667 -140.569 -138.333)" d="M 4920.65,3082.09 L 4916.92,3076.24 L 4921.02,3070.06 L 5199.03,3057.91 L 5203.65,3063.71 L 5200.45,3069.86 L 4920.65,3082.09 Z " />
<path stroke="none" fill="#000000" transform="matrix(0.0666667 0 0 0.0666667 -140.569 -138.333)" d="M 5554.5,2691.03 L 5543.81,2682.22 L 5590.02,2405.98 L 5596.51,2403.56 L 5601.85,2407.96 L 5554.5,2691.03 Z " />
<text x="0" y="0" stroke="none" fill="#000000" transform="matrix(0.0666667 0 0 0.0666667 245.638 20.4023)" font-style="normal" font-weight="normal" font-size="200px" font-family="Arial" >
C</text>
<text x="0" y="0" stroke="none" fill="#000000" transform="matrix(0.0666667 0 0 0.0666667 255.267 23.3357)" font-style="normal" font-weight="normal" font-size="150px" font-family="Arial" >
4</text>
<text x="0" y="0" stroke="none" fill="#000000" transform="matrix(0.0666667 0 0 0.0666667 260.828 20.4023)" font-style="normal" font-weight="normal" font-size="200px" font-family="Arial" >
H</text>
<text x="0" y="0" stroke="none" fill="#000000" transform="matrix(0.0666667 0 0 0.0666667 270.457 23.3357)" font-style="normal" font-weight="normal" font-size="150px" font-family="Arial" >
9</text>
<path stroke="none" fill="#000000" transform="matrix(0.0666667 0 0 0.0666667 -140.569 -138.333)" d="M 5601.85,2407.96 L 5596.51,2403.56 L 5597.65,2396.72 L 5770.43,2332.12 L 5774.63,2343.35 L 5601.85,2407.96 Z " />
<text x="0" y="0" stroke="none" fill="#000000" transform="matrix(0.0666667 0 0 0.0666667 191.094 14.9343)" font-style="normal" font-weight="normal" font-size="200px" font-family="Arial" >
C</text>
<text x="0" y="0" stroke="none" fill="#000000" transform="matrix(0.0666667 0 0 0.0666667 200.723 17.8676)" font-style="normal" font-weight="normal" font-size="150px" font-family="Arial" >
2</text>
<text x="0" y="0" stroke="none" fill="#000000" transform="matrix(0.0666667 0 0 0.0666667 206.284 14.9343)" font-style="normal" font-weight="normal" font-size="200px" font-family="Arial" >
H</text>
<text x="0" y="0" stroke="none" fill="#000000" transform="matrix(0.0666667 0 0 0.0666667 215.913 17.8676)" font-style="normal" font-weight="normal" font-size="150px" font-family="Arial" >
5</text>
<path stroke="none" fill="#000000" transform="matrix(0.0666667 0 0 0.0666667 -140.569 -138.333)" d="M 5597.65,2396.72 L 5596.51,2403.56 L 5590.02,2405.98 L 5468.64,2305.94 L 5476.27,2296.68 L 5597.65,2396.72 Z " />
<path stroke="none" fill="#000000" transform="matrix(0.0666667 0 0 0.0666667 -140.569 -138.333)" d="M 4544.78,2725.88 L 4534.89,2735.6 L 4463.02,2457.74 L 4467.96,2452.89 L 4474.64,2454.74 L 4544.78,2725.88 Z " />
<text x="0" y="0" stroke="none" fill="#000000" transform="matrix(0.0666667 0 0 0.0666667 166.127 16.981)" font-style="normal" font-weight="normal" font-size="200px" font-family="Arial" >
C</text>
<text x="0" y="0" stroke="none" fill="#000000" transform="matrix(0.0666667 0 0 0.0666667 175.755 19.9143)" font-style="normal" font-weight="normal" font-size="150px" font-family="Arial" >
2</text>
<text x="0" y="0" stroke="none" fill="#000000" transform="matrix(0.0666667 0 0 0.0666667 181.317 16.981)" font-style="normal" font-weight="normal" font-size="200px" font-family="Arial" >
H</text>
<text x="0" y="0" stroke="none" fill="#000000" transform="matrix(0.0666667 0 0 0.0666667 190.946 19.9143)" font-style="normal" font-weight="normal" font-size="150px" font-family="Arial" >
5</text>
<path stroke="none" fill="#000000" transform="matrix(0.0666667 0 0 0.0666667 -140.569 -138.333)" d="M 4474.64,2454.74 L 4467.96,2452.89 L 4466.23,2446.18 L 4591.74,2322.83 L 4600.15,2331.38 L 4474.64,2454.74 Z " />
<text x="0" y="0" stroke="none" fill="#000000" transform="matrix(0.0666667 0 0 0.0666667 112.184 25.2802)" font-style="normal" font-weight="normal" font-size="200px" font-family="Arial" >
C</text>
<text x="0" y="0" stroke="none" fill="#000000" transform="matrix(0.0666667 0 0 0.0666667 121.813 28.2135)" font-style="normal" font-weight="normal" font-size="150px" font-family="Arial" >
4</text>
<text x="0" y="0" stroke="none" fill="#000000" transform="matrix(0.0666667 0 0 0.0666667 127.374 25.2802)" font-style="normal" font-weight="normal" font-size="200px" font-family="Arial" >
H</text>
<text x="0" y="0" stroke="none" fill="#000000" transform="matrix(0.0666667 0 0 0.0666667 137.003 28.2135)" font-style="normal" font-weight="normal" font-size="150px" font-family="Arial" >
9</text>
<path stroke="none" fill="#000000" transform="matrix(0.0666667 0 0 0.0666667 -140.569 -138.333)" d="M 4466.23,2446.18 L 4467.96,2452.89 L 4463.02,2457.74 L 4278.46,2406.57 L 4281.66,2395 L 4466.23,2446.18 Z " />
<path stroke="none" fill="#000000" transform="matrix(0.0666667 0 0 0.0666667 -140.569 -138.333)" d="M 2498.7,3934.27 L 2501.76,3940.27 L 2498.7,3946.27 L 2214.76,3946.27 L 2214.76,3934.27 L 2498.7,3934.27 Z " />
<path stroke="#000000" stroke-width="12" fill="none" transform="matrix(0.0666667 0 0 0.0666667 -140.569 -138.333)" d="M 6170.95,3702.05 L 6198.53,3701.97 " />
<path stroke="#000000" stroke-width="12" fill="none" transform="matrix(0.0666667 0 0 0.0666667 -140.569 -138.333)" d="M 6198.53,3701.97 L 6199.61,4076.37 " />
<path stroke="#000000" stroke-width="12" fill="none" transform="matrix(0.0666667 0 0 0.0666667 -140.569 -138.333)" d="M 6199.61,4076.37 L 6172.03,4076.45 " />
<text x="0" y="0" stroke="none" fill="#000000" transform="matrix(0.0666667 0 0 0.0666667 276.654 136.486)" font-style="normal" font-weight="normal" font-size="150px" font-family="Arial" >
n</text>
<path stroke="#000000" stroke-width="12" fill="none" transform="matrix(0.0666667 0 0 0.0666667 -140.569 -138.333)" d="M 2387.16,4124.93 L 2359.58,4125.16 " />
<path stroke="#000000" stroke-width="12" fill="none" transform="matrix(0.0666667 0 0 0.0666667 -140.569 -138.333)" d="M 2359.58,4125.16 L 2356.51,3750.77 " />
<path stroke="#000000" stroke-width="12" fill="none" transform="matrix(0.0666667 0 0 0.0666667 -140.569 -138.333)" d="M 2356.51,3750.77 L 2384.08,3750.55 " />
<path stroke="none" fill="#000000" transform="matrix(0.0666667 0 0 0.0666667 -140.569 -138.333)" d="M 5327.22,3835.76 L 5325.88,3829.16 L 5330.43,3824.19 L 5601.07,3899.23 L 5602.45,3905.84 L 5597.87,3910.8 L 5327.22,3835.76 Z " />
<text x="0" y="0" stroke="none" fill="#e1e100" transform="matrix(0.0666667 0 0 0.0666667 243.527 115.097)" font-style="normal" font-weight="normal" font-size="200px" font-family="Arial" >
S</text>
<path stroke="none" fill="#000000" transform="matrix(0.0666667 0 0 0.0666667 -140.569 -138.333)" d="M 5597.87,3910.8 L 5602.45,3905.84 L 5609.55,3907.81 L 5705.03,4169.22 L 5696.78,4181.63 L 5597.87,3910.8 Z " />
<path stroke="none" fill="#000000" transform="matrix(0.0666667 0 0 0.0666667 -140.569 -138.333)" d="M 5658,3924.87 L 5669.28,3920.75 L 5742.03,4119.95 L 5730.76,4124.07 L 5658,3924.87 Z " />
<path stroke="none" fill="#000000" transform="matrix(0.0666667 0 0 0.0666667 -140.569 -138.333)" d="M 5696.78,4181.63 L 5705.03,4169.22 L 5982.96,4155.94 L 5992.16,4167.51 L 5696.78,4181.63 Z " />
<path stroke="none" fill="#000000" transform="matrix(0.0666667 0 0 0.0666667 -140.569 -138.333)" d="M 5992.16,4167.51 L 5982.96,4155.94 L 6059.3,3886.22 L 6066.26,3883.67 L 6070.84,3889.53 L 5992.16,4167.51 Z " />
<path stroke="none" fill="#000000" transform="matrix(0.0666667 0 0 0.0666667 -140.569 -138.333)" d="M 5953.47,4113.19 L 5941.93,4109.92 L 6000.17,3904.15 L 6011.72,3907.42 L 5953.47,4113.19 Z " />
<path stroke="none" fill="#000000" transform="matrix(0.0666667 0 0 0.0666667 -140.569 -138.333)" d="M 6068,3877.61 L 6066.26,3883.67 L 6059.3,3886.22 L 5913.7,3788.25 L 5920.4,3778.29 L 6068,3877.61 Z " />
<path stroke="none" fill="#000000" transform="matrix(0.0666667 0 0 0.0666667 -140.569 -138.333)" d="M 5740.03,3786.94 L 5747.57,3796.28 L 5609.55,3907.81 L 5602.45,3905.84 L 5601.07,3899.23 L 5740.03,3786.94 Z " />
<path stroke="none" fill="#000000" transform="matrix(0.0666667 0 0 0.0666667 -140.569 -138.333)" d="M 6070.84,3889.53 L 6066.26,3883.67 L 6068,3877.61 L 6335.53,3868.82 L 6335.93,3880.81 L 6070.84,3889.53 Z " />
</svg>
