<?xml version='1.0' encoding='UTF-8'?>
<!DOCTYPE svg PUBLIC "-//W3C//DTD SVG 1.1//EN" "http://www.w3.org/Graphics/SVG/1.1/DTD/svg11.dtd">
<svg xmlns="http://www.w3.org/2000/svg" xmlns:xlink="http://www.w3.org/1999/xlink" width="383px" height="188px" viewBox="0 0 383 188" style="background-color: #ffffff00" version="1.1">
  <style>:root {
  --h: #000000;
  --c: #000000;
  --n: #2144d9;
  --o: #ff0d0d;
  --s: #e1e100;
  --p: #ff8000;
  --f: #90e000;
  --cl: #00e000;
  --br: #a52a2a;
  --i: #940094;
  --bonds: #000000;
}
@media (prefers-color-scheme: dark) {
:root {
  --h: #000000;
  --c: #000000;
  --n: #2144d9;
  --o: #ff0d0d;
  --s: #e1e100;
  --p: #ff8000;
  --f: #90e000;
  --cl: #00e000;
  --br: #a52a2a;
  --i: #940094;
  --bonds: #ffffff;
}}</style>
  <path stroke="none" fill="var(--bonds)" transform="matrix(0.0666667 0 0 0.0666667 -22.3333 -102)" d="M 764.585,1720.04 L 776.585,1726.96 L 776.585,2008.04 L 764.585,2014.96 L 764.585,1720.04 Z "/>
  <path stroke="none" fill="var(--bonds)" transform="matrix(0.0666667 0 0 0.0666667 -22.3333 -102)" d="M 816.425,1753.43 L 828.425,1753.43 L 828.425,1981.57 L 816.425,1981.57 L 816.425,1753.43 Z "/>
  <path stroke="none" fill="var(--bonds)" transform="matrix(0.0666667 0 0 0.0666667 -22.3333 -102)" d="M 764.585,2014.96 L 776.585,2008.04 L 1020,2148.57 L 1020,2155.5 L 1014.69,2159.36 L 764.585,2014.96 Z "/>
  <path stroke="none" fill="var(--bonds)" transform="matrix(0.0666667 0 0 0.0666667 -22.3333 -102)" d="M 1026.78,2158.52 L 1020,2155.5 L 1020,2148.57 L 1263.42,2008.04 L 1269.42,2011.5 L 1268.64,2018.88 L 1026.78,2158.52 Z "/>
  <path stroke="none" fill="var(--bonds)" transform="matrix(0.0666667 0 0 0.0666667 -22.3333 -102)" d="M 1023,2100.84 L 1017,2090.44 L 1214.58,1976.37 L 1220.58,1986.77 L 1023,2100.84 Z "/>
  <path stroke="none" fill="var(--bonds)" transform="matrix(0.0666667 0 0 0.0666667 -22.3333 -102)" d="M 1275.42,2008.83 L 1269.42,2011.5 L 1263.42,2008.04 L 1263.42,1726.96 L 1275.42,1720.04 L 1275.42,2008.83 Z "/>
  <path stroke="none" fill="var(--bonds)" transform="matrix(0.0666667 0 0 0.0666667 -22.3333 -102)" d="M 1275.42,1720.04 L 1263.42,1726.96 L 1020,1586.43 L 1020,1572.57 L 1275.42,1720.04 Z "/>
  <path stroke="none" fill="var(--bonds)" transform="matrix(0.0666667 0 0 0.0666667 -22.3333 -102)" d="M 1220.58,1748.23 L 1214.58,1758.63 L 1017,1644.56 L 1023,1634.16 L 1220.58,1748.23 Z "/>
  <path stroke="none" fill="var(--bonds)" transform="matrix(0.0666667 0 0 0.0666667 -22.3333 -102)" d="M 1020,1572.57 L 1020,1586.43 L 776.585,1726.96 L 764.585,1720.04 L 1020,1572.57 Z "/>
  <path stroke="none" fill="var(--bonds)" transform="matrix(0.0666667 0 0 0.0666667 -22.3333 -102)" d="M 1014.69,2159.36 L 1020,2155.5 L 1026.78,2158.52 L 1084.84,2431.69 L 1079.88,2437.21 L 1073.37,2435.46 L 1014.69,2159.36 Z "/>
  <path stroke="none" fill="var(--bonds)" transform="matrix(0.0666667 0 0 0.0666667 -22.3333 -102)" d="M 1082.29,2443.49 L 1079.88,2437.21 L 1084.84,2431.69 L 1362.59,2460.89 L 1366.3,2467.31 L 1362.63,2472.96 L 1082.29,2443.49 Z "/>
  <path stroke="none" fill="var(--bonds)" transform="matrix(0.0666667 0 0 0.0666667 -22.3333 -102)" d="M 1373.03,2466.96 L 1366.3,2467.31 L 1362.59,2460.89 L 1476.19,2205.75 L 1490.7,2202.67 L 1373.03,2466.96 Z "/>
  <path stroke="none" fill="var(--bonds)" transform="matrix(0.0666667 0 0 0.0666667 -22.3333 -102)" d="M 1490.7,2202.67 L 1476.19,2205.75 L 1268.64,2018.88 L 1269.42,2011.5 L 1275.42,2008.83 L 1490.7,2202.67 Z "/>
  <path stroke="none" fill="var(--bonds)" transform="matrix(0.0666667 0 0 0.0666667 -22.3333 -102)" d="M 1362.63,2472.96 L 1366.3,2467.31 L 1373.03,2466.96 L 1514.07,2711.25 L 1506.53,2722.2 L 1362.63,2472.96 Z "/>
  <path stroke="none" fill="var(--bonds)" transform="matrix(0.0666667 0 0 0.0666667 -22.3333 -102)" d="M 1419.21,2467.27 L 1429.6,2461.27 L 1548.06,2666.45 L 1537.67,2672.45 L 1419.21,2467.27 Z "/>
  <path stroke="none" fill="var(--bonds)" transform="matrix(0.0666667 0 0 0.0666667 -22.3333 -102)" d="M 1506.53,2722.2 L 1514.07,2711.25 L 1789.23,2755.4 L 1790.8,2761.73 L 1786.3,2767.08 L 1506.53,2722.2 Z "/>
  <text x="0" y="0" stroke="none" fill="var(--s)" transform="matrix(0.0666667 0 0 0.0666667 107.937 75.7556)" font-style="normal" font-weight="normal" font-size="200px" font-family="Arial">
S</text>
  <path stroke="none" fill="var(--bonds)" transform="matrix(0.0666667 0 0 0.0666667 -22.3333 -102)" d="M 1786.3,2767.08 L 1790.8,2761.73 L 1797.89,2763.89 L 1888.9,3027.93 L 1880.39,3040.08 L 1786.3,2767.08 Z "/>
  <path stroke="none" fill="var(--bonds)" transform="matrix(0.0666667 0 0 0.0666667 -22.3333 -102)" d="M 1846.41,2782.4 L 1857.76,2778.49 L 1927.06,2979.55 L 1915.71,2983.46 L 1846.41,2782.4 Z "/>
  <path stroke="none" fill="var(--bonds)" transform="matrix(0.0666667 0 0 0.0666667 -22.3333 -102)" d="M 1880.39,3040.08 L 1888.9,3027.93 L 2168.14,3022.97 L 2172.6,3028.89 L 2170.76,3034.93 L 1880.39,3040.08 Z "/>
  <path stroke="none" fill="var(--bonds)" transform="matrix(0.0666667 0 0 0.0666667 -22.3333 -102)" d="M 2179.61,3026.48 L 2172.6,3028.89 L 2168.14,3022.97 L 2249.71,2755.87 L 2256.72,2753.45 L 2261.19,2759.37 L 2179.61,3026.48 Z "/>
  <path stroke="none" fill="var(--bonds)" transform="matrix(0.0666667 0 0 0.0666667 -22.3333 -102)" d="M 2238.92,3009.77 L 2227.44,3006.26 L 2289.56,2802.86 L 2301.04,2806.37 L 2238.92,3009.77 Z "/>
  <path stroke="none" fill="var(--bonds)" transform="matrix(0.0666667 0 0 0.0666667 -22.3333 -102)" d="M 2258.56,2747.42 L 2256.72,2753.45 L 2249.71,2755.87 L 2105.47,2654.94 L 2112.35,2645.11 L 2258.56,2747.42 Z "/>
  <path stroke="none" fill="var(--bonds)" transform="matrix(0.0666667 0 0 0.0666667 -22.3333 -102)" d="M 1931.13,2648.4 L 1938.36,2657.98 L 1797.89,2763.89 L 1790.8,2761.73 L 1789.23,2755.4 L 1931.13,2648.4 Z "/>
  <text x="0" y="0" stroke="none" fill="var(--s)" transform="matrix(0.0666667 0 0 0.0666667 133.791 116.134)" font-style="normal" font-weight="normal" font-size="200px" font-family="Arial">
S</text>
  <path stroke="none" fill="var(--bonds)" transform="matrix(0.0666667 0 0 0.0666667 -22.3333 -102)" d="M 2170.76,3034.93 L 2172.6,3028.89 L 2179.61,3026.48 L 2333.22,3133.97 L 2326.34,3143.8 L 2170.76,3034.93 Z "/>
  <path stroke="none" fill="var(--bonds)" transform="matrix(0.0666667 0 0 0.0666667 -22.3333 -102)" d="M 2488.01,3141.63 L 2480.78,3132.04 L 2631.43,3018.45 L 2638.52,3020.62 L 2640.58,3026.58 L 2488.01,3141.63 Z "/>
  <path stroke="none" fill="var(--bonds)" transform="matrix(0.0666667 0 0 0.0666667 -22.3333 -102)" d="M 2642.77,3014.54 L 2638.52,3020.62 L 2631.43,3018.45 L 2540.42,2754.42 L 2544.68,2748.34 L 2551.77,2750.51 L 2642.77,3014.54 Z "/>
  <path stroke="none" fill="var(--bonds)" transform="matrix(0.0666667 0 0 0.0666667 -22.3333 -102)" d="M 2680.93,2966.16 L 2669.59,2970.07 L 2600.29,2769.01 L 2611.63,2765.1 L 2680.93,2966.16 Z "/>
  <path stroke="none" fill="var(--bonds)" transform="matrix(0.0666667 0 0 0.0666667 -22.3333 -102)" d="M 2542.62,2742.37 L 2544.68,2748.34 L 2540.42,2754.42 L 2261.19,2759.37 L 2256.72,2753.45 L 2258.56,2747.42 L 2542.62,2742.37 Z "/>
  <path stroke="none" fill="var(--bonds)" transform="matrix(0.0666667 0 0 0.0666667 -22.3333 -102)" d="M 2640.58,3026.58 L 2638.52,3020.62 L 2642.77,3014.54 L 2922.01,3009.59 L 2926.48,3015.51 L 2923.91,3021.55 L 2640.58,3026.58 Z "/>
  <path stroke="none" fill="var(--bonds)" transform="matrix(0.0666667 0 0 0.0666667 -22.3333 -102)" d="M 2933.23,3013.95 L 2926.48,3015.51 L 2922.01,3009.59 L 3003.58,2742.48 L 3010.6,2740.07 L 3015.32,2745.13 L 2933.23,3013.95 Z "/>
  <path stroke="none" fill="var(--bonds)" transform="matrix(0.0666667 0 0 0.0666667 -22.3333 -102)" d="M 2990.54,3003.78 L 2979.06,3000.27 L 3045.69,2782.08 L 3057.17,2785.58 L 2990.54,3003.78 Z "/>
  <path stroke="none" fill="var(--bonds)" transform="matrix(0.0666667 0 0 0.0666667 -22.3333 -102)" d="M 3011.85,2733.62 L 3010.6,2740.07 L 3003.58,2742.48 L 2774.76,2582.36 L 2774.63,2574.95 L 2783.93,2574.13 L 3011.85,2733.62 Z "/>
  <path stroke="none" fill="var(--bonds)" transform="matrix(0.0666667 0 0 0.0666667 -22.3333 -102)" d="M 2765.51,2574.31 L 2774.63,2574.95 L 2774.76,2582.36 L 2551.77,2750.51 L 2544.68,2748.34 L 2542.62,2742.37 L 2765.51,2574.31 Z "/>
  <path stroke="none" fill="var(--bonds)" transform="matrix(0.0666667 0 0 0.0666667 -22.3333 -102)" d="M 2923.91,3021.55 L 2926.48,3015.51 L 2933.23,3013.95 L 3124.98,3219.45 L 3120.93,3232.7 L 2923.91,3021.55 Z "/>
  <path stroke="none" fill="var(--bonds)" transform="matrix(0.0666667 0 0 0.0666667 -22.3333 -102)" d="M 3120.93,3232.7 L 3124.98,3219.45 L 3398.83,3156.14 L 3403.55,3161.21 L 3402.3,3167.65 L 3120.93,3232.7 Z "/>
  <path stroke="none" fill="var(--bonds)" transform="matrix(0.0666667 0 0 0.0666667 -22.3333 -102)" d="M 3141.79,3174.67 L 3139.09,3162.98 L 3361.36,3111.59 L 3364.07,3123.29 L 3141.79,3174.67 Z "/>
  <path stroke="none" fill="var(--bonds)" transform="matrix(0.0666667 0 0 0.0666667 -22.3333 -102)" d="M 3410.56,3158.79 L 3403.55,3161.21 L 3398.83,3156.14 L 3480.92,2887.33 L 3487.67,2885.77 L 3492.11,2891.77 L 3410.56,3158.79 Z "/>
  <path stroke="none" fill="var(--bonds)" transform="matrix(0.0666667 0 0 0.0666667 -22.3333 -102)" d="M 3490.28,2879.77 L 3487.67,2885.77 L 3480.92,2887.33 L 3289.17,2681.82 L 3293.22,2668.57 L 3490.28,2879.77 Z "/>
  <path stroke="none" fill="var(--bonds)" transform="matrix(0.0666667 0 0 0.0666667 -22.3333 -102)" d="M 3433.74,2895.16 L 3424.97,2903.34 L 3269.32,2736.54 L 3278.1,2728.35 L 3433.74,2895.16 Z "/>
  <path stroke="none" fill="var(--bonds)" transform="matrix(0.0666667 0 0 0.0666667 -22.3333 -102)" d="M 3293.22,2668.57 L 3289.17,2681.82 L 3015.32,2745.13 L 3010.6,2740.07 L 3011.85,2733.62 L 3293.22,2668.57 Z "/>
  <text x="0" y="0" stroke="none" fill="var(--o)" transform="matrix(0.0666667 0 0 0.0666667 90.1576 46.1554)" font-style="normal" font-weight="normal" font-size="200px" font-family="Arial">
O</text>
  <path stroke="none" fill="var(--bonds)" transform="matrix(0.0666667 0 0 0.0666667 -22.3333 -102)" d="M 1460.88,2188.64 L 1458.38,2176.9 L 1658.41,2134.39 L 1660.9,2146.12 L 1460.88,2188.64 Z "/>
  <path stroke="none" fill="var(--bonds)" transform="matrix(0.0666667 0 0 0.0666667 -22.3333 -102)" d="M 1471.66,2239.35 L 1469.16,2227.61 L 1669.18,2185.09 L 1671.68,2196.83 L 1471.66,2239.35 Z "/>
  <path stroke="none" fill="var(--bonds)" transform="matrix(0.0666667 0 0 0.0666667 -22.3333 -102)" d="M 1073.37,2435.46 L 1079.88,2437.21 L 1082.29,2443.49 L 893.946,2652.67 L 887.169,2651.23 L 885.028,2644.64 L 1073.37,2435.46 Z "/>
  <path stroke="none" fill="var(--bonds)" transform="matrix(0.0666667 0 0 0.0666667 -22.3333 -102)" d="M 1096.27,2487.51 L 1105.19,2495.54 L 950.179,2667.69 L 941.262,2659.66 L 1096.27,2487.51 Z "/>
  <path stroke="none" fill="var(--bonds)" transform="matrix(0.0666667 0 0 0.0666667 -22.3333 -102)" d="M 2774.63,2566.46 L 2774.63,2574.95 L 2765.51,2574.31 L 2569.19,2377.99 L 2570.98,2371.3 L 2577.68,2369.51 L 2774.63,2566.46 Z "/>
  <path stroke="none" fill="var(--bonds)" transform="matrix(0.0666667 0 0 0.0666667 -22.3333 -102)" d="M 2783.93,2574.13 L 2774.63,2574.95 L 2774.63,2566.46 L 2971.58,2369.51 L 2978.28,2371.3 L 2980.07,2377.99 L 2783.93,2574.13 Z "/>
  <path stroke="none" fill="var(--bonds)" transform="matrix(0.0666667 0 0 0.0666667 -22.3333 -102)" d="M 2577.68,2369.51 L 2570.98,2371.3 L 2566.08,2366.4 L 2638.83,2094.91 L 2652.21,2091.32 L 2577.68,2369.51 Z "/>
  <path stroke="none" fill="var(--bonds)" transform="matrix(0.0666667 0 0 0.0666667 -22.3333 -102)" d="M 2652.21,2091.32 L 2638.83,2094.91 L 2440.08,1896.16 L 2443.67,1882.78 L 2652.21,2091.32 Z "/>
  <path stroke="none" fill="var(--bonds)" transform="matrix(0.0666667 0 0 0.0666667 -22.3333 -102)" d="M 2591.95,2104.36 L 2583.46,2112.85 L 2422.14,1951.53 L 2430.63,1943.04 L 2591.95,2104.36 Z "/>
  <path stroke="none" fill="var(--bonds)" transform="matrix(0.0666667 0 0 0.0666667 -22.3333 -102)" d="M 2443.67,1882.78 L 2440.08,1896.16 L 2168.59,1968.91 L 2163.69,1964.01 L 2165.48,1957.31 L 2443.67,1882.78 Z "/>
  <path stroke="none" fill="var(--bonds)" transform="matrix(0.0666667 0 0 0.0666667 -22.3333 -102)" d="M 2157,1965.8 L 2163.69,1964.01 L 2168.59,1968.91 L 2095.84,2240.4 L 2082.46,2243.99 L 2157,1965.8 Z "/>
  <path stroke="none" fill="var(--bonds)" transform="matrix(0.0666667 0 0 0.0666667 -22.3333 -102)" d="M 2200.22,2004.78 L 2211.81,2007.89 L 2152.77,2228.25 L 2141.17,2225.15 L 2200.22,2004.78 Z "/>
  <path stroke="none" fill="var(--bonds)" transform="matrix(0.0666667 0 0 0.0666667 -22.3333 -102)" d="M 2082.46,2243.99 L 2095.84,2240.4 L 2294.59,2439.15 L 2291,2452.53 L 2082.46,2243.99 Z "/>
  <path stroke="none" fill="var(--bonds)" transform="matrix(0.0666667 0 0 0.0666667 -22.3333 -102)" d="M 2291,2452.53 L 2294.59,2439.15 L 2566.08,2366.4 L 2570.98,2371.3 L 2569.19,2377.99 L 2291,2452.53 Z "/>
  <path stroke="none" fill="var(--bonds)" transform="matrix(0.0666667 0 0 0.0666667 -22.3333 -102)" d="M 2309.84,2393.82 L 2306.74,2382.22 L 2527.1,2323.18 L 2530.21,2334.77 L 2309.84,2393.82 Z "/>
  <path stroke="none" fill="var(--bonds)" transform="matrix(0.0666667 0 0 0.0666667 -22.3333 -102)" d="M 2980.07,2377.99 L 2978.28,2371.3 L 2983.18,2366.4 L 3254.67,2439.15 L 3258.26,2452.53 L 2980.07,2377.99 Z "/>
  <path stroke="none" fill="var(--bonds)" transform="matrix(0.0666667 0 0 0.0666667 -22.3333 -102)" d="M 3258.26,2452.53 L 3254.67,2439.15 L 3453.42,2240.4 L 3466.8,2243.99 L 3258.26,2452.53 Z "/>
  <path stroke="none" fill="var(--bonds)" transform="matrix(0.0666667 0 0 0.0666667 -22.3333 -102)" d="M 3245.21,2392.26 L 3236.73,2383.78 L 3398.05,2222.46 L 3406.53,2230.94 L 3245.21,2392.26 Z "/>
  <path stroke="none" fill="var(--bonds)" transform="matrix(0.0666667 0 0 0.0666667 -22.3333 -102)" d="M 3466.8,2243.99 L 3453.42,2240.4 L 3380.67,1968.91 L 3385.57,1964.01 L 3392.26,1965.8 L 3466.8,2243.99 Z "/>
  <path stroke="none" fill="var(--bonds)" transform="matrix(0.0666667 0 0 0.0666667 -22.3333 -102)" d="M 3383.78,1957.31 L 3385.57,1964.01 L 3380.67,1968.91 L 3109.18,1896.16 L 3105.59,1882.78 L 3383.78,1957.31 Z "/>
  <path stroke="none" fill="var(--bonds)" transform="matrix(0.0666667 0 0 0.0666667 -22.3333 -102)" d="M 3344.8,2000.54 L 3341.69,2012.13 L 3121.32,1953.08 L 3124.43,1941.49 L 3344.8,2000.54 Z "/>
  <path stroke="none" fill="var(--bonds)" transform="matrix(0.0666667 0 0 0.0666667 -22.3333 -102)" d="M 3105.59,1882.78 L 3109.18,1896.16 L 2910.43,2094.91 L 2897.04,2091.32 L 3105.59,1882.78 Z "/>
  <path stroke="none" fill="var(--bonds)" transform="matrix(0.0666667 0 0 0.0666667 -22.3333 -102)" d="M 2897.04,2091.32 L 2910.43,2094.91 L 2983.18,2366.4 L 2978.28,2371.3 L 2971.58,2369.51 L 2897.04,2091.32 Z "/>
  <path stroke="none" fill="var(--bonds)" transform="matrix(0.0666667 0 0 0.0666667 -22.3333 -102)" d="M 2955.76,2110.16 L 2967.35,2107.05 L 3026.4,2327.42 L 3014.81,2330.53 L 2955.76,2110.16 Z "/>
  <path stroke="none" fill="var(--bonds)" transform="matrix(0.0666667 0 0 0.0666667 -22.3333 -102)" d="M 3402.3,3167.65 L 3403.55,3161.21 L 3410.56,3158.79 L 3639.47,3318.97 L 3639.52,3326.33 L 3630.22,3327.14 L 3402.3,3167.65 Z "/>
  <path stroke="none" fill="var(--bonds)" transform="matrix(0.0666667 0 0 0.0666667 -22.3333 -102)" d="M 3648.76,3327.08 L 3639.52,3326.33 L 3639.47,3318.97 L 3862.36,3158.93 L 3869.47,3161.21 L 3871.4,3167.21 L 3648.76,3327.08 Z "/>
  <path stroke="none" fill="var(--bonds)" transform="matrix(0.0666667 0 0 0.0666667 -22.3333 -102)" d="M 3873.77,3155.21 L 3869.47,3161.21 L 3862.36,3158.93 L 3771.33,2891.77 L 3775.63,2885.77 L 3782.74,2888.04 L 3873.77,3155.21 Z "/>
  <path stroke="none" fill="var(--bonds)" transform="matrix(0.0666667 0 0 0.0666667 -22.3333 -102)" d="M 3912.64,3106.89 L 3901.28,3110.76 L 3832.04,2907.54 L 3843.4,2903.67 L 3912.64,3106.89 Z "/>
  <path stroke="none" fill="var(--bonds)" transform="matrix(0.0666667 0 0 0.0666667 -22.3333 -102)" d="M 3773.69,2879.77 L 3775.63,2885.77 L 3771.33,2891.77 L 3492.11,2891.77 L 3487.67,2885.77 L 3490.28,2879.77 L 3773.69,2879.77 Z "/>
  <text x="0" y="0" stroke="none" fill="var(--s)" transform="matrix(0.0666667 0 0 0.0666667 240.459 84.406)" font-style="normal" font-weight="normal" font-size="200px" font-family="Arial">
S</text>
  <path stroke="none" fill="var(--bonds)" transform="matrix(0.0666667 0 0 0.0666667 -22.3333 -102)" d="M 3871.4,3167.21 L 3869.47,3161.21 L 3873.77,3155.21 L 4156.02,3155.21 L 4160.43,3161.21 L 4158.52,3167.21 L 3871.4,3167.21 Z "/>
  <path stroke="none" fill="var(--bonds)" transform="matrix(0.0666667 0 0 0.0666667 -22.3333 -102)" d="M 4167.46,3158.83 L 4160.43,3161.21 L 4156.02,3155.21 L 4239.38,2888.15 L 4246.41,2885.77 L 4250.82,2891.77 L 4167.46,3158.83 Z "/>
  <path stroke="none" fill="var(--bonds)" transform="matrix(0.0666667 0 0 0.0666667 -22.3333 -102)" d="M 4127.96,3111.06 L 4116.51,3107.48 L 4179.83,2904.62 L 4191.28,2908.2 L 4127.96,3111.06 Z "/>
  <path stroke="none" fill="var(--bonds)" transform="matrix(0.0666667 0 0 0.0666667 -22.3333 -102)" d="M 4248.31,2879.77 L 4246.41,2885.77 L 4239.38,2888.15 L 4093.14,2785.04 L 4100.05,2775.24 L 4248.31,2879.77 Z "/>
  <path stroke="none" fill="var(--bonds)" transform="matrix(0.0666667 0 0 0.0666667 -22.3333 -102)" d="M 3918,2775.9 L 3925.01,2785.64 L 3782.74,2888.04 L 3775.63,2885.77 L 3773.69,2879.77 L 3918,2775.9 Z "/>
  <text x="0" y="0" stroke="none" fill="var(--s)" transform="matrix(0.0666667 0 0 0.0666667 266.275 125.073)" font-style="normal" font-weight="normal" font-size="200px" font-family="Arial">
S</text>
  <path stroke="none" fill="var(--bonds)" transform="matrix(0.0666667 0 0 0.0666667 -22.3333 -102)" d="M 4158.52,3167.21 L 4160.43,3161.21 L 4167.46,3158.83 L 4320.8,3267.55 L 4313.86,3277.34 L 4158.52,3167.21 Z "/>
  <path stroke="none" fill="var(--bonds)" transform="matrix(0.0666667 0 0 0.0666667 -22.3333 -102)" d="M 4476.16,3277.57 L 4469.14,3267.84 L 4620.19,3158.92 L 4627.28,3161.21 L 4629.22,3167.21 L 4476.16,3277.57 Z "/>
  <path stroke="none" fill="var(--bonds)" transform="matrix(0.0666667 0 0 0.0666667 -22.3333 -102)" d="M 4631.6,3155.21 L 4627.28,3161.21 L 4620.19,3158.92 L 4530.62,2891.77 L 4539.26,2879.77 L 4631.6,3155.21 Z "/>
  <path stroke="none" fill="var(--bonds)" transform="matrix(0.0666667 0 0 0.0666667 -22.3333 -102)" d="M 4571.15,3139.41 L 4559.77,3143.22 L 4491.63,2939.96 L 4503.01,2936.15 L 4571.15,3139.41 Z "/>
  <path stroke="none" fill="var(--bonds)" transform="matrix(0.0666667 0 0 0.0666667 -22.3333 -102)" d="M 4539.26,2879.77 L 4530.62,2891.77 L 4250.82,2891.77 L 4246.41,2885.77 L 4248.31,2879.77 L 4539.26,2879.77 Z "/>
  <path stroke="none" fill="var(--bonds)" transform="matrix(0.0666667 0 0 0.0666667 -22.3333 -102)" d="M 4629.22,3167.21 L 4627.28,3161.21 L 4631.6,3155.21 L 4918.75,3155.21 L 4911.82,3167.21 L 4629.22,3167.21 Z "/>
  <path stroke="none" fill="var(--bonds)" transform="matrix(0.0666667 0 0 0.0666667 -22.3333 -102)" d="M 4911.82,3167.21 L 4918.75,3155.21 L 5062.95,3404.97 L 5059.28,3410.62 L 5052.56,3410.97 L 4911.82,3167.21 Z "/>
  <path stroke="none" fill="var(--bonds)" transform="matrix(0.0666667 0 0 0.0666667 -22.3333 -102)" d="M 4880.16,3216.05 L 4890.55,3210.05 L 5006.38,3410.67 L 4995.98,3416.67 L 4880.16,3216.05 Z "/>
  <path stroke="none" fill="var(--bonds)" transform="matrix(0.0666667 0 0 0.0666667 -22.3333 -102)" d="M 5052.56,3410.97 L 5059.28,3410.62 L 5062.99,3417.04 L 4949.4,3672.18 L 4934.89,3675.26 L 5052.56,3410.97 Z "/>
  <path stroke="none" fill="var(--bonds)" transform="matrix(0.0666667 0 0 0.0666667 -22.3333 -102)" d="M 4934.89,3675.26 L 4949.4,3672.18 L 5156.94,3859.06 L 5156.17,3866.43 L 5150.17,3869.1 L 4934.89,3675.26 Z "/>
  <path stroke="none" fill="var(--bonds)" transform="matrix(0.0666667 0 0 0.0666667 -22.3333 -102)" d="M 5162.17,3869.9 L 5156.17,3866.43 L 5156.94,3859.06 L 5398.81,3719.42 L 5405.58,3722.43 L 5405.58,3729.36 L 5162.17,3869.9 Z "/>
  <path stroke="none" fill="var(--bonds)" transform="matrix(0.0666667 0 0 0.0666667 -22.3333 -102)" d="M 5211.01,3901.56 L 5205.01,3891.17 L 5402.58,3777.1 L 5408.58,3787.49 L 5211.01,3901.56 Z "/>
  <path stroke="none" fill="var(--bonds)" transform="matrix(0.0666667 0 0 0.0666667 -22.3333 -102)" d="M 5410.9,3718.57 L 5405.58,3722.43 L 5398.81,3719.42 L 5340.74,3446.24 L 5345.7,3440.73 L 5352.21,3442.47 L 5410.9,3718.57 Z "/>
  <path stroke="none" fill="var(--bonds)" transform="matrix(0.0666667 0 0 0.0666667 -22.3333 -102)" d="M 5343.29,3434.44 L 5345.7,3440.73 L 5340.74,3446.24 L 5062.99,3417.04 L 5059.28,3410.62 L 5062.95,3404.97 L 5343.29,3434.44 Z "/>
  <path stroke="none" fill="var(--bonds)" transform="matrix(0.0666667 0 0 0.0666667 -22.3333 -102)" d="M 5150.17,3869.1 L 5156.17,3866.43 L 5162.17,3869.9 L 5162.17,4150.97 L 5150.17,4157.9 L 5150.17,3869.1 Z "/>
  <path stroke="none" fill="var(--bonds)" transform="matrix(0.0666667 0 0 0.0666667 -22.3333 -102)" d="M 5150.17,4157.9 L 5162.17,4150.97 L 5405.58,4291.5 L 5405.58,4305.36 L 5150.17,4157.9 Z "/>
  <path stroke="none" fill="var(--bonds)" transform="matrix(0.0666667 0 0 0.0666667 -22.3333 -102)" d="M 5205.01,4129.7 L 5211.01,4119.31 L 5408.58,4233.38 L 5402.58,4243.77 L 5205.01,4129.7 Z "/>
  <path stroke="none" fill="var(--bonds)" transform="matrix(0.0666667 0 0 0.0666667 -22.3333 -102)" d="M 5405.58,4305.36 L 5405.58,4291.5 L 5649,4150.97 L 5661,4157.9 L 5405.58,4305.36 Z "/>
  <path stroke="none" fill="var(--bonds)" transform="matrix(0.0666667 0 0 0.0666667 -22.3333 -102)" d="M 5661,4157.9 L 5649,4150.97 L 5649,3869.9 L 5661,3862.97 L 5661,4157.9 Z "/>
  <path stroke="none" fill="var(--bonds)" transform="matrix(0.0666667 0 0 0.0666667 -22.3333 -102)" d="M 5609.16,4124.5 L 5597.16,4124.5 L 5597.16,3896.36 L 5609.16,3896.36 L 5609.16,4124.5 Z "/>
  <path stroke="none" fill="var(--bonds)" transform="matrix(0.0666667 0 0 0.0666667 -22.3333 -102)" d="M 5661,3862.97 L 5649,3869.9 L 5405.58,3729.36 L 5405.58,3722.43 L 5410.9,3718.57 L 5661,3862.97 Z "/>
  <text x="0" y="0" stroke="none" fill="var(--o)" transform="matrix(0.0666667 0 0 0.0666667 283.177 152.107)" font-style="normal" font-weight="normal" font-size="200px" font-family="Arial">
O</text>
  <path stroke="none" fill="var(--bonds)" transform="matrix(0.0666667 0 0 0.0666667 -22.3333 -102)" d="M 4964.7,3689.29 L 4967.2,3701.03 L 4764.4,3744.14 L 4761.91,3732.4 L 4964.7,3689.29 Z "/>
  <path stroke="none" fill="var(--bonds)" transform="matrix(0.0666667 0 0 0.0666667 -22.3333 -102)" d="M 4953.93,3638.59 L 4956.42,3650.32 L 4753.63,3693.43 L 4751.13,3681.69 L 4953.93,3638.59 Z "/>
  <path stroke="none" fill="var(--bonds)" transform="matrix(0.0666667 0 0 0.0666667 -22.3333 -102)" d="M 5352.21,3442.47 L 5345.7,3440.73 L 5343.29,3434.44 L 5531.64,3225.26 L 5538.41,3226.7 L 5540.55,3233.29 L 5352.21,3442.47 Z "/>
  <path stroke="none" fill="var(--bonds)" transform="matrix(0.0666667 0 0 0.0666667 -22.3333 -102)" d="M 5329.31,3390.42 L 5320.4,3382.39 L 5475.4,3210.24 L 5484.32,3218.27 L 5329.31,3390.42 Z "/>
  <path stroke="none" fill="var(--bonds)" transform="matrix(0.0666667 0 0 0.0666667 -22.3333 -102)" d="M 3630.22,3327.14 L 3639.52,3326.33 L 3639.52,3334.81 L 3442.56,3531.77 L 3435.87,3529.97 L 3434.08,3523.28 L 3630.22,3327.14 Z "/>
  <path stroke="none" fill="var(--bonds)" transform="matrix(0.0666667 0 0 0.0666667 -22.3333 -102)" d="M 3639.52,3334.81 L 3639.52,3326.33 L 3648.76,3327.08 L 3844.96,3523.28 L 3843.17,3529.97 L 3836.47,3531.77 L 3639.52,3334.81 Z "/>
  <path stroke="none" fill="var(--bonds)" transform="matrix(0.0666667 0 0 0.0666667 -22.3333 -102)" d="M 3434.08,3523.28 L 3435.87,3529.97 L 3430.97,3534.87 L 3159.48,3462.12 L 3155.89,3448.74 L 3434.08,3523.28 Z "/>
  <path stroke="none" fill="var(--bonds)" transform="matrix(0.0666667 0 0 0.0666667 -22.3333 -102)" d="M 3395.1,3566.5 L 3391.99,3578.09 L 3171.63,3519.05 L 3174.73,3507.46 L 3395.1,3566.5 Z "/>
  <path stroke="none" fill="var(--bonds)" transform="matrix(0.0666667 0 0 0.0666667 -22.3333 -102)" d="M 3155.89,3448.74 L 3159.48,3462.12 L 2960.73,3660.87 L 2947.35,3657.29 L 3155.89,3448.74 Z "/>
  <path stroke="none" fill="var(--bonds)" transform="matrix(0.0666667 0 0 0.0666667 -22.3333 -102)" d="M 2947.35,3657.29 L 2960.73,3660.87 L 3033.48,3932.37 L 3028.58,3937.27 L 3021.89,3935.47 L 2947.35,3657.29 Z "/>
  <path stroke="none" fill="var(--bonds)" transform="matrix(0.0666667 0 0 0.0666667 -22.3333 -102)" d="M 3006.06,3676.12 L 3017.65,3673.02 L 3076.7,3893.39 L 3065.11,3896.49 L 3006.06,3676.12 Z "/>
  <path stroke="none" fill="var(--bonds)" transform="matrix(0.0666667 0 0 0.0666667 -22.3333 -102)" d="M 3030.37,3943.96 L 3028.58,3937.27 L 3033.48,3932.37 L 3304.97,4005.11 L 3308.56,4018.5 L 3030.37,3943.96 Z "/>
  <path stroke="none" fill="var(--bonds)" transform="matrix(0.0666667 0 0 0.0666667 -22.3333 -102)" d="M 3308.56,4018.5 L 3304.97,4005.11 L 3503.72,3806.37 L 3517.1,3809.95 L 3308.56,4018.5 Z "/>
  <path stroke="none" fill="var(--bonds)" transform="matrix(0.0666667 0 0 0.0666667 -22.3333 -102)" d="M 3295.52,3958.23 L 3287.03,3949.74 L 3448.35,3788.42 L 3456.83,3796.91 L 3295.52,3958.23 Z "/>
  <path stroke="none" fill="var(--bonds)" transform="matrix(0.0666667 0 0 0.0666667 -22.3333 -102)" d="M 3517.1,3809.95 L 3503.72,3806.37 L 3430.97,3534.87 L 3435.87,3529.97 L 3442.56,3531.77 L 3517.1,3809.95 Z "/>
  <path stroke="none" fill="var(--bonds)" transform="matrix(0.0666667 0 0 0.0666667 -22.3333 -102)" d="M 3836.47,3531.77 L 3843.17,3529.97 L 3848.06,3534.87 L 3775.32,3806.37 L 3761.93,3809.95 L 3836.47,3531.77 Z "/>
  <path stroke="none" fill="var(--bonds)" transform="matrix(0.0666667 0 0 0.0666667 -22.3333 -102)" d="M 3879.7,3570.75 L 3891.29,3573.85 L 3832.24,3794.22 L 3820.65,3791.11 L 3879.7,3570.75 Z "/>
  <path stroke="none" fill="var(--bonds)" transform="matrix(0.0666667 0 0 0.0666667 -22.3333 -102)" d="M 3761.93,3809.95 L 3775.32,3806.37 L 3974.07,4005.11 L 3970.48,4018.5 L 3761.93,3809.95 Z "/>
  <path stroke="none" fill="var(--bonds)" transform="matrix(0.0666667 0 0 0.0666667 -22.3333 -102)" d="M 3970.48,4018.5 L 3974.07,4005.11 L 4245.56,3932.37 L 4250.46,3937.27 L 4248.67,3943.96 L 3970.48,4018.5 Z "/>
  <path stroke="none" fill="var(--bonds)" transform="matrix(0.0666667 0 0 0.0666667 -22.3333 -102)" d="M 3989.32,3959.78 L 3986.21,3948.19 L 4206.58,3889.14 L 4209.68,3900.73 L 3989.32,3959.78 Z "/>
  <path stroke="none" fill="var(--bonds)" transform="matrix(0.0666667 0 0 0.0666667 -22.3333 -102)" d="M 4257.15,3935.47 L 4250.46,3937.27 L 4245.56,3932.37 L 4318.31,3660.87 L 4331.69,3657.29 L 4257.15,3935.47 Z "/>
  <path stroke="none" fill="var(--bonds)" transform="matrix(0.0666667 0 0 0.0666667 -22.3333 -102)" d="M 4331.69,3657.29 L 4318.31,3660.87 L 4119.56,3462.12 L 4123.15,3448.74 L 4331.69,3657.29 Z "/>
  <path stroke="none" fill="var(--bonds)" transform="matrix(0.0666667 0 0 0.0666667 -22.3333 -102)" d="M 4271.42,3670.33 L 4262.94,3678.81 L 4101.62,3517.49 L 4110.1,3509.01 L 4271.42,3670.33 Z "/>
  <path stroke="none" fill="var(--bonds)" transform="matrix(0.0666667 0 0 0.0666667 -22.3333 -102)" d="M 4123.15,3448.74 L 4119.56,3462.12 L 3848.06,3534.87 L 3843.17,3529.97 L 3844.96,3523.28 L 4123.15,3448.74 Z "/>
  <text x="0" y="0" stroke="none" fill="var(--c)" transform="matrix(0.0666667 0 0 0.0666667 92.039 20.5574)" font-style="normal" font-weight="normal" font-size="200px" font-family="Arial">
C</text>
  <text x="0" y="0" stroke="none" fill="var(--c)" transform="matrix(0.0666667 0 0 0.0666667 101.668 23.4907)" font-style="normal" font-weight="normal" font-size="150px" font-family="Arial">
6</text>
  <text x="0" y="0" stroke="none" fill="var(--c)" transform="matrix(0.0666667 0 0 0.0666667 107.229 20.5574)" font-style="normal" font-weight="normal" font-size="200px" font-family="Arial">
H</text>
  <text x="0" y="0" stroke="none" fill="var(--c)" transform="matrix(0.0666667 0 0 0.0666667 116.858 23.4907)" font-style="normal" font-weight="normal" font-size="150px" font-family="Arial">
13</text>
  <path stroke="none" fill="var(--bonds)" transform="matrix(0.0666667 0 0 0.0666667 -22.3333 -102)" d="M 2167.93,1959.76 L 2163.69,1964.01 L 2159.45,1968.25 L 2127.12,1935.92 L 2135.6,1927.43 L 2167.93,1959.76 Z "/>
  <text x="0" y="0" stroke="none" fill="var(--c)" transform="matrix(0.0666667 0 0 0.0666667 212.133 20.5574)" font-style="normal" font-weight="normal" font-size="200px" font-family="Arial">
C</text>
  <text x="0" y="0" stroke="none" fill="var(--c)" transform="matrix(0.0666667 0 0 0.0666667 221.762 23.4907)" font-style="normal" font-weight="normal" font-size="150px" font-family="Arial">
6</text>
  <text x="0" y="0" stroke="none" fill="var(--c)" transform="matrix(0.0666667 0 0 0.0666667 227.324 20.5574)" font-style="normal" font-weight="normal" font-size="200px" font-family="Arial">
H</text>
  <text x="0" y="0" stroke="none" fill="var(--c)" transform="matrix(0.0666667 0 0 0.0666667 236.953 23.4907)" font-style="normal" font-weight="normal" font-size="150px" font-family="Arial">
13</text>
  <path stroke="none" fill="var(--bonds)" transform="matrix(0.0666667 0 0 0.0666667 -22.3333 -102)" d="M 3392.26,1965.8 L 3385.57,1964.01 L 3383.78,1957.31 L 3508.82,1832.27 L 3517.31,1840.76 L 3392.26,1965.8 Z "/>
  <text x="0" y="0" stroke="none" fill="var(--c)" transform="matrix(0.0666667 0 0 0.0666667 149.698 179.261)" font-style="normal" font-weight="normal" font-size="200px" font-family="Arial">
C</text>
  <text x="0" y="0" stroke="none" fill="var(--c)" transform="matrix(0.0666667 0 0 0.0666667 159.327 182.194)" font-style="normal" font-weight="normal" font-size="150px" font-family="Arial">
6</text>
  <text x="0" y="0" stroke="none" fill="var(--c)" transform="matrix(0.0666667 0 0 0.0666667 164.889 179.261)" font-style="normal" font-weight="normal" font-size="200px" font-family="Arial">
H</text>
  <text x="0" y="0" stroke="none" fill="var(--c)" transform="matrix(0.0666667 0 0 0.0666667 174.518 182.194)" font-style="normal" font-weight="normal" font-size="150px" font-family="Arial">
13</text>
  <path stroke="none" fill="var(--bonds)" transform="matrix(0.0666667 0 0 0.0666667 -22.3333 -102)" d="M 3021.89,3935.47 L 3028.58,3937.27 L 3030.37,3943.96 L 2938.66,4035.67 L 2930.17,4027.19 L 3021.89,3935.47 Z "/>
  <text x="0" y="0" stroke="none" fill="var(--c)" transform="matrix(0.0666667 0 0 0.0666667 269.793 179.261)" font-style="normal" font-weight="normal" font-size="200px" font-family="Arial">
C</text>
  <text x="0" y="0" stroke="none" fill="var(--c)" transform="matrix(0.0666667 0 0 0.0666667 279.421 182.194)" font-style="normal" font-weight="normal" font-size="150px" font-family="Arial">
6</text>
  <text x="0" y="0" stroke="none" fill="var(--c)" transform="matrix(0.0666667 0 0 0.0666667 284.983 179.261)" font-style="normal" font-weight="normal" font-size="200px" font-family="Arial">
H</text>
  <text x="0" y="0" stroke="none" fill="var(--c)" transform="matrix(0.0666667 0 0 0.0666667 294.612 182.194)" font-style="normal" font-weight="normal" font-size="150px" font-family="Arial">
13</text>
  <path stroke="none" fill="var(--bonds)" transform="matrix(0.0666667 0 0 0.0666667 -22.3333 -102)" d="M 4248.67,3943.96 L 4250.46,3937.27 L 4257.15,3935.47 L 4391.03,4069.35 L 4382.54,4077.84 L 4248.67,3943.96 Z "/>
  <text x="0" y="0" stroke="none" fill="var(--c)" transform="matrix(0.0666667 0 0 0.0666667 3.58748 75.9569)" font-style="normal" font-weight="normal" font-size="200px" font-family="Arial">
C</text>
  <text x="0" y="0" stroke="none" fill="var(--bonds)" transform="matrix(0.0666667 0 0 0.0666667 13.2164 75.9569)" font-style="normal" font-weight="normal" font-size="200px" font-family="Arial">
N</text>
  <path stroke="none" fill="var(--bonds)" transform="matrix(0.0666667 0 0 0.0666667 -22.3333 -102)" d="M 885.028,2644.64 L 887.169,2651.23 L 882.533,2656.38 L 698.607,2617.29 L 701.102,2605.55 L 885.028,2644.64 Z "/>
  <text x="0" y="0" stroke="none" fill="var(--c)" transform="matrix(0.0666667 0 0 0.0666667 37.9299 98.2091)" font-style="normal" font-weight="normal" font-size="200px" font-family="Arial">
C</text>
  <text x="0" y="0" stroke="none" fill="var(--bonds)" transform="matrix(0.0666667 0 0 0.0666667 47.5588 98.2091)" font-style="normal" font-weight="normal" font-size="200px" font-family="Arial">
N</text>
  <path stroke="none" fill="var(--bonds)" transform="matrix(0.0666667 0 0 0.0666667 -22.3333 -102)" d="M 882.533,2656.38 L 887.169,2651.23 L 893.946,2652.67 L 952.157,2831.83 L 940.745,2835.54 L 882.533,2656.38 Z "/>
  <text x="0" y="0" stroke="none" fill="var(--c)" transform="matrix(0.0666667 0 0 0.0666667 360.86 122.305)" font-style="normal" font-weight="normal" font-size="200px" font-family="Arial">
C</text>
  <text x="0" y="0" stroke="none" fill="var(--bonds)" transform="matrix(0.0666667 0 0 0.0666667 370.489 122.305)" font-style="normal" font-weight="normal" font-size="200px" font-family="Arial">
N</text>
  <path stroke="none" fill="var(--bonds)" transform="matrix(0.0666667 0 0 0.0666667 -22.3333 -102)" d="M 5540.55,3233.29 L 5538.41,3226.7 L 5543.05,3221.55 L 5729.98,3261.28 L 5727.48,3273.02 L 5540.55,3233.29 Z "/>
  <text x="0" y="0" stroke="none" fill="var(--c)" transform="matrix(0.0666667 0 0 0.0666667 326.518 100.053)" font-style="normal" font-weight="normal" font-size="200px" font-family="Arial">
C</text>
  <text x="0" y="0" stroke="none" fill="var(--bonds)" transform="matrix(0.0666667 0 0 0.0666667 336.147 100.053)" font-style="normal" font-weight="normal" font-size="200px" font-family="Arial">
N</text>
  <path stroke="none" fill="var(--bonds)" transform="matrix(0.0666667 0 0 0.0666667 -22.3333 -102)" d="M 5543.05,3221.55 L 5538.41,3226.7 L 5531.64,3225.26 L 5482.35,3073.56 L 5493.76,3069.85 L 5543.05,3221.55 Z "/>
</svg>
