<?xml version="1.0" standalone="no" ?>
<!DOCTYPE svg PUBLIC "-//W3C//DTD SVG 1.1//EN" "http://www.w3.org/Graphics/SVG/1.1/DTD/svg11.dtd">
<svg width="141px" height="40px" viewBox="0 0 141 40" style="background-color: #ffffff00" xmlns="http://www.w3.org/2000/svg" xmlns:xlink="http://www.w3.org/1999/xlink" version="1.1" >
<text x="0" y="0" stroke="none" fill="#e1e100" transform="matrix(0.0666667 0 0 0.0666667 2.9333 25.4792)" font-style="normal" font-weight="normal" font-size="200px" font-family="Arial" >
S</text>
<path stroke="none" fill="#000000" transform="matrix(0.0666667 0 0 0.0666667 -150.333 -237.333)" d="M 4315,3955.88 L 4321,3966.27 L 4068.59,4112 L 4068.59,4098.15 L 4315,3955.88 Z " />
<path stroke="none" fill="#000000" transform="matrix(0.0666667 0 0 0.0666667 -150.333 -237.333)" d="M 4068.59,4098.15 L 4068.59,4112 L 3819.17,3968 L 3819.17,3954.15 L 4068.59,4098.15 Z " />
<path stroke="none" fill="#000000" transform="matrix(0.0666667 0 0 0.0666667 -150.333 -237.333)" d="M 3819.17,3954.15 L 3819.17,3968 L 3569.75,4112 L 3569.75,4098.15 L 3819.17,3954.15 Z " />
<path stroke="none" fill="#000000" transform="matrix(0.0666667 0 0 0.0666667 -150.333 -237.333)" d="M 3569.75,4098.15 L 3569.75,4112 L 3320.34,3968 L 3320.34,3954.15 L 3569.75,4098.15 Z " />
<path stroke="none" fill="#000000" transform="matrix(0.0666667 0 0 0.0666667 -150.333 -237.333)" d="M 3320.34,3954.15 L 3320.34,3968 L 3070.92,4112 L 3070.92,4098.15 L 3320.34,3954.15 Z " />
<path stroke="none" fill="#000000" transform="matrix(0.0666667 0 0 0.0666667 -150.333 -237.333)" d="M 3070.92,4098.15 L 3070.92,4112 L 2821.16,3967.8 L 2821.51,3961.07 L 2827.16,3957.41 L 3070.92,4098.15 Z " />
<path stroke="none" fill="#000000" transform="matrix(0.0666667 0 0 0.0666667 -150.333 -237.333)" d="M 2815.09,3957.37 L 2821.51,3961.07 L 2821.16,3967.8 L 2556.87,4085.47 L 2559.95,4070.96 L 2815.09,3957.37 Z " />
<path stroke="none" fill="#000000" transform="matrix(0.0666667 0 0 0.0666667 -150.333 -237.333)" d="M 2763.58,3923.55 L 2768.46,3934.52 L 2574.17,4021.02 L 2569.29,4010.06 L 2763.58,3923.55 Z " />
<path stroke="none" fill="#000000" transform="matrix(0.0666667 0 0 0.0666667 -150.333 -237.333)" d="M 2559.95,4070.96 L 2556.87,4085.47 L 2435.97,3951.2 L 2444.89,3943.17 L 2559.95,4070.96 Z " />
<path stroke="none" fill="#000000" transform="matrix(0.0666667 0 0 0.0666667 -150.333 -237.333)" d="M 2419.72,3782.61 L 2409.33,3776.61 L 2506.68,3608 L 2512.72,3621.55 L 2419.72,3782.61 Z " />
<path stroke="none" fill="#000000" transform="matrix(0.0666667 0 0 0.0666667 -150.333 -237.333)" d="M 2512.72,3621.55 L 2506.68,3608 L 2796.92,3669.69 L 2785.89,3679.61 L 2512.72,3621.55 Z " />
<path stroke="none" fill="#000000" transform="matrix(0.0666667 0 0 0.0666667 -150.333 -237.333)" d="M 2534.51,3679.18 L 2537.01,3667.44 L 2745.03,3711.66 L 2742.54,3723.4 L 2534.51,3679.18 Z " />
<path stroke="none" fill="#000000" transform="matrix(0.0666667 0 0 0.0666667 -150.333 -237.333)" d="M 2827.16,3957.41 L 2821.51,3961.07 L 2815.09,3957.37 L 2785.89,3679.61 L 2796.92,3669.69 L 2827.16,3957.41 Z " />
</svg>
