<?xml version="1.0" standalone="no" ?>
<!DOCTYPE svg PUBLIC "-//W3C//DTD SVG 1.1//EN" "http://www.w3.org/Graphics/SVG/1.1/DTD/svg11.dtd">
<svg width="294px" height="229px" viewBox="0 0 294 229" style="background-color: #ffffff00" xmlns="http://www.w3.org/2000/svg" xmlns:xlink="http://www.w3.org/1999/xlink" version="1.1" >
<text x="0" y="0" stroke="none" fill="#e1e100" transform="matrix(0.0666667 0 0 0.0666667 84.2467 78.32)" font-style="normal" font-weight="normal" font-size="200px" font-family="Arial" >
S</text>
<text x="0" y="0" stroke="none" fill="#e1e100" transform="matrix(0.0666667 0 0 0.0666667 104.207 111.8)" font-style="normal" font-weight="normal" font-size="200px" font-family="Arial" >
S</text>
<text x="0" y="0" stroke="none" fill="#e1e100" transform="matrix(0.0666667 0 0 0.0666667 86.5534 176.84)" font-style="normal" font-weight="normal" font-size="200px" font-family="Arial" >
S</text>
<text x="0" y="0" stroke="none" fill="#e1e100" transform="matrix(0.0666667 0 0 0.0666667 35.6334 144.2)" font-style="normal" font-weight="normal" font-size="200px" font-family="Arial" >
S</text>
<path stroke="none" fill="#000000" transform="matrix(0.0666667 0 0 0.0666667 -133.533 -146)" d="M 2438.41,4047.04 L 2431,4047.2 L 2427.81,4041.27 L 2591.34,3805.42 L 2596.26,3819.38 L 2438.41,4047.04 Z " />
<path stroke="none" fill="#000000" transform="matrix(0.0666667 0 0 0.0666667 -133.533 -146)" d="M 2499.48,4049.23 L 2489.62,4042.39 L 2609.98,3868.79 L 2619.84,3875.63 L 2499.48,4049.23 Z " />
<path stroke="none" fill="#000000" transform="matrix(0.0666667 0 0 0.0666667 -133.533 -146)" d="M 2596.26,3819.38 L 2591.34,3805.42 L 2865.78,3886.1 L 2866.6,3892.6 L 2860.72,3897.12 L 2596.26,3819.38 Z " />
<path stroke="none" fill="#000000" transform="matrix(0.0666667 0 0 0.0666667 -133.533 -146)" d="M 2872.69,3895.95 L 2866.6,3892.6 L 2865.78,3886.1 L 3106.12,3742.84 L 3112.2,3746.2 L 3112.33,3753.11 L 2872.69,3895.95 Z " />
<path stroke="none" fill="#000000" transform="matrix(0.0666667 0 0 0.0666667 -133.533 -146)" d="M 2921.92,3926.53 L 2915.77,3916.22 L 3110.22,3800.31 L 3116.37,3810.62 L 2921.92,3926.53 Z " />
<path stroke="none" fill="#000000" transform="matrix(0.0666667 0 0 0.0666667 -133.533 -146)" d="M 3118.12,3742.6 L 3112.2,3746.2 L 3106.12,3742.84 L 3099.87,3463.42 L 3105.8,3460.2 L 3111.87,3463.12 L 3118.12,3742.6 Z " />
<path stroke="none" fill="#000000" transform="matrix(0.0666667 0 0 0.0666667 -133.533 -146)" d="M 3105.6,3452.81 L 3105.8,3460.2 L 3099.87,3463.42 L 2862.42,3301.71 L 2876.38,3296.69 L 3105.6,3452.81 Z " />
<path stroke="none" fill="#000000" transform="matrix(0.0666667 0 0 0.0666667 -133.533 -146)" d="M 3107.49,3391.8 L 3100.74,3401.72 L 2925.89,3282.64 L 2932.64,3272.72 L 3107.49,3391.8 Z " />
<path stroke="none" fill="#000000" transform="matrix(0.0666667 0 0 0.0666667 -133.533 -146)" d="M 2876.38,3296.69 L 2862.42,3301.71 L 2942.6,3025.83 L 2949.2,3024.6 L 2953.74,3030.46 L 2876.38,3296.69 Z " />
<path stroke="none" fill="#000000" transform="matrix(0.0666667 0 0 0.0666667 -133.533 -146)" d="M 2953.74,3030.46 L 2949.2,3024.6 L 2952.11,3018.51 L 3239.36,3009.67 L 3231.04,3021.93 L 2953.74,3030.46 Z " />
<path stroke="none" fill="#000000" transform="matrix(0.0666667 0 0 0.0666667 -133.533 -146)" d="M 2988.39,3080.93 L 2988.02,3068.93 L 3199.3,3062.43 L 3199.67,3074.42 L 2988.39,3080.93 Z " />
<path stroke="none" fill="#000000" transform="matrix(0.0666667 0 0 0.0666667 -133.533 -146)" d="M 3231.04,3021.93 L 3239.36,3009.67 L 3305.48,3192.13 L 3294.19,3196.22 L 3231.04,3021.93 Z " />
<path stroke="none" fill="#000000" transform="matrix(0.0666667 0 0 0.0666667 -133.533 -146)" d="M 3111.87,3463.12 L 3105.8,3460.2 L 3105.6,3452.81 L 3243.99,3347.38 L 3251.26,3356.92 L 3111.87,3463.12 Z " />
<path stroke="none" fill="#000000" transform="matrix(0.0666667 0 0 0.0666667 -133.533 -146)" d="M 3112.33,3753.11 L 3112.2,3746.2 L 3118.12,3742.6 L 3363.54,3876.86 L 3363,3883.4 L 3357.08,3887 L 3112.33,3753.11 Z " />
<path stroke="none" fill="#000000" transform="matrix(0.0666667 0 0 0.0666667 -133.533 -146)" d="M 3369.1,3887.62 L 3363,3883.4 L 3363.54,3876.86 L 3536.35,3816.39 L 3540.31,3827.72 L 3369.1,3887.62 Z " />
<path stroke="none" fill="#000000" transform="matrix(0.0666667 0 0 0.0666667 -133.533 -146)" d="M 3696.48,3882.49 L 3706.03,3875.21 L 3809.19,4010.63 L 3806.2,4016.6 L 3798.78,4016.77 L 3696.48,3882.49 Z " />
<path stroke="none" fill="#000000" transform="matrix(0.0666667 0 0 0.0666667 -133.533 -146)" d="M 3798.78,4016.77 L 3806.2,4016.6 L 3809.32,4022.63 L 3645.65,4258.6 L 3640.75,4244.6 L 3798.78,4016.77 Z " />
<path stroke="none" fill="#000000" transform="matrix(0.0666667 0 0 0.0666667 -133.533 -146)" d="M 3737.63,4014.6 L 3747.49,4021.44 L 3627.14,4194.96 L 3617.28,4188.12 L 3737.63,4014.6 Z " />
<path stroke="none" fill="#000000" transform="matrix(0.0666667 0 0 0.0666667 -133.533 -146)" d="M 3640.75,4244.6 L 3645.65,4258.6 L 3370.43,4175.91 L 3369.6,4169.4 L 3375.5,4164.91 L 3640.75,4244.6 Z " />
<path stroke="none" fill="#000000" transform="matrix(0.0666667 0 0 0.0666667 -133.533 -146)" d="M 3357.08,3887 L 3363,3883.4 L 3369.1,3887.62 L 3375.5,4164.91 L 3369.6,4169.4 L 3363.52,4166.07 L 3357.08,3887 Z " />
<path stroke="none" fill="#000000" transform="matrix(0.0666667 0 0 0.0666667 -133.533 -146)" d="M 3306.21,3914.45 L 3318.2,3914.17 L 3323.43,4140.7 L 3311.44,4140.98 L 3306.21,3914.45 Z " />
<path stroke="none" fill="#000000" transform="matrix(0.0666667 0 0 0.0666667 -133.533 -146)" d="M 3363.52,4166.07 L 3369.6,4169.4 L 3370.43,4175.91 L 3131.08,4321.33 L 3125,4318 L 3124.85,4311.07 L 3363.52,4166.07 Z " />
<path stroke="none" fill="#000000" transform="matrix(0.0666667 0 0 0.0666667 -133.533 -146)" d="M 3119.08,4321.6 L 3125,4318 L 3131.08,4321.33 L 3137.33,4600.77 L 3131.4,4604 L 3125.33,4601.08 L 3119.08,4321.6 Z " />
<path stroke="none" fill="#000000" transform="matrix(0.0666667 0 0 0.0666667 -133.533 -146)" d="M 3125.33,4601.08 L 3131.4,4604 L 3131.6,4611.39 L 2911.14,4779.11 L 2896.86,4774.89 L 3125.33,4601.08 Z " />
<path stroke="none" fill="#000000" transform="matrix(0.0666667 0 0 0.0666667 -133.533 -146)" d="M 3129.48,4662.55 L 3136.74,4672.1 L 2968.85,4799.82 L 2961.58,4790.27 L 3129.48,4662.55 Z " />
<path stroke="none" fill="#000000" transform="matrix(0.0666667 0 0 0.0666667 -133.533 -146)" d="M 2896.86,4774.89 L 2911.14,4779.11 L 3006.16,5041.87 L 2997.84,5054.13 L 2896.86,4774.89 Z " />
<path stroke="none" fill="#000000" transform="matrix(0.0666667 0 0 0.0666667 -133.533 -146)" d="M 2997.84,5054.13 L 3006.16,5041.87 L 3283.26,5033.34 L 3287.8,5039.2 L 3284.9,5045.29 L 2997.84,5054.13 Z " />
<path stroke="none" fill="#000000" transform="matrix(0.0666667 0 0 0.0666667 -133.533 -146)" d="M 3037.9,5001.4 L 3037.53,4989.41 L 3248.69,4982.91 L 3249.05,4994.9 L 3037.9,5001.4 Z " />
<path stroke="none" fill="#000000" transform="matrix(0.0666667 0 0 0.0666667 -133.533 -146)" d="M 3294.41,5037.97 L 3287.8,5039.2 L 3283.26,5033.34 L 3330.24,4872.49 L 3341.76,4875.86 L 3294.41,5037.97 Z " />
<path stroke="none" fill="#000000" transform="matrix(0.0666667 0 0 0.0666667 -133.533 -146)" d="M 3131.6,4611.39 L 3131.4,4604 L 3137.33,4600.77 L 3291.94,4705.72 L 3285.2,4715.65 L 3131.6,4611.39 Z " />
<path stroke="none" fill="#000000" transform="matrix(0.0666667 0 0 0.0666667 -133.533 -146)" d="M 2860.72,3897.12 L 2866.6,3892.6 L 2872.69,3895.95 L 2880.11,4176.99 L 2874.2,4180.6 L 2868.09,4176.38 L 2860.72,3897.12 Z " />
<path stroke="none" fill="#000000" transform="matrix(0.0666667 0 0 0.0666667 -133.533 -146)" d="M 3124.85,4311.07 L 3125,4318 L 3119.08,4321.6 L 2873.66,4187.15 L 2874.2,4180.6 L 2880.11,4176.99 L 3124.85,4311.07 Z " />
<path stroke="none" fill="#000000" transform="matrix(0.0666667 0 0 0.0666667 -133.533 -146)" d="M 3126.55,4253.32 L 3120.79,4263.84 L 2921.99,4154.93 L 2927.76,4144.41 L 3126.55,4253.32 Z " />
<path stroke="none" fill="#000000" transform="matrix(0.0666667 0 0 0.0666667 -133.533 -146)" d="M 2868.09,4176.38 L 2874.2,4180.6 L 2873.66,4187.15 L 2691.59,4250.8 L 2687.62,4239.48 L 2868.09,4176.38 Z " />
<path stroke="none" fill="#000000" transform="matrix(0.0666667 0 0 0.0666667 -133.533 -146)" d="M 2428.08,4053.27 L 2431,4047.2 L 2438.41,4047.04 L 2549.33,4192.93 L 2539.78,4200.19 L 2428.08,4053.27 Z " />
<path stroke="none" fill="#000000" transform="matrix(0.0666667 0 0 0.0666667 -133.533 -146)" d="M 3809.32,4022.63 L 3806.2,4016.6 L 3809.19,4010.63 L 4085.53,4013.18 L 4087.4,4019.2 L 4082.94,4025.16 L 3809.32,4022.63 Z " />
<text x="0" y="0" stroke="none" fill="#e1e100" transform="matrix(0.0666667 0 0 0.0666667 150.127 116.213)" font-style="normal" font-weight="normal" font-size="200px" font-family="Arial" >
S</text>
<path stroke="none" fill="#000000" transform="matrix(0.0666667 0 0 0.0666667 -133.533 -146)" d="M 4082.94,4025.16 L 4087.4,4019.2 L 4094.41,4021.62 L 4175.07,4286.68 L 4166.13,4298.52 L 4082.94,4025.16 Z " />
<path stroke="none" fill="#000000" transform="matrix(0.0666667 0 0 0.0666667 -133.533 -146)" d="M 4141.74,4041.68 L 4153.22,4038.18 L 4214.67,4240.13 L 4203.19,4243.62 L 4141.74,4041.68 Z " />
<path stroke="none" fill="#000000" transform="matrix(0.0666667 0 0 0.0666667 -133.533 -146)" d="M 4166.13,4298.52 L 4175.07,4286.68 L 4452.35,4291.92 L 4460.85,4304.08 L 4166.13,4298.52 Z " />
<path stroke="none" fill="#000000" transform="matrix(0.0666667 0 0 0.0666667 -133.533 -146)" d="M 4460.85,4304.08 L 4452.35,4291.92 L 4542.91,4029.76 L 4550,4027.6 L 4554.67,4032.45 L 4460.85,4304.08 Z " />
<path stroke="none" fill="#000000" transform="matrix(0.0666667 0 0 0.0666667 -133.533 -146)" d="M 4425.82,4247.77 L 4414.48,4243.85 L 4483.44,4044.2 L 4494.78,4048.12 L 4425.82,4247.77 Z " />
<path stroke="none" fill="#000000" transform="matrix(0.0666667 0 0 0.0666667 -133.533 -146)" d="M 4551.17,4020.97 L 4550,4027.6 L 4542.91,4029.76 L 4404.51,3925.3 L 4411.74,3915.72 L 4551.17,4020.97 Z " />
<path stroke="none" fill="#000000" transform="matrix(0.0666667 0 0 0.0666667 -133.533 -146)" d="M 4230.49,3911.68 L 4237.37,3921.51 L 4094.41,4021.62 L 4087.4,4019.2 L 4085.53,4013.18 L 4230.49,3911.68 Z " />
<path stroke="none" fill="#000000" transform="matrix(0.0666667 0 0 0.0666667 -133.533 -146)" d="M 4554.67,4032.45 L 4550,4027.6 L 4551.17,4020.97 L 4818.92,3939.35 L 4823.6,3944.2 L 4822.42,3950.83 L 4554.67,4032.45 Z " />
<text x="0" y="0" stroke="none" fill="#e1e100" transform="matrix(0.0666667 0 0 0.0666667 198.807 133.64)" font-style="normal" font-weight="normal" font-size="200px" font-family="Arial" >
S</text>
<path stroke="none" fill="#000000" transform="matrix(0.0666667 0 0 0.0666667 -133.533 -146)" d="M 4822.42,3950.83 L 4823.6,3944.2 L 4830.69,3942.04 L 4978.42,4053.64 L 4971.18,4063.21 L 4822.42,3950.83 Z " />
<path stroke="none" fill="#000000" transform="matrix(0.0666667 0 0 0.0666667 -133.533 -146)" d="M 5132.68,4067.33 L 5125.81,4057.5 L 5279.19,3950.18 L 5286.2,3952.6 L 5287.13,3959.27 L 5132.68,4067.33 Z " />
<path stroke="none" fill="#000000" transform="matrix(0.0666667 0 0 0.0666667 -133.533 -146)" d="M 5291.05,3947.93 L 5286.2,3952.6 L 5279.19,3950.18 L 5198.53,3684.92 L 5203,3679 L 5209.52,3679.81 L 5291.05,3947.93 Z " />
<path stroke="none" fill="#000000" transform="matrix(0.0666667 0 0 0.0666667 -133.533 -146)" d="M 5231.82,3930.09 L 5220.34,3933.58 L 5158.9,3731.53 L 5170.38,3728.04 L 5231.82,3930.09 Z " />
<path stroke="none" fill="#000000" transform="matrix(0.0666667 0 0 0.0666667 -133.533 -146)" d="M 5199.64,3672.94 L 5203,3679 L 5198.53,3684.92 L 4921.05,3679.88 L 4916.8,3673.8 L 4920.38,3667.86 L 5199.64,3672.94 Z " />
<path stroke="none" fill="#000000" transform="matrix(0.0666667 0 0 0.0666667 -133.533 -146)" d="M 4910.26,3674.37 L 4916.8,3673.8 L 4921.05,3679.88 L 4830.69,3942.04 L 4823.6,3944.2 L 4818.92,3939.35 L 4910.26,3674.37 Z " />
<path stroke="none" fill="#000000" transform="matrix(0.0666667 0 0 0.0666667 -133.533 -146)" d="M 4947.61,3724 L 4958.95,3727.91 L 4890.12,3927.6 L 4878.78,3923.69 L 4947.61,3724 Z " />
<path stroke="none" fill="#000000" transform="matrix(0.0666667 0 0 0.0666667 -133.533 -146)" d="M 5209.52,3679.81 L 5203,3679 L 5199.64,3672.94 L 5343.47,3433.87 L 5357.33,3434.13 L 5209.52,3679.81 Z " />
<path stroke="none" fill="#000000" transform="matrix(0.0666667 0 0 0.0666667 -133.533 -146)" d="M 5357.33,3434.13 L 5343.47,3433.87 L 5208.43,3189.74 L 5212,3183.8 L 5218.54,3183.23 L 5357.33,3434.13 Z " />
<path stroke="none" fill="#000000" transform="matrix(0.0666667 0 0 0.0666667 -133.533 -146)" d="M 4919.48,3177.79 L 4926,3178.6 L 4929.35,3184.66 L 4785.52,3423.73 L 4771.67,3423.47 L 4919.48,3177.79 Z " />
<path stroke="none" fill="#000000" transform="matrix(0.0666667 0 0 0.0666667 -133.533 -146)" d="M 4771.67,3423.47 L 4785.52,3423.73 L 4920.38,3667.86 L 4916.8,3673.8 L 4910.26,3674.37 L 4771.67,3423.47 Z " />
<text x="0" y="0" stroke="none" fill="#e1e100" transform="matrix(0.0666667 0 0 0.0666667 200.487 41.9467)" font-style="normal" font-weight="normal" font-size="200px" font-family="Arial" >
S</text>
<path stroke="none" fill="#000000" transform="matrix(0.0666667 0 0 0.0666667 -133.533 -146)" d="M 5218.54,3183.23 L 5212,3183.8 L 5207.75,3177.72 L 5298.3,2915.56 L 5305.4,2913.4 L 5310.07,2918.25 L 5218.54,3183.23 Z " />
<path stroke="none" fill="#000000" transform="matrix(0.0666667 0 0 0.0666667 -133.533 -146)" d="M 5181.21,3133.59 L 5169.87,3129.68 L 5238.83,2930.02 L 5250.18,2933.94 L 5181.21,3133.59 Z " />
<path stroke="none" fill="#000000" transform="matrix(0.0666667 0 0 0.0666667 -133.533 -146)" d="M 4985.85,2797.58 L 4992.72,2807.41 L 4849.61,2907.42 L 4842.6,2905 L 4841.67,2898.33 L 4985.85,2797.58 Z " />
<path stroke="none" fill="#000000" transform="matrix(0.0666667 0 0 0.0666667 -133.533 -146)" d="M 4837.75,2909.67 L 4842.6,2905 L 4849.61,2907.42 L 4930.47,3172.68 L 4926,3178.6 L 4919.48,3177.79 L 4837.75,2909.67 Z " />
<path stroke="none" fill="#000000" transform="matrix(0.0666667 0 0 0.0666667 -133.533 -146)" d="M 4897.02,2927.52 L 4908.5,2924.02 L 4970.08,3126.05 L 4958.6,3129.55 L 4897.02,2927.52 Z " />
<text x="0" y="0" stroke="none" fill="#ff0000" transform="matrix(0.0666667 0 0 0.0666667 160.788 87.08)" font-style="normal" font-weight="normal" font-size="200px" font-family="Arial" >
O</text>
<path stroke="none" fill="#000000" transform="matrix(0.0666667 0 0 0.0666667 -133.533 -146)" d="M 4793.09,3443.62 L 4792.86,3455.62 L 4592.19,3451.83 L 4592.41,3439.83 L 4793.09,3443.62 Z " />
<path stroke="none" fill="#000000" transform="matrix(0.0666667 0 0 0.0666667 -133.533 -146)" d="M 4794.03,3392.14 L 4793.8,3404.14 L 4593.16,3400.35 L 4593.39,3388.35 L 4794.03,3392.14 Z " />
<text x="0" y="0" stroke="none" fill="#ff0000" transform="matrix(0.0666667 0 0 0.0666667 237.041 88.48)" font-style="normal" font-weight="normal" font-size="200px" font-family="Arial" >
O</text>
<path stroke="none" fill="#000000" transform="matrix(0.0666667 0 0 0.0666667 -133.533 -146)" d="M 5335.9,3413.99 L 5336.12,3401.99 L 5537.22,3405.65 L 5537,3417.65 L 5335.9,3413.99 Z " />
<path stroke="none" fill="#000000" transform="matrix(0.0666667 0 0 0.0666667 -133.533 -146)" d="M 5334.97,3465.47 L 5335.19,3453.47 L 5536.29,3457.13 L 5536.07,3469.13 L 5334.97,3465.47 Z " />
<path stroke="none" fill="#000000" transform="matrix(0.0666667 0 0 0.0666667 -133.533 -146)" d="M 5287.13,3959.27 L 5286.2,3952.6 L 5291.05,3947.93 L 5555.67,4039.13 L 5556.6,4045.8 L 5551.75,4050.48 L 5287.13,3959.27 Z " />
<text x="0" y="0" stroke="none" fill="#e1e100" transform="matrix(0.0666667 0 0 0.0666667 248.1 118.013)" font-style="normal" font-weight="normal" font-size="200px" font-family="Arial" >
S</text>
<path stroke="none" fill="#000000" transform="matrix(0.0666667 0 0 0.0666667 -133.533 -146)" d="M 5551.75,4050.48 L 5556.6,4045.8 L 5563.61,4048.22 L 5644.66,4313.68 L 5635.73,4325.52 L 5551.75,4050.48 Z " />
<path stroke="none" fill="#000000" transform="matrix(0.0666667 0 0 0.0666667 -133.533 -146)" d="M 5611.1,4068.37 L 5622.57,4064.87 L 5684.29,4266.98 L 5672.81,4270.48 L 5611.1,4068.37 Z " />
<path stroke="none" fill="#000000" transform="matrix(0.0666667 0 0 0.0666667 -133.533 -146)" d="M 5635.73,4325.52 L 5644.66,4313.68 L 5921.75,4318.52 L 5930.25,4330.68 L 5635.73,4325.52 Z " />
<path stroke="none" fill="#000000" transform="matrix(0.0666667 0 0 0.0666667 -133.533 -146)" d="M 5930.25,4330.68 L 5921.75,4318.52 L 6012.11,4056.56 L 6019.2,4054.4 L 6023.48,4060.4 L 5930.25,4330.68 Z " />
<path stroke="none" fill="#000000" transform="matrix(0.0666667 0 0 0.0666667 -133.533 -146)" d="M 5895.22,4274.46 L 5883.87,4270.55 L 5952.71,4070.98 L 5964.05,4074.9 L 5895.22,4274.46 Z " />
<path stroke="none" fill="#000000" transform="matrix(0.0666667 0 0 0.0666667 -133.533 -146)" d="M 6021.21,4048.4 L 6019.2,4054.4 L 6012.11,4056.56 L 5874.09,3952.33 L 5881.33,3942.75 L 6021.21,4048.4 Z " />
<path stroke="none" fill="#000000" transform="matrix(0.0666667 0 0 0.0666667 -133.533 -146)" d="M 5700.01,3938.48 L 5706.87,3948.32 L 5563.61,4048.22 L 5556.6,4045.8 L 5555.67,4039.13 L 5700.01,3938.48 Z " />
<path stroke="none" fill="#000000" transform="matrix(0.0666667 0 0 0.0666667 -133.533 -146)" d="M 5310.07,2918.25 L 5305.4,2913.4 L 5306.57,2906.77 L 5573.74,2825.47 L 5583.86,2834.93 L 5310.07,2918.25 Z " />
<path stroke="none" fill="#000000" transform="matrix(0.0666667 0 0 0.0666667 -133.533 -146)" d="M 4841.67,2898.33 L 4842.6,2905 L 4837.75,2909.67 L 4566.97,2816.14 L 4577.43,2807.06 L 4841.67,2898.33 Z " />
<path stroke="none" fill="#000000" transform="matrix(0.0666667 0 0 0.0666667 -133.533 -146)" d="M 2952.11,3018.51 L 2949.2,3024.6 L 2942.6,3025.83 L 2773.52,2803.39 L 2778.88,2790.61 L 2952.11,3018.51 Z " />
<path stroke="none" fill="#000000" transform="matrix(0.0666667 0 0 0.0666667 -133.533 -146)" d="M 2778.88,2790.61 L 2773.52,2803.39 L 2496.59,2838.91 L 2492.4,2833.4 L 2495.07,2827.01 L 2778.88,2790.61 Z " />
<text x="0" y="0" stroke="none" fill="#000000" transform="matrix(0.0666667 0 0 0.0666667 2.91562 32.9067)" font-style="normal" font-weight="normal" font-size="200px" font-family="Arial" >
C</text>
<text x="0" y="0" stroke="none" fill="#000000" transform="matrix(0.0666667 0 0 0.0666667 12.5445 35.84)" font-style="normal" font-weight="normal" font-size="150px" font-family="Arial" >
4</text>
<text x="0" y="0" stroke="none" fill="#000000" transform="matrix(0.0666667 0 0 0.0666667 18.1061 32.9067)" font-style="normal" font-weight="normal" font-size="200px" font-family="Arial" >
H</text>
<text x="0" y="0" stroke="none" fill="#000000" transform="matrix(0.0666667 0 0 0.0666667 27.735 35.84)" font-style="normal" font-weight="normal" font-size="150px" font-family="Arial" >
9</text>
<path stroke="none" fill="#000000" transform="matrix(0.0666667 0 0 0.0666667 -133.533 -146)" d="M 2495.07,2827.01 L 2492.4,2833.4 L 2485.53,2834.28 L 2444.44,2780.29 L 2453.98,2773.03 L 2495.07,2827.01 Z " />
<text x="0" y="0" stroke="none" fill="#000000" transform="matrix(0.0666667 0 0 0.0666667 7.10229 65.6667)" font-style="normal" font-weight="normal" font-size="200px" font-family="Arial" >
C</text>
<text x="0" y="0" stroke="none" fill="#000000" transform="matrix(0.0666667 0 0 0.0666667 16.7312 68.6)" font-style="normal" font-weight="normal" font-size="150px" font-family="Arial" >
2</text>
<text x="0" y="0" stroke="none" fill="#000000" transform="matrix(0.0666667 0 0 0.0666667 22.2927 65.6667)" font-style="normal" font-weight="normal" font-size="200px" font-family="Arial" >
H</text>
<text x="0" y="0" stroke="none" fill="#000000" transform="matrix(0.0666667 0 0 0.0666667 31.9216 68.6)" font-style="normal" font-weight="normal" font-size="150px" font-family="Arial" >
5</text>
<path stroke="none" fill="#000000" transform="matrix(0.0666667 0 0 0.0666667 -133.533 -146)" d="M 2485.53,2834.28 L 2492.4,2833.4 L 2496.59,2838.91 L 2431.88,2993.14 L 2420.82,2988.5 L 2485.53,2834.28 Z " />
<path stroke="none" fill="#000000" transform="matrix(0.0666667 0 0 0.0666667 -133.533 -146)" d="M 3284.9,5045.29 L 3287.8,5039.2 L 3294.41,5037.97 L 3463.87,5260.41 L 3458.53,5273.19 L 3284.9,5045.29 Z " />
<path stroke="none" fill="#000000" transform="matrix(0.0666667 0 0 0.0666667 -133.533 -146)" d="M 3458.53,5273.19 L 3463.87,5260.41 L 3740.61,5225.09 L 3744.8,5230.6 L 3742.13,5236.99 L 3458.53,5273.19 Z " />
<text x="0" y="0" stroke="none" fill="#000000" transform="matrix(0.0666667 0 0 0.0666667 118.679 190.32)" font-style="normal" font-weight="normal" font-size="200px" font-family="Arial" >
C</text>
<text x="0" y="0" stroke="none" fill="#000000" transform="matrix(0.0666667 0 0 0.0666667 128.308 193.253)" font-style="normal" font-weight="normal" font-size="150px" font-family="Arial" >
2</text>
<text x="0" y="0" stroke="none" fill="#000000" transform="matrix(0.0666667 0 0 0.0666667 133.869 190.32)" font-style="normal" font-weight="normal" font-size="200px" font-family="Arial" >
H</text>
<text x="0" y="0" stroke="none" fill="#000000" transform="matrix(0.0666667 0 0 0.0666667 143.498 193.253)" font-style="normal" font-weight="normal" font-size="150px" font-family="Arial" >
5</text>
<path stroke="none" fill="#000000" transform="matrix(0.0666667 0 0 0.0666667 -133.533 -146)" d="M 3751.67,5229.72 L 3744.8,5230.6 L 3740.61,5225.09 L 3806.33,5068.33 L 3817.39,5072.97 L 3751.67,5229.72 Z " />
<text x="0" y="0" stroke="none" fill="#000000" transform="matrix(0.0666667 0 0 0.0666667 122.866 223.08)" font-style="normal" font-weight="normal" font-size="200px" font-family="Arial" >
C</text>
<text x="0" y="0" stroke="none" fill="#000000" transform="matrix(0.0666667 0 0 0.0666667 132.494 226.013)" font-style="normal" font-weight="normal" font-size="150px" font-family="Arial" >
4</text>
<text x="0" y="0" stroke="none" fill="#000000" transform="matrix(0.0666667 0 0 0.0666667 138.056 223.08)" font-style="normal" font-weight="normal" font-size="200px" font-family="Arial" >
H</text>
<text x="0" y="0" stroke="none" fill="#000000" transform="matrix(0.0666667 0 0 0.0666667 147.685 226.013)" font-style="normal" font-weight="normal" font-size="150px" font-family="Arial" >
9</text>
<path stroke="none" fill="#000000" transform="matrix(0.0666667 0 0 0.0666667 -133.533 -146)" d="M 3742.13,5236.99 L 3744.8,5230.6 L 3751.67,5229.72 L 3865.13,5378.64 L 3855.59,5385.92 L 3742.13,5236.99 Z " />
<path stroke="none" fill="#000000" transform="matrix(0.0666667 0 0 0.0666667 -133.533 -146)" d="M 5306.57,2906.77 L 5305.4,2913.4 L 5298.3,2915.56 L 5159.94,2811.25 L 5167.16,2801.66 L 5306.57,2906.77 Z " />
<path stroke="none" fill="#000000" transform="matrix(0.0666667 0 0 0.0666667 -133.533 -146)" d="M 4929.35,3184.66 L 4926,3178.6 L 4930.47,3172.68 L 5207.75,3177.72 L 5212,3183.8 L 5208.43,3189.74 L 4929.35,3184.66 Z " />
<path stroke="none" fill="#000000" transform="matrix(0.0666667 0 0 0.0666667 -133.533 -146)" d="M 5583.86,2834.93 L 5573.74,2825.47 L 5637,2553.29 L 5643.6,2551.4 L 5648.66,2556.13 L 5583.86,2834.93 Z " />
<text x="0" y="0" stroke="none" fill="#000000" transform="matrix(0.0666667 0 0 0.0666667 256.119 23.7333)" font-style="normal" font-weight="normal" font-size="200px" font-family="Arial" >
C</text>
<text x="0" y="0" stroke="none" fill="#000000" transform="matrix(0.0666667 0 0 0.0666667 265.748 26.6667)" font-style="normal" font-weight="normal" font-size="150px" font-family="Arial" >
4</text>
<text x="0" y="0" stroke="none" fill="#000000" transform="matrix(0.0666667 0 0 0.0666667 271.309 23.7333)" font-style="normal" font-weight="normal" font-size="200px" font-family="Arial" >
H</text>
<text x="0" y="0" stroke="none" fill="#000000" transform="matrix(0.0666667 0 0 0.0666667 280.938 26.6667)" font-style="normal" font-weight="normal" font-size="150px" font-family="Arial" >
9</text>
<path stroke="none" fill="#000000" transform="matrix(0.0666667 0 0 0.0666667 -133.533 -146)" d="M 5648.66,2556.13 L 5643.6,2551.4 L 5645.29,2544.61 L 5821.66,2490.81 L 5825.16,2502.29 L 5648.66,2556.13 Z " />
<text x="0" y="0" stroke="none" fill="#000000" transform="matrix(0.0666667 0 0 0.0666667 202.447 15.72)" font-style="normal" font-weight="normal" font-size="200px" font-family="Arial" >
C</text>
<text x="0" y="0" stroke="none" fill="#000000" transform="matrix(0.0666667 0 0 0.0666667 212.076 18.6533)" font-style="normal" font-weight="normal" font-size="150px" font-family="Arial" >
2</text>
<text x="0" y="0" stroke="none" fill="#000000" transform="matrix(0.0666667 0 0 0.0666667 217.637 15.72)" font-style="normal" font-weight="normal" font-size="200px" font-family="Arial" >
H</text>
<text x="0" y="0" stroke="none" fill="#000000" transform="matrix(0.0666667 0 0 0.0666667 227.266 18.6533)" font-style="normal" font-weight="normal" font-size="150px" font-family="Arial" >
5</text>
<path stroke="none" fill="#000000" transform="matrix(0.0666667 0 0 0.0666667 -133.533 -146)" d="M 5645.29,2544.61 L 5643.6,2551.4 L 5637,2553.29 L 5531.59,2447.98 L 5540.07,2439.49 L 5645.29,2544.61 Z " />
<path stroke="none" fill="#000000" transform="matrix(0.0666667 0 0 0.0666667 -133.533 -146)" d="M 4577.43,2807.06 L 4566.97,2816.14 L 4512.57,2535.54 L 4517.8,2531 L 4524.3,2532.99 L 4577.43,2807.06 Z " />
<text x="0" y="0" stroke="none" fill="#000000" transform="matrix(0.0666667 0 0 0.0666667 176.426 14.3466)" font-style="normal" font-weight="normal" font-size="200px" font-family="Arial" >
C</text>
<text x="0" y="0" stroke="none" fill="#000000" transform="matrix(0.0666667 0 0 0.0666667 186.054 17.28)" font-style="normal" font-weight="normal" font-size="150px" font-family="Arial" >
2</text>
<text x="0" y="0" stroke="none" fill="#000000" transform="matrix(0.0666667 0 0 0.0666667 191.616 14.3466)" font-style="normal" font-weight="normal" font-size="200px" font-family="Arial" >
H</text>
<text x="0" y="0" stroke="none" fill="#000000" transform="matrix(0.0666667 0 0 0.0666667 201.245 17.28)" font-style="normal" font-weight="normal" font-size="150px" font-family="Arial" >
5</text>
<path stroke="none" fill="#000000" transform="matrix(0.0666667 0 0 0.0666667 -133.533 -146)" d="M 4524.3,2532.99 L 4517.8,2531 L 4516.21,2524.1 L 4641.2,2399.11 L 4649.69,2407.59 L 4524.3,2532.99 Z " />
<text x="0" y="0" stroke="none" fill="#000000" transform="matrix(0.0666667 0 0 0.0666667 122.953 21.7067)" font-style="normal" font-weight="normal" font-size="200px" font-family="Arial" >
C</text>
<text x="0" y="0" stroke="none" fill="#000000" transform="matrix(0.0666667 0 0 0.0666667 132.582 24.64)" font-style="normal" font-weight="normal" font-size="150px" font-family="Arial" >
4</text>
<text x="0" y="0" stroke="none" fill="#000000" transform="matrix(0.0666667 0 0 0.0666667 138.144 21.7067)" font-style="normal" font-weight="normal" font-size="200px" font-family="Arial" >
H</text>
<text x="0" y="0" stroke="none" fill="#000000" transform="matrix(0.0666667 0 0 0.0666667 147.773 24.64)" font-style="normal" font-weight="normal" font-size="150px" font-family="Arial" >
9</text>
<path stroke="none" fill="#000000" transform="matrix(0.0666667 0 0 0.0666667 -133.533 -146)" d="M 4516.21,2524.1 L 4517.8,2531 L 4512.57,2535.54 L 4335.71,2474.45 L 4339.63,2463.11 L 4516.21,2524.1 Z " />
<path stroke="none" fill="#000000" transform="matrix(0.0666667 0 0 0.0666667 -133.533 -146)" d="M 6023.48,4060.4 L 6019.2,4054.4 L 6021.21,4048.4 L 6307.2,4048.4 L 6307.2,4060.4 L 6023.48,4060.4 Z " />
<path stroke="none" fill="#000000" transform="matrix(0.0666667 0 0 0.0666667 -133.533 -146)" d="M 2427.81,4041.27 L 2431,4047.2 L 2428.08,4053.27 L 2145.34,4059.8 L 2145.06,4047.8 L 2427.81,4041.27 Z " />
<path stroke="#000000" stroke-width="12" fill="none" transform="matrix(0.0666667 0 0 0.0666667 -133.533 -146)" d="M 6169,3786.2 L 6209.2,3786.2 " />
<path stroke="#000000" stroke-width="12" fill="none" transform="matrix(0.0666667 0 0 0.0666667 -133.533 -146)" d="M 6209.2,3786.2 L 6209.2,4335.6 " />
<path stroke="#000000" stroke-width="12" fill="none" transform="matrix(0.0666667 0 0 0.0666667 -133.533 -146)" d="M 6209.2,4335.6 L 6169,4335.6 " />
<text x="0" y="0" stroke="none" fill="#000000" transform="matrix(0.0666667 0 0 0.0666667 284.33 146.112)" font-style="normal" font-weight="normal" font-size="150px" font-family="Arial" >
n</text>
<path stroke="#000000" stroke-width="12" fill="none" transform="matrix(0.0666667 0 0 0.0666667 -133.533 -146)" d="M 2363.2,4335.6 L 2323,4335.6 " />
<path stroke="#000000" stroke-width="12" fill="none" transform="matrix(0.0666667 0 0 0.0666667 -133.533 -146)" d="M 2323,4335.6 L 2323,3786.2 " />
<path stroke="#000000" stroke-width="12" fill="none" transform="matrix(0.0666667 0 0 0.0666667 -133.533 -146)" d="M 2323,3786.2 L 2363.2,3786.2 " />
</svg>
