<?xml version='1.0' encoding='UTF-8'?>
<!DOCTYPE svg PUBLIC "-//W3C//DTD SVG 1.1//EN" "http://www.w3.org/Graphics/SVG/1.1/DTD/svg11.dtd">
<svg xmlns="http://www.w3.org/2000/svg" xmlns:xlink="http://www.w3.org/1999/xlink" width="342px" height="267px" viewBox="0 0 342 267" style="background-color: #ffffff00" version="1.1">
  <style>:root {
  --h: #000000;
  --c: #000000;
  --n: #2144d9;
  --o: #ff0d0d;
  --s: #e1e100;
  --p: #ff8000;
  --f: #90e000;
  --cl: #00e000;
  --br: #a52a2a;
  --i: #940094;
  --bonds: #000000;
}
@media (prefers-color-scheme: dark) {
:root {
  --h: #e0e0e0;
  --c: #e0e0e0;
  --n: #8fa3ff;
  --o: #ff6666;
  --s: #ffff00;
  --p: #ffb366;
  --f: #c3ff00;
  --cl: #66ff66;
  --br: #d47878;
  --i: #d478d4;
  --bonds: #ffffff;
}}</style>
  <style>:root {
  --h: #000000;
  --c: #000000;
  --n: #2144d9;
  --o: #ff0d0d;
  --s: #e1e100;
  --p: #ff8000;
  --f: #90e000;
  --cl: #00e000;
  --br: #a52a2a;
  --i: #940094;
  --bonds: #000000;
}
@media (prefers-color-scheme: dark) {
:root {
  --h: #e0e0e0;
  --c: #e0e0e0;
  --n: #8fa3ff;
  --o: #ff6666;
  --s: #ffff00;
  --p: #ffb366;
  --f: #c3ff00;
  --cl: #66ff66;
  --br: #d47878;
  --i: #d478d4;
  --bonds: #ffffff;
}}</style>
  <style>:root {
  --c: #000000;
  --n: #2144d9;
  --o: #ff0d0d;
  --s: #e1e100;
  --p: #ff8000;
  --f: #90e000;
  --cl: #00e000;
  --br: #a52a2a;
  --i: #940094;
  --bonds: #000000;
}
@media (prefers-color-scheme: dark) {
:root {
  --c: #e0e0e0;
  --n: #8fa3ff;
  --o: #ff6666;
  --s: #ffff00;
  --p: #ffb366;
  --f: #c3ff00;
  --cl: #66ff66;
  --br: #d47878;
  --i: #d478d4;
  --bonds: #ffffff;
}}</style>
  <text x="0" y="0" stroke="none" fill="var(--s)" transform="matrix(0.0666667 0 0 0.0666667 96.9557 90.0271)" font-style="normal" font-weight="normal" font-size="200px" font-family="Arial">
S</text>
  <text x="0" y="0" stroke="none" fill="var(--s)" transform="matrix(0.0666667 0 0 0.0666667 120.568 129.634)" font-style="normal" font-weight="normal" font-size="200px" font-family="Arial">
S</text>
  <text x="0" y="0" stroke="none" fill="var(--s)" transform="matrix(0.0666667 0 0 0.0666667 99.6845 206.576)" font-style="normal" font-weight="normal" font-size="200px" font-family="Arial">
S</text>
  <text x="0" y="0" stroke="none" fill="var(--s)" transform="matrix(0.0666667 0 0 0.0666667 39.4461 167.963)" font-style="normal" font-weight="normal" font-size="200px" font-family="Arial">
S</text>
  <path stroke="none" fill="var(--bonds)" transform="matrix(0.0666667 0 0 0.0666667 -133.2 -146)" d="M 2458.91,4361.8 L 2451.5,4361.96 L 2448.3,4356.03 L 2641.63,4077.21 L 2646.55,4091.17 L 2458.91,4361.8 Z "/>
  <path stroke="none" fill="var(--bonds)" transform="matrix(0.0666667 0 0 0.0666667 -133.2 -146)" d="M 2531.6,4363.73 L 2521.74,4356.89 L 2664.13,4151.53 L 2673.99,4158.37 L 2531.6,4363.73 Z "/>
  <path stroke="none" fill="var(--bonds)" transform="matrix(0.0666667 0 0 0.0666667 -133.2 -146)" d="M 2646.55,4091.17 L 2641.63,4077.21 L 2965.99,4172.57 L 2966.81,4179.07 L 2960.93,4183.59 L 2646.55,4091.17 Z "/>
  <path stroke="none" fill="var(--bonds)" transform="matrix(0.0666667 0 0 0.0666667 -133.2 -146)" d="M 2972.9,4182.42 L 2966.81,4179.07 L 2965.99,4172.57 L 3251.28,4002.51 L 3257.36,4005.88 L 3257.48,4012.79 L 2972.9,4182.42 Z "/>
  <path stroke="none" fill="var(--bonds)" transform="matrix(0.0666667 0 0 0.0666667 -133.2 -146)" d="M 3031.69,4218.26 L 3025.54,4207.95 L 3255.58,4070.83 L 3261.72,4081.14 L 3031.69,4218.26 Z "/>
  <path stroke="none" fill="var(--bonds)" transform="matrix(0.0666667 0 0 0.0666667 -133.2 -146)" d="M 3263.28,4002.28 L 3257.36,4005.88 L 3251.28,4002.51 L 3243.85,3670.76 L 3249.78,3667.54 L 3255.85,3670.46 L 3263.28,4002.28 Z "/>
  <path stroke="none" fill="var(--bonds)" transform="matrix(0.0666667 0 0 0.0666667 -133.2 -146)" d="M 3249.59,3660.15 L 3249.78,3667.54 L 3243.85,3670.76 L 2963.15,3479.58 L 2977.1,3474.57 L 3249.59,3660.15 Z "/>
  <path stroke="none" fill="var(--bonds)" transform="matrix(0.0666667 0 0 0.0666667 -133.2 -146)" d="M 3251.17,3587.53 L 3244.41,3597.45 L 3037.57,3456.58 L 3044.32,3446.66 L 3251.17,3587.53 Z "/>
  <path stroke="none" fill="var(--bonds)" transform="matrix(0.0666667 0 0 0.0666667 -133.2 -146)" d="M 2977.1,3474.57 L 2963.15,3479.58 L 3057.92,3153.45 L 3064.53,3152.22 L 3069.07,3158.09 L 2977.1,3474.57 Z "/>
  <path stroke="none" fill="var(--bonds)" transform="matrix(0.0666667 0 0 0.0666667 -133.2 -146)" d="M 3069.07,3158.09 L 3064.53,3152.22 L 3067.43,3146.13 L 3407.02,3135.68 L 3398.7,3147.94 L 3069.07,3158.09 Z "/>
  <path stroke="none" fill="var(--bonds)" transform="matrix(0.0666667 0 0 0.0666667 -133.2 -146)" d="M 3110.86,3217.76 L 3110.49,3205.77 L 3360.43,3198.08 L 3360.8,3210.07 L 3110.86,3217.76 Z "/>
  <path stroke="none" fill="var(--bonds)" transform="matrix(0.0666667 0 0 0.0666667 -133.2 -146)" d="M 3398.7,3147.94 L 3407.02,3135.68 L 3491.11,3367.73 L 3479.83,3371.82 L 3398.7,3147.94 Z "/>
  <path stroke="none" fill="var(--bonds)" transform="matrix(0.0666667 0 0 0.0666667 -133.2 -146)" d="M 3255.85,3670.46 L 3249.78,3667.54 L 3249.59,3660.15 L 3429.63,3522.98 L 3436.9,3532.53 L 3255.85,3670.46 Z "/>
  <path stroke="none" fill="var(--bonds)" transform="matrix(0.0666667 0 0 0.0666667 -133.2 -146)" d="M 3257.48,4012.79 L 3257.36,4005.88 L 3263.28,4002.28 L 3554.59,4161.64 L 3554.05,4168.18 L 3548.13,4171.79 L 3257.48,4012.79 Z "/>
  <path stroke="none" fill="var(--bonds)" transform="matrix(0.0666667 0 0 0.0666667 -133.2 -146)" d="M 3560.15,4172.41 L 3554.05,4168.18 L 3554.59,4161.64 L 3776.77,4083.9 L 3780.73,4095.23 L 3560.15,4172.41 Z "/>
  <path stroke="none" fill="var(--bonds)" transform="matrix(0.0666667 0 0 0.0666667 -133.2 -146)" d="M 3936.91,4150 L 3946.45,4142.72 L 4081.35,4319.79 L 4078.36,4325.76 L 4070.94,4325.93 L 3936.91,4150 Z "/>
  <path stroke="none" fill="var(--bonds)" transform="matrix(0.0666667 0 0 0.0666667 -133.2 -146)" d="M 4070.94,4325.93 L 4078.36,4325.76 L 4081.48,4331.79 L 3887.97,4610.76 L 3883.08,4596.77 L 4070.94,4325.93 Z "/>
  <path stroke="none" fill="var(--bonds)" transform="matrix(0.0666667 0 0 0.0666667 -133.2 -146)" d="M 3998.15,4324.02 L 4008.01,4330.86 L 3865.62,4536.13 L 3855.76,4529.29 L 3998.15,4324.02 Z "/>
  <path stroke="none" fill="var(--bonds)" transform="matrix(0.0666667 0 0 0.0666667 -133.2 -146)" d="M 3883.08,4596.77 L 3887.97,4610.76 L 3562.69,4513.04 L 3561.86,4506.52 L 3567.76,4502.03 L 3883.08,4596.77 Z "/>
  <path stroke="none" fill="var(--bonds)" transform="matrix(0.0666667 0 0 0.0666667 -133.2 -146)" d="M 3548.13,4171.79 L 3554.05,4168.18 L 3560.15,4172.41 L 3567.76,4502.03 L 3561.86,4506.52 L 3555.78,4503.19 L 3548.13,4171.79 Z "/>
  <path stroke="none" fill="var(--bonds)" transform="matrix(0.0666667 0 0 0.0666667 -133.2 -146)" d="M 3487.96,4204.89 L 3499.96,4204.61 L 3506.15,4472.6 L 3494.15,4472.88 L 3487.96,4204.89 Z "/>
  <path stroke="none" fill="var(--bonds)" transform="matrix(0.0666667 0 0 0.0666667 -133.2 -146)" d="M 3555.78,4503.19 L 3561.86,4506.52 L 3562.69,4513.04 L 3278.57,4685.65 L 3272.5,4682.32 L 3272.34,4675.39 L 3555.78,4503.19 Z "/>
  <path stroke="none" fill="var(--bonds)" transform="matrix(0.0666667 0 0 0.0666667 -133.2 -146)" d="M 3266.58,4685.91 L 3272.5,4682.32 L 3278.57,4685.65 L 3286,5017.43 L 3280.07,5020.65 L 3274,5017.73 L 3266.58,4685.91 Z "/>
  <path stroke="none" fill="var(--bonds)" transform="matrix(0.0666667 0 0 0.0666667 -133.2 -146)" d="M 3274,5017.73 L 3280.07,5020.65 L 3280.27,5028.04 L 3018.2,5227.42 L 3003.91,5223.21 L 3274,5017.73 Z "/>
  <path stroke="none" fill="var(--bonds)" transform="matrix(0.0666667 0 0 0.0666667 -133.2 -146)" d="M 3278.46,5090.79 L 3285.73,5100.34 L 3087.11,5251.44 L 3079.84,5241.89 L 3278.46,5090.79 Z "/>
  <path stroke="none" fill="var(--bonds)" transform="matrix(0.0666667 0 0 0.0666667 -133.2 -146)" d="M 3003.91,5223.21 L 3018.2,5227.42 L 3131.15,5539.78 L 3122.83,5552.04 L 3003.91,5223.21 Z "/>
  <path stroke="none" fill="var(--bonds)" transform="matrix(0.0666667 0 0 0.0666667 -133.2 -146)" d="M 3122.83,5552.04 L 3131.15,5539.78 L 3460.55,5529.63 L 3465.09,5535.5 L 3462.19,5541.59 L 3122.83,5552.04 Z "/>
  <path stroke="none" fill="var(--bonds)" transform="matrix(0.0666667 0 0 0.0666667 -133.2 -146)" d="M 3169.42,5489.69 L 3169.05,5477.69 L 3418.85,5470 L 3419.22,5481.99 L 3169.42,5489.69 Z "/>
  <path stroke="none" fill="var(--bonds)" transform="matrix(0.0666667 0 0 0.0666667 -133.2 -146)" d="M 3471.7,5534.27 L 3465.09,5535.5 L 3460.55,5529.63 L 3522.2,5318.54 L 3533.72,5321.9 L 3471.7,5534.27 Z "/>
  <path stroke="none" fill="var(--bonds)" transform="matrix(0.0666667 0 0 0.0666667 -133.2 -146)" d="M 3280.27,5028.04 L 3280.07,5020.65 L 3286,5017.43 L 3483.9,5151.76 L 3477.16,5161.69 L 3280.27,5028.04 Z "/>
  <path stroke="none" fill="var(--bonds)" transform="matrix(0.0666667 0 0 0.0666667 -133.2 -146)" d="M 2960.93,4183.59 L 2966.81,4179.07 L 2972.9,4182.42 L 2981.71,4516.17 L 2975.8,4519.77 L 2969.69,4515.55 L 2960.93,4183.59 Z "/>
  <path stroke="none" fill="var(--bonds)" transform="matrix(0.0666667 0 0 0.0666667 -133.2 -146)" d="M 3272.34,4675.39 L 3272.5,4682.32 L 3266.58,4685.91 L 2975.26,4526.32 L 2975.8,4519.77 L 2981.71,4516.17 L 3272.34,4675.39 Z "/>
  <path stroke="none" fill="var(--bonds)" transform="matrix(0.0666667 0 0 0.0666667 -133.2 -146)" d="M 3273.81,4606.76 L 3268.04,4617.28 L 3032.87,4488.44 L 3038.63,4477.92 L 3273.81,4606.76 Z "/>
  <path stroke="none" fill="var(--bonds)" transform="matrix(0.0666667 0 0 0.0666667 -133.2 -146)" d="M 2969.69,4515.55 L 2975.8,4519.77 L 2975.26,4526.32 L 2743.78,4607.25 L 2739.82,4595.92 L 2969.69,4515.55 Z "/>
  <path stroke="none" fill="var(--bonds)" transform="matrix(0.0666667 0 0 0.0666667 -133.2 -146)" d="M 2448.57,4368.03 L 2451.5,4361.96 L 2458.91,4361.8 L 2601.53,4549.37 L 2591.97,4556.64 L 2448.57,4368.03 Z "/>
  <path stroke="none" fill="var(--bonds)" transform="matrix(0.0666667 0 0 0.0666667 -133.2 -146)" d="M 4081.48,4331.79 L 4078.36,4325.76 L 4081.35,4319.79 L 4409.15,4322.82 L 4411.02,4328.84 L 4406.56,4334.79 L 4081.48,4331.79 Z "/>
  <text x="0" y="0" stroke="none" fill="var(--s)" transform="matrix(0.0666667 0 0 0.0666667 174.892 134.855)" font-style="normal" font-weight="normal" font-size="200px" font-family="Arial">
S</text>
  <path stroke="none" fill="var(--bonds)" transform="matrix(0.0666667 0 0 0.0666667 -133.2 -146)" d="M 4406.56,4334.79 L 4411.02,4328.84 L 4418.02,4331.25 L 4513.91,4646.35 L 4504.97,4658.18 L 4406.56,4334.79 Z "/>
  <path stroke="none" fill="var(--bonds)" transform="matrix(0.0666667 0 0 0.0666667 -133.2 -146)" d="M 4476.35,4355.1 L 4487.83,4351.61 L 4560.53,4590.51 L 4549.05,4594.01 L 4476.35,4355.1 Z "/>
  <path stroke="none" fill="var(--bonds)" transform="matrix(0.0666667 0 0 0.0666667 -133.2 -146)" d="M 4504.97,4658.18 L 4513.91,4646.35 L 4843.53,4652.58 L 4852.03,4664.74 L 4504.97,4658.18 Z "/>
  <path stroke="none" fill="var(--bonds)" transform="matrix(0.0666667 0 0 0.0666667 -133.2 -146)" d="M 4852.03,4664.74 L 4843.53,4652.58 L 4951.18,4340.94 L 4958.27,4338.77 L 4962.95,4343.62 L 4852.03,4664.74 Z "/>
  <path stroke="none" fill="var(--bonds)" transform="matrix(0.0666667 0 0 0.0666667 -133.2 -146)" d="M 4810.33,4598.87 L 4798.99,4594.96 L 4880.57,4358.77 L 4891.91,4362.68 L 4810.33,4598.87 Z "/>
  <path stroke="none" fill="var(--bonds)" transform="matrix(0.0666667 0 0 0.0666667 -133.2 -146)" d="M 4959.45,4332.14 L 4958.27,4338.77 L 4951.18,4340.94 L 4770.98,4204.92 L 4778.21,4195.34 L 4959.45,4332.14 Z "/>
  <path stroke="none" fill="var(--bonds)" transform="matrix(0.0666667 0 0 0.0666667 -133.2 -146)" d="M 4596.96,4191.3 L 4603.84,4201.13 L 4418.02,4331.25 L 4411.02,4328.84 L 4409.15,4322.82 L 4596.96,4191.3 Z "/>
  <path stroke="none" fill="var(--bonds)" transform="matrix(0.0666667 0 0 0.0666667 -133.2 -146)" d="M 4962.95,4343.62 L 4958.27,4338.77 L 4959.45,4332.14 L 5277.27,4235.26 L 5281.94,4240.11 L 5280.77,4246.74 L 4962.95,4343.62 Z "/>
  <text x="0" y="0" stroke="none" fill="var(--s)" transform="matrix(0.0666667 0 0 0.0666667 232.48 155.471)" font-style="normal" font-weight="normal" font-size="200px" font-family="Arial">
S</text>
  <path stroke="none" fill="var(--bonds)" transform="matrix(0.0666667 0 0 0.0666667 -133.2 -146)" d="M 5280.77,4246.74 L 5281.94,4240.11 L 5289.03,4237.95 L 5478.52,4381.1 L 5471.28,4390.67 L 5280.77,4246.74 Z "/>
  <path stroke="none" fill="var(--bonds)" transform="matrix(0.0666667 0 0 0.0666667 -133.2 -146)" d="M 5632.79,4394.79 L 5625.91,4384.96 L 5822.19,4247.63 L 5829.2,4250.05 L 5830.13,4256.72 L 5632.79,4394.79 Z "/>
  <path stroke="none" fill="var(--bonds)" transform="matrix(0.0666667 0 0 0.0666667 -133.2 -146)" d="M 5834.05,4245.37 L 5829.2,4250.05 L 5822.19,4247.63 L 5726.3,3932.3 L 5730.77,3926.38 L 5737.29,3927.19 L 5834.05,4245.37 Z "/>
  <path stroke="none" fill="var(--bonds)" transform="matrix(0.0666667 0 0 0.0666667 -133.2 -146)" d="M 5763.82,4223.74 L 5752.34,4227.23 L 5679.65,3988.21 L 5691.13,3984.71 L 5763.82,4223.74 Z "/>
  <path stroke="none" fill="var(--bonds)" transform="matrix(0.0666667 0 0 0.0666667 -133.2 -146)" d="M 5727.42,3920.32 L 5730.77,3926.38 L 5726.3,3932.3 L 5396.45,3926.31 L 5392.2,3920.23 L 5395.77,3914.29 L 5727.42,3920.32 Z "/>
  <path stroke="none" fill="var(--bonds)" transform="matrix(0.0666667 0 0 0.0666667 -133.2 -146)" d="M 5385.66,3920.79 L 5392.2,3920.23 L 5396.45,3926.31 L 5289.03,4237.95 L 5281.94,4240.11 L 5277.27,4235.26 L 5385.66,3920.79 Z "/>
  <path stroke="none" fill="var(--bonds)" transform="matrix(0.0666667 0 0 0.0666667 -133.2 -146)" d="M 5429.68,3979.97 L 5441.02,3983.88 L 5359.6,4220.12 L 5348.25,4216.21 L 5429.68,3979.97 Z "/>
  <path stroke="none" fill="var(--bonds)" transform="matrix(0.0666667 0 0 0.0666667 -133.2 -146)" d="M 5737.29,3927.19 L 5730.77,3926.38 L 5727.42,3920.32 L 5898.22,3636.42 L 5912.07,3636.67 L 5737.29,3927.19 Z "/>
  <path stroke="none" fill="var(--bonds)" transform="matrix(0.0666667 0 0 0.0666667 -133.2 -146)" d="M 5912.07,3636.67 L 5898.22,3636.42 L 5737.85,3346.49 L 5741.42,3340.56 L 5747.96,3339.99 L 5912.07,3636.67 Z "/>
  <path stroke="none" fill="var(--bonds)" transform="matrix(0.0666667 0 0 0.0666667 -133.2 -146)" d="M 5396.56,3333.6 L 5403.08,3334.41 L 5406.44,3340.47 L 5235.63,3624.37 L 5221.78,3624.11 L 5396.56,3333.6 Z "/>
  <path stroke="none" fill="var(--bonds)" transform="matrix(0.0666667 0 0 0.0666667 -133.2 -146)" d="M 5221.78,3624.11 L 5235.63,3624.37 L 5395.77,3914.29 L 5392.2,3920.23 L 5385.66,3920.79 L 5221.78,3624.11 Z "/>
  <text x="0" y="0" stroke="none" fill="var(--s)" transform="matrix(0.0666667 0 0 0.0666667 234.468 46.9975)" font-style="normal" font-weight="normal" font-size="200px" font-family="Arial">
S</text>
  <path stroke="none" fill="var(--bonds)" transform="matrix(0.0666667 0 0 0.0666667 -133.2 -146)" d="M 5747.96,3339.99 L 5741.42,3340.56 L 5737.17,3334.48 L 5844.82,3022.84 L 5851.91,3020.67 L 5856.58,3025.52 L 5747.96,3339.99 Z "/>
  <path stroke="none" fill="var(--bonds)" transform="matrix(0.0666667 0 0 0.0666667 -133.2 -146)" d="M 5703.96,3280.81 L 5692.61,3276.89 L 5774.2,3040.69 L 5785.54,3044.61 L 5703.96,3280.81 Z "/>
  <path stroke="none" fill="var(--bonds)" transform="matrix(0.0666667 0 0 0.0666667 -133.2 -146)" d="M 5490.56,2873.34 L 5497.43,2883.18 L 5311.43,3013.16 L 5304.42,3010.74 L 5303.49,3004.07 L 5490.56,2873.34 Z "/>
  <path stroke="none" fill="var(--bonds)" transform="matrix(0.0666667 0 0 0.0666667 -133.2 -146)" d="M 5299.57,3015.41 L 5304.42,3010.74 L 5311.43,3013.16 L 5407.55,3328.49 L 5403.08,3334.41 L 5396.56,3333.6 L 5299.57,3015.41 Z "/>
  <path stroke="none" fill="var(--bonds)" transform="matrix(0.0666667 0 0 0.0666667 -133.2 -146)" d="M 5369.84,3037.06 L 5381.32,3033.56 L 5454.18,3272.56 L 5442.7,3276.06 L 5369.84,3037.06 Z "/>
  <text x="0" y="0" stroke="none" fill="var(--o)" transform="matrix(0.0666667 0 0 0.0666667 187.639 100.39)" font-style="normal" font-weight="normal" font-size="200px" font-family="Arial">
O</text>
  <path stroke="none" fill="var(--bonds)" transform="matrix(0.0666667 0 0 0.0666667 -133.2 -146)" d="M 5245.82,3649.02 L 5245.6,3661.02 L 4989.87,3656.19 L 4990.09,3644.2 L 5245.82,3649.02 Z "/>
  <path stroke="none" fill="var(--bonds)" transform="matrix(0.0666667 0 0 0.0666667 -133.2 -146)" d="M 5246.94,3588.12 L 5246.71,3600.12 L 4991.02,3595.29 L 4991.24,3583.3 L 5246.94,3588.12 Z "/>
  <text x="0" y="0" stroke="none" fill="var(--o)" transform="matrix(0.0666667 0 0 0.0666667 277.847 102.046)" font-style="normal" font-weight="normal" font-size="200px" font-family="Arial">
O</text>
  <path stroke="none" fill="var(--bonds)" transform="matrix(0.0666667 0 0 0.0666667 -133.2 -146)" d="M 5888.02,3611.77 L 5888.23,3599.78 L 6144.39,3604.43 L 6144.17,3616.43 L 5888.02,3611.77 Z "/>
  <path stroke="none" fill="var(--bonds)" transform="matrix(0.0666667 0 0 0.0666667 -133.2 -146)" d="M 5886.91,3672.67 L 5887.13,3660.68 L 6143.28,3665.33 L 6143.07,3677.33 L 5886.91,3672.67 Z "/>
  <path stroke="none" fill="var(--bonds)" transform="matrix(0.0666667 0 0 0.0666667 -133.2 -146)" d="M 5830.13,4256.72 L 5829.2,4250.05 L 5834.05,4245.37 L 6148.15,4353.64 L 6149.08,4360.3 L 6144.23,4364.98 L 5830.13,4256.72 Z "/>
  <text x="0" y="0" stroke="none" fill="var(--s)" transform="matrix(0.0666667 0 0 0.0666667 290.794 136.984)" font-style="normal" font-weight="normal" font-size="200px" font-family="Arial">
S</text>
  <path stroke="none" fill="var(--bonds)" transform="matrix(0.0666667 0 0 0.0666667 -133.2 -146)" d="M 6144.23,4364.98 L 6149.08,4360.3 L 6156.09,4362.73 L 6252.44,4678.29 L 6243.51,4690.13 L 6144.23,4364.98 Z "/>
  <path stroke="none" fill="var(--bonds)" transform="matrix(0.0666667 0 0 0.0666667 -133.2 -146)" d="M 6214.6,4386.68 L 6226.08,4383.18 L 6299.08,4622.28 L 6287.61,4625.79 L 6214.6,4386.68 Z "/>
  <path stroke="none" fill="var(--bonds)" transform="matrix(0.0666667 0 0 0.0666667 -133.2 -146)" d="M 6243.51,4690.13 L 6252.44,4678.29 L 6581.83,4684.05 L 6590.33,4696.2 L 6243.51,4690.13 Z "/>
  <path stroke="none" fill="var(--bonds)" transform="matrix(0.0666667 0 0 0.0666667 -133.2 -146)" d="M 6590.33,4696.2 L 6581.83,4684.05 L 6689.24,4372.64 L 6696.34,4370.48 L 6700.61,4376.48 L 6590.33,4696.2 Z "/>
  <path stroke="none" fill="var(--bonds)" transform="matrix(0.0666667 0 0 0.0666667 -133.2 -146)" d="M 6548.63,4630.45 L 6537.28,4626.54 L 6618.72,4390.45 L 6630.06,4394.37 L 6548.63,4630.45 Z "/>
  <path stroke="none" fill="var(--bonds)" transform="matrix(0.0666667 0 0 0.0666667 -133.2 -146)" d="M 6698.35,4364.48 L 6696.34,4370.48 L 6689.24,4372.64 L 6509.51,4236.89 L 6516.74,4227.31 L 6698.35,4364.48 Z "/>
  <path stroke="none" fill="var(--bonds)" transform="matrix(0.0666667 0 0 0.0666667 -133.2 -146)" d="M 6335.42,4223.04 L 6342.29,4232.89 L 6156.09,4362.73 L 6149.08,4360.3 L 6148.15,4353.64 L 6335.42,4223.04 Z "/>
  <path stroke="none" fill="var(--bonds)" transform="matrix(0.0666667 0 0 0.0666667 -133.2 -146)" d="M 5856.58,3025.52 L 5851.91,3020.67 L 5853.09,3014.05 L 6170.28,2917.52 L 6180.4,2926.98 L 5856.58,3025.52 Z "/>
  <path stroke="none" fill="var(--bonds)" transform="matrix(0.0666667 0 0 0.0666667 -133.2 -146)" d="M 5303.49,3004.07 L 5304.42,3010.74 L 5299.57,3015.41 L 4979.3,2904.79 L 4989.77,2895.7 L 5303.49,3004.07 Z "/>
  <path stroke="none" fill="var(--bonds)" transform="matrix(0.0666667 0 0 0.0666667 -133.2 -146)" d="M 3067.43,3146.13 L 3064.53,3152.22 L 3057.92,3153.45 L 2857.19,2889.37 L 2862.55,2876.58 L 3067.43,3146.13 Z "/>
  <path stroke="none" fill="var(--bonds)" transform="matrix(0.0666667 0 0 0.0666667 -133.2 -146)" d="M 2862.55,2876.58 L 2857.19,2889.37 L 2528.33,2931.55 L 2524.13,2926.03 L 2526.81,2919.64 L 2862.55,2876.58 Z "/>
  <text x="0" y="0" stroke="none" fill="var(--c)" transform="matrix(0.0666667 0 0 0.0666667 3.24895 36.3031)" font-style="normal" font-weight="normal" font-size="200px" font-family="Arial">
C</text>
  <text x="0" y="0" stroke="none" fill="var(--c)" transform="matrix(0.0666667 0 0 0.0666667 12.8779 39.2365)" font-style="normal" font-weight="normal" font-size="150px" font-family="Arial">
4</text>
  <text x="0" y="0" stroke="none" fill="var(--c)" transform="matrix(0.0666667 0 0 0.0666667 18.4394 36.3031)" font-style="normal" font-weight="normal" font-size="200px" font-family="Arial">
H</text>
  <text x="0" y="0" stroke="none" fill="var(--c)" transform="matrix(0.0666667 0 0 0.0666667 28.0683 39.2365)" font-style="normal" font-weight="normal" font-size="150px" font-family="Arial">
9</text>
  <path stroke="none" fill="var(--bonds)" transform="matrix(0.0666667 0 0 0.0666667 -133.2 -146)" d="M 2526.81,2919.64 L 2524.13,2926.03 L 2517.26,2926.91 L 2444.44,2831.24 L 2453.98,2823.97 L 2526.81,2919.64 Z "/>
  <text x="0" y="0" stroke="none" fill="var(--c)" transform="matrix(0.0666667 0 0 0.0666667 8.20178 75.0582)" font-style="normal" font-weight="normal" font-size="200px" font-family="Arial">
C</text>
  <text x="0" y="0" stroke="none" fill="var(--c)" transform="matrix(0.0666667 0 0 0.0666667 17.8307 77.9915)" font-style="normal" font-weight="normal" font-size="150px" font-family="Arial">
2</text>
  <text x="0" y="0" stroke="none" fill="var(--c)" transform="matrix(0.0666667 0 0 0.0666667 23.3922 75.0582)" font-style="normal" font-weight="normal" font-size="200px" font-family="Arial">
H</text>
  <text x="0" y="0" stroke="none" fill="var(--c)" transform="matrix(0.0666667 0 0 0.0666667 33.0211 77.9915)" font-style="normal" font-weight="normal" font-size="150px" font-family="Arial">
5</text>
  <path stroke="none" fill="var(--bonds)" transform="matrix(0.0666667 0 0 0.0666667 -133.2 -146)" d="M 2517.26,2926.91 L 2524.13,2926.03 L 2528.33,2931.55 L 2443.37,3134.02 L 2432.31,3129.37 L 2517.26,2926.91 Z "/>
  <path stroke="none" fill="var(--bonds)" transform="matrix(0.0666667 0 0 0.0666667 -133.2 -146)" d="M 3462.19,5541.59 L 3465.09,5535.5 L 3471.7,5534.27 L 3672.9,5798.36 L 3667.55,5811.14 L 3462.19,5541.59 Z "/>
  <path stroke="none" fill="var(--bonds)" transform="matrix(0.0666667 0 0 0.0666667 -133.2 -146)" d="M 3667.55,5811.14 L 3672.9,5798.36 L 4001.53,5756.41 L 4005.72,5761.92 L 4003.05,5768.31 L 3667.55,5811.14 Z "/>
  <text x="0" y="0" stroke="none" fill="var(--c)" transform="matrix(0.0666667 0 0 0.0666667 137.756 222.523)" font-style="normal" font-weight="normal" font-size="200px" font-family="Arial">
C</text>
  <text x="0" y="0" stroke="none" fill="var(--c)" transform="matrix(0.0666667 0 0 0.0666667 147.385 225.456)" font-style="normal" font-weight="normal" font-size="150px" font-family="Arial">
2</text>
  <text x="0" y="0" stroke="none" fill="var(--c)" transform="matrix(0.0666667 0 0 0.0666667 152.947 222.523)" font-style="normal" font-weight="normal" font-size="200px" font-family="Arial">
H</text>
  <text x="0" y="0" stroke="none" fill="var(--c)" transform="matrix(0.0666667 0 0 0.0666667 162.576 225.456)" font-style="normal" font-weight="normal" font-size="150px" font-family="Arial">
5</text>
  <path stroke="none" fill="var(--bonds)" transform="matrix(0.0666667 0 0 0.0666667 -133.2 -146)" d="M 4012.6,5761.04 L 4005.72,5761.92 L 4001.53,5756.41 L 4087.49,5551.38 L 4098.55,5556.02 L 4012.6,5761.04 Z "/>
  <text x="0" y="0" stroke="none" fill="var(--c)" transform="matrix(0.0666667 0 0 0.0666667 142.709 261.278)" font-style="normal" font-weight="normal" font-size="200px" font-family="Arial">
C</text>
  <text x="0" y="0" stroke="none" fill="var(--c)" transform="matrix(0.0666667 0 0 0.0666667 152.338 264.212)" font-style="normal" font-weight="normal" font-size="150px" font-family="Arial">
4</text>
  <text x="0" y="0" stroke="none" fill="var(--c)" transform="matrix(0.0666667 0 0 0.0666667 157.9 261.278)" font-style="normal" font-weight="normal" font-size="200px" font-family="Arial">
H</text>
  <text x="0" y="0" stroke="none" fill="var(--c)" transform="matrix(0.0666667 0 0 0.0666667 167.528 264.212)" font-style="normal" font-weight="normal" font-size="150px" font-family="Arial">
9</text>
  <path stroke="none" fill="var(--bonds)" transform="matrix(0.0666667 0 0 0.0666667 -133.2 -146)" d="M 4003.05,5768.31 L 4005.72,5761.92 L 4012.6,5761.04 L 4157.78,5951.62 L 4148.24,5958.89 L 4003.05,5768.31 Z "/>
  <path stroke="none" fill="var(--bonds)" transform="matrix(0.0666667 0 0 0.0666667 -133.2 -146)" d="M 5853.09,3014.05 L 5851.91,3020.67 L 5844.82,3022.84 L 5664.65,2887.01 L 5671.88,2877.43 L 5853.09,3014.05 Z "/>
  <path stroke="none" fill="var(--bonds)" transform="matrix(0.0666667 0 0 0.0666667 -133.2 -146)" d="M 5406.44,3340.47 L 5403.08,3334.41 L 5407.55,3328.49 L 5737.17,3334.48 L 5741.42,3340.56 L 5737.85,3346.49 L 5406.44,3340.47 Z "/>
  <path stroke="none" fill="var(--bonds)" transform="matrix(0.0666667 0 0 0.0666667 -133.2 -146)" d="M 6180.4,2926.98 L 6170.28,2917.52 L 6245.4,2594.32 L 6252,2592.43 L 6257.06,2597.16 L 6180.4,2926.98 Z "/>
  <text x="0" y="0" stroke="none" fill="var(--c)" transform="matrix(0.0666667 0 0 0.0666667 300.348 25.4511)" font-style="normal" font-weight="normal" font-size="200px" font-family="Arial">
C</text>
  <text x="0" y="0" stroke="none" fill="var(--c)" transform="matrix(0.0666667 0 0 0.0666667 309.977 28.3844)" font-style="normal" font-weight="normal" font-size="150px" font-family="Arial">
4</text>
  <text x="0" y="0" stroke="none" fill="var(--c)" transform="matrix(0.0666667 0 0 0.0666667 315.538 25.4511)" font-style="normal" font-weight="normal" font-size="200px" font-family="Arial">
H</text>
  <text x="0" y="0" stroke="none" fill="var(--c)" transform="matrix(0.0666667 0 0 0.0666667 325.167 28.3844)" font-style="normal" font-weight="normal" font-size="150px" font-family="Arial">
9</text>
  <path stroke="none" fill="var(--bonds)" transform="matrix(0.0666667 0 0 0.0666667 -133.2 -146)" d="M 6257.06,2597.16 L 6252,2592.43 L 6253.69,2585.64 L 6480.09,2516.58 L 6483.6,2528.05 L 6257.06,2597.16 Z "/>
  <text x="0" y="0" stroke="none" fill="var(--c)" transform="matrix(0.0666667 0 0 0.0666667 240.854 15.9713)" font-style="normal" font-weight="normal" font-size="200px" font-family="Arial">
C</text>
  <text x="0" y="0" stroke="none" fill="var(--c)" transform="matrix(0.0666667 0 0 0.0666667 250.483 18.9047)" font-style="normal" font-weight="normal" font-size="150px" font-family="Arial">
2</text>
  <text x="0" y="0" stroke="none" fill="var(--c)" transform="matrix(0.0666667 0 0 0.0666667 256.044 15.9713)" font-style="normal" font-weight="normal" font-size="200px" font-family="Arial">
H</text>
  <text x="0" y="0" stroke="none" fill="var(--c)" transform="matrix(0.0666667 0 0 0.0666667 265.673 18.9047)" font-style="normal" font-weight="normal" font-size="150px" font-family="Arial">
5</text>
  <path stroke="none" fill="var(--bonds)" transform="matrix(0.0666667 0 0 0.0666667 -133.2 -146)" d="M 6253.69,2585.64 L 6252,2592.43 L 6245.4,2594.32 L 6102.69,2451.75 L 6111.18,2443.26 L 6253.69,2585.64 Z "/>
  <path stroke="none" fill="var(--bonds)" transform="matrix(0.0666667 0 0 0.0666667 -133.2 -146)" d="M 4989.77,2895.7 L 4979.3,2904.79 L 4914.95,2572.84 L 4920.18,2568.3 L 4926.68,2570.28 L 4989.77,2895.7 Z "/>
  <text x="0" y="0" stroke="none" fill="var(--c)" transform="matrix(0.0666667 0 0 0.0666667 206.071 14.3466)" font-style="normal" font-weight="normal" font-size="200px" font-family="Arial">
C</text>
  <text x="0" y="0" stroke="none" fill="var(--c)" transform="matrix(0.0666667 0 0 0.0666667 215.699 17.28)" font-style="normal" font-weight="normal" font-size="150px" font-family="Arial">
2</text>
  <text x="0" y="0" stroke="none" fill="var(--c)" transform="matrix(0.0666667 0 0 0.0666667 221.261 14.3466)" font-style="normal" font-weight="normal" font-size="200px" font-family="Arial">
H</text>
  <text x="0" y="0" stroke="none" fill="var(--c)" transform="matrix(0.0666667 0 0 0.0666667 230.89 17.28)" font-style="normal" font-weight="normal" font-size="150px" font-family="Arial">
5</text>
  <path stroke="none" fill="var(--bonds)" transform="matrix(0.0666667 0 0 0.0666667 -133.2 -146)" d="M 4926.68,2570.28 L 4920.18,2568.3 L 4918.59,2561.4 L 5080.88,2399.11 L 5089.37,2407.59 L 4926.68,2570.28 Z "/>
  <text x="0" y="0" stroke="none" fill="var(--c)" transform="matrix(0.0666667 0 0 0.0666667 146.813 23.0535)" font-style="normal" font-weight="normal" font-size="200px" font-family="Arial">
C</text>
  <text x="0" y="0" stroke="none" fill="var(--c)" transform="matrix(0.0666667 0 0 0.0666667 156.442 25.9869)" font-style="normal" font-weight="normal" font-size="150px" font-family="Arial">
4</text>
  <text x="0" y="0" stroke="none" fill="var(--c)" transform="matrix(0.0666667 0 0 0.0666667 162.004 23.0535)" font-style="normal" font-weight="normal" font-size="200px" font-family="Arial">
H</text>
  <text x="0" y="0" stroke="none" fill="var(--c)" transform="matrix(0.0666667 0 0 0.0666667 171.633 25.9869)" font-style="normal" font-weight="normal" font-size="150px" font-family="Arial">
9</text>
  <path stroke="none" fill="var(--bonds)" transform="matrix(0.0666667 0 0 0.0666667 -133.2 -146)" d="M 4918.59,2561.4 L 4920.18,2568.3 L 4914.95,2572.84 L 4688.61,2494.66 L 4692.53,2483.31 L 4918.59,2561.4 Z "/>
  <path stroke="none" fill="var(--bonds)" transform="matrix(0.0666667 0 0 0.0666667 -133.2 -146)" d="M 6700.61,4376.48 L 6696.34,4370.48 L 6698.35,4364.48 L 7037.04,4364.48 L 7037.04,4376.48 L 6700.61,4376.48 Z "/>
  <path stroke="none" fill="var(--bonds)" transform="matrix(0.0666667 0 0 0.0666667 -133.2 -146)" d="M 2448.3,4356.03 L 2451.5,4361.96 L 2448.57,4368.03 L 2113.53,4375.77 L 2113.26,4363.77 L 2448.3,4356.03 Z "/>
  <path stroke="var(--bonds)" stroke-width="12" fill="none" transform="matrix(0.0666667 0 0 0.0666667 -133.2 -146)" d="M 6873.66,4053.2 L 6921.11,4053.2 "/>
  <path stroke="var(--bonds)" stroke-width="12" fill="none" transform="matrix(0.0666667 0 0 0.0666667 -133.2 -146)" d="M 6921.11,4053.2 L 6921.11,4703.14 "/>
  <path stroke="var(--bonds)" stroke-width="12" fill="none" transform="matrix(0.0666667 0 0 0.0666667 -133.2 -146)" d="M 6921.11,4703.14 L 6873.66,4703.14 "/>
  <text x="0" y="0" stroke="none" fill="#000000" transform="matrix(0.0666667 0 0 0.0666667 332.124 170.615)" font-style="normal" font-weight="normal" font-size="150px" font-family="Arial">
n</text>
  <path stroke="var(--bonds)" stroke-width="12" fill="none" transform="matrix(0.0666667 0 0 0.0666667 -133.2 -146)" d="M 2371.18,4703.14 L 2323.73,4703.14 "/>
  <path stroke="var(--bonds)" stroke-width="12" fill="none" transform="matrix(0.0666667 0 0 0.0666667 -133.2 -146)" d="M 2323.73,4703.14 L 2323.73,4053.2 "/>
  <path stroke="var(--bonds)" stroke-width="12" fill="none" transform="matrix(0.0666667 0 0 0.0666667 -133.2 -146)" d="M 2323.73,4053.2 L 2371.18,4053.2 "/>
</svg>
