<?xml version="1.0" standalone="no" ?>
<!DOCTYPE svg PUBLIC "-//W3C//DTD SVG 1.1//EN" "http://www.w3.org/Graphics/SVG/1.1/DTD/svg11.dtd">
<svg width="163px" height="88px" viewBox="0 0 163 88" style="background-color: #ffffff00" xmlns="http://www.w3.org/2000/svg" xmlns:xlink="http://www.w3.org/1999/xlink" version="1.1" >
<text x="0" y="0" stroke="none" fill="#e1e100" transform="matrix(0.0666667 0 0 0.0666667 59.2696 32.196)" font-style="normal" font-weight="normal" font-size="200px" font-family="Arial" >
S</text>
<path stroke="none" fill="#000000" transform="matrix(0.0666667 0 0 0.0666667 -238.467 -256.333)" d="M 4360.99,4488.13 L 4364.05,4482.13 L 4371.46,4482.13 L 4535.03,4707.26 L 4530.45,4721.37 L 4360.99,4488.13 Z " />
<path stroke="none" fill="#000000" transform="matrix(0.0666667 0 0 0.0666667 -238.467 -256.333)" d="M 4423.05,4485.66 L 4432.76,4478.6 L 4557.33,4650.06 L 4547.62,4657.11 L 4423.05,4485.66 Z " />
<path stroke="none" fill="#000000" transform="matrix(0.0666667 0 0 0.0666667 -238.467 -256.333)" d="M 4530.45,4721.37 L 4535.03,4707.26 L 4799.7,4621.27 L 4805.7,4625.63 L 4805.7,4631.94 L 4530.45,4721.37 Z " />
<path stroke="none" fill="#000000" transform="matrix(0.0666667 0 0 0.0666667 -238.467 -256.333)" d="M 4811.7,4621.27 L 4805.7,4625.63 L 4799.7,4621.27 L 4799.7,4342.99 L 4805.7,4338.63 L 4811.7,4342.99 L 4811.7,4621.27 Z " />
<path stroke="none" fill="#000000" transform="matrix(0.0666667 0 0 0.0666667 -238.467 -256.333)" d="M 4760.04,4588.1 L 4748.04,4588.1 L 4748.04,4376.16 L 4760.04,4376.16 L 4760.04,4588.1 Z " />
<path stroke="none" fill="#000000" transform="matrix(0.0666667 0 0 0.0666667 -238.467 -256.333)" d="M 4805.7,4332.32 L 4805.7,4338.63 L 4799.7,4342.99 L 4625.4,4286.36 L 4629.11,4274.94 L 4805.7,4332.32 Z " />
<path stroke="none" fill="#000000" transform="matrix(0.0666667 0 0 0.0666667 -238.467 -256.333)" d="M 4461.81,4337.36 L 4471.52,4344.42 L 4371.46,4482.13 L 4364.05,4482.13 L 4360.99,4476.13 L 4461.81,4337.36 Z " />
<text x="0" y="0" stroke="none" fill="#e1e100" transform="matrix(0.0666667 0 0 0.0666667 95.6634 63.1544)" font-style="normal" font-weight="normal" font-size="200px" font-family="Arial" >
S</text>
<path stroke="none" fill="#000000" transform="matrix(0.0666667 0 0 0.0666667 -238.467 -256.333)" d="M 4805.7,4631.94 L 4805.7,4625.63 L 4811.7,4621.27 L 4993.58,4680.37 L 4989.87,4691.78 L 4805.7,4631.94 Z " />
<path stroke="none" fill="#000000" transform="matrix(0.0666667 0 0 0.0666667 -238.467 -256.333)" d="M 5140.74,4639.06 L 5131.03,4632.01 L 5239.93,4482.13 L 5247.34,4482.13 L 5250.4,4488.13 L 5140.74,4639.06 Z " />
<path stroke="none" fill="#000000" transform="matrix(0.0666667 0 0 0.0666667 -238.467 -256.333)" d="M 5250.4,4476.13 L 5247.34,4482.13 L 5239.93,4482.13 L 5076.36,4256.99 L 5080.94,4242.89 L 5250.4,4476.13 Z " />
<path stroke="none" fill="#000000" transform="matrix(0.0666667 0 0 0.0666667 -238.467 -256.333)" d="M 5188.34,4478.6 L 5178.63,4485.66 L 5054.06,4314.2 L 5063.77,4307.14 L 5188.34,4478.6 Z " />
<path stroke="none" fill="#000000" transform="matrix(0.0666667 0 0 0.0666667 -238.467 -256.333)" d="M 5080.94,4242.89 L 5076.36,4256.99 L 4811.7,4342.99 L 4805.7,4338.63 L 4805.7,4332.32 L 5080.94,4242.89 Z " />
<path stroke="none" fill="#000000" transform="matrix(0.0666667 0 0 0.0666667 -238.467 -256.333)" d="M 4360.99,4476.13 L 4364.05,4482.13 L 4360.99,4488.13 L 4080.11,4488.13 L 4077.05,4482.13 L 4080.11,4476.13 L 4360.99,4476.13 Z " />
<path stroke="none" fill="#000000" transform="matrix(0.0666667 0 0 0.0666667 -238.467 -256.333)" d="M 5250.4,4488.13 L 5247.34,4482.13 L 5250.4,4476.13 L 5531.29,4476.13 L 5534.34,4482.13 L 5531.29,4488.13 L 5250.4,4488.13 Z " />
<text x="0" y="0" stroke="none" fill="#e1e100" transform="matrix(0.0666667 0 0 0.0666667 17.6437 63.1544)" font-style="normal" font-weight="normal" font-size="200px" font-family="Arial" >
S</text>
<path stroke="none" fill="#000000" transform="matrix(0.0666667 0 0 0.0666667 -238.467 -256.333)" d="M 4080.11,4476.13 L 4077.05,4482.13 L 4069.63,4482.13 L 3906.06,4256.99 L 3908.35,4249.94 L 3915.01,4248.89 L 4080.11,4476.13 Z " />
<path stroke="none" fill="#000000" transform="matrix(0.0666667 0 0 0.0666667 -238.467 -256.333)" d="M 4018.05,4478.6 L 4008.34,4485.66 L 3883.77,4314.2 L 3893.48,4307.14 L 4018.05,4478.6 Z " />
<path stroke="none" fill="#000000" transform="matrix(0.0666667 0 0 0.0666667 -238.467 -256.333)" d="M 3903.59,4245.18 L 3908.35,4249.94 L 3906.06,4256.99 L 3641.4,4342.99 L 3629.4,4334.27 L 3903.59,4245.18 Z " />
<path stroke="none" fill="#000000" transform="matrix(0.0666667 0 0 0.0666667 -238.467 -256.333)" d="M 3629.4,4334.27 L 3641.4,4342.99 L 3641.4,4621.27 L 3629.4,4629.99 L 3629.4,4334.27 Z " />
<path stroke="none" fill="#000000" transform="matrix(0.0666667 0 0 0.0666667 -238.467 -256.333)" d="M 3681.06,4376.16 L 3693.06,4376.16 L 3693.06,4588.1 L 3681.06,4588.1 L 3681.06,4376.16 Z " />
<path stroke="none" fill="#000000" transform="matrix(0.0666667 0 0 0.0666667 -238.467 -256.333)" d="M 3629.4,4629.99 L 3641.4,4621.27 L 3823.29,4680.37 L 3819.58,4691.78 L 3629.4,4629.99 Z " />
<path stroke="none" fill="#000000" transform="matrix(0.0666667 0 0 0.0666667 -238.467 -256.333)" d="M 3970.45,4639.06 L 3960.74,4632.01 L 4069.63,4482.13 L 4077.05,4482.13 L 4080.11,4488.13 L 3970.45,4639.06 Z " />
<text x="0" y="0" stroke="none" fill="#e1e100" transform="matrix(0.0666667 0 0 0.0666667 137.289 32.196)" font-style="normal" font-weight="normal" font-size="200px" font-family="Arial" >
S</text>
<path stroke="none" fill="#000000" transform="matrix(0.0666667 0 0 0.0666667 -238.467 -256.333)" d="M 5531.29,4488.13 L 5534.34,4482.13 L 5541.76,4482.13 L 5705.33,4707.26 L 5703.04,4714.32 L 5696.39,4715.37 L 5531.29,4488.13 Z " />
<path stroke="none" fill="#000000" transform="matrix(0.0666667 0 0 0.0666667 -238.467 -256.333)" d="M 5593.35,4485.66 L 5603.05,4478.6 L 5727.62,4650.06 L 5717.92,4657.11 L 5593.35,4485.66 Z " />
<path stroke="none" fill="#000000" transform="matrix(0.0666667 0 0 0.0666667 -238.467 -256.333)" d="M 5707.8,4719.08 L 5703.04,4714.32 L 5705.33,4707.26 L 5969.99,4621.27 L 5981.99,4629.99 L 5707.8,4719.08 Z " />
<path stroke="none" fill="#000000" transform="matrix(0.0666667 0 0 0.0666667 -238.467 -256.333)" d="M 5981.99,4629.99 L 5969.99,4621.27 L 5969.99,4342.99 L 5981.99,4334.27 L 5981.99,4629.99 Z " />
<path stroke="none" fill="#000000" transform="matrix(0.0666667 0 0 0.0666667 -238.467 -256.333)" d="M 5930.33,4588.1 L 5918.33,4588.1 L 5918.33,4376.16 L 5930.33,4376.16 L 5930.33,4588.1 Z " />
<path stroke="none" fill="#000000" transform="matrix(0.0666667 0 0 0.0666667 -238.467 -256.333)" d="M 5981.99,4334.27 L 5969.99,4342.99 L 5795.7,4286.36 L 5799.4,4274.94 L 5981.99,4334.27 Z " />
<path stroke="none" fill="#000000" transform="matrix(0.0666667 0 0 0.0666667 -238.467 -256.333)" d="M 5632.11,4337.36 L 5641.81,4344.42 L 5541.76,4482.13 L 5534.34,4482.13 L 5531.29,4476.13 L 5632.11,4337.36 Z " />
<text x="0" y="0" stroke="none" fill="#000000" transform="matrix(0.0666667 0 0 0.0666667 23.1884 13.9992)" font-style="normal" font-weight="normal" font-size="200px" font-family="Arial" >
C</text>
<text x="0" y="0" stroke="none" fill="#000000" transform="matrix(0.0666667 0 0 0.0666667 32.8173 16.9325)" font-style="normal" font-weight="normal" font-size="150px" font-family="Arial" >
12</text>
<text x="0" y="0" stroke="none" fill="#000000" transform="matrix(0.0666667 0 0 0.0666667 43.9403 13.9992)" font-style="normal" font-weight="normal" font-size="200px" font-family="Arial" >
H</text>
<text x="0" y="0" stroke="none" fill="#000000" transform="matrix(0.0666667 0 0 0.0666667 53.5692 16.9325)" font-style="normal" font-weight="normal" font-size="150px" font-family="Arial" >
25</text>
<path stroke="none" fill="#000000" transform="matrix(0.0666667 0 0 0.0666667 -238.467 -256.333)" d="M 3915.01,4248.89 L 3908.35,4249.94 L 3903.59,4245.18 L 3956.44,4082.54 L 3967.85,4086.25 L 3915.01,4248.89 Z " />
<text x="0" y="0" stroke="none" fill="#000000" transform="matrix(0.0666667 0 0 0.0666667 113.965 81.3513)" font-style="normal" font-weight="normal" font-size="200px" font-family="Arial" >
C</text>
<text x="0" y="0" stroke="none" fill="#000000" transform="matrix(0.0666667 0 0 0.0666667 123.594 84.2846)" font-style="normal" font-weight="normal" font-size="150px" font-family="Arial" >
12</text>
<text x="0" y="0" stroke="none" fill="#000000" transform="matrix(0.0666667 0 0 0.0666667 134.717 81.3513)" font-style="normal" font-weight="normal" font-size="200px" font-family="Arial" >
H</text>
<text x="0" y="0" stroke="none" fill="#000000" transform="matrix(0.0666667 0 0 0.0666667 144.345 84.2846)" font-style="normal" font-weight="normal" font-size="150px" font-family="Arial" >
25</text>
<path stroke="none" fill="#000000" transform="matrix(0.0666667 0 0 0.0666667 -238.467 -256.333)" d="M 5696.39,4715.37 L 5703.04,4714.32 L 5707.8,4719.08 L 5649.95,4897.13 L 5638.53,4893.43 L 5696.39,4715.37 Z " />
</svg>
