<?xml version="1.0" standalone="no" ?>
<!DOCTYPE svg PUBLIC "-//W3C//DTD SVG 1.1//EN" "http://www.w3.org/Graphics/SVG/1.1/DTD/svg11.dtd">
<svg width="264px" height="256px" viewBox="0 0 264 256" style="background-color: #ffffff00" xmlns="http://www.w3.org/2000/svg" xmlns:xlink="http://www.w3.org/1999/xlink" version="1.1" >
<text x="0" y="0" stroke="none" fill="#e1e100" transform="matrix(0.0666667 0 0 0.0666667 83.2334 103.76)" font-style="normal" font-weight="normal" font-size="200px" font-family="Arial" >
S</text>
<text x="0" y="0" stroke="none" fill="#e1e100" transform="matrix(0.0666667 0 0 0.0666667 102.527 137.787)" font-style="normal" font-weight="normal" font-size="200px" font-family="Arial" >
S</text>
<text x="0" y="0" stroke="none" fill="#e1e100" transform="matrix(0.0666667 0 0 0.0666667 83.2467 202.787)" font-style="normal" font-weight="normal" font-size="200px" font-family="Arial" >
S</text>
<text x="0" y="0" stroke="none" fill="#e1e100" transform="matrix(0.0666667 0 0 0.0666667 32.9934 168.76)" font-style="normal" font-weight="normal" font-size="200px" font-family="Arial" >
S</text>
<path stroke="none" fill="#000000" transform="matrix(0.0666667 0 0 0.0666667 -139.467 -109)" d="M 2492.41,3856.2 L 2477.59,3856.2 L 2651.31,3616.95 L 2655.89,3631.05 L 2492.41,3856.2 Z " />
<path stroke="none" fill="#000000" transform="matrix(0.0666667 0 0 0.0666667 -139.467 -109)" d="M 2553.69,3859.73 L 2543.98,3852.67 L 2668.49,3681.19 L 2678.2,3688.24 L 2553.69,3859.73 Z " />
<path stroke="none" fill="#000000" transform="matrix(0.0666667 0 0 0.0666667 -139.467 -109)" d="M 2655.89,3631.05 L 2651.31,3616.95 L 2925.91,3706.07 L 2926.6,3712.6 L 2920.6,3716.96 L 2655.89,3631.05 Z " />
<path stroke="none" fill="#000000" transform="matrix(0.0666667 0 0 0.0666667 -139.467 -109)" d="M 2932.6,3716.06 L 2926.6,3712.6 L 2925.91,3706.07 L 3169,3565.54 L 3175,3569 L 3175,3575.93 L 2932.6,3716.06 Z " />
<path stroke="none" fill="#000000" transform="matrix(0.0666667 0 0 0.0666667 -139.467 -109)" d="M 2981.25,3747.59 L 2975.24,3737.2 L 3172.02,3623.45 L 3178.02,3633.84 L 2981.25,3747.59 Z " />
<path stroke="none" fill="#000000" transform="matrix(0.0666667 0 0 0.0666667 -139.467 -109)" d="M 3181,3565.54 L 3175,3569 L 3169,3565.54 L 3169,3285.06 L 3175,3282 L 3181,3285.06 L 3181,3565.54 Z " />
<path stroke="none" fill="#000000" transform="matrix(0.0666667 0 0 0.0666667 -139.467 -109)" d="M 3175,3274.59 L 3175,3282 L 3169,3285.06 L 2935.95,3115.89 L 2950.05,3111.31 L 3175,3274.59 Z " />
<path stroke="none" fill="#000000" transform="matrix(0.0666667 0 0 0.0666667 -139.467 -109)" d="M 3178.52,3213.38 L 3171.47,3223.09 L 3000.13,3098.72 L 3007.18,3089.01 L 3178.52,3213.38 Z " />
<path stroke="none" fill="#000000" transform="matrix(0.0666667 0 0 0.0666667 -139.467 -109)" d="M 2950.05,3111.31 L 2935.95,3115.89 L 3024.95,2841.66 L 3031.6,2840.6 L 3035.96,2846.6 L 2950.05,3111.31 Z " />
<path stroke="none" fill="#000000" transform="matrix(0.0666667 0 0 0.0666667 -139.467 -109)" d="M 3035.96,2846.6 L 3031.6,2840.6 L 3034.65,2834.6 L 3322.96,2834.4 L 3314.24,2846.4 L 3035.96,2846.6 Z " />
<path stroke="none" fill="#000000" transform="matrix(0.0666667 0 0 0.0666667 -139.467 -109)" d="M 3069.16,2898.23 L 3069.15,2886.23 L 3281.06,2886.09 L 3281.07,2898.09 L 3069.16,2898.23 Z " />
<path stroke="none" fill="#000000" transform="matrix(0.0666667 0 0 0.0666667 -139.467 -109)" d="M 3314.24,2846.4 L 3322.96,2834.4 L 3382.52,3017.91 L 3371.1,3021.61 L 3314.24,2846.4 Z " />
<path stroke="none" fill="#000000" transform="matrix(0.0666667 0 0 0.0666667 -139.467 -109)" d="M 3181,3285.06 L 3175,3282 L 3175,3274.59 L 3316.79,3171.63 L 3323.84,3181.34 L 3181,3285.06 Z " />
<path stroke="none" fill="#000000" transform="matrix(0.0666667 0 0 0.0666667 -139.467 -109)" d="M 3175,3575.93 L 3175,3569 L 3181,3565.54 L 3424.48,3706.07 L 3423.8,3712.6 L 3417.8,3716.06 L 3175,3575.93 Z " />
<path stroke="none" fill="#000000" transform="matrix(0.0666667 0 0 0.0666667 -139.467 -109)" d="M 3429.8,3716.96 L 3423.8,3712.6 L 3424.48,3706.07 L 3600.17,3648.88 L 3603.88,3660.29 L 3429.8,3716.96 Z " />
<path stroke="none" fill="#000000" transform="matrix(0.0666667 0 0 0.0666667 -139.467 -109)" d="M 3758.28,3718.93 L 3767.99,3711.88 L 3868.46,3850.2 L 3865.4,3856.2 L 3857.98,3856.2 L 3758.28,3718.93 Z " />
<path stroke="none" fill="#000000" transform="matrix(0.0666667 0 0 0.0666667 -139.467 -109)" d="M 3857.98,3856.2 L 3865.4,3856.2 L 3868.46,3862.2 L 3699.09,4095.25 L 3694.51,4081.15 L 3857.98,3856.2 Z " />
<path stroke="none" fill="#000000" transform="matrix(0.0666667 0 0 0.0666667 -139.467 -109)" d="M 3796.74,3852.66 L 3806.44,3859.72 L 3681.93,4031.05 L 3672.22,4024 L 3796.74,3852.66 Z " />
<path stroke="none" fill="#000000" transform="matrix(0.0666667 0 0 0.0666667 -139.467 -109)" d="M 3694.51,4081.15 L 3699.09,4095.25 L 3424.48,4006.13 L 3423.8,3999.6 L 3429.8,3995.24 L 3694.51,4081.15 Z " />
<path stroke="none" fill="#000000" transform="matrix(0.0666667 0 0 0.0666667 -139.467 -109)" d="M 3417.8,3716.06 L 3423.8,3712.6 L 3429.8,3716.96 L 3429.8,3995.24 L 3423.8,3999.6 L 3417.8,3996.13 L 3417.8,3716.06 Z " />
<path stroke="none" fill="#000000" transform="matrix(0.0666667 0 0 0.0666667 -139.467 -109)" d="M 3366.14,3742.43 L 3378.14,3742.43 L 3378.14,3969.75 L 3366.14,3969.75 L 3366.14,3742.43 Z " />
<path stroke="none" fill="#000000" transform="matrix(0.0666667 0 0 0.0666667 -139.467 -109)" d="M 3417.8,3996.13 L 3423.8,3999.6 L 3424.48,4006.13 L 3181,4146.47 L 3175,4143 L 3175,4136.07 L 3417.8,3996.13 Z " />
<path stroke="none" fill="#000000" transform="matrix(0.0666667 0 0 0.0666667 -139.467 -109)" d="M 3169,4146.46 L 3175,4143 L 3181,4146.47 L 3181,4426.94 L 3175,4430 L 3169,4426.94 L 3169,4146.46 Z " />
<path stroke="none" fill="#000000" transform="matrix(0.0666667 0 0 0.0666667 -139.467 -109)" d="M 3169,4426.94 L 3175,4430 L 3175,4437.42 L 2950.05,4600.89 L 2935.95,4596.31 L 3169,4426.94 Z " />
<path stroke="none" fill="#000000" transform="matrix(0.0666667 0 0 0.0666667 -139.467 -109)" d="M 3171.48,4488.96 L 3178.54,4498.66 L 3007.2,4623.18 L 3000.15,4613.47 L 3171.48,4488.96 Z " />
<path stroke="none" fill="#000000" transform="matrix(0.0666667 0 0 0.0666667 -139.467 -109)" d="M 2935.95,4596.31 L 2950.05,4600.89 L 3035.96,4865.6 L 3027.24,4877.6 L 2935.95,4596.31 Z " />
<path stroke="none" fill="#000000" transform="matrix(0.0666667 0 0 0.0666667 -139.467 -109)" d="M 3027.24,4877.6 L 3035.96,4865.6 L 3314.24,4865.6 L 3318.6,4871.6 L 3315.54,4877.6 L 3027.24,4877.6 Z " />
<path stroke="none" fill="#000000" transform="matrix(0.0666667 0 0 0.0666667 -139.467 -109)" d="M 3069.15,4825.94 L 3069.15,4813.94 L 3281.09,4813.94 L 3281.09,4825.94 L 3069.15,4825.94 Z " />
<path stroke="none" fill="#000000" transform="matrix(0.0666667 0 0 0.0666667 -139.467 -109)" d="M 3325.25,4870.55 L 3318.6,4871.6 L 3314.24,4865.6 L 3366.41,4705.35 L 3377.82,4709.07 L 3325.25,4870.55 Z " />
<path stroke="none" fill="#000000" transform="matrix(0.0666667 0 0 0.0666667 -139.467 -109)" d="M 3175,4437.42 L 3175,4430 L 3181,4426.94 L 3332.99,4537.34 L 3325.94,4547.05 L 3175,4437.42 Z " />
<path stroke="none" fill="#000000" transform="matrix(0.0666667 0 0 0.0666667 -139.467 -109)" d="M 2920.6,3716.96 L 2926.6,3712.6 L 2932.6,3716.06 L 2932.6,3996.14 L 2926.6,3999.6 L 2920.6,3995.24 L 2920.6,3716.96 Z " />
<path stroke="none" fill="#000000" transform="matrix(0.0666667 0 0 0.0666667 -139.467 -109)" d="M 3175,4136.07 L 3175,4143 L 3169,4146.46 L 2925.91,4006.13 L 2926.6,3999.6 L 2932.6,3996.14 L 3175,4136.07 Z " />
<path stroke="none" fill="#000000" transform="matrix(0.0666667 0 0 0.0666667 -139.467 -109)" d="M 3178.02,4078.2 L 3172.02,4088.59 L 2975.23,3974.99 L 2981.23,3964.59 L 3178.02,4078.2 Z " />
<path stroke="none" fill="#000000" transform="matrix(0.0666667 0 0 0.0666667 -139.467 -109)" d="M 2920.6,3995.24 L 2926.6,3999.6 L 2925.91,4006.13 L 2741.13,4066.24 L 2737.42,4054.83 L 2920.6,3995.24 Z " />
<path stroke="none" fill="#000000" transform="matrix(0.0666667 0 0 0.0666667 -139.467 -109)" d="M 2477.59,3856.2 L 2492.41,3856.2 L 2600.5,4005.05 L 2590.79,4012.1 L 2477.59,3856.2 Z " />
<path stroke="none" fill="#000000" transform="matrix(0.0666667 0 0 0.0666667 -139.467 -109)" d="M 3868.46,3862.2 L 3865.4,3856.2 L 3868.46,3850.2 L 4149.34,3850.2 L 4152.4,3856.2 L 4149.34,3862.2 L 3868.46,3862.2 Z " />
<text x="0" y="0" stroke="none" fill="#e1e100" transform="matrix(0.0666667 0 0 0.0666667 144.113 137.813)" font-style="normal" font-weight="normal" font-size="200px" font-family="Arial" >
S</text>
<path stroke="none" fill="#000000" transform="matrix(0.0666667 0 0 0.0666667 -139.467 -109)" d="M 4149.34,3862.2 L 4152.4,3856.2 L 4159.81,3856.2 L 4323.1,4081.55 L 4318.5,4095.65 L 4149.34,3862.2 Z " />
<path stroke="none" fill="#000000" transform="matrix(0.0666667 0 0 0.0666667 -139.467 -109)" d="M 4211.33,3859.71 L 4221.05,3852.67 L 4345.46,4024.37 L 4335.74,4031.41 L 4211.33,3859.71 Z " />
<path stroke="none" fill="#000000" transform="matrix(0.0666667 0 0 0.0666667 -139.467 -109)" d="M 4318.5,4095.65 L 4323.1,4081.55 L 4587.8,3995.84 L 4599.8,4004.56 L 4318.5,4095.65 Z " />
<path stroke="none" fill="#000000" transform="matrix(0.0666667 0 0 0.0666667 -139.467 -109)" d="M 4599.8,4004.56 L 4587.8,3995.84 L 4587.6,3717.56 L 4593.6,3713.2 L 4599.6,3716.26 L 4599.8,4004.56 Z " />
<path stroke="none" fill="#000000" transform="matrix(0.0666667 0 0 0.0666667 -139.467 -109)" d="M 4548.11,3962.63 L 4536.11,3962.64 L 4535.97,3750.72 L 4547.97,3750.71 L 4548.11,3962.63 Z " />
<path stroke="none" fill="#000000" transform="matrix(0.0666667 0 0 0.0666667 -139.467 -109)" d="M 4592.55,3706.55 L 4593.6,3713.2 L 4587.6,3717.56 L 4413.05,3660.69 L 4416.77,3649.28 L 4592.55,3706.55 Z " />
<path stroke="none" fill="#000000" transform="matrix(0.0666667 0 0 0.0666667 -139.467 -109)" d="M 4249.6,3711.74 L 4259.32,3718.78 L 4159.81,3856.2 L 4152.4,3856.2 L 4149.34,3850.2 L 4249.6,3711.74 Z " />
<path stroke="none" fill="#000000" transform="matrix(0.0666667 0 0 0.0666667 -139.467 -109)" d="M 4599.6,3716.26 L 4593.6,3713.2 L 4592.55,3706.55 L 4819.8,3541.54 L 4825.8,3544.6 L 4826.85,3551.25 L 4599.6,3716.26 Z " />
<text x="0" y="0" stroke="none" fill="#e1e100" transform="matrix(0.0666667 0 0 0.0666667 196.007 138.413)" font-style="normal" font-weight="normal" font-size="200px" font-family="Arial" >
S</text>
<path stroke="none" fill="#000000" transform="matrix(0.0666667 0 0 0.0666667 -139.467 -109)" d="M 4826.85,3551.25 L 4825.8,3544.6 L 4831.8,3540.24 L 5013.73,3599.28 L 5010.02,3610.7 L 4826.85,3551.25 Z " />
<path stroke="none" fill="#000000" transform="matrix(0.0666667 0 0 0.0666667 -139.467 -109)" d="M 5160.91,3557.96 L 5151.21,3550.91 L 5260.18,3401 L 5267.6,3401 L 5270.66,3407 L 5160.91,3557.96 Z " />
<path stroke="none" fill="#000000" transform="matrix(0.0666667 0 0 0.0666667 -139.467 -109)" d="M 5270.66,3395 L 5267.6,3401 L 5260.18,3401 L 5096.51,3175.85 L 5098.8,3168.8 L 5105.23,3167.43 L 5270.66,3395 Z " />
<path stroke="none" fill="#000000" transform="matrix(0.0666667 0 0 0.0666667 -139.467 -109)" d="M 5208.57,3397.47 L 5198.86,3404.53 L 5074.23,3233.08 L 5083.93,3226.02 L 5208.57,3397.47 Z " />
<path stroke="none" fill="#000000" transform="matrix(0.0666667 0 0 0.0666667 -139.467 -109)" d="M 5093.65,3164.16 L 5098.8,3168.8 L 5096.51,3175.85 L 4831.8,3261.96 L 4825.8,3257.6 L 4827.1,3250.87 L 5093.65,3164.16 Z " />
<path stroke="none" fill="#000000" transform="matrix(0.0666667 0 0 0.0666667 -139.467 -109)" d="M 4819.8,3260.4 L 4825.8,3257.6 L 4831.8,3261.96 L 4831.8,3540.24 L 4825.8,3544.6 L 4819.8,3541.54 L 4819.8,3260.4 Z " />
<path stroke="none" fill="#000000" transform="matrix(0.0666667 0 0 0.0666667 -139.467 -109)" d="M 4871.46,3295.12 L 4883.46,3295.12 L 4883.46,3507.05 L 4871.46,3507.05 L 4871.46,3295.12 Z " />
<path stroke="none" fill="#000000" transform="matrix(0.0666667 0 0 0.0666667 -139.467 -109)" d="M 5105.23,3167.43 L 5098.8,3168.8 L 5093.65,3164.16 L 5152.01,2890.34 L 5165.19,2886.06 L 5105.23,3167.43 Z " />
<path stroke="none" fill="#000000" transform="matrix(0.0666667 0 0 0.0666667 -139.467 -109)" d="M 5165.19,2886.06 L 5152.01,2890.34 L 4943.87,2702.88 L 4945.2,2696 L 4951.1,2693.24 L 5165.19,2886.06 Z " />
<path stroke="none" fill="#000000" transform="matrix(0.0666667 0 0 0.0666667 -139.467 -109)" d="M 4669.59,2796.15 L 4676,2794.6 L 4681.25,2799.07 L 4626.36,3082.87 L 4613.24,3087.53 L 4669.59,2796.15 Z " />
<path stroke="none" fill="#000000" transform="matrix(0.0666667 0 0 0.0666667 -139.467 -109)" d="M 4613.24,3087.53 L 4626.36,3082.87 L 4827.1,3250.87 L 4825.8,3257.6 L 4819.8,3260.4 L 4613.24,3087.53 Z " />
<text x="0" y="0" stroke="none" fill="#e1e100" transform="matrix(0.0666667 0 0 0.0666667 166.687 51.5867)" font-style="normal" font-weight="normal" font-size="200px" font-family="Arial" >
S</text>
<path stroke="none" fill="#000000" transform="matrix(0.0666667 0 0 0.0666667 -139.467 -109)" d="M 4951.1,2693.24 L 4945.2,2696 L 4939.05,2691.86 L 4928.96,2413.97 L 4934.8,2409.4 L 4940.91,2412.24 L 4951.1,2693.24 Z " />
<path stroke="none" fill="#000000" transform="matrix(0.0666667 0 0 0.0666667 -139.467 -109)" d="M 4898.25,2660.2 L 4886.26,2660.63 L 4878.58,2448.98 L 4890.57,2448.55 L 4898.25,2660.2 Z " />
<path stroke="none" fill="#000000" transform="matrix(0.0666667 0 0 0.0666667 -139.467 -109)" d="M 4591.2,2420.98 L 4601.16,2427.67 L 4506.41,2568.73 L 4499,2569 L 4495.8,2563 L 4591.2,2420.98 Z " />
<path stroke="none" fill="#000000" transform="matrix(0.0666667 0 0 0.0666667 -139.467 -109)" d="M 4496.08,2575 L 4499,2569 L 4506.41,2568.73 L 4678.03,2787.47 L 4676,2794.6 L 4669.59,2796.15 L 4496.08,2575 Z " />
<path stroke="none" fill="#000000" transform="matrix(0.0666667 0 0 0.0666667 -139.467 -109)" d="M 4558.04,2570.35 L 4567.48,2562.94 L 4698.18,2729.53 L 4688.74,2736.94 L 4558.04,2570.35 Z " />
<text x="0" y="0" stroke="none" fill="#ff0000" transform="matrix(0.0666667 0 0 0.0666667 145.308 108.293)" font-style="normal" font-weight="normal" font-size="200px" font-family="Arial" >
O</text>
<path stroke="none" fill="#000000" transform="matrix(0.0666667 0 0 0.0666667 -139.467 -109)" d="M 4640.78,3098.79 L 4644.8,3110.09 L 4453.59,3178.12 L 4449.57,3166.81 L 4640.78,3098.79 Z " />
<path stroke="none" fill="#000000" transform="matrix(0.0666667 0 0 0.0666667 -139.467 -109)" d="M 4623.48,3050.11 L 4627.5,3061.41 L 4436.27,3129.45 L 4432.25,3118.14 L 4623.48,3050.11 Z " />
<text x="0" y="0" stroke="none" fill="#ff0000" transform="matrix(0.0666667 0 0 0.0666667 217.454 82.8266)" font-style="normal" font-weight="normal" font-size="200px" font-family="Arial" >
O</text>
<path stroke="none" fill="#000000" transform="matrix(0.0666667 0 0 0.0666667 -139.467 -109)" d="M 5138.29,2873.94 L 5134.58,2862.53 L 5323.08,2801.22 L 5326.79,2812.63 L 5138.29,2873.94 Z " />
<path stroke="none" fill="#000000" transform="matrix(0.0666667 0 0 0.0666667 -139.467 -109)" d="M 5154.23,2923.1 L 5150.52,2911.69 L 5339.06,2850.36 L 5342.77,2861.77 L 5154.23,2923.1 Z " />
<path stroke="none" fill="#000000" transform="matrix(0.0666667 0 0 0.0666667 -139.467 -109)" d="M 5270.66,3407 L 5267.6,3401 L 5270.66,3395 L 5551.54,3395 L 5554.6,3401 L 5551.54,3407 L 5270.66,3407 Z " />
<text x="0" y="0" stroke="none" fill="#e1e100" transform="matrix(0.0666667 0 0 0.0666667 237.633 107.453)" font-style="normal" font-weight="normal" font-size="200px" font-family="Arial" >
S</text>
<path stroke="none" fill="#000000" transform="matrix(0.0666667 0 0 0.0666667 -139.467 -109)" d="M 5551.54,3407 L 5554.6,3401 L 5562.01,3401 L 5725.49,3626.15 L 5720.91,3640.25 L 5551.54,3407 Z " />
<path stroke="none" fill="#000000" transform="matrix(0.0666667 0 0 0.0666667 -139.467 -109)" d="M 5613.58,3404.52 L 5623.29,3397.47 L 5747.8,3568.96 L 5738.09,3576.01 L 5613.58,3404.52 Z " />
<path stroke="none" fill="#000000" transform="matrix(0.0666667 0 0 0.0666667 -139.467 -109)" d="M 5720.91,3640.25 L 5725.49,3626.15 L 5990.2,3540.24 L 6002.2,3548.96 L 5720.91,3640.25 Z " />
<path stroke="none" fill="#000000" transform="matrix(0.0666667 0 0 0.0666667 -139.467 -109)" d="M 6002.2,3548.96 L 5990.2,3540.24 L 5990.2,3261.96 L 6002.2,3253.24 L 6002.2,3548.96 Z " />
<path stroke="none" fill="#000000" transform="matrix(0.0666667 0 0 0.0666667 -139.467 -109)" d="M 5950.54,3507.05 L 5938.54,3507.05 L 5938.54,3295.12 L 5950.54,3295.12 L 5950.54,3507.05 Z " />
<path stroke="none" fill="#000000" transform="matrix(0.0666667 0 0 0.0666667 -139.467 -109)" d="M 6002.2,3253.24 L 5990.2,3261.96 L 5815.85,3205.25 L 5819.57,3193.84 L 6002.2,3253.24 Z " />
<path stroke="none" fill="#000000" transform="matrix(0.0666667 0 0 0.0666667 -139.467 -109)" d="M 5652.29,3256.24 L 5662,3263.29 L 5562.01,3401 L 5554.6,3401 L 5551.54,3395 L 5652.29,3256.24 Z " />
<path stroke="none" fill="#000000" transform="matrix(0.0666667 0 0 0.0666667 -139.467 -109)" d="M 4940.91,2412.24 L 4934.8,2409.4 L 4933.5,2402.79 L 5154.17,2229.81 L 5167.03,2234.98 L 4940.91,2412.24 Z " />
<path stroke="none" fill="#000000" transform="matrix(0.0666667 0 0 0.0666667 -139.467 -109)" d="M 4495.8,2563 L 4499,2569 L 4496.08,2575 L 4208.54,2575 L 4215.46,2563 L 4495.8,2563 Z " />
<path stroke="none" fill="#000000" transform="matrix(0.0666667 0 0 0.0666667 -139.467 -109)" d="M 3034.65,2834.6 L 3031.6,2840.6 L 3024.95,2841.66 L 2859.98,2614.73 L 2865.62,2602.07 L 3034.65,2834.6 Z " />
<path stroke="none" fill="#000000" transform="matrix(0.0666667 0 0 0.0666667 -139.467 -109)" d="M 2865.62,2602.07 L 2859.98,2614.73 L 2581.48,2644.2 L 2577.4,2638.6 L 2580.22,2632.27 L 2865.62,2602.07 Z " />
<text x="0" y="0" stroke="none" fill="#000000" transform="matrix(0.0666667 0 0 0.0666667 2.95562 56.6267)" font-style="normal" font-weight="normal" font-size="200px" font-family="Arial" >
C</text>
<text x="0" y="0" stroke="none" fill="#000000" transform="matrix(0.0666667 0 0 0.0666667 12.5845 59.56)" font-style="normal" font-weight="normal" font-size="150px" font-family="Arial" >
4</text>
<text x="0" y="0" stroke="none" fill="#000000" transform="matrix(0.0666667 0 0 0.0666667 18.146 56.6267)" font-style="normal" font-weight="normal" font-size="200px" font-family="Arial" >
H</text>
<text x="0" y="0" stroke="none" fill="#000000" transform="matrix(0.0666667 0 0 0.0666667 27.775 59.56)" font-style="normal" font-weight="normal" font-size="150px" font-family="Arial" >
9</text>
<path stroke="none" fill="#000000" transform="matrix(0.0666667 0 0 0.0666667 -139.467 -109)" d="M 2580.22,2632.27 L 2577.4,2638.6 L 2570.51,2639.33 L 2527.91,2580.73 L 2537.62,2573.68 L 2580.22,2632.27 Z " />
<text x="0" y="0" stroke="none" fill="#000000" transform="matrix(0.0666667 0 0 0.0666667 6.43562 89.5867)" font-style="normal" font-weight="normal" font-size="200px" font-family="Arial" >
C</text>
<text x="0" y="0" stroke="none" fill="#000000" transform="matrix(0.0666667 0 0 0.0666667 16.0645 92.52)" font-style="normal" font-weight="normal" font-size="150px" font-family="Arial" >
2</text>
<text x="0" y="0" stroke="none" fill="#000000" transform="matrix(0.0666667 0 0 0.0666667 21.626 89.5867)" font-style="normal" font-weight="normal" font-size="200px" font-family="Arial" >
H</text>
<text x="0" y="0" stroke="none" fill="#000000" transform="matrix(0.0666667 0 0 0.0666667 31.255 92.52)" font-style="normal" font-weight="normal" font-size="150px" font-family="Arial" >
5</text>
<path stroke="none" fill="#000000" transform="matrix(0.0666667 0 0 0.0666667 -139.467 -109)" d="M 2570.51,2639.33 L 2577.4,2638.6 L 2581.48,2644.2 L 2513.71,2796.58 L 2502.75,2791.7 L 2570.51,2639.33 Z " />
<path stroke="none" fill="#000000" transform="matrix(0.0666667 0 0 0.0666667 -139.467 -109)" d="M 3315.54,4877.6 L 3318.6,4871.6 L 3325.25,4870.55 L 3490.22,5097.47 L 3484.58,5110.13 L 3315.54,4877.6 Z " />
<path stroke="none" fill="#000000" transform="matrix(0.0666667 0 0 0.0666667 -139.467 -109)" d="M 3484.58,5110.13 L 3490.22,5097.47 L 3768.73,5068.2 L 3772.8,5073.8 L 3769.98,5080.13 L 3484.58,5110.13 Z " />
<text x="0" y="0" stroke="none" fill="#000000" transform="matrix(0.0666667 0 0 0.0666667 115.012 216.973)" font-style="normal" font-weight="normal" font-size="200px" font-family="Arial" >
C</text>
<text x="0" y="0" stroke="none" fill="#000000" transform="matrix(0.0666667 0 0 0.0666667 124.641 219.907)" font-style="normal" font-weight="normal" font-size="150px" font-family="Arial" >
2</text>
<text x="0" y="0" stroke="none" fill="#000000" transform="matrix(0.0666667 0 0 0.0666667 130.203 216.973)" font-style="normal" font-weight="normal" font-size="200px" font-family="Arial" >
H</text>
<text x="0" y="0" stroke="none" fill="#000000" transform="matrix(0.0666667 0 0 0.0666667 139.832 219.907)" font-style="normal" font-weight="normal" font-size="150px" font-family="Arial" >
5</text>
<path stroke="none" fill="#000000" transform="matrix(0.0666667 0 0 0.0666667 -139.467 -109)" d="M 3779.69,5073.08 L 3772.8,5073.8 L 3768.73,5068.2 L 3838.23,4911.91 L 3849.19,4916.79 L 3779.69,5073.08 Z " />
<text x="0" y="0" stroke="none" fill="#000000" transform="matrix(0.0666667 0 0 0.0666667 118.479 249.933)" font-style="normal" font-weight="normal" font-size="200px" font-family="Arial" >
C</text>
<text x="0" y="0" stroke="none" fill="#000000" transform="matrix(0.0666667 0 0 0.0666667 128.108 252.867)" font-style="normal" font-weight="normal" font-size="150px" font-family="Arial" >
4</text>
<text x="0" y="0" stroke="none" fill="#000000" transform="matrix(0.0666667 0 0 0.0666667 133.669 249.933)" font-style="normal" font-weight="normal" font-size="200px" font-family="Arial" >
H</text>
<text x="0" y="0" stroke="none" fill="#000000" transform="matrix(0.0666667 0 0 0.0666667 143.298 252.867)" font-style="normal" font-weight="normal" font-size="150px" font-family="Arial" >
9</text>
<path stroke="none" fill="#000000" transform="matrix(0.0666667 0 0 0.0666667 -139.467 -109)" d="M 3769.98,5080.13 L 3772.8,5073.8 L 3779.69,5073.08 L 3890.15,5225.2 L 3880.44,5232.25 L 3769.98,5080.13 Z " />
<path stroke="none" fill="#000000" transform="matrix(0.0666667 0 0 0.0666667 -139.467 -109)" d="M 4933.5,2402.79 L 4934.8,2409.4 L 4928.96,2413.97 L 4751.88,2363.51 L 4755.17,2351.97 L 4933.5,2402.79 Z " />
<path stroke="none" fill="#000000" transform="matrix(0.0666667 0 0 0.0666667 -139.467 -109)" d="M 4681.25,2799.07 L 4676,2794.6 L 4678.03,2787.47 L 4939.05,2691.86 L 4945.2,2696 L 4943.87,2702.88 L 4681.25,2799.07 Z " />
<path stroke="none" fill="#000000" transform="matrix(0.0666667 0 0 0.0666667 -139.467 -109)" d="M 5167.03,2234.98 L 5154.17,2229.81 L 5114.75,1952.47 L 5120.2,1948.2 L 5126.63,1950.78 L 5167.03,2234.98 Z " />
<text x="0" y="0" stroke="none" fill="#000000" transform="matrix(0.0666667 0 0 0.0666667 212.119 14.28)" font-style="normal" font-weight="normal" font-size="200px" font-family="Arial" >
C</text>
<text x="0" y="0" stroke="none" fill="#000000" transform="matrix(0.0666667 0 0 0.0666667 221.748 17.2133)" font-style="normal" font-weight="normal" font-size="150px" font-family="Arial" >
4</text>
<text x="0" y="0" stroke="none" fill="#000000" transform="matrix(0.0666667 0 0 0.0666667 227.309 14.28)" font-style="normal" font-weight="normal" font-size="200px" font-family="Arial" >
H</text>
<text x="0" y="0" stroke="none" fill="#000000" transform="matrix(0.0666667 0 0 0.0666667 236.938 17.2133)" font-style="normal" font-weight="normal" font-size="150px" font-family="Arial" >
9</text>
<path stroke="none" fill="#000000" transform="matrix(0.0666667 0 0 0.0666667 -139.467 -109)" d="M 5126.63,1950.78 L 5120.2,1948.2 L 5119.22,1941.34 L 5259.3,1831.54 L 5266.71,1840.98 L 5126.63,1950.78 Z " />
<text x="0" y="0" stroke="none" fill="#000000" transform="matrix(0.0666667 0 0 0.0666667 157.46 18.9467)" font-style="normal" font-weight="normal" font-size="200px" font-family="Arial" >
C</text>
<text x="0" y="0" stroke="none" fill="#000000" transform="matrix(0.0666667 0 0 0.0666667 167.089 21.88)" font-style="normal" font-weight="normal" font-size="150px" font-family="Arial" >
2</text>
<text x="0" y="0" stroke="none" fill="#000000" transform="matrix(0.0666667 0 0 0.0666667 172.651 18.9467)" font-style="normal" font-weight="normal" font-size="200px" font-family="Arial" >
H</text>
<text x="0" y="0" stroke="none" fill="#000000" transform="matrix(0.0666667 0 0 0.0666667 182.279 21.88)" font-style="normal" font-weight="normal" font-size="150px" font-family="Arial" >
5</text>
<path stroke="none" fill="#000000" transform="matrix(0.0666667 0 0 0.0666667 -139.467 -109)" d="M 5119.22,1941.34 L 5120.2,1948.2 L 5114.75,1952.47 L 4929.23,1877.9 L 4933.7,1866.77 L 5119.22,1941.34 Z " />
<path stroke="none" fill="#000000" transform="matrix(0.0666667 0 0 0.0666667 -139.467 -109)" d="M 4215.46,2563 L 4208.54,2575 L 4064.94,2326.4 L 4068.4,2320.4 L 4075.33,2320.4 L 4215.46,2563 Z " />
<text x="0" y="0" stroke="none" fill="#000000" transform="matrix(0.0666667 0 0 0.0666667 136.519 34.32)" font-style="normal" font-weight="normal" font-size="200px" font-family="Arial" >
C</text>
<text x="0" y="0" stroke="none" fill="#000000" transform="matrix(0.0666667 0 0 0.0666667 146.148 37.2533)" font-style="normal" font-weight="normal" font-size="150px" font-family="Arial" >
2</text>
<text x="0" y="0" stroke="none" fill="#000000" transform="matrix(0.0666667 0 0 0.0666667 151.709 34.32)" font-style="normal" font-weight="normal" font-size="200px" font-family="Arial" >
H</text>
<text x="0" y="0" stroke="none" fill="#000000" transform="matrix(0.0666667 0 0 0.0666667 161.338 37.2533)" font-style="normal" font-weight="normal" font-size="150px" font-family="Arial" >
5</text>
<path stroke="none" fill="#000000" transform="matrix(0.0666667 0 0 0.0666667 -139.467 -109)" d="M 4075.33,2320.4 L 4068.4,2320.4 L 4064.94,2314.4 L 4151.08,2165.27 L 4161.47,2171.28 L 4075.33,2320.4 Z " />
<text x="0" y="0" stroke="none" fill="#000000" transform="matrix(0.0666667 0 0 0.0666667 85.9535 50.8933)" font-style="normal" font-weight="normal" font-size="200px" font-family="Arial" >
C</text>
<text x="0" y="0" stroke="none" fill="#000000" transform="matrix(0.0666667 0 0 0.0666667 95.5824 53.8267)" font-style="normal" font-weight="normal" font-size="150px" font-family="Arial" >
4</text>
<text x="0" y="0" stroke="none" fill="#000000" transform="matrix(0.0666667 0 0 0.0666667 101.144 50.8933)" font-style="normal" font-weight="normal" font-size="200px" font-family="Arial" >
H</text>
<text x="0" y="0" stroke="none" fill="#000000" transform="matrix(0.0666667 0 0 0.0666667 110.773 53.8267)" font-style="normal" font-weight="normal" font-size="150px" font-family="Arial" >
9</text>
<path stroke="none" fill="#000000" transform="matrix(0.0666667 0 0 0.0666667 -139.467 -109)" d="M 4064.94,2314.4 L 4068.4,2320.4 L 4064.94,2326.4 L 3862.3,2326.4 L 3862.3,2314.4 L 4064.94,2314.4 Z " />
</svg>
