<?xml version='1.0' encoding='UTF-8'?>
<!DOCTYPE svg PUBLIC "-//W3C//DTD SVG 1.1//EN" "http://www.w3.org/Graphics/SVG/1.1/DTD/svg11.dtd">
<svg xmlns="http://www.w3.org/2000/svg" xmlns:xlink="http://www.w3.org/1999/xlink" width="174px" height="181px" viewBox="0 0 174 181" style="background-color: #ffffff00" version="1.1">
  <style>:root {
  --c: #000000;
  --n: #2144d9;
  --o: #ff0d0d;
  --s: #e1e100;
  --p: #ff8000;
  --f: #90e000;
  --cl: #00e000;
  --br: #a52a2a;
  --i: #940094;
  --bonds: #000000;
}
@media (prefers-color-scheme: dark) {
:root {
  --c: #e0e0e0;
  --n: #8fa3ff;
  --o: #ff6666;
  --s: #ffff00;
  --p: #ffb366;
  --f: #c3ff00;
  --cl: #66ff66;
  --br: #d47878;
  --i: #d478d4;
  --bonds: #ffffff;
}}</style>
  <path stroke="none" fill="var(--bonds)" transform="matrix(0.0666667 0 0 0.0666667 -170.569 -11)" d="M 4247.6,1707.54 L 4259.2,1703.66 L 4295.85,1984.2 L 4289.8,1984.2 L 4282.96,1978.2 L 4247.6,1707.54 L 4247.6,1707.54 Z "/>
  <path stroke="none" fill="var(--bonds)" transform="matrix(0.0666667 0 0 0.0666667 -170.569 -11)" d="M 4198.58,1722.69 L 4210.48,1721.14 L 4238.14,1932.85 L 4226.24,1934.4 L 4198.58,1722.69 L 4198.58,1722.69 Z "/>
  <path stroke="none" fill="var(--bonds)" transform="matrix(0.0666667 0 0 0.0666667 -170.569 -11)" d="M 4259.2,1703.66 L 4247.6,1707.54 L 4092.3,1432.8 L 4095.8,1426.8 L 4100.44,1422.82 L 4259.2,1703.66 Z "/>
  <path stroke="none" fill="var(--bonds)" transform="matrix(0.0666667 0 0 0.0666667 -170.569 -11)" d="M 4259.2,2264.94 L 4247.6,2261.06 L 4282.97,1990.2 L 4289.8,1984.2 L 4295.85,1984.2 L 4259.2,2264.94 Z "/>
  <path stroke="none" fill="var(--bonds)" transform="matrix(0.0666667 0 0 0.0666667 -170.569 -11)" d="M 4247.6,2261.06 L 4259.2,2264.94 L 4100.39,2545.87 L 4095.8,2541.8 L 4092.3,2535.8 L 4247.6,2261.06 Z "/>
  <path stroke="none" fill="var(--bonds)" transform="matrix(0.0666667 0 0 0.0666667 -170.569 -11)" d="M 4192.47,2241.45 L 4202.91,2247.36 L 4067.39,2487.11 L 4056.94,2481.2 L 4192.47,2241.45 Z "/>
  <path stroke="none" fill="var(--bonds)" transform="matrix(0.0666667 0 0 0.0666667 -170.569 -11)" d="M 4282.96,1978.2 L 4289.8,1984.2 L 4282.97,1990.2 L 4172.1,1990.2 L 4168.6,1984.2 L 4172.1,1978.2 L 4282.96,1978.2 Z "/>
  <path stroke="none" fill="var(--bonds)" transform="matrix(0.0666667 0 0 0.0666667 -170.569 -11)" d="M 3868.56,2716.67 L 3862.64,2706.13 L 4077.54,2547.8 L 4095.8,2541.8 L 4100.39,2545.87 L 3868.56,2716.67 L 3868.56,2716.67 Z "/>
  <path stroke="none" fill="var(--bonds)" transform="matrix(0.0666667 0 0 0.0666667 -170.569 -11)" d="M 3862.64,2706.13 L 3868.56,2716.67 L 3600.18,2826.4 L 3599,2820.4 L 3612.55,2808.38 L 3862.64,2706.13 L 3862.64,2706.13 Z "/>
  <path stroke="none" fill="var(--bonds)" transform="matrix(0.0666667 0 0 0.0666667 -170.569 -11)" d="M 3837.76,2660.29 L 3842.3,2671.4 L 3718.34,2722.08 L 3713.8,2710.97 L 3837.76,2660.29 L 3837.76,2660.29 Z "/>
  <path stroke="none" fill="var(--bonds)" transform="matrix(0.0666667 0 0 0.0666667 -170.569 -11)" d="M 2803.83,2537.8 L 2794.57,2545.8 L 2635.8,2264.93 L 2641.6,2263 L 2648.48,2262.98 L 2803.83,2537.8 L 2803.83,2537.8 Z "/>
  <path stroke="none" fill="var(--bonds)" transform="matrix(0.0666667 0 0 0.0666667 -170.569 -11)" d="M 2848.92,2500.42 L 2838.48,2506.33 L 2702.46,2265.72 L 2712.91,2259.81 L 2848.92,2500.42 L 2848.92,2500.42 Z "/>
  <path stroke="none" fill="var(--bonds)" transform="matrix(0.0666667 0 0 0.0666667 -170.569 -11)" d="M 2794.57,2545.8 L 2803.83,2537.8 L 3015.83,2702.58 L 3017.4,2711.4 L 3014.37,2716.64 L 2794.57,2545.8 Z "/>
  <path stroke="none" fill="var(--bonds)" transform="matrix(0.0666667 0 0 0.0666667 -170.569 -11)" d="M 3279.9,1143.31 L 3284,1148.2 L 3285.06,1154.2 L 3026.06,1248.24 L 3017.4,1245 L 3014.37,1239.72 L 3279.9,1143.31 Z "/>
  <path stroke="none" fill="var(--bonds)" transform="matrix(0.0666667 0 0 0.0666667 -170.569 -11)" d="M 3285.06,1154.2 L 3284,1148.2 L 3294.39,1142.2 L 3587.57,1142.2 L 3599,1148.2 L 3595.68,1154.2 L 3285.06,1154.2 Z "/>
  <path stroke="none" fill="var(--bonds)" transform="matrix(0.0666667 0 0 0.0666667 -170.569 -11)" d="M 2803.88,1430.71 L 2794.52,1422.89 L 3014.37,1239.72 L 3017.4,1245 L 3015.67,1254.25 L 2803.88,1430.71 L 2803.88,1430.71 Z "/>
  <path stroke="none" fill="var(--bonds)" transform="matrix(0.0666667 0 0 0.0666667 -170.569 -11)" d="M 2842.94,1464.7 L 2835.26,1455.48 L 2991.28,1325.5 L 2974.56,1355.04 L 2842.94,1464.7 L 2842.94,1464.7 Z "/>
  <path stroke="none" fill="var(--bonds)" transform="matrix(0.0666667 0 0 0.0666667 -170.569 -11)" d="M 2794.52,1422.89 L 2803.88,1430.71 L 2648.58,1705.45 L 2641.6,1705.6 L 2635.8,1703.67 L 2794.52,1422.89 Z "/>
  <path stroke="none" fill="var(--bonds)" transform="matrix(0.0666667 0 0 0.0666667 -170.569 -11)" d="M 2611.45,1984.2 L 2599.35,1984.2 L 2635.8,1703.67 L 2641.6,1705.6 L 2645.39,1722.99 L 2611.45,1984.2 Z "/>
  <path stroke="none" fill="var(--bonds)" transform="matrix(0.0666667 0 0 0.0666667 -170.569 -11)" d="M 2599.35,1984.2 L 2611.45,1984.2 L 2645.2,2244.17 L 2641.6,2263 L 2635.8,2264.93 L 2599.35,1984.2 Z "/>
  <path stroke="none" fill="var(--bonds)" transform="matrix(0.0666667 0 0 0.0666667 -170.569 -11)" d="M 4092.3,2535.8 L 4095.8,2541.8 L 4077.54,2547.8 L 3976.11,2547.8 L 3974.6,2541.8 L 3981.43,2535.8 L 4092.3,2535.8 Z "/>
  <path stroke="none" fill="var(--bonds)" transform="matrix(0.0666667 0 0 0.0666667 -170.569 -11)" d="M 3862.64,1250.31 L 3868.56,1239.69 L 4100.44,1422.82 L 4095.8,1426.8 L 4078.52,1420.8 L 3862.64,1250.31 L 3862.64,1250.31 Z "/>
  <path stroke="none" fill="var(--bonds)" transform="matrix(0.0666667 0 0 0.0666667 -170.569 -11)" d="M 3835.85,1296.43 L 3843.29,1287.01 L 3937.95,1361.78 L 3866.03,1320.27 L 3835.85,1296.43 L 3835.85,1296.43 Z "/>
  <path stroke="none" fill="var(--bonds)" transform="matrix(0.0666667 0 0 0.0666667 -170.569 -11)" d="M 3868.56,1239.69 L 3862.64,1250.31 L 3613.33,1159.79 L 3599,1148.2 L 3602.85,1143.21 L 3868.56,1239.69 Z "/>
  <path stroke="none" fill="var(--bonds)" transform="matrix(0.0666667 0 0 0.0666667 -170.569 -11)" d="M 3285.18,2814.4 L 3282.82,2826.4 L 3014.37,2716.64 L 3017.4,2711.4 L 3026.26,2708.54 L 3285.18,2814.4 Z "/>
  <path stroke="none" fill="var(--bonds)" transform="matrix(0.0666667 0 0 0.0666667 -170.569 -11)" d="M 3282.82,2826.4 L 3285.18,2814.4 L 3595.47,2814.4 L 3599,2820.4 L 3600.18,2826.4 L 3282.82,2826.4 Z "/>
  <path stroke="none" fill="var(--bonds)" transform="matrix(0.0666667 0 0 0.0666667 -170.569 -11)" d="M 3015.67,1254.25 L 3017.4,1245 L 3026.06,1248.24 L 3081.53,1348.2 L 3078,1354.2 L 3071.12,1354.17 L 3015.67,1254.25 Z "/>
  <path stroke="none" fill="var(--bonds)" transform="matrix(0.0666667 0 0 0.0666667 -170.569 -11)" d="M 2645.39,1722.99 L 2641.6,1705.6 L 2648.58,1705.45 L 2703.76,1793.78 L 2702.2,1802.6 L 2696.2,1804.32 L 2645.39,1722.99 Z "/>
  <path stroke="none" fill="var(--bonds)" transform="matrix(0.0666667 0 0 0.0666667 -170.569 -11)" d="M 2648.48,2262.98 L 2641.6,2263 L 2645.2,2244.17 L 2696.2,2152.44 L 2702.2,2154 L 2704.04,2163.03 L 2648.48,2262.98 Z "/>
  <path stroke="none" fill="var(--bonds)" transform="matrix(0.0666667 0 0 0.0666667 -170.569 -11)" d="M 2708.2,2151.06 L 2702.2,2154 L 2696.2,2152.44 L 2696.2,1804.32 L 2702.2,1802.6 L 2708.2,1805.53 L 2708.2,2151.06 Z "/>
  <path stroke="none" fill="var(--bonds)" transform="matrix(0.0666667 0 0 0.0666667 -170.569 -11)" d="M 2704.04,2163.03 L 2702.2,2154 L 2708.2,2151.06 L 2920.4,2316 L 2920.4,2323.6 L 2915.72,2327.56 L 2704.04,2163.03 Z "/>
  <path stroke="none" fill="var(--bonds)" transform="matrix(0.0666667 0 0 0.0666667 -170.569 -11)" d="M 2748.26,2134.4 L 2755.63,2124.92 L 2924.08,2255.86 L 2916.72,2265.33 L 2748.26,2134.4 Z "/>
  <path stroke="none" fill="var(--bonds)" transform="matrix(0.0666667 0 0 0.0666667 -170.569 -11)" d="M 3026.26,2708.54 L 3017.4,2711.4 L 3015.83,2702.58 L 3071.06,2614.19 L 3078,2614.4 L 3081.33,2620.4 L 3026.26,2708.54 Z "/>
  <path stroke="none" fill="var(--bonds)" transform="matrix(0.0666667 0 0 0.0666667 -170.569 -11)" d="M 3014.66,2670.5 L 3004.48,2664.14 L 3038.21,2610.15 L 3048.39,2616.51 L 3014.66,2670.5 Z "/>
  <path stroke="none" fill="var(--bonds)" transform="matrix(0.0666667 0 0 0.0666667 -170.569 -11)" d="M 3612.55,2808.38 L 3599,2820.4 L 3595.47,2814.4 L 3650.99,2714.54 L 3659.6,2711.4 L 3663.99,2715.85 L 3612.55,2808.38 Z "/>
  <path stroke="none" fill="var(--bonds)" transform="matrix(0.0666667 0 0 0.0666667 -170.569 -11)" d="M 3659.17,2704.82 L 3659.6,2711.4 L 3650.99,2714.54 L 3404.09,2620.4 L 3405.2,2614.4 L 3411.74,2610.47 L 3659.17,2704.82 Z "/>
  <path stroke="none" fill="var(--bonds)" transform="matrix(0.0666667 0 0 0.0666667 -170.569 -11)" d="M 3663.99,2715.85 L 3659.6,2711.4 L 3659.17,2704.82 L 3969.05,2537.97 L 3974.6,2541.8 L 3976.11,2547.8 L 3663.99,2715.85 Z "/>
  <path stroke="none" fill="var(--bonds)" transform="matrix(0.0666667 0 0 0.0666667 -170.569 -11)" d="M 3657.86,2646.02 L 3652.17,2635.45 L 3912.17,2495.46 L 3917.86,2506.03 L 3657.86,2646.02 Z "/>
  <path stroke="none" fill="var(--bonds)" transform="matrix(0.0666667 0 0 0.0666667 -170.569 -11)" d="M 2708.2,1805.53 L 2702.2,1802.6 L 2703.76,1793.78 L 2915.77,1628.8 L 2920.4,1632.8 L 2920.27,1640.5 L 2708.2,1805.53 Z "/>
  <path stroke="none" fill="var(--bonds)" transform="matrix(0.0666667 0 0 0.0666667 -170.569 -11)" d="M 2920.27,1640.5 L 2920.4,1632.8 L 2928.09,1631.4 L 3139.17,1807.26 L 3138.6,1814.6 L 3132.6,1817.41 L 2920.27,1640.5 Z "/>
  <path stroke="none" fill="var(--bonds)" transform="matrix(0.0666667 0 0 0.0666667 -170.569 -11)" d="M 2928.09,1631.4 L 2920.4,1632.8 L 2915.77,1628.8 L 3071.12,1354.17 L 3078,1354.2 L 3081.5,1360.2 L 2928.09,1631.4 Z "/>
  <path stroke="none" fill="var(--bonds)" transform="matrix(0.0666667 0 0 0.0666667 -170.569 -11)" d="M 2881.15,1597.36 L 2870.7,1591.45 L 3006.73,1350.98 L 3017.18,1356.88 L 2881.15,1597.36 Z "/>
  <path stroke="none" fill="var(--bonds)" transform="matrix(0.0666667 0 0 0.0666667 -170.569 -11)" d="M 3132.6,1817.41 L 3138.6,1814.6 L 3144.6,1818 L 3144.6,2150.48 L 3138.6,2154 L 3132.6,2151.06 L 3132.6,1817.41 Z "/>
  <path stroke="none" fill="var(--bonds)" transform="matrix(0.0666667 0 0 0.0666667 -170.569 -11)" d="M 3193.69,1849.18 L 3205.69,1849.18 L 3205.69,2118.2 L 3193.69,2118.2 L 3193.69,1849.18 Z "/>
  <path stroke="none" fill="var(--bonds)" transform="matrix(0.0666667 0 0 0.0666667 -170.569 -11)" d="M 3144.6,1818 L 3138.6,1814.6 L 3139.17,1807.26 L 3434.94,1629.68 L 3441.4,1632.8 L 3441.5,1639.74 L 3144.6,1818 Z "/>
  <path stroke="none" fill="var(--bonds)" transform="matrix(0.0666667 0 0 0.0666667 -170.569 -11)" d="M 3081.5,1360.2 L 3078,1354.2 L 3081.53,1348.2 L 3403.97,1348.2 L 3405.2,1354.2 L 3399.93,1360.2 L 3081.5,1360.2 Z "/>
  <path stroke="none" fill="var(--bonds)" transform="matrix(0.0666667 0 0 0.0666667 -170.569 -11)" d="M 4078.52,1420.8 L 4095.8,1426.8 L 4092.3,1432.8 L 3981.43,1432.8 L 3974.6,1426.8 L 3976.21,1420.8 L 4078.52,1420.8 Z "/>
  <path stroke="none" fill="var(--bonds)" transform="matrix(0.0666667 0 0 0.0666667 -170.569 -11)" d="M 3399.9,2608.4 L 3405.2,2614.4 L 3404.09,2620.4 L 3081.33,2620.4 L 3078,2614.4 L 3081.57,2608.4 L 3399.9,2608.4 Z "/>
  <path stroke="none" fill="var(--bonds)" transform="matrix(0.0666667 0 0 0.0666667 -170.569 -11)" d="M 3411.74,2610.47 L 3405.2,2614.4 L 3399.9,2608.4 L 3434.95,2326.86 L 3441.4,2323.6 L 3446.98,2327.35 L 3411.74,2610.47 Z "/>
  <path stroke="none" fill="var(--bonds)" transform="matrix(0.0666667 0 0 0.0666667 -170.569 -11)" d="M 3364.57,2562.39 L 3352.66,2560.91 L 3378.72,2351.54 L 3390.63,2353.03 L 3364.57,2562.39 Z "/>
  <path stroke="none" fill="var(--bonds)" transform="matrix(0.0666667 0 0 0.0666667 -170.569 -11)" d="M 3595.68,1154.2 L 3599,1148.2 L 3613.33,1159.79 L 3663.89,1240.55 L 3659.6,1245 L 3650.8,1242.25 L 3595.68,1154.2 Z "/>
  <path stroke="none" fill="var(--bonds)" transform="matrix(0.0666667 0 0 0.0666667 -170.569 -11)" d="M 3650.8,1242.25 L 3659.6,1245 L 3659.2,1251.7 L 3411.73,1357.92 L 3405.2,1354.2 L 3403.97,1348.2 L 3650.8,1242.25 Z "/>
  <path stroke="none" fill="var(--bonds)" transform="matrix(0.0666667 0 0 0.0666667 -170.569 -11)" d="M 3659.2,1251.7 L 3659.6,1245 L 3663.89,1240.55 L 3976.21,1420.8 L 3974.6,1426.8 L 3969.03,1430.52 L 3659.2,1251.7 Z "/>
  <path stroke="none" fill="var(--bonds)" transform="matrix(0.0666667 0 0 0.0666667 -170.569 -11)" d="M 3081.57,2608.4 L 3078,2614.4 L 3071.06,2614.19 L 2915.72,2327.56 L 2920.4,2323.6 L 2928.1,2325.21 L 3081.57,2608.4 Z "/>
  <path stroke="none" fill="var(--bonds)" transform="matrix(0.0666667 0 0 0.0666667 -170.569 -11)" d="M 3981.43,2535.8 L 3974.6,2541.8 L 3969.05,2537.97 L 4004.45,2266.8 L 4011,2263 L 4016.8,2264.94 L 3981.43,2535.8 Z "/>
  <path stroke="none" fill="var(--bonds)" transform="matrix(0.0666667 0 0 0.0666667 -170.569 -11)" d="M 4016.8,2264.94 L 4011,2263 L 4008.38,2255.45 L 4161.71,1984.2 L 4168.6,1984.2 L 4172.1,1990.2 L 4016.8,2264.94 Z "/>
  <path stroke="none" fill="var(--bonds)" transform="matrix(0.0666667 0 0 0.0666667 -170.569 -11)" d="M 3991.03,2193.37 L 3980.58,2187.47 L 4097.15,1981.26 L 4107.6,1987.16 L 3991.03,2193.37 Z "/>
  <path stroke="none" fill="var(--bonds)" transform="matrix(0.0666667 0 0 0.0666667 -170.569 -11)" d="M 4008.38,2255.45 L 4011,2263 L 4004.45,2266.8 L 3744.81,2160.65 L 3744.4,2154 L 3750.4,2149.97 L 4008.38,2255.45 Z "/>
  <path stroke="none" fill="var(--bonds)" transform="matrix(0.0666667 0 0 0.0666667 -170.569 -11)" d="M 2928.1,2325.21 L 2920.4,2323.6 L 2920.4,2316 L 3132.6,2151.06 L 3138.6,2154 L 3139.14,2161.18 L 2928.1,2325.21 Z "/>
  <path stroke="none" fill="var(--bonds)" transform="matrix(0.0666667 0 0 0.0666667 -170.569 -11)" d="M 3139.14,2161.18 L 3138.6,2154 L 3144.6,2150.48 L 3441.4,2316.72 L 3441.4,2323.6 L 3434.95,2326.86 L 3139.14,2161.18 Z "/>
  <path stroke="none" fill="var(--bonds)" transform="matrix(0.0666667 0 0 0.0666667 -170.569 -11)" d="M 3399.93,1360.2 L 3405.2,1354.2 L 3411.73,1357.92 L 3446.96,1629.04 L 3441.4,1632.8 L 3434.94,1629.68 L 3399.93,1360.2 Z "/>
  <path stroke="none" fill="var(--bonds)" transform="matrix(0.0666667 0 0 0.0666667 -170.569 -11)" d="M 3441.5,1639.74 L 3441.4,1632.8 L 3446.96,1629.04 L 3744.93,1796.02 L 3744.4,1802.6 L 3738.4,1806.12 L 3441.5,1639.74 Z "/>
  <path stroke="none" fill="var(--bonds)" transform="matrix(0.0666667 0 0 0.0666667 -170.569 -11)" d="M 3446.98,2327.35 L 3441.4,2323.6 L 3441.4,2316.72 L 3738.4,2150.48 L 3744.4,2154 L 3744.81,2160.65 L 3446.98,2327.35 Z "/>
  <path stroke="none" fill="var(--bonds)" transform="matrix(0.0666667 0 0 0.0666667 -170.569 -11)" d="M 3969.03,1430.52 L 3974.6,1426.8 L 3981.43,1432.8 L 4016.8,1703.66 L 4011,1705.6 L 4004.43,1701.61 L 3969.03,1430.52 Z "/>
  <path stroke="none" fill="var(--bonds)" transform="matrix(0.0666667 0 0 0.0666667 -170.569 -11)" d="M 4026.3,1478.19 L 4038.2,1476.63 L 4065.86,1688.49 L 4053.96,1690.04 L 4026.3,1478.19 Z "/>
  <path stroke="none" fill="var(--bonds)" transform="matrix(0.0666667 0 0 0.0666667 -170.569 -11)" d="M 4172.1,1978.2 L 4168.6,1984.2 L 4161.71,1984.2 L 4008.28,1712.97 L 4011,1705.6 L 4016.8,1703.66 L 4172.1,1978.2 Z "/>
  <path stroke="none" fill="var(--bonds)" transform="matrix(0.0666667 0 0 0.0666667 -170.569 -11)" d="M 3750.4,2149.97 L 3744.4,2154 L 3738.4,2150.48 L 3738.4,1806.12 L 3744.4,1802.6 L 3750.4,1806.8 L 3750.4,2149.97 Z "/>
  <path stroke="none" fill="var(--bonds)" transform="matrix(0.0666667 0 0 0.0666667 -170.569 -11)" d="M 3687.15,2116.92 L 3675.15,2116.92 L 3675.15,1839.66 L 3687.15,1839.66 L 3687.15,2116.92 Z "/>
  <path stroke="none" fill="var(--bonds)" transform="matrix(0.0666667 0 0 0.0666667 -170.569 -11)" d="M 4004.43,1701.61 L 4011,1705.6 L 4008.28,1712.97 L 3750.4,1806.8 L 3744.4,1802.6 L 3744.93,1796.02 L 4004.43,1701.61 Z "/>
  <path stroke="none" fill="var(--bonds)" transform="matrix(0.0666667 0 0 0.0666667 -170.569 -11)" d="M 3294.39,1142.2 L 3284,1148.2 L 3279.9,1143.31 L 3419.9,900.588 L 3427.4,899.6 L 3427.85,910.82 L 3294.39,1142.2 Z "/>
  <path stroke="none" fill="var(--bonds)" transform="matrix(0.0666667 0 0 0.0666667 -170.569 -11)" d="M 3602.85,1143.21 L 3599,1148.2 L 3587.57,1142.2 L 3427.85,910.82 L 3427.4,899.6 L 3436.03,901.544 L 3602.85,1143.21 Z "/>
  <path stroke="none" fill="var(--bonds)" transform="matrix(0.0666667 0 0 0.0666667 -170.569 -11)" d="M 3436.03,901.544 L 3427.4,899.6 L 3428.39,892.102 L 3676.8,748.672 L 3676.8,762.528 L 3436.03,901.544 Z "/>
  <path stroke="none" fill="var(--bonds)" transform="matrix(0.0666667 0 0 0.0666667 -170.569 -11)" d="M 3676.8,762.528 L 3676.8,748.672 L 3926.2,892.672 L 3926.2,906.528 L 3676.8,762.528 Z "/>
  <path stroke="none" fill="var(--bonds)" transform="matrix(0.0666667 0 0 0.0666667 -170.569 -11)" d="M 3926.2,906.528 L 3926.2,892.672 L 4175.6,748.672 L 4175.6,762.527 L 3926.2,906.528 Z "/>
  <path stroke="none" fill="var(--bonds)" transform="matrix(0.0666667 0 0 0.0666667 -170.569 -11)" d="M 4175.6,762.527 L 4175.6,748.672 L 4425.2,892.672 L 4425.2,906.527 L 4175.6,762.527 Z "/>
  <text x="0" y="0" stroke="none" fill="var(--o)" transform="matrix(0.0666667 0 0 0.0666667 135.885 44.5733)" font-style="normal" font-weight="normal" font-size="200px" font-family="Arial">
O</text>
  <text x="0" y="0" stroke="none" fill="#000000" transform="matrix(0.0666667 0 0 0.0666667 146.256 44.5733)" font-style="normal" font-weight="normal" font-size="200px" font-family="Arial">
CH</text>
  <text x="0" y="0" stroke="none" fill="#000000" transform="matrix(0.0666667 0 0 0.0666667 165.514 47.5067)" font-style="normal" font-weight="normal" font-size="150px" font-family="Arial">
3</text>
  <path stroke="none" fill="var(--bonds)" transform="matrix(0.0666667 0 0 0.0666667 -170.569 -11)" d="M 4425.2,906.527 L 4425.2,892.672 L 4579.09,803.819 L 4585.09,814.211 L 4425.2,906.527 Z "/>
  <text x="0" y="0" stroke="none" fill="var(--o)" transform="matrix(0.0666667 0 0 0.0666667 119.258 73.3733)" font-style="normal" font-weight="normal" font-size="200px" font-family="Arial">
O</text>
  <path stroke="none" fill="var(--bonds)" transform="matrix(0.0666667 0 0 0.0666667 -170.569 -11)" d="M 4445.12,884.634 L 4457.12,884.634 L 4457.12,1090.43 L 4445.12,1090.43 L 4445.12,884.634 Z "/>
  <path stroke="none" fill="var(--bonds)" transform="matrix(0.0666667 0 0 0.0666667 -170.569 -11)" d="M 4393.28,884.646 L 4405.28,884.646 L 4405.28,1090.43 L 4393.28,1090.43 L 4393.28,884.646 Z "/>
  <path stroke="none" fill="var(--bonds)" transform="matrix(0.0666667 0 0 0.0666667 -170.569 -11)" d="M 3428.39,892.102 L 3427.4,899.6 L 3419.9,900.588 L 3222.01,702.69 L 3223.8,696 L 3230.49,694.207 L 3428.39,892.102 Z "/>
  <path stroke="none" fill="var(--bonds)" transform="matrix(0.0666667 0 0 0.0666667 -170.569 -11)" d="M 3230.49,694.207 L 3223.8,696 L 3218.9,691.099 L 3291.71,419.594 L 3305.09,416.006 L 3230.49,694.207 Z "/>
  <path stroke="none" fill="var(--bonds)" transform="matrix(0.0666667 0 0 0.0666667 -170.569 -11)" d="M 3187.27,655.205 L 3175.68,652.097 L 3234.77,431.752 L 3246.36,434.86 L 3187.27,655.205 Z "/>
  <path stroke="none" fill="var(--bonds)" transform="matrix(0.0666667 0 0 0.0666667 -170.569 -11)" d="M 3305.09,416.006 L 3291.71,419.594 L 3092.81,220.89 L 3096.39,207.509 L 3305.09,416.006 Z "/>
  <path stroke="none" fill="var(--bonds)" transform="matrix(0.0666667 0 0 0.0666667 -170.569 -11)" d="M 3096.39,207.509 L 3092.81,220.89 L 2821.5,293.5 L 2811.7,283.7 L 3096.39,207.509 Z "/>
  <path stroke="none" fill="var(--bonds)" transform="matrix(0.0666667 0 0 0.0666667 -170.569 -11)" d="M 3077.58,266.169 L 3080.68,277.761 L 2860.44,336.703 L 2857.33,325.111 L 3077.58,266.169 Z "/>
  <path stroke="none" fill="var(--bonds)" transform="matrix(0.0666667 0 0 0.0666667 -170.569 -11)" d="M 2811.7,283.7 L 2821.5,293.5 L 2748.69,565.007 L 2735.31,568.593 L 2811.7,283.7 Z "/>
  <path stroke="none" fill="var(--bonds)" transform="matrix(0.0666667 0 0 0.0666667 -170.569 -11)" d="M 2735.31,568.593 L 2748.69,565.007 L 2947.39,763.709 L 2943.81,777.09 L 2735.31,568.593 Z "/>
  <path stroke="none" fill="var(--bonds)" transform="matrix(0.0666667 0 0 0.0666667 -170.569 -11)" d="M 2795.57,555.558 L 2804.05,547.073 L 2965.34,708.362 L 2956.86,716.847 L 2795.57,555.558 Z "/>
  <path stroke="none" fill="var(--bonds)" transform="matrix(0.0666667 0 0 0.0666667 -170.569 -11)" d="M 2943.81,777.09 L 2947.39,763.709 L 3218.9,691.099 L 3223.8,696 L 3222.01,702.69 L 2943.81,777.09 Z "/>
</svg>
