<?xml version='1.0' encoding='UTF-8'?>
<!DOCTYPE svg PUBLIC "-//W3C//DTD SVG 1.1//EN" "http://www.w3.org/Graphics/SVG/1.1/DTD/svg11.dtd">
<svg xmlns="http://www.w3.org/2000/svg" xmlns:xlink="http://www.w3.org/1999/xlink" width="181px" height="245px" viewBox="0 0 181 245" style="background-color: #ffffff00" version="1.1">
  <style>:root {
  --c: #000000;
  --n: #2144d9;
  --o: #ff0d0d;
  --s: #e1e100;
  --p: #ff8000;
  --f: #90e000;
  --cl: #00e000;
  --br: #a52a2a;
  --i: #940094;
  --bonds: #000000;
}
@media (prefers-color-scheme: dark) {
:root {
  --c: #e0e0e0;
  --n: #8fa3ff;
  --o: #ff6666;
  --s: #ffff00;
  --p: #ffb366;
  --f: #c3ff00;
  --cl: #66ff66;
  --br: #d47878;
  --i: #d478d4;
  --bonds: #ffffff;
}}</style>
  <path stroke="none" fill="var(--bonds)" transform="matrix(0.0666667 0 0 0.0666667 -150.533 -152)" d="M 3480.9,3138.88 L 3472,3142.2 L 3471.95,3130.41 L 3610.76,2893.6 L 3617.64,2905.6 L 3480.9,3138.88 Z "/>
  <path stroke="none" fill="var(--bonds)" transform="matrix(0.0666667 0 0 0.0666667 -150.533 -152)" d="M 3617.64,2905.6 L 3610.76,2893.6 L 3897.76,2893.8 L 3904.64,2905.8 L 3617.64,2905.6 Z "/>
  <path stroke="none" fill="var(--bonds)" transform="matrix(0.0666667 0 0 0.0666667 -150.533 -152)" d="M 3904.64,2905.8 L 3897.76,2893.8 L 4040.16,2651 L 4047.04,2663 L 3904.64,2905.8 Z "/>
  <path stroke="none" fill="var(--bonds)" transform="matrix(0.0666667 0 0 0.0666667 -150.533 -152)" d="M 4047.04,2663 L 4040.16,2651 L 4326.96,2651.2 L 4333.84,2663.2 L 4047.04,2663 Z "/>
  <text x="0" y="0" stroke="none" fill="var(--o)" transform="matrix(0.0666667 0 0 0.0666667 142.468 14.16)" font-style="normal" font-weight="normal" font-size="200px" font-family="Arial">
O</text>
  <text x="0" y="0" stroke="none" fill="#000000" transform="matrix(0.0666667 0 0 0.0666667 152.839 14.16)" font-style="normal" font-weight="normal" font-size="200px" font-family="Arial">
CH</text>
  <text x="0" y="0" stroke="none" fill="#000000" transform="matrix(0.0666667 0 0 0.0666667 172.097 17.0933)" font-style="normal" font-weight="normal" font-size="150px" font-family="Arial">
3</text>
  <path stroke="none" fill="var(--bonds)" transform="matrix(0.0666667 0 0 0.0666667 -150.533 -152)" d="M 4333.84,2663.2 L 4326.96,2651.2 L 4410.67,2508.47 L 4421.03,2514.54 L 4333.84,2663.2 Z "/>
  <text x="0" y="0" stroke="none" fill="var(--o)" transform="matrix(0.0666667 0 0 0.0666667 142.614 46.5333)" font-style="normal" font-weight="normal" font-size="200px" font-family="Arial">
O</text>
  <path stroke="none" fill="var(--bonds)" transform="matrix(0.0666667 0 0 0.0666667 -150.533 -152)" d="M 4339.93,2635.23 L 4350.24,2629.09 L 4451.66,2799.37 L 4441.35,2805.51 L 4339.93,2635.23 Z "/>
  <path stroke="none" fill="var(--bonds)" transform="matrix(0.0666667 0 0 0.0666667 -150.533 -152)" d="M 4295.63,2660.25 L 4305.94,2654.11 L 4407.95,2825.4 L 4397.64,2831.54 L 4295.63,2660.25 Z "/>
  <path stroke="none" fill="var(--bonds)" transform="matrix(0.0666667 0 0 0.0666667 -150.533 -152)" d="M 3471.95,3130.41 L 3472,3142.2 L 3463.14,3139.07 L 3323.79,2905.6 L 3327.2,2899.6 L 3334.17,2899.57 L 3471.95,3130.41 Z "/>
  <path stroke="none" fill="var(--bonds)" transform="matrix(0.0666667 0 0 0.0666667 -150.533 -152)" d="M 3334.17,2899.57 L 3327.2,2899.6 L 3323.76,2893.6 L 3462.63,2657.02 L 3476.57,2656.98 L 3334.17,2899.57 Z "/>
  <path stroke="none" fill="var(--bonds)" transform="matrix(0.0666667 0 0 0.0666667 -150.533 -152)" d="M 3302.92,2851.19 L 3292.57,2845.12 L 3404.66,2654.15 L 3415.01,2660.23 L 3302.92,2851.19 Z "/>
  <path stroke="none" fill="var(--bonds)" transform="matrix(0.0666667 0 0 0.0666667 -150.533 -152)" d="M 3476.57,2656.98 L 3462.63,2657.02 L 3321.59,2420.2 L 3328.41,2408.2 L 3476.57,2656.98 Z "/>
  <path stroke="none" fill="var(--bonds)" transform="matrix(0.0666667 0 0 0.0666667 -150.533 -152)" d="M 3328.41,2408.2 L 3321.59,2420.2 L 3041.44,2420 L 3034.56,2408 L 3328.41,2408.2 Z "/>
  <path stroke="none" fill="var(--bonds)" transform="matrix(0.0666667 0 0 0.0666667 -150.533 -152)" d="M 3296.31,2458.64 L 3296.31,2470.64 L 3066.91,2470.48 L 3066.92,2458.48 L 3296.31,2458.64 Z "/>
  <path stroke="none" fill="var(--bonds)" transform="matrix(0.0666667 0 0 0.0666667 -150.533 -152)" d="M 3034.56,2408 L 3041.44,2420 L 2902.77,2656.77 L 2888.83,2656.83 L 3034.56,2408 Z "/>
  <path stroke="none" fill="var(--bonds)" transform="matrix(0.0666667 0 0 0.0666667 -150.533 -152)" d="M 2888.83,2656.83 L 2902.77,2656.77 L 3043.81,2893.6 L 3036.99,2905.6 L 2888.83,2656.83 Z "/>
  <path stroke="none" fill="var(--bonds)" transform="matrix(0.0666667 0 0 0.0666667 -150.533 -152)" d="M 2950.15,2659.65 L 2960.46,2653.51 L 3074.68,2845.29 L 3064.37,2851.43 L 2950.15,2659.65 Z "/>
  <path stroke="none" fill="var(--bonds)" transform="matrix(0.0666667 0 0 0.0666667 -150.533 -152)" d="M 3036.99,2905.6 L 3043.81,2893.6 L 3323.76,2893.6 L 3327.2,2899.6 L 3323.79,2905.6 L 3036.99,2905.6 Z "/>
  <path stroke="none" fill="var(--bonds)" transform="matrix(0.0666667 0 0 0.0666667 -150.533 -152)" d="M 2711.94,3780.5 L 2708.2,3774.6 L 2713.98,3768.44 L 3098.35,3758.05 L 3100.2,3764 L 3096.2,3770.11 L 2711.94,3780.5 Z "/>
  <path stroke="none" fill="var(--bonds)" transform="matrix(0.0666667 0 0 0.0666667 -150.533 -152)" d="M 2778.59,3705.78 L 2778.26,3693.78 L 3077.55,3685.69 L 3077.88,3697.68 L 2778.59,3705.78 Z "/>
  <path stroke="none" fill="var(--bonds)" transform="matrix(0.0666667 0 0 0.0666667 -150.533 -152)" d="M 4254.17,3738.1 L 4260.6,3744 L 4257.11,3750.05 L 3883.16,3755.73 L 3878.8,3749.8 L 3880.38,3743.78 L 4254.17,3738.1 Z "/>
  <path stroke="none" fill="var(--bonds)" transform="matrix(0.0666667 0 0 0.0666667 -150.533 -152)" d="M 4182.24,3666.09 L 4182.42,3678.09 L 3898.12,3682.4 L 3897.94,3670.41 L 4182.24,3666.09 Z "/>
  <path stroke="none" fill="var(--bonds)" transform="matrix(0.0666667 0 0 0.0666667 -150.533 -152)" d="M 2748.57,5423.42 L 2742.6,5417.6 L 2746.09,5411.49 L 3129.13,5399.73 L 3133.4,5405.6 L 3131.83,5411.65 L 2748.57,5423.42 Z "/>
  <path stroke="none" fill="var(--bonds)" transform="matrix(0.0666667 0 0 0.0666667 -150.533 -152)" d="M 2816.58,5495.57 L 2816.21,5483.58 L 3113.83,5474.44 L 3114.2,5486.43 L 2816.58,5495.57 Z "/>
  <path stroke="none" fill="var(--bonds)" transform="matrix(0.0666667 0 0 0.0666667 -150.533 -152)" d="M 4288.46,5374.88 L 4292.2,5380.8 L 4286,5386.93 L 3914.21,5394.56 L 3912.4,5388.6 L 3916.54,5382.51 L 4288.46,5374.88 Z "/>
  <path stroke="none" fill="var(--bonds)" transform="matrix(0.0666667 0 0 0.0666667 -150.533 -152)" d="M 4215.76,5450.27 L 4216,5462.27 L 3934.82,5468.05 L 3934.58,5456.05 L 4215.76,5450.27 Z "/>
  <path stroke="none" fill="var(--bonds)" transform="matrix(0.0666667 0 0 0.0666667 -150.533 -152)" d="M 3473.88,3514.22 L 3480,3517.4 L 3480.17,3524.44 L 3107.62,3766.33 L 3100.2,3764 L 3098.35,3758.05 L 3473.88,3514.22 Z "/>
  <path stroke="none" fill="var(--bonds)" transform="matrix(0.0666667 0 0 0.0666667 -150.533 -152)" d="M 3480.17,3524.44 L 3480,3517.4 L 3485.87,3513.88 L 3880.38,3743.78 L 3878.8,3749.8 L 3871.58,3752.53 L 3480.17,3524.44 Z "/>
  <path stroke="none" fill="var(--bonds)" transform="matrix(0.0666667 0 0 0.0666667 -150.533 -152)" d="M 2694.1,3551.98 L 2699.6,3538 L 2705.72,3541.14 L 2713.98,3768.44 L 2708.2,3774.6 L 2702.15,3773.27 L 2694.1,3551.98 Z "/>
  <path stroke="none" fill="var(--bonds)" transform="matrix(0.0666667 0 0 0.0666667 -150.533 -152)" d="M 2695.78,3533.33 L 2699.6,3538 L 2694.1,3551.98 L 2456.76,3789.33 L 2446.04,3783.07 L 2695.78,3533.33 Z "/>
  <path stroke="none" fill="var(--bonds)" transform="matrix(0.0666667 0 0 0.0666667 -150.533 -152)" d="M 4238.23,3508.95 L 4244,3505.4 L 4251.08,3520.73 L 4266.49,3742.24 L 4260.6,3744 L 4254.17,3738.1 L 4238.23,3508.95 Z "/>
  <path stroke="none" fill="var(--bonds)" transform="matrix(0.0666667 0 0 0.0666667 -150.533 -152)" d="M 4251.08,3520.73 L 4244,3505.4 L 4247.69,3500.61 L 4491.21,3739.11 L 4480.79,3745.69 L 4251.08,3520.73 Z "/>
  <path stroke="none" fill="var(--bonds)" transform="matrix(0.0666667 0 0 0.0666667 -150.533 -152)" d="M 3522.69,5630.75 L 3522.8,5637.8 L 3516.79,5641.2 L 3131.83,5411.65 L 3133.4,5405.6 L 3140.71,5402.97 L 3522.69,5630.75 Z "/>
  <path stroke="none" fill="var(--bonds)" transform="matrix(0.0666667 0 0 0.0666667 -150.533 -152)" d="M 3528.79,5641.09 L 3522.8,5637.8 L 3522.69,5630.75 L 3905.09,5386.15 L 3912.4,5388.6 L 3914.21,5394.56 L 3528.79,5641.09 Z "/>
  <path stroke="none" fill="var(--bonds)" transform="matrix(0.0666667 0 0 0.0666667 -150.533 -152)" d="M 2747.22,5659.24 L 2741.2,5662.6 L 2735.28,5649.08 L 2736.59,5419.13 L 2742.6,5417.6 L 2748.57,5423.42 L 2747.22,5659.24 Z "/>
  <path stroke="none" fill="var(--bonds)" transform="matrix(0.0666667 0 0 0.0666667 -150.533 -152)" d="M 2735.28,5649.08 L 2741.2,5662.6 L 2737.59,5667.43 L 2481.15,5433.73 L 2491.65,5427.06 L 2735.28,5649.08 Z "/>
  <path stroke="none" fill="var(--bonds)" transform="matrix(0.0666667 0 0 0.0666667 -150.533 -152)" d="M 4290.9,5611.24 L 4284.4,5626.8 L 4278.5,5623.52 L 4286,5386.93 L 4292.2,5380.8 L 4298.15,5382.31 L 4290.9,5611.24 Z "/>
  <path stroke="none" fill="var(--bonds)" transform="matrix(0.0666667 0 0 0.0666667 -150.533 -152)" d="M 4288.29,5631.42 L 4284.4,5626.8 L 4290.9,5611.24 L 4509.46,5380.92 L 4520.14,5387.08 L 4288.29,5631.42 Z "/>
  <path stroke="none" fill="var(--bonds)" transform="matrix(0.0666667 0 0 0.0666667 -150.533 -152)" d="M 3270.41,4167.32 L 3266.4,4173.4 L 3259.74,4172.95 L 3096.2,3770.11 L 3100.2,3764 L 3107.62,3766.33 L 3270.41,4167.32 Z "/>
  <path stroke="none" fill="var(--bonds)" transform="matrix(0.0666667 0 0 0.0666667 -150.533 -152)" d="M 2503.3,4193.63 L 2496.8,4193.2 L 2493.04,4187.34 L 2702.15,3773.27 L 2708.2,3774.6 L 2711.94,3780.5 L 2503.3,4193.63 Z "/>
  <path stroke="none" fill="var(--bonds)" transform="matrix(0.0666667 0 0 0.0666667 -150.533 -152)" d="M 3748.18,4163.81 L 3741.6,4164.6 L 3737.24,4158.68 L 3871.58,3752.53 L 3878.8,3749.8 L 3883.16,3755.73 L 3748.18,4163.81 Z "/>
  <path stroke="none" fill="var(--bonds)" transform="matrix(0.0666667 0 0 0.0666667 -150.533 -152)" d="M 3737.24,4158.68 L 3741.6,4164.6 L 3738.32,4170.66 L 3269.92,4179.34 L 3266.4,4173.4 L 3270.41,4167.32 L 3737.24,4158.68 Z "/>
  <path stroke="none" fill="var(--bonds)" transform="matrix(0.0666667 0 0 0.0666667 -150.533 -152)" d="M 3695.3,4243.91 L 3695.52,4255.91 L 3316.03,4262.93 L 3315.81,4250.94 L 3695.3,4243.91 Z "/>
  <path stroke="none" fill="var(--bonds)" transform="matrix(0.0666667 0 0 0.0666667 -150.533 -152)" d="M 2344.19,4193.09 L 2336.2,4199.4 L 2330.24,4198.42 L 2446.04,3783.07 L 2456.76,3789.33 L 2344.19,4193.09 Z "/>
  <path stroke="none" fill="var(--bonds)" transform="matrix(0.0666667 0 0 0.0666667 -150.533 -152)" d="M 2341.9,4205.18 L 2336.2,4199.4 L 2344.19,4193.09 L 2493.04,4187.34 L 2496.8,4193.2 L 2492.59,4199.37 L 2341.9,4205.18 Z "/>
  <path stroke="none" fill="var(--bonds)" transform="matrix(0.0666667 0 0 0.0666667 -150.533 -152)" d="M 2416.53,4286.73 L 2416.07,4274.74 L 2437.44,4273.91 L 2437.9,4285.9 L 2416.53,4286.73 Z "/>
  <path stroke="none" fill="var(--bonds)" transform="matrix(0.0666667 0 0 0.0666667 -150.533 -152)" d="M 3276.77,4987.12 L 3283.4,4986.4 L 3287.66,4992.3 L 3140.71,5402.97 L 3133.4,5405.6 L 3129.13,5399.73 L 3276.77,4987.12 Z "/>
  <path stroke="none" fill="var(--bonds)" transform="matrix(0.0666667 0 0 0.0666667 -150.533 -152)" d="M 4492.11,4144.99 L 4488.6,4151 L 4482.16,4151.78 L 4257.11,3750.05 L 4260.6,3744 L 4266.49,3742.24 L 4492.11,4144.99 Z "/>
  <path stroke="none" fill="var(--bonds)" transform="matrix(0.0666667 0 0 0.0666667 -150.533 -152)" d="M 3754.67,4981.5 L 3758.8,4975.4 L 3765.4,4975.94 L 3916.54,5382.51 L 3912.4,5388.6 L 3905.09,5386.15 L 3754.67,4981.5 Z "/>
  <path stroke="none" fill="var(--bonds)" transform="matrix(0.0666667 0 0 0.0666667 -150.533 -152)" d="M 3755.27,4969.48 L 3758.8,4975.4 L 3754.67,4981.5 L 3287.66,4992.3 L 3283.4,4986.4 L 3286.67,4980.32 L 3755.27,4969.48 Z "/>
  <path stroke="none" fill="var(--bonds)" transform="matrix(0.0666667 0 0 0.0666667 -150.533 -152)" d="M 3708.76,4885.76 L 3709.04,4897.76 L 3329.71,4906.54 L 3329.43,4894.54 L 3708.76,4885.76 Z "/>
  <path stroke="none" fill="var(--bonds)" transform="matrix(0.0666667 0 0 0.0666667 -150.533 -152)" d="M 2514.16,5014.79 L 2517.6,5008.6 L 2524.05,5007.88 L 2746.09,5411.49 L 2742.6,5417.6 L 2736.59,5419.13 L 2514.16,5014.79 Z "/>
  <path stroke="none" fill="var(--bonds)" transform="matrix(0.0666667 0 0 0.0666667 -150.533 -152)" d="M 4632.33,4149.39 L 4626.4,4150.6 L 4618,4144.62 L 4480.79,3745.69 L 4491.21,3739.11 L 4632.33,4149.39 Z "/>
  <path stroke="none" fill="var(--bonds)" transform="matrix(0.0666667 0 0 0.0666667 -150.533 -152)" d="M 4618,4144.62 L 4626.4,4150.6 L 4620.81,4156.62 L 4493.16,4156.99 L 4488.6,4151 L 4492.11,4144.99 L 4618,4144.62 Z "/>
  <path stroke="none" fill="var(--bonds)" transform="matrix(0.0666667 0 0 0.0666667 -150.533 -152)" d="M 4547.94,4241.12 L 4547.91,4229.12 L 4552.7,4229.11 L 4552.73,4241.11 L 4547.94,4241.12 Z "/>
  <path stroke="none" fill="var(--bonds)" transform="matrix(0.0666667 0 0 0.0666667 -150.533 -152)" d="M 2352.5,5018.42 L 2358.4,5017.2 L 2366.41,5022.78 L 2491.65,5427.06 L 2481.15,5433.73 L 2352.5,5018.42 Z "/>
  <path stroke="none" fill="var(--bonds)" transform="matrix(0.0666667 0 0 0.0666667 -150.533 -152)" d="M 2366.41,5022.78 L 2358.4,5017.2 L 2363.75,5010.9 L 2513.02,5002.84 L 2517.6,5008.6 L 2514.16,5014.79 L 2366.41,5022.78 Z "/>
  <path stroke="none" fill="var(--bonds)" transform="matrix(0.0666667 0 0 0.0666667 -150.533 -152)" d="M 2434.53,4933.92 L 2433.88,4921.93 L 2452.4,4920.93 L 2453.05,4932.92 L 2434.53,4933.92 Z "/>
  <path stroke="none" fill="var(--bonds)" transform="matrix(0.0666667 0 0 0.0666667 -150.533 -152)" d="M 4494.55,4965.06 L 4501,4965.6 L 4504.7,4971.6 L 4298.15,5382.31 L 4292.2,5380.8 L 4288.46,5374.88 L 4494.55,4965.06 Z "/>
  <path stroke="none" fill="var(--bonds)" transform="matrix(0.0666667 0 0 0.0666667 -150.533 -152)" d="M 4630.57,4971.6 L 4638.6,4965.6 L 4644.56,4966.59 L 4520.14,5387.08 L 4509.46,5380.92 L 4630.57,4971.6 Z "/>
  <path stroke="none" fill="var(--bonds)" transform="matrix(0.0666667 0 0 0.0666667 -150.533 -152)" d="M 4632.85,4959.6 L 4638.6,4965.6 L 4630.57,4971.6 L 4504.7,4971.6 L 4501,4965.6 L 4505.43,4959.6 L 4632.85,4959.6 Z "/>
  <path stroke="none" fill="var(--bonds)" transform="matrix(0.0666667 0 0 0.0666667 -150.533 -152)" d="M 4557.29,4886.81 L 4557.29,4874.81 L 4563.58,4874.81 L 4563.58,4886.81 L 4557.29,4886.81 Z "/>
  <path stroke="none" fill="var(--bonds)" transform="matrix(0.0666667 0 0 0.0666667 -150.533 -152)" d="M 3465.23,3283.15 L 3471,3277 L 3477.22,3282.88 L 3485.87,3513.88 L 3480,3517.4 L 3473.88,3514.22 L 3465.23,3283.15 Z "/>
  <path stroke="none" fill="var(--bonds)" transform="matrix(0.0666667 0 0 0.0666667 -150.533 -152)" d="M 3553.89,3361.23 L 3565.88,3360.78 L 3569.85,3466.88 L 3557.86,3467.33 L 3553.89,3361.23 Z "/>
  <path stroke="none" fill="var(--bonds)" transform="matrix(0.0666667 0 0 0.0666667 -150.533 -152)" d="M 3075.27,3281.81 L 3078,3287.2 L 3079.88,3293.15 L 2705.72,3541.14 L 2699.6,3538 L 2695.78,3533.33 L 3075.27,3281.81 Z "/>
  <path stroke="none" fill="var(--bonds)" transform="matrix(0.0666667 0 0 0.0666667 -150.533 -152)" d="M 3078.97,3295.79 L 3085.6,3305.79 L 2716.88,3550.18 L 2710.25,3540.17 L 3078.97,3295.79 Z "/>
  <path stroke="none" fill="var(--bonds)" transform="matrix(0.0666667 0 0 0.0666667 -150.533 -152)" d="M 3079.88,3293.15 L 3078,3287.2 L 3077.84,3281.2 L 3470.84,3271 L 3471,3277 L 3465.23,3283.15 L 3079.88,3293.15 Z "/>
  <path stroke="none" fill="var(--bonds)" transform="matrix(0.0666667 0 0 0.0666667 -150.533 -152)" d="M 3847.41,3275.83 L 3849,3269.8 L 3851.53,3264.32 L 4247.69,3500.61 L 4244,3505.4 L 4238.23,3508.95 L 3847.41,3275.83 Z "/>
  <path stroke="none" fill="var(--bonds)" transform="matrix(0.0666667 0 0 0.0666667 -150.533 -152)" d="M 3842.74,3287 L 3848.89,3276.69 L 4235.56,3507.32 L 4229.42,3517.63 L 3842.74,3287 Z "/>
  <path stroke="none" fill="var(--bonds)" transform="matrix(0.0666667 0 0 0.0666667 -150.533 -152)" d="M 3814.5,3264.46 L 3849,3269.8 L 3849.11,3275.8 L 3477.22,3282.88 L 3471,3277 L 3470.89,3271 L 3814.5,3264.46 Z "/>
  <path stroke="none" fill="var(--bonds)" transform="matrix(0.0666667 0 0 0.0666667 -150.533 -152)" d="M 3212.79,3276.4 L 3213.21,3288.4 L 3078.21,3293.2 L 3078,3287.2 L 3077.79,3281.2 L 3212.79,3276.4 Z "/>
  <path stroke="none" fill="var(--bonds)" transform="matrix(0.0666667 0 0 0.0666667 -150.533 -152)" d="M 3689.13,3279.2 L 3688.87,3267.2 L 3848.87,3263.8 L 3849,3269.8 L 3847.41,3275.83 L 3689.13,3279.2 Z "/>
  <path stroke="none" fill="var(--bonds)" transform="matrix(0.0666667 0 0 0.0666667 -150.533 -152)" d="M 3688.88,3267.2 L 3689.12,3279.2 L 3480.76,3283.23 L 3480.45,3271.23 L 3688.88,3267.2 L 3688.88,3267.2 Z "/>
  <path stroke="none" fill="var(--bonds)" transform="matrix(0.0666667 0 0 0.0666667 -150.533 -152)" d="M 3528.21,5879.74 L 3522.2,5885.8 L 3516.21,5879.99 L 3516.79,5641.2 L 3522.8,5637.8 L 3528.79,5641.09 L 3528.21,5879.74 Z "/>
  <path stroke="none" fill="var(--bonds)" transform="matrix(0.0666667 0 0 0.0666667 -150.533 -152)" d="M 3442.76,5802.96 L 3430.76,5802.93 L 3431.05,5686.36 L 3443.05,5686.38 L 3442.76,5802.96 Z "/>
  <path stroke="none" fill="var(--bonds)" transform="matrix(0.0666667 0 0 0.0666667 -150.533 -152)" d="M 3131.39,5892.74 L 3129.8,5898.8 L 3127.94,5904.69 L 2737.59,5667.43 L 2741.2,5662.6 L 2747.22,5659.24 L 3131.39,5892.74 Z "/>
  <path stroke="none" fill="var(--bonds)" transform="matrix(0.0666667 0 0 0.0666667 -150.533 -152)" d="M 3137.26,5877.12 L 3131.03,5887.37 L 2754.54,5658.54 L 2760.77,5648.28 L 3137.26,5877.12 Z "/>
  <path stroke="none" fill="var(--bonds)" transform="matrix(0.0666667 0 0 0.0666667 -150.533 -152)" d="M 3130,5904.8 L 3129.8,5898.8 L 3131.39,5892.74 L 3516.21,5879.99 L 3522.2,5885.8 L 3522.4,5891.8 L 3130,5904.8 Z "/>
  <path stroke="none" fill="var(--bonds)" transform="matrix(0.0666667 0 0 0.0666667 -150.533 -152)" d="M 3902.24,5888.05 L 3900.2,5882.2 L 3898.36,5876.22 L 4278.5,5623.52 L 4284.4,5626.8 L 4288.29,5631.42 L 3902.24,5888.05 Z "/>
  <path stroke="none" fill="var(--bonds)" transform="matrix(0.0666667 0 0 0.0666667 -150.533 -152)" d="M 3899.18,5873.08 L 3892.54,5863.09 L 4267.16,5614.06 L 4273.8,5624.05 L 3899.18,5873.08 Z "/>
  <path stroke="none" fill="var(--bonds)" transform="matrix(0.0666667 0 0 0.0666667 -150.533 -152)" d="M 3898.36,5876.22 L 3900.2,5882.2 L 3900.26,5888.2 L 3522.26,5891.8 L 3522.2,5885.8 L 3528.21,5879.74 L 3898.36,5876.22 Z "/>
  <path stroke="none" fill="var(--bonds)" transform="matrix(0.0666667 0 0 0.0666667 -150.533 -152)" d="M 3264.99,5901.61 L 3264.21,5913.59 L 3127.94,5904.69 L 3129.8,5898.8 L 3130.19,5892.81 L 3264.99,5901.61 Z "/>
  <path stroke="none" fill="var(--bonds)" transform="matrix(0.0666667 0 0 0.0666667 -150.533 -152)" d="M 3741.11,5901.78 L 3740.09,5889.82 L 3899.69,5876.22 L 3900.2,5882.2 L 3902.24,5888.05 L 3741.11,5901.78 Z "/>
  <path stroke="none" fill="var(--bonds)" transform="matrix(0.0666667 0 0 0.0666667 -150.533 -152)" d="M 3740.75,5901.8 L 3264.75,5913.6 L 3264.66,5909.94 L 3522.53,5901.4 L 3740.69,5899.32 L 3740.75,5901.8 L 3740.75,5901.8 Z "/>
  <path stroke="none" fill="var(--bonds)" transform="matrix(0.0666667 0 0 0.0666667 -150.533 -152)" d="M 3038.19,4584.85 L 3031.2,4585 L 3027.66,4579.1 L 3259.74,4172.95 L 3266.4,4173.4 L 3269.92,4179.34 L 3038.19,4584.85 Z "/>
  <path stroke="none" fill="var(--bonds)" transform="matrix(0.0666667 0 0 0.0666667 -150.533 -152)" d="M 3027.94,4591.09 L 3031.2,4585 L 3038.19,4584.85 L 3286.67,4980.32 L 3283.4,4986.4 L 3276.77,4987.12 L 3027.94,4591.09 Z "/>
  <path stroke="none" fill="var(--bonds)" transform="matrix(0.0666667 0 0 0.0666667 -150.533 -152)" d="M 2641.42,4590.08 L 2637.2,4596.2 L 2630.9,4596.37 L 2492.59,4199.37 L 2496.8,4193.2 L 2503.3,4193.63 L 2641.42,4590.08 Z "/>
  <path stroke="none" fill="var(--bonds)" transform="matrix(0.0666667 0 0 0.0666667 -150.533 -152)" d="M 2630.9,4596.37 L 2637.2,4596.2 L 2641.74,4602.07 L 2524.05,5007.88 L 2517.6,5008.6 L 2513.02,5002.84 L 2630.9,4596.37 Z "/>
  <path stroke="none" fill="var(--bonds)" transform="matrix(0.0666667 0 0 0.0666667 -150.533 -152)" d="M 2641.74,4602.07 L 2637.2,4596.2 L 2641.42,4590.08 L 3027.66,4579.1 L 3031.2,4585 L 3027.94,4591.09 L 2641.74,4602.07 Z "/>
  <path stroke="none" fill="var(--bonds)" transform="matrix(0.0666667 0 0 0.0666667 -150.533 -152)" d="M 2697.83,4514.49 L 2697.49,4502.5 L 2980.35,4494.46 L 2980.69,4506.45 L 2697.83,4514.49 Z "/>
  <path stroke="none" fill="var(--bonds)" transform="matrix(0.0666667 0 0 0.0666667 -150.533 -152)" d="M 3995.88,4559.14 L 3992.6,4565.2 L 3985.61,4565.35 L 3738.32,4170.66 L 3741.6,4164.6 L 3748.18,4163.81 L 3995.88,4559.14 Z "/>
  <path stroke="none" fill="var(--bonds)" transform="matrix(0.0666667 0 0 0.0666667 -150.533 -152)" d="M 3985.61,4565.35 L 3992.6,4565.2 L 3996.12,4571.14 L 3765.4,4975.94 L 3758.8,4975.4 L 3755.27,4969.48 L 3985.61,4565.35 Z "/>
  <path stroke="none" fill="var(--bonds)" transform="matrix(0.0666667 0 0 0.0666667 -150.533 -152)" d="M 2320.02,4610.83 L 2307.98,4611.17 L 2330.24,4198.42 L 2336.2,4199.4 L 2341.9,4205.18 L 2320.02,4610.83 Z "/>
  <path stroke="none" fill="var(--bonds)" transform="matrix(0.0666667 0 0 0.0666667 -150.533 -152)" d="M 2307.98,4611.17 L 2320.02,4610.83 L 2363.75,5010.9 L 2358.4,5017.2 L 2352.5,5018.42 L 2307.98,4611.17 Z "/>
  <path stroke="none" fill="var(--bonds)" transform="matrix(0.0666667 0 0 0.0666667 -150.533 -152)" d="M 4381.65,4558.31 L 4375.4,4558.4 L 4370.82,4552.48 L 4482.16,4151.78 L 4488.6,4151 L 4493.16,4156.99 L 4381.65,4558.31 Z "/>
  <path stroke="none" fill="var(--bonds)" transform="matrix(0.0666667 0 0 0.0666667 -150.533 -152)" d="M 4371,4564.48 L 4375.4,4558.4 L 4381.65,4558.31 L 4505.43,4959.6 L 4501,4965.6 L 4494.55,4965.06 L 4371,4564.48 Z "/>
  <path stroke="none" fill="var(--bonds)" transform="matrix(0.0666667 0 0 0.0666667 -150.533 -152)" d="M 4370.82,4552.48 L 4375.4,4558.4 L 4371,4564.48 L 3996.12,4571.14 L 3992.6,4565.2 L 3995.88,4559.14 L 4370.82,4552.48 Z "/>
  <path stroke="none" fill="var(--bonds)" transform="matrix(0.0666667 0 0 0.0666667 -150.533 -152)" d="M 4312.21,4639.49 L 4312.42,4651.49 L 4043.15,4656.27 L 4042.94,4644.27 L 4312.21,4639.49 Z "/>
  <path stroke="none" fill="var(--bonds)" transform="matrix(0.0666667 0 0 0.0666667 -150.533 -152)" d="M 4661.58,4559.17 L 4649.62,4560.03 L 4620.81,4156.62 L 4626.4,4150.6 L 4632.33,4149.39 L 4661.58,4559.17 Z "/>
  <path stroke="none" fill="var(--bonds)" transform="matrix(0.0666667 0 0 0.0666667 -150.533 -152)" d="M 4649.61,4559.35 L 4661.59,4559.85 L 4644.56,4966.59 L 4638.6,4965.6 L 4632.85,4959.6 L 4649.61,4559.35 Z "/>
  <path stroke="none" fill="var(--bonds)" transform="matrix(0.0666667 0 0 0.0666667 -150.533 -152)" d="M 3851.53,3264.32 L 3849,3269.8 L 3814.5,3264.46 L 3472.08,3148.56 L 3472,3142.2 L 3480.9,3138.88 L 3851.53,3264.32 L 3851.53,3264.32 Z "/>
  <path stroke="none" fill="var(--bonds)" transform="matrix(0.0666667 0 0 0.0666667 -150.533 -152)" d="M 3115.29,3279.87 L 3078,3287.2 L 3075.27,3281.81 L 3463.14,3139.07 L 3472,3142.2 L 3472.08,3148.56 L 3115.29,3279.87 L 3115.29,3279.87 Z "/>
</svg>
