<?xml version="1.0" standalone="no" ?>
<!DOCTYPE svg PUBLIC "-//W3C//DTD SVG 1.1//EN" "http://www.w3.org/Graphics/SVG/1.1/DTD/svg11.dtd">
<svg width="156px" height="183px" viewBox="0 0 156 183" style="background-color: #ffffff00" xmlns="http://www.w3.org/2000/svg" xmlns:xlink="http://www.w3.org/1999/xlink" version="1.1" >
<path stroke="none" fill="#000000" transform="matrix(0.0666667 0 0 0.0666667 -177.333 -3.33333)" d="M 3500.29,934.364 L 3492.73,935.451 L 3492.73,923.451 L 3632.77,680.902 L 3639.69,692.902 L 3500.29,934.364 Z " />
<path stroke="none" fill="#000000" transform="matrix(0.0666667 0 0 0.0666667 -177.333 -3.33333)" d="M 3639.69,692.902 L 3632.77,680.902 L 3919.77,680.902 L 3926.69,692.902 L 3639.69,692.902 Z " />
<path stroke="none" fill="#000000" transform="matrix(0.0666667 0 0 0.0666667 -177.333 -3.33333)" d="M 3926.69,692.902 L 3919.77,680.902 L 4063.27,432.353 L 4070.19,444.352 L 3926.69,692.902 Z " />
<path stroke="none" fill="#000000" transform="matrix(0.0666667 0 0 0.0666667 -177.333 -3.33333)" d="M 4070.19,444.352 L 4063.27,432.353 L 4350.27,432.353 L 4357.19,444.352 L 4070.19,444.352 Z " />
<text x="0" y="0" stroke="none" fill="#ff0000" transform="matrix(0.0666667 0 0 0.0666667 117.296 14.5202)" font-style="normal" font-weight="normal" font-size="200px" font-family="Arial" >
O</text>
<text x="0" y="0" stroke="none" fill="#000000" transform="matrix(0.0666667 0 0 0.0666667 127.668 14.5202)" font-style="normal" font-weight="normal" font-size="200px" font-family="Arial" >
CH</text>
<text x="0" y="0" stroke="none" fill="#000000" transform="matrix(0.0666667 0 0 0.0666667 146.925 17.4535)" font-style="normal" font-weight="normal" font-size="150px" font-family="Arial" >
3</text>
<path stroke="none" fill="#000000" transform="matrix(0.0666667 0 0 0.0666667 -177.333 -3.33333)" d="M 4357.19,444.352 L 4350.27,432.353 L 4435.73,284.318 L 4446.13,290.318 L 4357.19,444.352 Z " />
<text x="0" y="0" stroke="none" fill="#ff0000" transform="matrix(0.0666667 0 0 0.0666667 117.296 47.6601)" font-style="normal" font-weight="normal" font-size="200px" font-family="Arial" >
O</text>
<path stroke="none" fill="#000000" transform="matrix(0.0666667 0 0 0.0666667 -177.333 -3.33333)" d="M 4363.45,415.522 L 4373.84,409.522 L 4475.6,585.771 L 4465.2,591.77 L 4363.45,415.522 Z " />
<path stroke="none" fill="#000000" transform="matrix(0.0666667 0 0 0.0666667 -177.333 -3.33333)" d="M 4318.71,441.352 L 4329.1,435.352 L 4430.86,611.601 L 4420.47,617.6 L 4318.71,441.352 Z " />
<path stroke="none" fill="#000000" transform="matrix(0.0666667 0 0 0.0666667 -177.333 -3.33333)" d="M 3492.73,923.451 L 3492.73,935.451 L 3485.65,935.179 L 3345.77,692.902 L 3349.23,686.902 L 3356.16,686.902 L 3492.73,923.451 Z " />
<path stroke="none" fill="#000000" transform="matrix(0.0666667 0 0 0.0666667 -177.333 -3.33333)" d="M 3356.16,686.902 L 3349.23,686.902 L 3345.77,680.902 L 3485.8,438.352 L 3499.66,438.352 L 3356.16,686.902 Z " />
<path stroke="none" fill="#000000" transform="matrix(0.0666667 0 0 0.0666667 -177.333 -3.33333)" d="M 3324.6,638.242 L 3314.21,632.242 L 3427.88,435.352 L 3438.27,441.352 L 3324.6,638.242 Z " />
<path stroke="none" fill="#000000" transform="matrix(0.0666667 0 0 0.0666667 -177.333 -3.33333)" d="M 3499.66,438.352 L 3485.8,438.352 L 3345.77,195.803 L 3352.69,183.803 L 3499.66,438.352 Z " />
<path stroke="none" fill="#000000" transform="matrix(0.0666667 0 0 0.0666667 -177.333 -3.33333)" d="M 3352.69,183.803 L 3345.77,195.803 L 3065.69,195.803 L 3058.77,183.803 L 3352.69,183.803 Z " />
<path stroke="none" fill="#000000" transform="matrix(0.0666667 0 0 0.0666667 -177.333 -3.33333)" d="M 3319.4,235.463 L 3319.4,247.463 L 3092.06,247.463 L 3092.06,235.463 L 3319.4,235.463 Z " />
<path stroke="none" fill="#000000" transform="matrix(0.0666667 0 0 0.0666667 -177.333 -3.33333)" d="M 3058.77,183.803 L 3065.69,195.803 L 2925.66,438.352 L 2911.8,438.352 L 3058.77,183.803 Z " />
<path stroke="none" fill="#000000" transform="matrix(0.0666667 0 0 0.0666667 -177.333 -3.33333)" d="M 2911.8,438.352 L 2925.66,438.352 L 3065.69,680.902 L 3058.77,692.902 L 2911.8,438.352 Z " />
<path stroke="none" fill="#000000" transform="matrix(0.0666667 0 0 0.0666667 -177.333 -3.33333)" d="M 2973.19,441.352 L 2983.58,435.352 L 3097.25,632.242 L 3086.86,638.242 L 2973.19,441.352 Z " />
<path stroke="none" fill="#000000" transform="matrix(0.0666667 0 0 0.0666667 -177.333 -3.33333)" d="M 3058.77,692.902 L 3065.69,680.902 L 3345.77,680.902 L 3349.23,686.902 L 3345.77,692.902 L 3058.77,692.902 Z " />
<path stroke="none" fill="#000000" transform="matrix(0.0666667 0 0 0.0666667 -177.333 -3.33333)" d="M 4161.19,2463.14 L 4169.79,2471.68 L 3896.92,2678.86 L 3891.01,2668.29 L 4161.19,2463.14 Z " />
<path stroke="none" fill="#000000" transform="matrix(0.0666667 0 0 0.0666667 -177.333 -3.33333)" d="M 4170.29,2471.01 L 4160.69,2463.81 L 4251.71,2342.36 L 4268.14,2330.43 L 4273.59,2333.16 L 4170.29,2471.01 L 4170.29,2471.01 Z " />
<path stroke="none" fill="#000000" transform="matrix(0.0666667 0 0 0.0666667 -177.333 -3.33333)" d="M 4148.22,2449.08 L 4138.62,2441.88 L 4178.96,2388.06 L 4188.56,2395.26 L 4148.22,2449.08 L 4148.22,2449.08 Z " />
<path stroke="none" fill="#000000" transform="matrix(0.0666667 0 0 0.0666667 -177.333 -3.33333)" d="M 3891.79,2667.98 L 3896.14,2679.16 L 3735.67,2741.61 L 3734.45,2735.65 L 3749.69,2723.28 L 3891.79,2667.98 Z " />
<path stroke="none" fill="#000000" transform="matrix(0.0666667 0 0 0.0666667 -177.333 -3.33333)" d="M 3876.59,2640.83 L 3880.95,2652.02 L 3814.88,2677.72 L 3810.53,2666.54 L 3876.59,2640.83 Z " />
<path stroke="none" fill="#000000" transform="matrix(0.0666667 0 0 0.0666667 -177.333 -3.33333)" d="M 3749.69,2723.28 L 3734.45,2735.65 L 3731.13,2729.75 L 3820.66,2592.61 L 3829.98,2589.31 L 3834.44,2593.46 L 3749.69,2723.28 Z " />
<path stroke="none" fill="#000000" transform="matrix(0.0666667 0 0 0.0666667 -177.333 -3.33333)" d="M 3731.13,2729.75 L 3734.45,2735.65 L 3735.67,2741.61 L 3387.97,2753.12 L 3388.88,2747.09 L 3391.78,2740.99 L 3731.13,2729.75 Z " />
<path stroke="none" fill="#000000" transform="matrix(0.0666667 0 0 0.0666667 -177.333 -3.33333)" d="M 3834.44,2593.46 L 3829.98,2589.31 L 3828.84,2582.64 L 4086.13,2387.29 L 4092.15,2390.25 L 4095,2395.62 L 3834.44,2593.46 Z " />
<path stroke="none" fill="#000000" transform="matrix(0.0666667 0 0 0.0666667 -177.333 -3.33333)" d="M 3822.35,2528.24 L 3815.1,2518.68 L 4029.09,2356.2 L 4036.35,2365.76 L 3822.35,2528.24 Z " />
<path stroke="none" fill="#000000" transform="matrix(0.0666667 0 0 0.0666667 -177.333 -3.33333)" d="M 3828.84,2582.64 L 3829.98,2589.31 L 3820.66,2592.61 L 3556.78,2507.89 L 3556.72,2501.57 L 3562.66,2497.18 L 3828.84,2582.64 Z " />
<path stroke="none" fill="#000000" transform="matrix(0.0666667 0 0 0.0666667 -177.333 -3.33333)" d="M 4095,2395.62 L 4092.15,2390.25 L 4098.1,2381.89 L 4263.25,2325.76 L 4268.14,2330.43 L 4251.71,2342.36 L 4095,2395.62 Z " />
<path stroke="none" fill="#000000" transform="matrix(0.0666667 0 0 0.0666667 -177.333 -3.33333)" d="M 4098.1,2381.89 L 4092.15,2390.25 L 4086.13,2387.29 L 4084.44,2100.86 L 4090.41,2096.36 L 4096.42,2098.16 L 4098.1,2381.89 Z " />
<path stroke="none" fill="#000000" transform="matrix(0.0666667 0 0 0.0666667 -177.333 -3.33333)" d="M 4273.59,2333.16 L 4268.14,2330.43 L 4263.25,2325.76 L 4356.02,2008.98 L 4362.63,2007.76 L 4368.64,2008.6 L 4273.59,2333.16 Z " />
<path stroke="none" fill="#000000" transform="matrix(0.0666667 0 0 0.0666667 -177.333 -3.33333)" d="M 3391.78,2740.99 L 3388.88,2747.09 L 3372.12,2734.94 L 3270.91,2601.63 L 3275.14,2597.28 L 3284.95,2600.28 L 3391.78,2740.99 Z " />
<path stroke="none" fill="#000000" transform="matrix(0.0666667 0 0 0.0666667 -177.333 -3.33333)" d="M 3372.12,2734.94 L 3388.88,2747.09 L 3387.97,2753.12 L 3226.71,2697.28 L 3230.63,2685.94 L 3372.12,2734.94 L 3372.12,2734.94 Z " />
<path stroke="none" fill="#000000" transform="matrix(0.0666667 0 0 0.0666667 -177.333 -3.33333)" d="M 3305.59,2679.6 L 3301.66,2690.94 L 3253.84,2674.37 L 3261.14,2664.2 L 3305.59,2679.6 L 3305.59,2679.6 Z " />
<path stroke="none" fill="#000000" transform="matrix(0.0666667 0 0 0.0666667 -177.333 -3.33333)" d="M 3562.66,2497.18 L 3556.72,2501.57 L 3550.66,2497.29 L 3546.78,2227.31 L 3552.73,2224.15 L 3558.78,2227.09 L 3562.66,2497.18 Z " />
<path stroke="none" fill="#000000" transform="matrix(0.0666667 0 0 0.0666667 -177.333 -3.33333)" d="M 3512.26,2465.89 L 3500.26,2466.06 L 3497.17,2250.51 L 3509.16,2250.34 L 3512.26,2465.89 Z " />
<path stroke="none" fill="#000000" transform="matrix(0.0666667 0 0 0.0666667 -177.333 -3.33333)" d="M 3550.66,2497.29 L 3556.72,2501.57 L 3556.78,2507.89 L 3284.95,2600.28 L 3275.14,2597.28 L 3276.13,2590.61 L 3550.66,2497.29 Z " />
<path stroke="none" fill="#000000" transform="matrix(0.0666667 0 0 0.0666667 -177.333 -3.33333)" d="M 4087.86,2089.36 L 4090.41,2096.36 L 4084.44,2100.86 L 3825.47,2024.6 L 3824.26,2017.99 L 3828.78,2013.07 L 4087.86,2089.36 Z " />
<path stroke="none" fill="#000000" transform="matrix(0.0666667 0 0 0.0666667 -177.333 -3.33333)" d="M 4042.39,2128.02 L 4039,2139.54 L 3832.67,2078.78 L 3836.06,2067.27 L 4042.39,2128.02 Z " />
<path stroke="none" fill="#000000" transform="matrix(0.0666667 0 0 0.0666667 -177.333 -3.33333)" d="M 4096.42,2098.16 L 4090.41,2096.36 L 4087.86,2089.36 L 4242.28,1857.05 L 4248.89,1857.95 L 4249.21,1868.3 L 4096.42,2098.16 Z " />
<path stroke="none" fill="#000000" transform="matrix(0.0666667 0 0 0.0666667 -177.333 -3.33333)" d="M 4356.53,1989.79 L 4362.63,2007.76 L 4356.02,2008.98 L 4249.21,1868.3 L 4248.89,1857.95 L 4254.28,1855.13 L 4356.53,1989.79 Z " />
<path stroke="none" fill="#000000" transform="matrix(0.0666667 0 0 0.0666667 -177.333 -3.33333)" d="M 4368.63,2007.72 L 4362.63,2007.76 L 4356.53,1989.79 L 4355.6,1832.56 L 4367.59,1830.28 L 4368.63,2007.72 L 4368.63,2007.72 Z " />
<path stroke="none" fill="#000000" transform="matrix(0.0666667 0 0 0.0666667 -177.333 -3.33333)" d="M 4336.33,1912.69 L 4324.33,1912.76 L 4323.89,1837.51 L 4335.89,1837.43 L 4336.33,1912.69 L 4336.33,1912.69 Z " />
<path stroke="none" fill="#000000" transform="matrix(0.0666667 0 0 0.0666667 -177.333 -3.33333)" d="M 3817.03,2015.95 L 3824.26,2017.99 L 3825.47,2024.6 L 3558.78,2227.09 L 3552.73,2224.15 L 3552.59,2216.73 L 3817.03,2015.95 Z " />
<path stroke="none" fill="#000000" transform="matrix(0.0666667 0 0 0.0666667 -177.333 -3.33333)" d="M 3828.78,2013.07 L 3824.26,2017.99 L 3817.03,2015.95 L 3696.03,1705.01 L 3700.11,1698.95 L 3706.89,1699.82 L 3828.78,2013.07 Z " />
<path stroke="none" fill="#000000" transform="matrix(0.0666667 0 0 0.0666667 -177.333 -3.33333)" d="M 3552.59,2216.73 L 3552.73,2224.15 L 3546.78,2227.31 L 3268.55,2032.68 L 3269.42,2025.97 L 3276.38,2023.52 L 3552.59,2216.73 Z " />
<path stroke="none" fill="#000000" transform="matrix(0.0666667 0 0 0.0666667 -177.333 -3.33333)" d="M 3697.02,1692.99 L 3700.11,1698.95 L 3696.03,1705.01 L 3368.42,1709.23 L 3363.91,1703.29 L 3366.86,1697.25 L 3697.02,1692.99 Z " />
<path stroke="none" fill="#000000" transform="matrix(0.0666667 0 0 0.0666667 -177.333 -3.33333)" d="M 3706.89,1699.82 L 3700.11,1698.95 L 3697.02,1692.99 L 3858.23,1469.99 L 3865.7,1469.91 L 3868.1,1476.83 L 3706.89,1699.82 Z " />
<path stroke="none" fill="#000000" transform="matrix(0.0666667 0 0 0.0666667 -177.333 -3.33333)" d="M 3678.74,1651.93 L 3669.01,1644.9 L 3797.52,1467.13 L 3807.25,1474.16 L 3678.74,1651.93 Z " />
<path stroke="none" fill="#000000" transform="matrix(0.0666667 0 0 0.0666667 -177.333 -3.33333)" d="M 3276.38,2023.52 L 3269.42,2025.97 L 3264.51,2021.38 L 3357.3,1704.51 L 3363.91,1703.29 L 3368.42,1709.23 L 3276.38,2023.52 Z " />
<path stroke="none" fill="#000000" transform="matrix(0.0666667 0 0 0.0666667 -177.333 -3.33333)" d="M 3264.51,2021.38 L 3269.42,2025.97 L 3268.55,2032.68 L 3010.47,2128.05 L 3004.3,2123.93 L 3006.39,2116.76 L 3264.51,2021.38 Z " />
<path stroke="none" fill="#000000" transform="matrix(0.0666667 0 0 0.0666667 -177.333 -3.33333)" d="M 3259.99,2077.29 L 3264.15,2088.54 L 3058.65,2164.48 L 3054.49,2153.23 L 3259.99,2077.29 Z " />
<path stroke="none" fill="#000000" transform="matrix(0.0666667 0 0 0.0666667 -177.333 -3.33333)" d="M 3276.13,2590.61 L 3275.14,2597.28 L 3270.91,2601.63 L 3012.66,2416.13 L 3015.4,2410.72 L 3021.28,2407.55 L 3276.13,2590.61 L 3276.13,2590.61 Z " />
<path stroke="none" fill="#000000" transform="matrix(0.0666667 0 0 0.0666667 -177.333 -3.33333)" d="M 3238.03,2634.11 L 3231.03,2643.86 L 3007.49,2483.3 L 3013.96,2478.38 L 3005.26,2466.92 L 3238.03,2634.11 L 3238.03,2634.11 Z " />
<path stroke="none" fill="#000000" transform="matrix(0.0666667 0 0 0.0666667 -177.333 -3.33333)" d="M 3366.86,1697.25 L 3363.91,1703.29 L 3357.3,1704.51 L 3191.21,1485.75 L 3193.3,1478.58 L 3200.76,1478.49 L 3366.86,1697.25 Z " />
<path stroke="none" fill="#000000" transform="matrix(0.0666667 0 0 0.0666667 -177.333 -3.33333)" d="M 3312.75,1709.97 L 3303.2,1717.23 L 3170.83,1542.89 L 3180.38,1535.63 L 3312.75,1709.97 Z " />
<path stroke="none" fill="#000000" transform="matrix(0.0666667 0 0 0.0666667 -177.333 -3.33333)" d="M 3009.07,2402.34 L 3015.4,2410.72 L 3012.66,2416.13 L 2855.11,2364.65 L 2838.72,2352.98 L 2843.43,2348.21 L 3009.07,2402.34 Z " />
<path stroke="none" fill="#000000" transform="matrix(0.0666667 0 0 0.0666667 -177.333 -3.33333)" d="M 3231.42,2686.21 L 3225.92,2697 L 2941.14,2497.8 L 2949.56,2489.05 L 3231.42,2686.21 Z " />
<path stroke="none" fill="#000000" transform="matrix(0.0666667 0 0 0.0666667 -177.333 -3.33333)" d="M 4367.59,1830.28 L 4355.6,1832.56 L 4232.16,1515.34 L 4242.73,1509.43 L 4367.59,1830.28 Z " />
<path stroke="none" fill="#000000" transform="matrix(0.0666667 0 0 0.0666667 -177.333 -3.33333)" d="M 4242.22,1508.76 L 4232.67,1516.01 L 4138.85,1392.45 L 4130.81,1371.94 L 4135.59,1368.31 L 4242.22,1508.76 Z " />
<path stroke="none" fill="#000000" transform="matrix(0.0666667 0 0 0.0666667 -177.333 -3.33333)" d="M 4214.26,1524.41 L 4204.7,1531.67 L 4168.57,1484.08 L 4178.12,1476.82 L 4214.26,1524.41 Z " />
<path stroke="none" fill="#000000" transform="matrix(0.0666667 0 0 0.0666667 -177.333 -3.33333)" d="M 3006.39,2116.76 L 3004.3,2123.93 L 2998.38,2126.05 L 2826.95,1900.26 L 2826.58,1889.86 L 2833.25,1888.72 L 3006.39,2116.76 Z " />
<path stroke="none" fill="#000000" transform="matrix(0.0666667 0 0 0.0666667 -177.333 -3.33333)" d="M 4141.49,1542.34 L 4148.32,1550.53 L 4143.61,1555.43 L 3868.1,1476.83 L 3865.7,1469.91 L 3869.27,1464.69 L 4141.49,1542.34 Z " />
<path stroke="none" fill="#000000" transform="matrix(0.0666667 0 0 0.0666667 -177.333 -3.33333)" d="M 4154.3,1549.95 L 4148.32,1550.53 L 4141.49,1542.34 L 4125.1,1375.19 L 4130.81,1371.94 L 4138.85,1392.45 L 4154.3,1549.95 Z " />
<path stroke="none" fill="#000000" transform="matrix(0.0666667 0 0 0.0666667 -177.333 -3.33333)" d="M 2949.56,2489.05 L 2941.14,2497.8 L 2833.35,2355.83 L 2838.72,2352.98 L 2855.11,2364.65 L 2949.56,2489.05 Z " />
<path stroke="none" fill="#000000" transform="matrix(0.0666667 0 0 0.0666667 -177.333 -3.33333)" d="M 2972.4,2466.64 L 2962.84,2473.89 L 2920.67,2418.34 L 2930.22,2411.08 L 2972.4,2466.64 Z " />
<path stroke="none" fill="#000000" transform="matrix(0.0666667 0 0 0.0666667 -177.333 -3.33333)" d="M 2843.43,2348.21 L 2838.72,2352.98 L 2833.35,2355.83 L 2725.1,2037.37 L 2731.04,2036.2 L 2737.66,2037.03 L 2843.43,2348.21 Z " />
<path stroke="none" fill="#000000" transform="matrix(0.0666667 0 0 0.0666667 -177.333 -3.33333)" d="M 2735.92,2017.75 L 2731.04,2036.2 L 2725.05,2036.56 L 2714.58,1866.23 L 2726.7,1867.71 L 2735.92,2017.75 L 2735.92,2017.75 Z " />
<path stroke="none" fill="#000000" transform="matrix(0.0666667 0 0 0.0666667 -177.333 -3.33333)" d="M 2761.84,1942 L 2749.86,1942.74 L 2746.83,1893.49 L 2759.1,1897.46 L 2761.84,1942 L 2761.84,1942 Z " />
<path stroke="none" fill="#000000" transform="matrix(0.0666667 0 0 0.0666667 -177.333 -3.33333)" d="M 2737.66,2037.03 L 2731.04,2036.2 L 2735.92,2017.75 L 2821.56,1886.58 L 2826.58,1889.86 L 2826.95,1900.26 L 2737.66,2037.03 Z " />
<path stroke="none" fill="#000000" transform="matrix(0.0666667 0 0 0.0666667 -177.333 -3.33333)" d="M 3869.27,1464.69 L 3865.7,1469.91 L 3858.23,1469.99 L 3685.09,1241.96 L 3687.98,1235.83 L 3697.79,1238.83 L 3869.27,1464.69 Z " />
<path stroke="none" fill="#000000" transform="matrix(0.0666667 0 0 0.0666667 -177.333 -3.33333)" d="M 2726.7,1867.71 L 2714.58,1866.23 L 2819.08,1534.4 L 2829.91,1539.96 L 2726.7,1867.71 Z " />
<path stroke="none" fill="#000000" transform="matrix(0.0666667 0 0 0.0666667 -177.333 -3.33333)" d="M 4135.06,1367.62 L 4130.81,1371.94 L 4125.1,1375.19 L 3862.94,1182.7 L 3863.97,1176.01 L 3866.65,1170.54 L 4135.06,1367.62 Z " />
<path stroke="none" fill="#000000" transform="matrix(0.0666667 0 0 0.0666667 -177.333 -3.33333)" d="M 3866.65,1170.54 L 3863.97,1176.01 L 3843.85,1176.51 L 3692.74,1133.41 L 3694.39,1127.64 L 3697.46,1122.27 L 3866.65,1170.54 L 3866.65,1170.54 Z " />
<path stroke="none" fill="#000000" transform="matrix(0.0666667 0 0 0.0666667 -177.333 -3.33333)" d="M 3759.19,1172.89 L 3755.9,1184.43 L 3688.51,1165.2 L 3691.8,1153.67 L 3759.19,1172.89 L 3759.19,1172.89 Z " />
<path stroke="none" fill="#000000" transform="matrix(0.0666667 0 0 0.0666667 -177.333 -3.33333)" d="M 3843.85,1176.51 L 3863.97,1176.01 L 3862.94,1182.7 L 3697.79,1238.83 L 3687.98,1235.83 L 3686.86,1229.87 L 3843.85,1176.51 Z " />
<path stroke="none" fill="#000000" transform="matrix(0.0666667 0 0 0.0666667 -177.333 -3.33333)" d="M 2833.25,1888.72 L 2826.58,1889.86 L 2821.12,1887.24 L 2922.18,1575.61 L 2928.19,1576.54 L 2933,1581.16 L 2833.25,1888.72 L 2833.25,1888.72 Z " />
<path stroke="none" fill="#000000" transform="matrix(0.0666667 0 0 0.0666667 -177.333 -3.33333)" d="M 2778.33,1865.91 L 2766.91,1862.21 L 2853.39,1595.54 L 2857.15,1598.35 L 2871.15,1579.67 L 2778.33,1865.91 L 2778.33,1865.91 Z " />
<path stroke="none" fill="#000000" transform="matrix(0.0666667 0 0 0.0666667 -177.333 -3.33333)" d="M 2933,1581.16 L 2928.19,1576.54 L 2934.13,1567.95 L 3189.5,1473.58 L 3193.3,1478.58 L 3191.21,1485.75 L 2933,1581.16 Z " />
<path stroke="none" fill="#000000" transform="matrix(0.0666667 0 0 0.0666667 -177.333 -3.33333)" d="M 2934.13,1567.95 L 2928.19,1576.54 L 2922.18,1575.61 L 2921.25,1418.08 L 2927.14,1400.21 L 2933.16,1403.17 L 2934.13,1567.95 Z " />
<path stroke="none" fill="#000000" transform="matrix(0.0666667 0 0 0.0666667 -177.333 -3.33333)" d="M 3679.6,1121.83 L 3694.39,1127.64 L 3693.59,1133.65 L 3359.35,1137.96 L 3358.19,1131.97 L 3369.67,1125.82 L 3679.6,1121.83 Z " />
<path stroke="none" fill="#000000" transform="matrix(0.0666667 0 0 0.0666667 -177.333 -3.33333)" d="M 3354.29,1127.05 L 3358.19,1131.97 L 3359.35,1137.96 L 3216.06,1193.72 L 3198.67,1194.05 L 3196.5,1188.45 L 3354.29,1127.05 L 3354.29,1127.05 Z " />
<path stroke="none" fill="#000000" transform="matrix(0.0666667 0 0 0.0666667 -177.333 -3.33333)" d="M 3361.99,1157.12 L 3366.34,1168.3 L 3290.14,1197.95 L 3285.78,1186.77 L 3361.99,1157.12 L 3361.99,1157.12 Z " />
<path stroke="none" fill="#000000" transform="matrix(0.0666667 0 0 0.0666667 -177.333 -3.33333)" d="M 2829.91,1539.96 L 2819.08,1534.4 L 2922.34,1396.61 L 2927.14,1400.21 L 2921.25,1418.08 L 2829.91,1539.96 Z " />
<path stroke="none" fill="#000000" transform="matrix(0.0666667 0 0 0.0666667 -177.333 -3.33333)" d="M 2857.11,1555.05 L 2847.51,1547.85 L 2892.07,1488.38 L 2901.68,1495.58 L 2857.11,1555.05 Z " />
<path stroke="none" fill="#000000" transform="matrix(0.0666667 0 0 0.0666667 -177.333 -3.33333)" d="M 3686.86,1229.87 L 3687.98,1235.83 L 3685.09,1241.96 L 3362.04,1255.4 L 3358.88,1249.53 L 3359.77,1243.49 L 3686.86,1229.87 Z " />
<path stroke="none" fill="#000000" transform="matrix(0.0666667 0 0 0.0666667 -177.333 -3.33333)" d="M 3659.24,1290.36 L 3659.74,1302.35 L 3390.33,1313.56 L 3389.83,1301.58 L 3659.24,1290.36 Z " />
<path stroke="none" fill="#000000" transform="matrix(0.0666667 0 0 0.0666667 -177.333 -3.33333)" d="M 3200.76,1478.49 L 3193.3,1478.58 L 3189.5,1473.58 L 3349.29,1252.56 L 3358.88,1249.53 L 3362.04,1255.4 L 3200.76,1478.49 Z " />
<path stroke="none" fill="#000000" transform="matrix(0.0666667 0 0 0.0666667 -177.333 -3.33333)" d="M 2933.16,1403.17 L 2927.14,1400.21 L 2922.85,1395.93 L 3195.71,1188.76 L 3198.67,1194.05 L 3199.74,1200.77 L 2933.16,1403.17 Z " />
<path stroke="none" fill="#000000" transform="matrix(0.0666667 0 0 0.0666667 -177.333 -3.33333)" d="M 3359.77,1243.49 L 3358.88,1249.53 L 3349.29,1252.56 L 3199.74,1200.77 L 3198.67,1194.05 L 3216.06,1193.72 L 3359.77,1243.49 Z " />
<path stroke="none" fill="#000000" transform="matrix(0.0666667 0 0 0.0666667 -177.333 -3.33333)" d="M 3021.28,2407.55 L 3015.4,2410.72 L 3009.07,2402.34 L 2998.38,2126.05 L 3004.3,2123.93 L 3010.47,2128.05 L 3021.28,2407.55 Z " />
<path stroke="none" fill="#000000" transform="matrix(0.0666667 0 0 0.0666667 -177.333 -3.33333)" d="M 4254.28,1855.13 L 4248.89,1857.95 L 4242.28,1857.05 L 4143.61,1555.43 L 4148.32,1550.53 L 4154.23,1549.29 L 4254.28,1855.13 Z " />
<path stroke="none" fill="#000000" transform="matrix(0.0666667 0 0 0.0666667 -177.333 -3.33333)" d="M 4190.48,1847.36 L 4179.08,1851.09 L 4096.9,1599.9 L 4108.31,1596.17 L 4190.48,1847.36 Z " />
<path stroke="none" fill="#000000" transform="matrix(0.0666667 0 0 0.0666667 -177.333 -3.33333)" d="M 3485.65,935.179 L 3492.73,935.451 L 3493.7,944.66 L 3369.67,1125.82 L 3358.19,1131.97 L 3354.29,1127.05 L 3485.65,935.179 Z " />
<path stroke="none" fill="#000000" transform="matrix(0.0666667 0 0 0.0666667 -177.333 -3.33333)" d="M 3493.7,944.66 L 3492.73,935.451 L 3500.29,934.364 L 3697.46,1122.27 L 3694.39,1127.64 L 3679.6,1121.83 L 3493.7,944.66 Z " />
</svg>
