<?xml version='1.0' encoding='UTF-8'?>
<!DOCTYPE svg PUBLIC "-//W3C//DTD SVG 1.1//EN" "http://www.w3.org/Graphics/SVG/1.1/DTD/svg11.dtd">
<svg xmlns="http://www.w3.org/2000/svg" xmlns:xlink="http://www.w3.org/1999/xlink" width="360px" height="253px" viewBox="0 0 360 253" style="background-color: #ffffff00" version="1.1">
  <style>:root {
  --c: #000000;
  --n: #2144d9;
  --o: #ff0d0d;
  --s: #e1e100;
  --p: #ff8000;
  --f: #90e000;
  --cl: #00e000;
  --br: #a52a2a;
  --i: #940094;
  --bonds: #000000;
}
@media (prefers-color-scheme: dark) {
:root {
  --c: #e0e0e0;
  --n: #8fa3ff;
  --o: #ff6666;
  --s: #ffff00;
  --p: #ffb366;
  --f: #c3ff00;
  --cl: #66ff66;
  --br: #d47878;
  --i: #d478d4;
  --bonds: #ffffff;
}}</style>
  <text x="0" y="0" stroke="none" fill="var(--n)" transform="matrix(0.0666667 0 0 0.0666667 159.474 73.4966)" font-style="normal" font-weight="normal" font-size="200px" font-family="Arial">
        N</text>
  <text x="0" y="0" stroke="none" fill="var(--n)" transform="matrix(0.0666667 0 0 0.0666667 190.324 73.4966)" font-style="normal" font-weight="normal" font-size="200px" font-family="Arial">
        N</text>
  <text x="0" y="0" stroke="none" fill="var(--n)" transform="matrix(0.0666667 0 0 0.0666667 174.899 62.2895)" font-style="normal" font-weight="normal" font-size="200px" font-family="Arial">
        N</text>
  <path stroke="none" fill="var(--bonds)" transform="matrix(0.0666667 0 0 0.0666667 -155.467 -40)" d="M 4828.51,1742.93 L 4839.92,1739.22 L 4889.06,1890.45 L 4884.7,1896.45 L 4878.17,1895.76 L 4828.51,1742.93 Z "/>
  <path stroke="none" fill="var(--bonds)" transform="matrix(0.0666667 0 0 0.0666667 -155.467 -40)" d="M 4877.47,1727.02 L 4888.88,1723.31 L 4927.81,1843.12 L 4916.4,1846.82 L 4877.47,1727.02 Z "/>
  <path stroke="none" fill="var(--bonds)" transform="matrix(0.0666667 0 0 0.0666667 -155.467 -40)" d="M 4888.17,1902.45 L 4884.7,1896.45 L 4889.06,1890.45 L 5166.34,1890.45 L 5170.7,1896.45 L 5167.24,1902.45 L 4888.17,1902.45 Z "/>
  <path stroke="none" fill="var(--bonds)" transform="matrix(0.0666667 0 0 0.0666667 -155.467 -40)" d="M 5177.23,1895.76 L 5170.7,1896.45 L 5166.34,1890.45 L 5215.44,1739.35 L 5226.85,1743.06 L 5177.23,1895.76 Z "/>
  <path stroke="none" fill="var(--bonds)" transform="matrix(0.0666667 0 0 0.0666667 -155.467 -40)" d="M 5139.01,1846.82 L 5127.59,1843.12 L 5166.48,1723.44 L 5177.89,1727.15 L 5139.01,1846.82 Z "/>
  <path stroke="none" fill="var(--bonds)" transform="matrix(0.0666667 0 0 0.0666667 -155.467 -40)" d="M 5170.05,1552.34 L 5162.99,1562.05 L 5123.27,1533.19 L 5130.32,1523.48 L 5170.05,1552.34 Z "/>
  <path stroke="none" fill="var(--bonds)" transform="matrix(0.0666667 0 0 0.0666667 -155.467 -40)" d="M 4924.8,1523.69 L 4931.85,1533.4 L 4892.13,1562.26 L 4885.07,1552.55 L 4924.8,1523.69 Z "/>
  <path stroke="none" fill="var(--bonds)" transform="matrix(0.0666667 0 0 0.0666667 -155.467 -40)" d="M 4878.17,1895.76 L 4884.7,1896.45 L 4888.17,1902.45 L 4748.63,2144.13 L 4741.7,2144.13 L 4737.84,2138.82 L 4878.17,1895.76 Z "/>
  <path stroke="none" fill="var(--bonds)" transform="matrix(0.0666667 0 0 0.0666667 -155.467 -40)" d="M 4738.69,2150.91 L 4741.7,2144.13 L 4748.63,2144.13 L 4888.17,2385.82 L 4884.7,2391.82 L 4877.33,2391.04 L 4738.69,2150.91 Z "/>
  <path stroke="none" fill="var(--bonds)" transform="matrix(0.0666667 0 0 0.0666667 -155.467 -40)" d="M 4795.95,2147.13 L 4806.34,2141.13 L 4919.62,2337.34 L 4909.23,2343.34 L 4795.95,2147.13 Z "/>
  <path stroke="none" fill="var(--bonds)" transform="matrix(0.0666667 0 0 0.0666667 -155.467 -40)" d="M 4887.37,2397.82 L 4884.7,2391.82 L 4888.17,2385.82 L 5167.24,2385.82 L 5170.7,2391.82 L 5168.03,2397.82 L 4887.37,2397.82 Z "/>
  <path stroke="none" fill="var(--bonds)" transform="matrix(0.0666667 0 0 0.0666667 -155.467 -40)" d="M 5178.08,2391.04 L 5170.7,2391.82 L 5167.24,2385.82 L 5306.77,2144.13 L 5313.7,2144.13 L 5316.72,2150.91 L 5178.08,2391.04 Z "/>
  <path stroke="none" fill="var(--bonds)" transform="matrix(0.0666667 0 0 0.0666667 -155.467 -40)" d="M 5146.18,2343.34 L 5135.78,2337.34 L 5249.06,2141.13 L 5259.45,2147.13 L 5146.18,2343.34 Z "/>
  <path stroke="none" fill="var(--bonds)" transform="matrix(0.0666667 0 0 0.0666667 -155.467 -40)" d="M 5317.56,2138.82 L 5313.7,2144.13 L 5306.77,2144.13 L 5167.24,1902.45 L 5170.7,1896.45 L 5177.23,1895.76 L 5317.56,2138.82 Z "/>
  <text x="0" y="0" stroke="none" fill="var(--n)" transform="matrix(0.0666667 0 0 0.0666667 152.608 138.824)" font-style="normal" font-weight="normal" font-size="200px" font-family="Arial">
        N</text>
  <path stroke="none" fill="var(--bonds)" transform="matrix(0.0666667 0 0 0.0666667 -155.467 -40)" d="M 4737.84,2138.82 L 4741.7,2144.13 L 4738.69,2150.91 L 4467.46,2208.56 L 4461.95,2203.6 L 4462.61,2197.32 L 4737.84,2138.82 Z "/>
  <path stroke="none" fill="var(--bonds)" transform="matrix(0.0666667 0 0 0.0666667 -155.467 -40)" d="M 4455.53,2207.31 L 4461.95,2203.6 L 4467.46,2208.56 L 4438.48,2484.32 L 4432.06,2488.03 L 4426.55,2483.07 L 4455.53,2207.31 Z "/>
  <path stroke="none" fill="var(--bonds)" transform="matrix(0.0666667 0 0 0.0666667 -155.467 -40)" d="M 4400.88,2234.79 L 4412.81,2236.04 L 4390.74,2446.08 L 4378.8,2444.82 L 4400.88,2234.79 Z "/>
  <path stroke="none" fill="var(--bonds)" transform="matrix(0.0666667 0 0 0.0666667 -155.467 -40)" d="M 4431.4,2494.3 L 4432.06,2488.03 L 4438.48,2484.32 L 4596.27,2554.58 L 4591.39,2565.54 L 4431.4,2494.3 Z "/>
  <path stroke="none" fill="var(--bonds)" transform="matrix(0.0666667 0 0 0.0666667 -155.467 -40)" d="M 4775.42,2522.15 L 4766.5,2514.12 L 4877.33,2391.04 L 4884.7,2391.82 L 4887.37,2397.82 L 4775.42,2522.15 Z "/>
  <text x="0" y="0" stroke="none" fill="var(--n)" transform="matrix(0.0666667 0 0 0.0666667 197.19 138.824)" font-style="normal" font-weight="normal" font-size="200px" font-family="Arial">
        N</text>
  <path stroke="none" fill="var(--bonds)" transform="matrix(0.0666667 0 0 0.0666667 -155.467 -40)" d="M 5168.03,2397.82 L 5170.7,2391.82 L 5178.08,2391.04 L 5288.71,2513.91 L 5279.79,2521.94 L 5168.03,2397.82 Z "/>
  <path stroke="none" fill="var(--bonds)" transform="matrix(0.0666667 0 0 0.0666667 -155.467 -40)" d="M 5463.65,2565.7 L 5458.77,2554.74 L 5616.92,2484.32 L 5623.35,2488.03 L 5624.01,2494.3 L 5463.65,2565.7 Z "/>
  <path stroke="none" fill="var(--bonds)" transform="matrix(0.0666667 0 0 0.0666667 -155.467 -40)" d="M 5628.86,2483.07 L 5623.35,2488.03 L 5616.92,2484.32 L 5587.94,2208.56 L 5593.45,2203.6 L 5599.88,2207.31 L 5628.86,2483.07 Z "/>
  <path stroke="none" fill="var(--bonds)" transform="matrix(0.0666667 0 0 0.0666667 -155.467 -40)" d="M 5676.6,2444.82 L 5664.67,2446.08 L 5642.59,2236.04 L 5654.53,2234.79 L 5676.6,2444.82 Z "/>
  <path stroke="none" fill="var(--bonds)" transform="matrix(0.0666667 0 0 0.0666667 -155.467 -40)" d="M 5592.79,2197.32 L 5593.45,2203.6 L 5587.94,2208.56 L 5316.72,2150.91 L 5313.7,2144.13 L 5317.56,2138.82 L 5592.79,2197.32 Z "/>
  <text x="0" y="0" stroke="none" fill="var(--s)" transform="matrix(0.0666667 0 0 0.0666667 120.132 104.351)" font-style="normal" font-weight="normal" font-size="200px" font-family="Arial">
        S</text>
  <path stroke="none" fill="var(--bonds)" transform="matrix(0.0666667 0 0 0.0666667 -155.467 -40)" d="M 4462.61,2197.32 L 4461.95,2203.6 L 4455.53,2207.31 L 4291.96,2134.48 L 4296.84,2123.52 L 4462.61,2197.32 Z "/>
  <path stroke="none" fill="var(--bonds)" transform="matrix(0.0666667 0 0 0.0666667 -155.467 -40)" d="M 4121.86,2165.84 L 4130.78,2173.87 L 4016.68,2300.58 L 4009.31,2299.81 L 4006.15,2294.35 L 4121.86,2165.84 Z "/>
  <path stroke="none" fill="var(--bonds)" transform="matrix(0.0666667 0 0 0.0666667 -155.467 -40)" d="M 4006.29,2306.58 L 4009.31,2299.81 L 4016.68,2300.58 L 4155.32,2540.72 L 4152.31,2547.49 L 4144.93,2546.72 L 4006.29,2306.58 Z "/>
  <path stroke="none" fill="var(--bonds)" transform="matrix(0.0666667 0 0 0.0666667 -155.467 -40)" d="M 4067.39,2309.46 L 4077.79,2303.46 L 4183.38,2486.36 L 4172.99,2492.36 L 4067.39,2309.46 Z "/>
  <path stroke="none" fill="var(--bonds)" transform="matrix(0.0666667 0 0 0.0666667 -155.467 -40)" d="M 4155.46,2552.96 L 4152.31,2547.49 L 4155.32,2540.72 L 4426.55,2483.07 L 4432.06,2488.03 L 4431.4,2494.3 L 4155.46,2552.96 Z "/>
  <text x="0" y="0" stroke="none" fill="var(--s)" transform="matrix(0.0666667 0 0 0.0666667 104.149 149.202)" font-style="normal" font-weight="normal" font-size="200px" font-family="Arial">
        S</text>
  <path stroke="none" fill="var(--bonds)" transform="matrix(0.0666667 0 0 0.0666667 -155.467 -40)" d="M 4006.15,2294.35 L 4009.31,2299.81 L 4006.29,2306.58 L 3735.07,2364.23 L 3729.56,2359.27 L 3731.3,2352.77 L 4006.15,2294.35 Z "/>
  <path stroke="none" fill="var(--bonds)" transform="matrix(0.0666667 0 0 0.0666667 -155.467 -40)" d="M 3723.27,2361.69 L 3729.56,2359.27 L 3735.07,2364.23 L 3706.08,2640 L 3699.66,2643.71 L 3694.01,2640.04 L 3723.27,2361.69 Z "/>
  <path stroke="none" fill="var(--bonds)" transform="matrix(0.0666667 0 0 0.0666667 -155.467 -40)" d="M 3770.88,2401.22 L 3782.81,2402.48 L 3760.74,2612.52 L 3748.8,2611.26 L 3770.88,2401.22 Z "/>
  <path stroke="none" fill="var(--bonds)" transform="matrix(0.0666667 0 0 0.0666667 -155.467 -40)" d="M 3700.01,2650.43 L 3699.66,2643.71 L 3706.08,2640 L 3878.2,2716.63 L 3873.32,2727.59 L 3700.01,2650.43 Z "/>
  <path stroke="none" fill="var(--bonds)" transform="matrix(0.0666667 0 0 0.0666667 -155.467 -40)" d="M 4030.04,2692.25 L 4021.13,2684.22 L 4144.93,2546.72 L 4152.31,2547.49 L 4155.46,2552.96 L 4030.04,2692.25 Z "/>
  <text x="0" y="0" stroke="none" fill="var(--s)" transform="matrix(0.0666667 0 0 0.0666667 230.402 104.351)" font-style="normal" font-weight="normal" font-size="200px" font-family="Arial">
        S</text>
  <path stroke="none" fill="var(--bonds)" transform="matrix(0.0666667 0 0 0.0666667 -155.467 -40)" d="M 5624.01,2494.3 L 5623.35,2488.03 L 5628.86,2483.07 L 5900.08,2540.72 L 5903.1,2547.49 L 5899.94,2552.96 L 5624.01,2494.3 Z "/>
  <path stroke="none" fill="var(--bonds)" transform="matrix(0.0666667 0 0 0.0666667 -155.467 -40)" d="M 5910.47,2546.72 L 5903.1,2547.49 L 5900.08,2540.72 L 6038.72,2300.58 L 6046.1,2299.81 L 6049.11,2306.58 L 5910.47,2546.72 Z "/>
  <path stroke="none" fill="var(--bonds)" transform="matrix(0.0666667 0 0 0.0666667 -155.467 -40)" d="M 5882.41,2492.36 L 5872.02,2486.36 L 5977.62,2303.46 L 5988.01,2309.46 L 5882.41,2492.36 Z "/>
  <path stroke="none" fill="var(--bonds)" transform="matrix(0.0666667 0 0 0.0666667 -155.467 -40)" d="M 6049.25,2294.35 L 6046.1,2299.81 L 6038.72,2300.58 L 5925,2174.28 L 5933.91,2166.25 L 6049.25,2294.35 Z "/>
  <path stroke="none" fill="var(--bonds)" transform="matrix(0.0666667 0 0 0.0666667 -155.467 -40)" d="M 5758.89,2123.37 L 5763.77,2134.34 L 5599.88,2207.31 L 5593.45,2203.6 L 5592.79,2197.32 L 5758.89,2123.37 Z "/>
  <text x="0" y="0" stroke="none" fill="var(--s)" transform="matrix(0.0666667 0 0 0.0666667 246.385 149.202)" font-style="normal" font-weight="normal" font-size="200px" font-family="Arial">
        S</text>
  <path stroke="none" fill="var(--bonds)" transform="matrix(0.0666667 0 0 0.0666667 -155.467 -40)" d="M 5899.94,2552.96 L 5903.1,2547.49 L 5910.47,2546.72 L 6033.25,2683.08 L 6024.34,2691.11 L 5899.94,2552.96 Z "/>
  <path stroke="none" fill="var(--bonds)" transform="matrix(0.0666667 0 0 0.0666667 -155.467 -40)" d="M 6180.73,2728.2 L 6175.85,2717.23 L 6349.32,2640 L 6355.74,2643.71 L 6355.39,2650.43 L 6180.73,2728.2 Z "/>
  <path stroke="none" fill="var(--bonds)" transform="matrix(0.0666667 0 0 0.0666667 -155.467 -40)" d="M 6361.39,2640.04 L 6355.74,2643.71 L 6349.32,2640 L 6320.34,2364.23 L 6325.85,2359.27 L 6332.13,2361.69 L 6361.39,2640.04 Z "/>
  <path stroke="none" fill="var(--bonds)" transform="matrix(0.0666667 0 0 0.0666667 -155.467 -40)" d="M 6306.6,2611.26 L 6294.67,2612.52 L 6272.59,2402.48 L 6284.53,2401.22 L 6306.6,2611.26 Z "/>
  <path stroke="none" fill="var(--bonds)" transform="matrix(0.0666667 0 0 0.0666667 -155.467 -40)" d="M 6324.11,2352.77 L 6325.85,2359.27 L 6320.34,2364.23 L 6049.11,2306.58 L 6046.1,2299.81 L 6049.25,2294.35 L 6324.11,2352.77 Z "/>
  <path stroke="none" fill="var(--bonds)" transform="matrix(0.0666667 0 0 0.0666667 -155.467 -40)" d="M 3694.01,2640.04 L 3699.66,2643.71 L 3700.01,2650.43 L 3456.91,2790.79 L 3447.05,2782.63 L 3694.01,2640.04 Z "/>
  <path stroke="none" fill="var(--bonds)" transform="matrix(0.0666667 0 0 0.0666667 -155.467 -40)" d="M 3447.05,2782.63 L 3456.91,2790.79 L 3364.58,3055.88 L 3357.91,3056.79 L 3353.25,3051.93 L 3447.05,2782.63 Z "/>
  <path stroke="none" fill="var(--bonds)" transform="matrix(0.0666667 0 0 0.0666667 -155.467 -40)" d="M 3488.63,2819.74 L 3499.96,2823.69 L 3420.82,3050.93 L 3409.48,3046.98 L 3488.63,2819.74 Z "/>
  <path stroke="none" fill="var(--bonds)" transform="matrix(0.0666667 0 0 0.0666667 -155.467 -40)" d="M 6355.39,2650.43 L 6355.74,2643.71 L 6361.39,2640.04 L 6608.31,2782.6 L 6598.55,2790.82 L 6355.39,2650.43 Z "/>
  <path stroke="none" fill="var(--bonds)" transform="matrix(0.0666667 0 0 0.0666667 -155.467 -40)" d="M 6598.55,2790.82 L 6608.31,2782.6 L 6706.82,3050.15 L 6702.25,3055.09 L 6695.56,3054.3 L 6598.55,2790.82 Z "/>
  <path stroke="none" fill="var(--bonds)" transform="matrix(0.0666667 0 0 0.0666667 -155.467 -40)" d="M 6555.92,2824.05 L 6567.18,2819.9 L 6650.5,3046.19 L 6639.24,3050.34 L 6555.92,2824.05 Z "/>
  <path stroke="none" fill="var(--bonds)" transform="matrix(0.0666667 0 0 0.0666667 -155.467 -40)" d="M 3353.25,3051.93 L 3357.91,3056.79 L 3355.47,3063.8 L 3090.01,3143.92 L 3084.11,3139.44 L 3085.3,3132.81 L 3353.25,3051.93 Z "/>
  <path stroke="none" fill="var(--bonds)" transform="matrix(0.0666667 0 0 0.0666667 -155.467 -40)" d="M 3078.04,3142.37 L 3084.11,3139.44 L 3090.01,3143.92 L 3084.19,3421.14 L 3078.1,3425.38 L 3072.16,3422.58 L 3078.04,3142.37 Z "/>
  <path stroke="none" fill="var(--bonds)" transform="matrix(0.0666667 0 0 0.0666667 -155.467 -40)" d="M 3079.4,3432.18 L 3078.1,3425.38 L 3084.19,3421.14 L 3346.04,3512.35 L 3348.19,3519.45 L 3342.94,3523.97 L 3079.4,3432.18 Z "/>
  <path stroke="none" fill="var(--bonds)" transform="matrix(0.0666667 0 0 0.0666667 -155.467 -40)" d="M 3354.58,3520.95 L 3348.19,3519.45 L 3346.04,3512.35 L 3513.7,3291.49 L 3528.53,3291.81 L 3354.58,3520.95 Z "/>
  <path stroke="none" fill="var(--bonds)" transform="matrix(0.0666667 0 0 0.0666667 -155.467 -40)" d="M 3528.53,3291.81 L 3513.7,3291.49 L 3355.47,3063.8 L 3357.91,3056.79 L 3364.58,3055.88 L 3528.53,3291.81 Z "/>
  <path stroke="none" fill="var(--bonds)" transform="matrix(0.0666667 0 0 0.0666667 -155.467 -40)" d="M 6695.56,3054.3 L 6702.25,3055.09 L 6704.81,3062.05 L 6550.61,3292.5 L 6535.79,3293.08 L 6695.56,3054.3 Z "/>
  <path stroke="none" fill="var(--bonds)" transform="matrix(0.0666667 0 0 0.0666667 -155.467 -40)" d="M 6535.79,3293.08 L 6550.61,3292.5 L 6722.14,3510.37 L 6720.12,3517.5 L 6713.75,3519.12 L 6535.79,3293.08 Z "/>
  <path stroke="none" fill="var(--bonds)" transform="matrix(0.0666667 0 0 0.0666667 -155.467 -40)" d="M 6725.44,3521.94 L 6720.12,3517.5 L 6722.14,3510.37 L 6982.34,3414.56 L 6988.5,3418.68 L 6987.33,3425.51 L 6725.44,3521.94 Z "/>
  <path stroke="none" fill="var(--bonds)" transform="matrix(0.0666667 0 0 0.0666667 -155.467 -40)" d="M 6994.4,3415.78 L 6988.5,3418.68 L 6982.34,3414.56 L 6971.63,3137.49 L 6977.46,3132.9 L 6983.57,3135.72 L 6994.4,3415.78 Z "/>
  <path stroke="none" fill="var(--bonds)" transform="matrix(0.0666667 0 0 0.0666667 -155.467 -40)" d="M 6976.15,3126.29 L 6977.46,3132.9 L 6971.63,3137.49 L 6704.81,3062.05 L 6702.25,3055.09 L 6706.82,3050.15 L 6976.15,3126.29 Z "/>
  <path stroke="none" fill="var(--bonds)" transform="matrix(0.0666667 0 0 0.0666667 -155.467 -40)" d="M 3072.16,3422.58 L 3078.1,3425.38 L 3079.4,3432.18 L 2868.13,3614.52 L 2855.05,3609.96 L 3072.16,3422.58 Z "/>
  <path stroke="none" fill="var(--bonds)" transform="matrix(0.0666667 0 0 0.0666667 -155.467 -40)" d="M 3085.32,3479.22 L 3093.16,3488.31 L 2921.65,3636.34 L 2913.81,3627.25 L 3085.32,3479.22 Z "/>
  <path stroke="none" fill="var(--bonds)" transform="matrix(0.0666667 0 0 0.0666667 -155.467 -40)" d="M 2855.05,3609.96 L 2868.13,3614.52 L 2920.41,3888.65 L 2915.16,3893.18 L 2908.62,3890.9 L 2855.05,3609.96 Z "/>
  <path stroke="none" fill="var(--bonds)" transform="matrix(0.0666667 0 0 0.0666667 -155.467 -40)" d="M 2916.46,3899.98 L 2915.16,3893.18 L 2920.41,3888.65 L 3183.95,3980.44 L 3185.25,3987.25 L 3180,3991.78 L 2916.46,3899.98 Z "/>
  <path stroke="none" fill="var(--bonds)" transform="matrix(0.0666667 0 0 0.0666667 -155.467 -40)" d="M 2958.19,3860 L 2962.14,3848.67 L 3176.09,3923.19 L 3172.14,3934.52 L 2958.19,3860 Z "/>
  <path stroke="none" fill="var(--bonds)" transform="matrix(0.0666667 0 0 0.0666667 -155.467 -40)" d="M 3191.79,3989.53 L 3185.25,3987.25 L 3183.95,3980.44 L 3395.22,3798.11 L 3408.3,3802.66 L 3191.79,3989.53 Z "/>
  <path stroke="none" fill="var(--bonds)" transform="matrix(0.0666667 0 0 0.0666667 -155.467 -40)" d="M 3408.3,3802.66 L 3395.22,3798.11 L 3342.94,3523.97 L 3348.19,3519.45 L 3354.58,3520.95 L 3408.3,3802.66 Z "/>
  <path stroke="none" fill="var(--bonds)" transform="matrix(0.0666667 0 0 0.0666667 -155.467 -40)" d="M 3351.52,3779.71 L 3339.73,3781.96 L 3297.29,3559.41 L 3309.08,3557.16 L 3351.52,3779.71 Z "/>
  <path stroke="none" fill="var(--bonds)" transform="matrix(0.0666667 0 0 0.0666667 -155.467 -40)" d="M 6713.75,3519.12 L 6720.12,3517.5 L 6725.44,3521.94 L 6678.01,3796.95 L 6665,3801.74 L 6713.75,3519.12 Z "/>
  <path stroke="none" fill="var(--bonds)" transform="matrix(0.0666667 0 0 0.0666667 -155.467 -40)" d="M 6759.89,3554.52 L 6771.71,3556.56 L 6733.2,3779.82 L 6721.38,3777.78 L 6759.89,3554.52 Z "/>
  <path stroke="none" fill="var(--bonds)" transform="matrix(0.0666667 0 0 0.0666667 -155.467 -40)" d="M 6665,3801.74 L 6678.01,3796.95 L 6892.46,3975.53 L 6891.28,3982.36 L 6884.78,3984.75 L 6665,3801.74 Z "/>
  <path stroke="none" fill="var(--bonds)" transform="matrix(0.0666667 0 0 0.0666667 -155.467 -40)" d="M 6896.6,3986.79 L 6891.28,3982.36 L 6892.46,3975.53 L 7154.34,3879.11 L 7159.66,3883.54 L 7158.49,3890.37 L 6896.6,3986.79 Z "/>
  <path stroke="none" fill="var(--bonds)" transform="matrix(0.0666667 0 0 0.0666667 -155.467 -40)" d="M 6903.46,3929.41 L 6899.31,3918.15 L 7111.91,3839.87 L 7116.06,3851.13 L 6903.46,3929.41 Z "/>
  <path stroke="none" fill="var(--bonds)" transform="matrix(0.0666667 0 0 0.0666667 -155.467 -40)" d="M 7166.17,3881.15 L 7159.66,3883.54 L 7154.34,3879.11 L 7201.78,3604.1 L 7214.78,3599.31 L 7166.17,3881.15 Z "/>
  <path stroke="none" fill="var(--bonds)" transform="matrix(0.0666667 0 0 0.0666667 -155.467 -40)" d="M 7214.78,3599.31 L 7201.78,3604.1 L 6987.33,3425.51 L 6988.5,3418.68 L 6994.4,3415.78 L 7214.78,3599.31 Z "/>
  <path stroke="none" fill="var(--bonds)" transform="matrix(0.0666667 0 0 0.0666667 -155.467 -40)" d="M 7156.33,3617.63 L 7148.65,3626.85 L 6974.56,3481.87 L 6982.24,3472.65 L 7156.33,3617.63 Z "/>
  <text x="0" y="0" stroke="none" fill="var(--f)" transform="matrix(0.0666667 0 0 0.0666667 56.3827 249.746)" font-style="normal" font-weight="normal" font-size="200px" font-family="Arial">
        F</text>
  <path stroke="none" fill="var(--bonds)" transform="matrix(0.0666667 0 0 0.0666667 -155.467 -40)" d="M 3180,3991.78 L 3185.25,3987.25 L 3191.79,3989.53 L 3225.61,4166.89 L 3213.83,4169.14 L 3180,3991.78 Z "/>
  <text x="0" y="0" stroke="none" fill="var(--f)" transform="matrix(0.0666667 0 0 0.0666667 20.3712 237.203)" font-style="normal" font-weight="normal" font-size="200px" font-family="Arial">
        F</text>
  <path stroke="none" fill="var(--bonds)" transform="matrix(0.0666667 0 0 0.0666667 -155.467 -40)" d="M 2908.62,3890.9 L 2915.16,3893.18 L 2916.46,3899.98 L 2787.06,4011.67 L 2779.22,4002.59 L 2908.62,3890.9 Z "/>
  <text x="0" y="0" stroke="none" fill="var(--f)" transform="matrix(0.0666667 0 0 0.0666667 296.639 249.48)" font-style="normal" font-weight="normal" font-size="200px" font-family="Arial">
        F</text>
  <path stroke="none" fill="var(--bonds)" transform="matrix(0.0666667 0 0 0.0666667 -155.467 -40)" d="M 6884.78,3984.75 L 6891.28,3982.36 L 6896.6,3986.79 L 6864.54,4172.67 L 6852.72,4170.63 L 6884.78,3984.75 Z "/>
  <text x="0" y="0" stroke="none" fill="var(--f)" transform="matrix(0.0666667 0 0 0.0666667 332.423 236.304)" font-style="normal" font-weight="normal" font-size="200px" font-family="Arial">
        F</text>
  <path stroke="none" fill="var(--bonds)" transform="matrix(0.0666667 0 0 0.0666667 -155.467 -40)" d="M 7158.49,3890.37 L 7159.66,3883.54 L 7166.17,3881.15 L 7301.76,3994.06 L 7294.08,4003.29 L 7158.49,3890.37 Z "/>
  <path stroke="none" fill="var(--bonds)" transform="matrix(0.0666667 0 0 0.0666667 -155.467 -40)" d="M 4712.18,2721.88 L 4723.91,2719.38 L 4759.34,2886.05 L 4746.25,2882.17 L 4712.18,2721.88 Z "/>
  <path stroke="none" fill="var(--bonds)" transform="matrix(0.0666667 0 0 0.0666667 -155.467 -40)" d="M 5331.47,2719.47 L 5343.21,2721.97 L 5309.16,2882.17 L 5296.06,2886.05 L 5331.47,2719.47 Z "/>
  <path stroke="none" fill="var(--bonds)" transform="matrix(0.0666667 0 0 0.0666667 -155.467 -40)" d="M 4746.25,2882.17 L 4759.34,2886.05 L 4557.25,3088.13 L 4550.56,3086.34 L 4548.77,3079.65 L 4746.25,2882.17 Z "/>
  <path stroke="none" fill="var(--bonds)" transform="matrix(0.0666667 0 0 0.0666667 -155.467 -40)" d="M 5296.06,2886.05 L 5309.16,2882.17 L 5506.64,3079.65 L 5504.84,3086.34 L 5498.15,3088.13 L 5296.06,2886.05 Z "/>
  <text x="0" y="0" stroke="none" fill="var(--c)" transform="matrix(0.0666667 0 0 0.0666667 148.024 189.373)" font-style="normal" font-weight="normal" font-size="200px" font-family="Arial">
        C</text>
  <text x="0" y="0" stroke="none" fill="var(--c)" transform="matrix(0.0666667 0 0 0.0666667 157.653 192.306)" font-style="normal" font-weight="normal" font-size="150px" font-family="Arial">
        4</text>
  <text x="0" y="0" stroke="none" fill="#000000" transform="matrix(0.0666667 0 0 0.0666667 163.215 189.373)" font-style="normal" font-weight="normal" font-size="200px" font-family="Arial">
        H</text>
  <text x="0" y="0" stroke="none" fill="#000000" transform="matrix(0.0666667 0 0 0.0666667 172.844 192.306)" font-style="normal" font-weight="normal" font-size="150px" font-family="Arial">
        9</text>
  <path stroke="none" fill="var(--bonds)" transform="matrix(0.0666667 0 0 0.0666667 -155.467 -40)" d="M 4545.66,3091.24 L 4550.56,3086.34 L 4557.25,3088.13 L 4605.42,3267.89 L 4593.83,3271 L 4545.66,3091.24 Z "/>
  <text x="0" y="0" stroke="none" fill="#000000" transform="matrix(0.0666667 0 0 0.0666667 109.482 166.021)" font-style="normal" font-weight="normal" font-size="200px" font-family="Arial">
        H</text>
  <text x="0" y="0" stroke="none" fill="#000000" transform="matrix(0.0666667 0 0 0.0666667 119.111 168.954)" font-style="normal" font-weight="normal" font-size="150px" font-family="Arial">
        3</text>
  <text x="0" y="0" stroke="none" fill="var(--c)" transform="matrix(0.0666667 0 0 0.0666667 124.673 166.021)" font-style="normal" font-weight="normal" font-size="200px" font-family="Arial">
        C</text>
  <path stroke="none" fill="var(--bonds)" transform="matrix(0.0666667 0 0 0.0666667 -155.467 -40)" d="M 4548.77,3079.65 L 4550.56,3086.34 L 4545.66,3091.24 L 4372.27,3044.78 L 4375.37,3033.19 L 4548.77,3079.65 Z "/>
  <text x="0" y="0" stroke="none" fill="var(--c)" transform="matrix(0.0666667 0 0 0.0666667 188.437 189.373)" font-style="normal" font-weight="normal" font-size="200px" font-family="Arial">
        C</text>
  <text x="0" y="0" stroke="none" fill="var(--c)" transform="matrix(0.0666667 0 0 0.0666667 198.066 192.306)" font-style="normal" font-weight="normal" font-size="150px" font-family="Arial">
        4</text>
  <text x="0" y="0" stroke="none" fill="#000000" transform="matrix(0.0666667 0 0 0.0666667 203.627 189.373)" font-style="normal" font-weight="normal" font-size="200px" font-family="Arial">
        H</text>
  <text x="0" y="0" stroke="none" fill="#000000" transform="matrix(0.0666667 0 0 0.0666667 213.256 192.306)" font-style="normal" font-weight="normal" font-size="150px" font-family="Arial">
        9</text>
  <path stroke="none" fill="var(--bonds)" transform="matrix(0.0666667 0 0 0.0666667 -155.467 -40)" d="M 5498.15,3088.13 L 5504.84,3086.34 L 5509.74,3091.24 L 5459.75,3277.8 L 5448.16,3274.7 L 5498.15,3088.13 Z "/>
  <text x="0" y="0" stroke="none" fill="#000000" transform="matrix(0.0666667 0 0 0.0666667 225.125 166.021)" font-style="normal" font-weight="normal" font-size="200px" font-family="Arial">
        CH</text>
  <text x="0" y="0" stroke="none" fill="#000000" transform="matrix(0.0666667 0 0 0.0666667 244.383 168.954)" font-style="normal" font-weight="normal" font-size="150px" font-family="Arial">
        3</text>
  <path stroke="none" fill="var(--bonds)" transform="matrix(0.0666667 0 0 0.0666667 -155.467 -40)" d="M 5509.74,3091.24 L 5504.84,3086.34 L 5506.64,3079.65 L 5685.61,3031.69 L 5688.72,3043.28 L 5509.74,3091.24 Z "/>
  <text x="0" y="0" stroke="none" fill="var(--c)" transform="matrix(0.0666667 0 0 0.0666667 41.2049 109.727)" font-style="normal" font-weight="normal" font-size="200px" font-family="Arial">
        C</text>
  <text x="0" y="0" stroke="none" fill="var(--c)" transform="matrix(0.0666667 0 0 0.0666667 50.8338 112.66)" font-style="normal" font-weight="normal" font-size="150px" font-family="Arial">
        11</text>
  <text x="0" y="0" stroke="none" fill="#000000" transform="matrix(0.0666667 0 0 0.0666667 61.9569 109.727)" font-style="normal" font-weight="normal" font-size="200px" font-family="Arial">
        H</text>
  <text x="0" y="0" stroke="none" fill="#000000" transform="matrix(0.0666667 0 0 0.0666667 71.5858 112.66)" font-style="normal" font-weight="normal" font-size="150px" font-family="Arial">
        23</text>
  <path stroke="none" fill="var(--bonds)" transform="matrix(0.0666667 0 0 0.0666667 -155.467 -40)" d="M 3731.3,2352.77 L 3729.56,2359.27 L 3723.27,2361.69 L 3609.98,2259.68 L 3618.01,2250.76 L 3731.3,2352.77 Z "/>
  <text x="0" y="0" stroke="none" fill="var(--c)" transform="matrix(0.0666667 0 0 0.0666667 275.611 109.727)" font-style="normal" font-weight="normal" font-size="200px" font-family="Arial">
        C</text>
  <text x="0" y="0" stroke="none" fill="var(--c)" transform="matrix(0.0666667 0 0 0.0666667 285.24 112.66)" font-style="normal" font-weight="normal" font-size="150px" font-family="Arial">
        11</text>
  <text x="0" y="0" stroke="none" fill="#000000" transform="matrix(0.0666667 0 0 0.0666667 296.363 109.727)" font-style="normal" font-weight="normal" font-size="200px" font-family="Arial">
        H</text>
  <text x="0" y="0" stroke="none" fill="#000000" transform="matrix(0.0666667 0 0 0.0666667 305.992 112.66)" font-style="normal" font-weight="normal" font-size="150px" font-family="Arial">
        23</text>
  <path stroke="none" fill="var(--bonds)" transform="matrix(0.0666667 0 0 0.0666667 -155.467 -40)" d="M 6332.13,2361.69 L 6325.85,2359.27 L 6324.11,2352.77 L 6455.04,2234.88 L 6463.07,2243.79 L 6332.13,2361.69 Z "/>
  <text x="0" y="0" stroke="none" fill="var(--o)" transform="matrix(0.0666667 0 0 0.0666667 93.1513 185.044)" font-style="normal" font-weight="normal" font-size="200px" font-family="Arial">
        O</text>
  <path stroke="none" fill="var(--bonds)" transform="matrix(0.0666667 0 0 0.0666667 -155.467 -40)" d="M 3502.83,3271.52 L 3503.09,3259.52 L 3707.97,3263.83 L 3707.72,3275.83 L 3502.83,3271.52 Z "/>
  <path stroke="none" fill="var(--bonds)" transform="matrix(0.0666667 0 0 0.0666667 -155.467 -40)" d="M 3501.75,3322.99 L 3502,3310.99 L 3706.89,3315.3 L 3706.64,3327.29 L 3501.75,3322.99 Z "/>
  <text x="0" y="0" stroke="none" fill="var(--o)" transform="matrix(0.0666667 0 0 0.0666667 256.509 185.456)" font-style="normal" font-weight="normal" font-size="200px" font-family="Arial">
        O</text>
  <path stroke="none" fill="var(--bonds)" transform="matrix(0.0666667 0 0 0.0666667 -155.467 -40)" d="M 6562.65,3311.79 L 6563.11,3323.78 L 6358.73,3331.68 L 6358.27,3319.69 L 6562.65,3311.79 Z "/>
  <path stroke="none" fill="var(--bonds)" transform="matrix(0.0666667 0 0 0.0666667 -155.467 -40)" d="M 6560.66,3260.35 L 6561.13,3272.34 L 6356.74,3280.24 L 6356.28,3268.25 L 6560.66,3260.35 Z "/>
  <path stroke="none" fill="var(--bonds)" transform="matrix(0.0666667 0 0 0.0666667 -155.467 -40)" d="M 3085.3,3132.81 L 3084.11,3139.44 L 3078.04,3142.37 L 2855.44,2973.38 L 2856.31,2966.51 L 2862.7,2963.83 L 3085.3,3132.81 Z "/>
  <path stroke="none" fill="var(--bonds)" transform="matrix(0.0666667 0 0 0.0666667 -155.467 -40)" d="M 3035.72,3159.8 L 3028.46,3169.36 L 2845.23,3030.26 L 2852.48,3020.71 L 3035.72,3159.8 Z "/>
  <path stroke="none" fill="var(--bonds)" transform="matrix(0.0666667 0 0 0.0666667 -155.467 -40)" d="M 6983.57,3135.72 L 6977.46,3132.9 L 6976.15,3126.29 L 7195.9,2953.28 L 7202.17,2955.98 L 7202.99,2962.97 L 6983.57,3135.72 Z "/>
  <path stroke="none" fill="var(--bonds)" transform="matrix(0.0666667 0 0 0.0666667 -155.467 -40)" d="M 6969.93,3080.94 L 6962.51,3071.51 L 7144.65,2928.11 L 7152.08,2937.54 L 6969.93,3080.94 Z "/>
  <text x="0" y="0" stroke="none" fill="var(--c)" transform="matrix(0.0666667 0 0 0.0666667 2.93338 170.355)" font-style="normal" font-weight="normal" font-size="200px" font-family="Arial">
        C</text>
  <text x="0" y="0" stroke="none" fill="var(--n)" transform="matrix(0.0666667 0 0 0.0666667 12.5623 170.355)" font-style="normal" font-weight="normal" font-size="200px" font-family="Arial">
        N</text>
  <path stroke="none" fill="var(--bonds)" transform="matrix(0.0666667 0 0 0.0666667 -155.467 -40)" d="M 2850.79,2962.32 L 2856.31,2966.51 L 2855.44,2973.38 L 2693.72,3041.35 L 2689.07,3030.29 L 2850.79,2962.32 Z "/>
  <text x="0" y="0" stroke="none" fill="var(--n)" transform="matrix(0.0666667 0 0 0.0666667 32.5304 144.051)" font-style="normal" font-weight="normal" font-size="200px" font-family="Arial">
        N</text>
  <text x="0" y="0" stroke="none" fill="var(--c)" transform="matrix(0.0666667 0 0 0.0666667 42.1593 144.051)" font-style="normal" font-weight="normal" font-size="200px" font-family="Arial">
        C</text>
  <path stroke="none" fill="var(--bonds)" transform="matrix(0.0666667 0 0 0.0666667 -155.467 -40)" d="M 2862.7,2963.83 L 2856.31,2966.51 L 2850.79,2962.32 L 2872.28,2792.34 L 2884.18,2793.84 L 2862.7,2963.83 Z "/>
  <text x="0" y="0" stroke="none" fill="var(--c)" transform="matrix(0.0666667 0 0 0.0666667 308.502 143.278)" font-style="normal" font-weight="normal" font-size="200px" font-family="Arial">
        C</text>
  <text x="0" y="0" stroke="none" fill="var(--n)" transform="matrix(0.0666667 0 0 0.0666667 318.131 143.278)" font-style="normal" font-weight="normal" font-size="200px" font-family="Arial">
        N</text>
  <path stroke="none" fill="var(--bonds)" transform="matrix(0.0666667 0 0 0.0666667 -155.467 -40)" d="M 7207.83,2951.99 L 7202.17,2955.98 L 7195.9,2953.28 L 7180.34,2782.75 L 7192.29,2781.66 L 7207.83,2951.99 Z "/>
  <text x="0" y="0" stroke="none" fill="var(--n)" transform="matrix(0.0666667 0 0 0.0666667 337.174 170.259)" font-style="normal" font-weight="normal" font-size="200px" font-family="Arial">
        N</text>
  <text x="0" y="0" stroke="none" fill="var(--c)" transform="matrix(0.0666667 0 0 0.0666667 346.803 170.259)" font-style="normal" font-weight="normal" font-size="200px" font-family="Arial">
        C</text>
  <path stroke="none" fill="var(--bonds)" transform="matrix(0.0666667 0 0 0.0666667 -155.467 -40)" d="M 7202.99,2962.97 L 7202.17,2955.98 L 7207.83,2951.99 L 7365.29,3024.7 L 7360.26,3035.59 L 7202.99,2962.97 Z "/>
  <path stroke="none" fill="var(--bonds)" transform="matrix(0.0666667 0 0 0.0666667 -155.467 -40)" d="M 5033.7,1361.51 L 5021.7,1361.51 L 5021.7,1173.81 L 5033.7,1166.88 L 5033.7,1361.51 Z "/>
  <path stroke="none" fill="var(--bonds)" transform="matrix(0.0666667 0 0 0.0666667 -155.467 -40)" d="M 5033.7,1166.88 L 5021.7,1173.81 L 4780.02,1034.27 L 4780.02,1027.34 L 4786.02,1023.88 L 5033.7,1166.88 Z "/>
  <text x="0" y="0" stroke="none" fill="var(--c)" transform="matrix(0.0666667 0 0 0.0666667 158.387 14.6228)" font-style="normal" font-weight="normal" font-size="200px" font-family="Arial">
        C</text>
  <text x="0" y="0" stroke="none" fill="var(--c)" transform="matrix(0.0666667 0 0 0.0666667 168.016 17.5561)" font-style="normal" font-weight="normal" font-size="150px" font-family="Arial">
        4</text>
  <text x="0" y="0" stroke="none" fill="#000000" transform="matrix(0.0666667 0 0 0.0666667 173.577 14.6228)" font-style="normal" font-weight="normal" font-size="200px" font-family="Arial">
        H</text>
  <text x="0" y="0" stroke="none" fill="#000000" transform="matrix(0.0666667 0 0 0.0666667 183.206 17.5561)" font-style="normal" font-weight="normal" font-size="150px" font-family="Arial">
        9</text>
  <path stroke="none" fill="var(--bonds)" transform="matrix(0.0666667 0 0 0.0666667 -155.467 -40)" d="M 4786.02,1023.88 L 4780.02,1027.34 L 4774.02,1023.88 L 4774.02,870.175 L 4786.02,870.175 L 4786.02,1023.88 Z "/>
  <text x="0" y="0" stroke="none" fill="var(--c)" transform="matrix(0.0666667 0 0 0.0666667 120.016 43.2228)" font-style="normal" font-weight="normal" font-size="200px" font-family="Arial">
        C</text>
  <text x="0" y="0" stroke="none" fill="var(--c)" transform="matrix(0.0666667 0 0 0.0666667 129.645 46.1561)" font-style="normal" font-weight="normal" font-size="150px" font-family="Arial">
        2</text>
  <text x="0" y="0" stroke="none" fill="#000000" transform="matrix(0.0666667 0 0 0.0666667 135.206 43.2228)" font-style="normal" font-weight="normal" font-size="200px" font-family="Arial">
        H</text>
  <text x="0" y="0" stroke="none" fill="#000000" transform="matrix(0.0666667 0 0 0.0666667 144.835 46.1561)" font-style="normal" font-weight="normal" font-size="150px" font-family="Arial">
        5</text>
  <path stroke="none" fill="var(--bonds)" transform="matrix(0.0666667 0 0 0.0666667 -155.467 -40)" d="M 4774.02,1023.88 L 4780.02,1027.34 L 4780.02,1034.27 L 4588.25,1144.99 L 4582.25,1134.59 L 4774.02,1023.88 Z "/>
</svg>
